<?xml version="1.0" encoding="UTF-8"?>
<svg version="1.1" xmlns="http://www.w3.org/2000/svg" width="512" height="512">
<path d="M0 0 C0.7009986 -0.00579339 1.40199721 -0.01158677 2.12423819 -0.01755571 C4.46698944 -0.03555534 6.80971681 -0.04646908 9.1525116 -0.05725098 C10.83483088 -0.06843173 12.51714798 -0.07994522 14.19946289 -0.09176636 C19.71787949 -0.12825188 25.23631855 -0.15352899 30.75480652 -0.1763916 C31.69447447 -0.18033747 32.63414241 -0.18428333 33.60228515 -0.18834877 C42.46716426 -0.22475422 51.33205146 -0.25618807 60.19698048 -0.27745819 C71.52606461 -0.30504599 82.85452369 -0.35585807 94.18334752 -0.43793249 C102.15547567 -0.49373021 110.12743417 -0.5226947 118.0997507 -0.5319314 C122.85883716 -0.5381859 127.61718956 -0.556282 132.37606239 -0.60331726 C136.85380484 -0.64702907 141.33041286 -0.65745861 145.80833244 -0.64268875 C147.44822075 -0.64301701 149.08815832 -0.65526284 150.72785187 -0.68053818 C164.65046392 -0.88376363 164.65046392 -0.88376363 169.42843628 3.34092712 C170.59813402 4.61189552 171.76302866 5.88730321 172.92277527 7.1673584 C174.26443019 8.20109435 175.63698102 9.19582771 177.03581238 10.15077209 C178.09991113 10.88707855 178.09991113 10.88707855 179.18550682 11.63825989 C180.30648986 12.41172005 180.30648986 12.41172005 181.45011902 13.20080566 C193.11207248 21.44284191 204.15584202 30.35253208 214.92277527 39.7298584 C215.89702705 40.57798096 216.87127884 41.42610352 217.87505341 42.29992676 C244.23520695 65.64121769 259.03538743 88.14828206 261.25440216 123.81556511 C262.07647145 139.28509801 261.9000653 154.69416665 261.29777527 170.1673584 C261.26578537 171.02559912 261.23379547 171.88383985 261.20083618 172.76808786 C260.51216448 191.00808492 259.38138666 209.20919163 257.58049011 227.37438965 C257.4610907 228.63598184 257.34169128 229.89757402 257.21867371 231.19739628 C257.09438995 232.34353114 256.9701062 233.489666 256.84205627 234.67053223 C256.68450143 236.16390862 256.68450143 236.16390862 256.52376366 237.68745422 C255.85301394 240.4552199 255.21226206 241.50670615 252.92277527 243.1673584 C250.23527527 243.3548584 250.23527527 243.3548584 247.92277527 243.1673584 C247.47303692 252.25629604 247.47303692 252.25629604 250.52433777 260.47595215 C252.57953288 262.19390482 254.69052812 263.68854476 256.92277527 265.1673584 C271.30987021 277.14072439 279.4920498 297.00202614 281.92277527 315.1673584 C283.42560743 340.31940991 276.89607001 360.26966015 262.92277527 381.1673584 C263.63933289 381.8786792 264.3558905 382.59 265.09416199 383.32287598 C267.75425657 385.96485834 270.4110304 388.61015872 273.06681824 391.25646973 C274.21630622 392.40093174 275.3666905 393.54449425 276.51799011 394.68713379 C278.17351963 396.33052181 279.82578959 397.977127 281.47746277 399.62438965 C282.24943497 400.38861992 282.24943497 400.38861992 283.03700256 401.16828918 C288.75972214 406.89010891 288.75972214 406.89010891 289.29777527 411.1048584 C288.92277527 414.1673584 288.92277527 414.1673584 287.29777527 416.5423584 C284.15201838 418.69471837 282.69141012 418.69835979 278.92277527 418.1673584 C276.5630214 416.33153524 274.68061769 414.62811466 272.64933777 412.4798584 C272.08073029 411.90276123 271.5121228 411.32566406 270.92628479 410.7310791 C269.1188479 408.89013717 267.33341669 407.02942432 265.54777527 405.1673584 C264.32391047 403.9133906 263.0986644 402.66076933 261.87199402 401.4095459 C258.87268733 398.34419344 255.89294418 395.26094153 252.92277527 392.1673584 C249.45691008 393.85725689 246.29225057 395.8298905 243.04777527 397.9173584 C223.31364229 410.22699033 201.25255601 414.45600268 178.36027527 409.9798584 C167.34751086 407.15775548 153.58105166 403.00812817 145.43522644 394.63903809 C140.96367695 390.1074361 137.42694909 389.44442373 131.13175964 389.2845459 C130.0934198 389.28712402 129.05507996 389.28970215 127.98527527 389.2923584 C126.38716003 389.2614209 126.38716003 389.2614209 124.75675964 389.2298584 C122.14464374 389.1830043 119.53522311 389.16289431 116.92277527 389.1673584 C116.63402527 389.9717334 116.34527527 390.7761084 116.04777527 391.6048584 C114.92277527 394.1673584 114.92277527 394.1673584 112.92277527 395.1673584 C111.3281041 395.26842029 109.72927555 395.30678959 108.13142395 395.31452942 C107.11948975 395.32168472 106.10755554 395.32884003 105.06495667 395.33621216 C103.95020966 395.33890106 102.83546265 395.34158997 101.68693542 395.34436035 C99.9305072 395.35421715 99.9305072 395.35421715 98.13859558 395.36427307 C94.24634965 395.38405181 90.35411721 395.39568502 86.46183777 395.40563965 C85.11925104 395.40968817 83.77666452 395.41380513 82.43407822 395.41798973 C76.11866943 395.43705439 69.80327234 395.4512762 63.48784029 395.4596017 C56.21831698 395.46934439 48.94910057 395.49558007 41.67968524 395.53610259 C36.05062672 395.5663932 30.42165542 395.58108321 24.79251707 395.58438271 C21.43623853 395.58672087 18.08054575 395.59752569 14.72430801 395.62084389 C10.96681461 395.64531555 7.21010991 395.64425439 3.45256042 395.6373291 C1.81080338 395.65654419 1.81080338 395.65654419 0.13587952 395.67614746 C-12.90749788 395.58907122 -23.57704054 391.21342988 -33.07722473 382.28845215 C-44.52274703 370.07825056 -45.39373798 356.08360808 -45.37800598 340.2064209 C-45.38189837 338.56737155 -45.38623416 336.92832319 -45.39099121 335.28927612 C-45.39841628 331.87181304 -45.39818678 328.45445339 -45.39289856 325.0369873 C-45.38707222 320.65537855 -45.40412843 316.27418818 -45.42724323 311.8926487 C-45.44195128 308.51607792 -45.44285693 305.13960906 -45.43973351 301.76301193 C-45.440247 300.14665261 -45.44548997 298.53028763 -45.45554543 296.9139595 C-45.46785231 294.66171842 -45.46115653 292.41030834 -45.44953918 290.15808105 C-45.45016861 288.87728668 -45.45079803 287.59649231 -45.45144653 286.27688599 C-45.07722473 283.1673584 -45.07722473 283.1673584 -43.74145508 281.23043823 C-42.07722473 280.1673584 -42.07722473 280.1673584 -39.07722473 280.1673584 C-39.07722473 276.8673584 -39.07722473 273.5673584 -39.07722473 270.1673584 C-40.39722473 269.8373584 -41.71722473 269.5073584 -43.07722473 269.1673584 C-45.3900506 265.69811959 -45.50201059 264.24530265 -45.07722473 260.1673584 C-43.76472473 258.2923584 -43.76472473 258.2923584 -42.07722473 257.1673584 C-41.08722473 257.1673584 -40.09722473 257.1673584 -39.07722473 257.1673584 C-39.07722473 252.8773584 -39.07722473 248.5873584 -39.07722473 244.1673584 C-40.72722473 243.5073584 -42.37722473 242.8473584 -44.07722473 242.1673584 C-45.63229043 239.05722701 -45.22521185 235.75975741 -45.22439575 232.34562683 C-45.22807244 231.52821276 -45.23174913 230.71079869 -45.23553723 229.86861449 C-45.24660107 227.11361597 -45.25042258 224.35865514 -45.25422668 221.6036377 C-45.26048964 219.63431172 -45.26713629 217.66498693 -45.2741394 215.69566345 C-45.29157257 210.33144784 -45.30210894 204.96724116 -45.31034493 199.60300422 C-45.31549354 196.24968101 -45.32156955 192.89636057 -45.32785606 189.54303932 C-45.34692045 179.04637431 -45.36114509 168.54971635 -45.36946803 158.05303735 C-45.37922542 145.94722614 -45.40550056 133.84159851 -45.44596893 121.73585194 C-45.4761829 112.37517479 -45.49094219 103.01455006 -45.49424905 93.6538251 C-45.49659483 88.06589899 -45.50549293 82.4781687 -45.53071022 76.89029503 C-45.55408622 71.6248561 -45.55818593 66.35974056 -45.54794884 61.09426308 C-45.54745557 59.16947984 -45.55371386 57.24468018 -45.56750488 55.31994629 C-45.66220109 41.31084023 -44.78669531 28.82464979 -36.07722473 17.1673584 C-35.33472473 16.1361084 -34.59222473 15.1048584 -33.82722473 14.0423584 C-24.78874919 4.59304306 -12.91358581 0.08417443 0 0 Z M168.92277527 24.1673584 C168.84641329 30.85673674 168.7940448 37.54600173 168.75798035 44.23571777 C168.74293811 46.50919801 168.72249924 48.78264944 168.69645691 51.05603027 C168.65987306 54.33279551 168.64300279 57.60917546 168.62980652 60.8861084 C168.61432266 61.89475952 168.59883881 62.90341064 168.58288574 63.94262695 C168.58128548 70.72517726 169.14360105 76.76915698 173.60636902 82.22595215 C174.18515808 82.68099121 174.76394714 83.13603027 175.36027527 83.6048584 C175.93648621 84.07794434 176.51269714 84.55103027 177.10636902 85.03845215 C180.53619356 87.17010654 183.90799916 87.29110782 187.87492371 87.28088379 C188.85563843 87.28080826 189.83635315 87.28073273 190.8467865 87.28065491 C191.89795654 87.27549362 192.94912659 87.27033234 194.03215027 87.26501465 C195.11409668 87.2635997 196.19604309 87.26218475 197.31077576 87.26072693 C200.76480377 87.25513158 204.21876686 87.2425799 207.67277527 87.2298584 C210.01522225 87.2248428 212.35767025 87.22028 214.70011902 87.21618652 C220.44102657 87.20516367 226.18189628 87.18843014 231.92277527 87.1673584 C226.12373338 80.07220394 219.59975695 73.69917219 213.12199402 67.23376465 C211.87728518 65.98838143 210.63272476 64.74284986 209.38830566 63.49717712 C206.79358732 60.9009914 204.19708587 58.3066061 201.59928894 55.71350098 C198.26222858 52.38217317 194.92972569 49.04632783 191.5985136 45.70915318 C189.036234 43.14327237 186.47159284 40.57976272 183.90621376 38.01698112 C182.67542338 36.78685939 181.44537971 35.55599008 180.21608543 34.32437325 C178.50702701 32.6127917 176.79482491 30.9044203 175.08171082 29.19689941 C174.571091 28.68425537 174.06047119 28.17161133 173.53437805 27.64343262 C171.56719685 25.22595819 171.56719685 25.22595819 168.92277527 24.1673584 Z " fill="#F8C800" transform="translate(134.0772247314453,46.8326416015625)"/>
<path d="M0 0 C16.73250278 13.61207861 27.14929065 33.69603815 30 55 C31.50283217 80.15205151 24.97329474 100.10230175 11 121 C11.71655762 121.7113208 12.43311523 122.4226416 13.17138672 123.15551758 C15.8314813 125.79749994 18.48825513 128.44280033 21.14404297 131.08911133 C22.29353095 132.23357334 23.44391523 133.37713585 24.59521484 134.51977539 C26.25074437 136.16316341 27.90301432 137.8097686 29.5546875 139.45703125 C30.3266597 140.22126152 30.3266597 140.22126152 31.11422729 141.00093079 C36.83694687 146.72275051 36.83694687 146.72275051 37.375 150.9375 C37 154 37 154 35.375 156.375 C32.22924312 158.52735997 30.76863485 158.53100139 27 158 C24.64024613 156.16417684 22.75784242 154.46075626 20.7265625 152.3125 C20.15795502 151.73540283 19.58934753 151.15830566 19.00350952 150.5637207 C17.19607263 148.72277877 15.41064143 146.86206592 13.625 145 C12.4011352 143.7460322 11.17588913 142.49341093 9.94921875 141.2421875 C6.94991206 138.17683504 3.97016891 135.09358313 1 132 C-2.46586519 133.68989849 -5.63052469 135.6625321 -8.875 137.75 C-28.60913298 150.05963193 -50.67021925 154.28864428 -73.5625 149.8125 C-97.66511381 143.63602566 -114.48021211 130.56880154 -128 110 C-139.9740573 89.21744079 -143.28905631 66.41953905 -137.25390625 43.25390625 C-131.13831553 21.72102268 -116.9224241 3.26759671 -97.59765625 -8.06640625 C-65.96620057 -25.55308322 -28.52051999 -21.55488782 0 0 Z " fill="#13BAE1" transform="translate(386,307)"/>
<path d="M0 0 C0.7009986 -0.00579339 1.40199721 -0.01158677 2.12423819 -0.01755571 C4.46698944 -0.03555534 6.80971681 -0.04646908 9.1525116 -0.05725098 C10.83483088 -0.06843173 12.51714798 -0.07994522 14.19946289 -0.09176636 C19.71787949 -0.12825188 25.23631855 -0.15352899 30.75480652 -0.1763916 C31.69447447 -0.18033747 32.63414241 -0.18428333 33.60228515 -0.18834877 C42.46716426 -0.22475422 51.33205146 -0.25618807 60.19698048 -0.27745819 C71.52606461 -0.30504599 82.85452369 -0.35585807 94.18334752 -0.43793249 C102.15547567 -0.49373021 110.12743417 -0.5226947 118.0997507 -0.5319314 C122.85883716 -0.5381859 127.61718956 -0.556282 132.37606239 -0.60331726 C136.85380484 -0.64702907 141.33041286 -0.65745861 145.80833244 -0.64268875 C147.44822075 -0.64301701 149.08815832 -0.65526284 150.72785187 -0.68053818 C164.65046392 -0.88376363 164.65046392 -0.88376363 169.42843628 3.34092712 C170.59813402 4.61189552 171.76302866 5.88730321 172.92277527 7.1673584 C174.26443019 8.20109435 175.63698102 9.19582771 177.03581238 10.15077209 C178.09991113 10.88707855 178.09991113 10.88707855 179.18550682 11.63825989 C180.30648986 12.41172005 180.30648986 12.41172005 181.45011902 13.20080566 C193.11207248 21.44284191 204.15584202 30.35253208 214.92277527 39.7298584 C215.89702705 40.57798096 216.87127884 41.42610352 217.87505341 42.29992676 C244.23520695 65.64121769 259.03538743 88.14828206 261.25440216 123.81556511 C262.07647145 139.28509801 261.9000653 154.69416665 261.29777527 170.1673584 C261.26578537 171.02559912 261.23379547 171.88383985 261.20083618 172.76808786 C260.51216448 191.00808492 259.38138666 209.20919163 257.58049011 227.37438965 C257.4610907 228.63598184 257.34169128 229.89757402 257.21867371 231.19739628 C257.09438995 232.34353114 256.9701062 233.489666 256.84205627 234.67053223 C256.68450143 236.16390862 256.68450143 236.16390862 256.52376366 237.68745422 C255.85094937 240.46373907 255.21533503 241.49842685 252.92277527 243.1673584 C249.98527527 243.6048584 249.98527527 243.6048584 246.92277527 243.1673584 C244.22008471 241.08224114 243.05785403 239.89820334 242.43058395 236.50435257 C242.43427113 235.48300594 242.4379583 234.46165932 242.4417572 233.40936279 C242.43350922 231.64676369 242.43350922 231.64676369 242.4250946 229.84855652 C242.44666626 227.92049919 242.44666626 227.92049919 242.46867371 225.95349121 C242.46980225 224.58346083 242.46916819 223.21342802 242.46690369 221.84339905 C242.46575585 218.12660025 242.48927576 214.41031762 242.51719952 210.6936388 C242.54220194 206.80858285 242.54455424 202.92351511 242.54930115 199.03839111 C242.56173438 191.68251377 242.59456054 184.32687417 242.63469911 176.97110152 C242.67940613 168.59635285 242.70140114 160.22159284 242.72148085 151.84675455 C242.76329298 134.62015164 242.83365163 117.39378016 242.92277527 100.1673584 C241.75005821 100.18068207 241.75005821 100.18068207 240.5536499 100.1942749 C233.1542677 100.27471428 225.75510012 100.33547073 218.35539341 100.37460709 C214.55189795 100.39540458 210.74876642 100.42357647 206.94548035 100.46911621 C203.26905726 100.51285705 199.59298229 100.53655432 195.91631889 100.54686737 C194.5197852 100.55420854 193.12326868 100.56854323 191.72688484 100.59027863 C180.65535263 100.75562164 172.06660306 99.30927068 163.91853333 91.40496826 C156.12203653 82.66366915 155.07064887 73.2632036 155.33683777 61.9954834 C155.34806087 60.57775693 155.35658629 59.16000682 155.36256409 57.74224854 C155.38521915 54.05262338 155.44392964 50.36446848 155.51078796 46.67541504 C155.57272342 42.89428587 155.59968711 39.11291364 155.62980652 35.3314209 C155.69370515 27.9427376 155.79578828 20.55525579 155.92277527 13.1673584 C135.00772741 13.1811885 114.09290824 13.2235317 93.17798996 13.29944897 C83.46593994 13.33404334 73.75403103 13.35944719 64.04191589 13.36291504 C55.5728863 13.36596267 47.10410839 13.38656024 38.63517594 13.42788297 C34.15444032 13.44914235 29.67406187 13.46185011 25.19327545 13.45351219 C20.96759977 13.44592704 16.74264511 13.46197415 12.51710129 13.49541855 C10.97410837 13.50359844 9.43104301 13.50346541 7.88805771 13.49395561 C-3.25323078 13.4321394 -11.93255189 15.29849031 -21.45222473 21.2923584 C-28.56335153 29.08073536 -31.22959327 36.94608711 -31.21525574 47.25892639 C-31.21807702 48.08102142 -31.2208983 48.90311644 -31.22380507 49.75012344 C-31.23214693 52.50843329 -31.23348894 55.26670298 -31.23493958 58.02502441 C-31.23960793 60.0010184 -31.24475153 61.97701132 -31.25033569 63.95300293 C-31.2616146 68.20965537 -31.27004963 72.46630082 -31.27645493 76.72296333 C-31.28712818 83.44932292 -31.30736958 90.1756321 -31.32957458 96.90196228 C-31.39152692 116.0293854 -31.44556812 135.1568052 -31.47859192 154.28430176 C-31.49690859 164.84696691 -31.52580366 175.40954735 -31.56659663 185.97215027 C-31.58770952 191.56413809 -31.60313001 197.15601899 -31.6054039 202.74804878 C-31.60754361 208.00363569 -31.6233433 213.25899965 -31.64979362 218.51451874 C-31.65701295 220.44670573 -31.65907493 222.37891966 -31.65569115 224.31111717 C-31.65181869 226.94193645 -31.66617801 229.5720358 -31.68522644 232.20277405 C-31.67969674 232.97338765 -31.67416705 233.74400126 -31.66846979 234.53796679 C-31.73293408 239.66945186 -31.73293408 239.66945186 -33.41813087 242.10655117 C-36.00814517 243.76257917 -38.01785953 244.10492237 -41.07722473 244.1673584 C-43.23688507 242.67515469 -43.23688507 242.67515469 -45.07722473 240.1673584 C-45.47009895 237.34930823 -45.61799616 234.92203768 -45.5851593 232.1051178 C-45.59139926 231.28599488 -45.59763923 230.46687196 -45.60406828 229.62292713 C-45.62004237 226.87385556 -45.60737654 224.1256653 -45.59480286 221.37658691 C-45.6002224 219.40696189 -45.60734411 217.43734093 -45.61604309 215.46772766 C-45.63431007 210.11178987 -45.62719209 204.75615965 -45.61452675 199.40021634 C-45.60440378 193.79019415 -45.61379167 188.1801984 -45.62007141 182.57017517 C-45.62735526 173.13873573 -45.6177464 163.70742142 -45.59870911 154.27600098 C-45.57699575 143.39361628 -45.58394847 132.511532 -45.60601473 121.62915474 C-45.62421559 112.27690529 -45.62670248 102.9247459 -45.61626005 93.57248443 C-45.61004353 87.99132782 -45.60913752 82.41031192 -45.62240601 76.82916451 C-45.63403003 71.57186034 -45.62581972 66.31493944 -45.60282898 61.05767632 C-45.59757427 59.13613392 -45.5989996 57.21455885 -45.60787964 55.29302979 C-45.66652012 41.30520686 -44.77157011 28.8044053 -36.07722473 17.1673584 C-35.33472473 16.1361084 -34.59222473 15.1048584 -33.82722473 14.0423584 C-24.78874919 4.59304306 -12.91358581 0.08417443 0 0 Z M168.92277527 24.1673584 C168.84641329 30.85673674 168.7940448 37.54600173 168.75798035 44.23571777 C168.74293811 46.50919801 168.72249924 48.78264944 168.69645691 51.05603027 C168.65987306 54.33279551 168.64300279 57.60917546 168.62980652 60.8861084 C168.61432266 61.89475952 168.59883881 62.90341064 168.58288574 63.94262695 C168.58128548 70.72517726 169.14360105 76.76915698 173.60636902 82.22595215 C174.18515808 82.68099121 174.76394714 83.13603027 175.36027527 83.6048584 C175.93648621 84.07794434 176.51269714 84.55103027 177.10636902 85.03845215 C180.53619356 87.17010654 183.90799916 87.29110782 187.87492371 87.28088379 C188.85563843 87.28080826 189.83635315 87.28073273 190.8467865 87.28065491 C191.89795654 87.27549362 192.94912659 87.27033234 194.03215027 87.26501465 C195.11409668 87.2635997 196.19604309 87.26218475 197.31077576 87.26072693 C200.76480377 87.25513158 204.21876686 87.2425799 207.67277527 87.2298584 C210.01522225 87.2248428 212.35767025 87.22028 214.70011902 87.21618652 C220.44102657 87.20516367 226.18189628 87.18843014 231.92277527 87.1673584 C226.12373338 80.07220394 219.59975695 73.69917219 213.12199402 67.23376465 C211.87728518 65.98838143 210.63272476 64.74284986 209.38830566 63.49717712 C206.79358732 60.9009914 204.19708587 58.3066061 201.59928894 55.71350098 C198.26222858 52.38217317 194.92972569 49.04632783 191.5985136 45.70915318 C189.036234 43.14327237 186.47159284 40.57976272 183.90621376 38.01698112 C182.67542338 36.78685939 181.44537971 35.55599008 180.21608543 34.32437325 C178.50702701 32.6127917 176.79482491 30.9044203 175.08171082 29.19689941 C174.571091 28.68425537 174.06047119 28.17161133 173.53437805 27.64343262 C171.56719685 25.22595819 171.56719685 25.22595819 168.92277527 24.1673584 Z " fill="#353534" transform="translate(134.0772247314453,46.8326416015625)"/>
<path d="M0 0 C16.73250278 13.61207861 27.14929065 33.69603815 30 55 C31.50283217 80.15205151 24.97329474 100.10230175 11 121 C11.71655762 121.7113208 12.43311523 122.4226416 13.17138672 123.15551758 C15.8314813 125.79749994 18.48825513 128.44280033 21.14404297 131.08911133 C22.29353095 132.23357334 23.44391523 133.37713585 24.59521484 134.51977539 C26.25074437 136.16316341 27.90301432 137.8097686 29.5546875 139.45703125 C30.3266597 140.22126152 30.3266597 140.22126152 31.11422729 141.00093079 C36.83694687 146.72275051 36.83694687 146.72275051 37.375 150.9375 C37 154 37 154 35.375 156.375 C32.22924312 158.52735997 30.76863485 158.53100139 27 158 C24.64024613 156.16417684 22.75784242 154.46075626 20.7265625 152.3125 C20.15795502 151.73540283 19.58934753 151.15830566 19.00350952 150.5637207 C17.19607263 148.72277877 15.41064143 146.86206592 13.625 145 C12.4011352 143.7460322 11.17588913 142.49341093 9.94921875 141.2421875 C6.94991206 138.17683504 3.97016891 135.09358313 1 132 C-2.46586519 133.68989849 -5.63052469 135.6625321 -8.875 137.75 C-28.60913298 150.05963193 -50.67021925 154.28864428 -73.5625 149.8125 C-97.66511381 143.63602566 -114.48021211 130.56880154 -128 110 C-139.9740573 89.21744079 -143.28905631 66.41953905 -137.25390625 43.25390625 C-131.13831553 21.72102268 -116.9224241 3.26759671 -97.59765625 -8.06640625 C-65.96620057 -25.55308322 -28.52051999 -21.55488782 0 0 Z M-80 -2 C-80.64130859 -1.73687012 -81.28261719 -1.47374023 -81.94335938 -1.20263672 C-92.35692518 3.19946155 -100.18258225 8.89438252 -108 17 C-108.66386719 17.63292969 -109.32773437 18.26585937 -110.01171875 18.91796875 C-121.49229628 30.60493868 -127.30673794 48.89464378 -127.5 64.875 C-127.26421472 84.43044151 -120.62918285 102.5655784 -106.63671875 116.45703125 C-105.76660156 117.29621094 -104.89648438 118.13539063 -104 119 C-103.36707031 119.66386719 -102.73414063 120.32773437 -102.08203125 121.01171875 C-89.06193758 133.80187699 -69.38657427 138.29739043 -51.76245117 138.31469727 C-35.24737197 138.01609361 -19.24578318 130.95675337 -7 120 C-6.25234375 119.34515625 -5.5046875 118.6903125 -4.734375 118.015625 C8.4686169 105.71079581 15.96263487 88.97639237 17.2890625 71.10546875 C17.7193552 51.17509346 12.6763356 33.0177246 -1 18 C-1.67675781 17.24332031 -2.35351562 16.48664063 -3.05078125 15.70703125 C-11.54909828 6.69549436 -21.43657335 1.2090873 -33 -3 C-33.80179687 -3.32097656 -34.60359375 -3.64195312 -35.4296875 -3.97265625 C-49.19991024 -8.70204585 -66.67178445 -7.47076755 -80 -2 Z " fill="#353635" transform="translate(386,307)"/>
<path d="M0 0 C2.16026306 1.09799194 2.16026306 1.09799194 4 3 C4.49879456 6.03359985 4.49879456 6.03359985 4.49829102 9.80712891 C4.50380981 10.49536743 4.50932861 11.18360596 4.51501465 11.8927002 C4.52433835 13.38717421 4.52443666 14.88172766 4.51642036 16.37620926 C4.5037896 18.74847178 4.51508253 21.11957051 4.53245544 23.49179077 C4.55919763 27.68055033 4.56475037 31.86902565 4.56335449 36.05786133 C4.56113006 42.74067696 4.57548374 49.4231373 4.61894035 56.10581589 C4.62871325 58.43065079 4.62009138 60.75491985 4.61024475 63.07974243 C4.6276598 74.50331572 6.25068684 84.07654848 14 93 C22.36830091 100.01857496 29.99416616 101.29606372 40.64916992 101.27124023 C42.39889854 101.27908035 42.39889854 101.27908035 44.18397522 101.28707886 C46.71136825 101.2973047 49.23878226 101.30309679 51.7661953 101.30496025 C55.76236398 101.30862298 59.75836498 101.32499013 63.75447083 101.34571838 C73.67503132 101.39481427 83.59563806 101.42582641 93.51629639 101.44702148 C101.23688099 101.46353642 108.95731698 101.48630614 116.67780191 101.53004223 C119.99949622 101.54826132 123.32093972 101.5586185 126.64269066 101.55874443 C130.34165548 101.55893558 134.04012537 101.57713466 137.73901367 101.59936523 C139.39182846 101.59249947 139.39182846 101.59249947 141.07803345 101.585495 C142.08318497 101.59514282 143.08833649 101.60479065 144.12394714 101.61473083 C145.4354916 101.61774783 145.4354916 101.61774783 146.77353191 101.62082577 C149.49671231 102.0845916 150.35151929 102.81816137 152 105 C152.9375 107.9375 152.9375 107.9375 153 111 C151.03327466 113.52583995 149.80468493 114.82865844 146.63600922 115.50336456 C145.75561226 115.50487267 144.8752153 115.50638077 143.96813965 115.50793457 C142.95345612 115.51921387 141.93877258 115.53049316 140.89334106 115.54211426 C139.78578461 115.53401733 138.67822815 115.52592041 137.53710938 115.51757812 C135.78024307 115.52809204 135.78024307 115.52809204 133.98788452 115.53881836 C130.77645127 115.55341113 127.56567715 115.54998105 124.35425377 115.53730202 C120.98326637 115.52715467 117.61232219 115.53657425 114.24133301 115.54284668 C108.57194151 115.55012609 102.9027583 115.54053626 97.23339844 115.52148438 C90.70549857 115.49979876 84.1781001 115.5067046 77.65021276 115.52879 C72.02956569 115.54703659 66.4090683 115.54945497 60.78840113 115.53903532 C57.43893304 115.53283991 54.08988559 115.53345214 50.74040222 115.54518127 C46.99261425 115.55541787 43.24576552 115.53974097 39.49804688 115.51757812 C38.40668427 115.52567505 37.31532166 115.53377197 36.19088745 115.54211426 C23.16246133 115.40043906 12.49300034 111.03932258 3 102.12109375 C-8.4455223 89.91089216 -9.31651325 75.91624968 -9.30078125 60.0390625 C-9.30467364 58.40001315 -9.30900942 56.7609648 -9.31376648 55.12191772 C-9.32119155 51.70445464 -9.32096205 48.28709499 -9.31567383 44.86962891 C-9.30984749 40.48802015 -9.3269037 36.10682978 -9.3500185 31.7252903 C-9.36472655 28.34871953 -9.36563219 24.97225066 -9.36250877 21.59565353 C-9.36302226 19.97929421 -9.36826524 18.36292923 -9.37832069 16.7466011 C-9.39062757 14.49436002 -9.3839318 12.24294994 -9.37231445 9.99072266 C-9.37294388 8.70992828 -9.3735733 7.42913391 -9.3742218 6.10952759 C-9 3 -9 3 -7.6603241 1.08651733 C-5.04095937 -0.62759691 -3.04825511 -0.37325573 0 0 Z " fill="#353534" transform="translate(98,327)"/>
<path d="M0 0 C1.01783066 -0.0112793 2.03566132 -0.02255859 3.08433533 -0.03417969 C4.75049644 -0.0220343 4.75049644 -0.0220343 6.45031738 -0.00964355 C7.62465836 -0.01665283 8.79899933 -0.02366211 10.00892639 -0.03088379 C13.22602047 -0.04547028 16.44245602 -0.04205486 19.65954018 -0.02936745 C23.02759806 -0.01923384 26.39561225 -0.02863411 29.76367188 -0.03491211 C35.41955452 -0.04218752 41.07522819 -0.03260382 46.7310791 -0.0135498 C53.26822581 0.00821901 59.8048735 0.00116755 66.34200811 -0.02085543 C71.9565856 -0.03901267 77.57101293 -0.04156625 83.18561029 -0.03110075 C86.53812495 -0.02486749 89.89040511 -0.02402524 93.24290466 -0.0372467 C96.98035631 -0.04738249 100.71684396 -0.03195082 104.45422363 -0.00964355 C105.56499771 -0.01774048 106.67577179 -0.0258374 107.82020569 -0.03417969 C109.34695168 -0.01726074 109.34695168 -0.01726074 110.90454102 0 C112.22966076 0.00226215 112.22966076 0.00226215 113.5815506 0.00457001 C116.77018494 0.68159875 117.99171051 1.94751429 119.95227051 4.50793457 C119.88977051 8.13293457 119.88977051 8.13293457 118.95227051 11.50793457 C115.69810804 13.67737621 114.78711371 13.76110067 111.02479553 13.77536011 C109.50011154 13.78815506 109.50011154 13.78815506 107.94462585 13.8012085 C106.27307182 13.79984894 106.27307182 13.79984894 104.56774902 13.79846191 C103.39355408 13.80517914 102.21935913 13.81189636 101.00958252 13.81881714 C97.78847971 13.83457474 94.56753154 13.84117299 91.34639478 13.84244871 C88.65748469 13.8443479 85.96859935 13.85170557 83.27969879 13.8587929 C76.93608689 13.87507878 70.59253177 13.87996164 64.24890137 13.87854004 C57.70442376 13.87733817 51.1602757 13.89844817 44.6158815 13.93002737 C38.99710556 13.95617421 33.37843738 13.96690803 27.75960106 13.96562922 C24.40368341 13.96511915 21.04805868 13.97082637 17.69220161 13.99198532 C13.949916 14.01151748 10.20848505 14.00585689 6.46618652 13.99377441 C4.79766884 14.01063293 4.79766884 14.01063293 3.09544373 14.02783203 C2.07616791 14.01944305 1.05689209 14.01105408 0.00672913 14.00241089 C-0.87798285 14.00350042 -1.76269484 14.00458996 -2.67421627 14.00571251 C-5.83699894 13.3424074 -7.04536921 11.98889529 -9.04772949 9.50793457 C-9.54772949 7.00793457 -9.54772949 7.00793457 -9.04772949 4.50793457 C-6.21467183 0.99997404 -4.48816472 0.00766189 0 0 Z " fill="#FEFEFA" transform="translate(206.0477294921875,253.4920654296875)"/>
<path d="M0 0 C1.03472946 -0.00845947 2.06945892 -0.01691895 3.13554382 -0.02563477 C4.83750664 -0.01652573 4.83750664 -0.01652573 6.57385254 -0.00723267 C7.76916092 -0.01248962 8.9644693 -0.01774658 10.19599915 -0.02316284 C13.47496659 -0.03411466 16.75357155 -0.03153302 20.03253365 -0.02202559 C23.46245212 -0.01443524 26.89234621 -0.02147285 30.32226562 -0.02618408 C36.08244175 -0.03164348 41.84250252 -0.02444528 47.60266113 -0.01016235 C54.2641307 0.00616462 60.92532481 0.00087623 67.5867877 -0.01564157 C73.3040692 -0.02925128 79.02126774 -0.03117866 84.7385602 -0.02332556 C88.15417782 -0.01864617 91.56966594 -0.01803138 94.98527527 -0.02793503 C98.79233606 -0.03552713 102.59886292 -0.02397592 106.40588379 -0.00723267 C107.54052567 -0.01330536 108.67516754 -0.01937805 109.8441925 -0.02563477 C111.3962867 -0.01294556 111.3962867 -0.01294556 112.97973633 0 C113.88011879 0.00113108 114.78050125 0.00226215 115.70816803 0.00342751 C117.98986816 0.38095093 117.98986816 0.38095093 119.81472015 1.68210411 C120.98986816 3.38095093 120.98986816 3.38095093 120.80236816 6.94345093 C119.98986816 10.38095093 119.98986816 10.38095093 117.98986816 12.38095093 C115.83121586 12.63821983 115.83121586 12.63821983 113.09999084 12.64837646 C111.54995865 12.66117142 111.54995865 12.66117142 109.96861267 12.67422485 C108.83037552 12.67331848 107.69213837 12.67241211 106.51940918 12.67147827 C104.72666565 12.68155411 104.72666565 12.68155411 102.89770508 12.6918335 C99.61462953 12.70760848 96.33170558 12.71419038 93.04859662 12.71546507 C90.30993606 12.71736212 87.57129989 12.72471736 84.83264869 12.73180926 C78.37259149 12.74810452 71.91259004 12.75297716 65.45251465 12.7515564 C58.78364042 12.75035448 52.11508959 12.77146332 45.44629723 12.80304372 C39.72479811 12.82917486 34.00340482 12.83992504 28.28184646 12.83864558 C24.86279088 12.83813502 21.4440226 12.84386901 18.02502632 12.86500168 C14.21298198 12.88450959 10.40177841 12.87888287 6.58972168 12.86679077 C5.45350876 12.87802979 4.31729584 12.8892688 3.14665222 12.90084839 C2.1104776 12.89245941 1.07430298 12.88407043 0.00672913 12.87542725 C-0.89495215 12.87651678 -1.79663343 12.87760632 -2.72563839 12.87872887 C-5.01013184 12.38095093 -5.01013184 12.38095093 -6.80024815 10.51020241 C-8.30074661 7.86950348 -8.47059106 6.37393585 -8.01013184 3.38095093 C-5.65897722 0.21733654 -3.83954503 0.00482331 0 0 Z " fill="#FEFEFE" transform="translate(205.0101318359375,207.61904907226563)"/>
<path d="M0 0 C1.54179932 -0.01891296 1.54179932 -0.01891296 3.11474609 -0.03820801 C4.77111084 -0.02606262 4.77111084 -0.02606262 6.4609375 -0.01367188 C8.16950928 -0.01941223 8.16950928 -0.01941223 9.91259766 -0.02526855 C12.31999597 -0.02798962 14.72742376 -0.02061498 17.13476562 -0.00390625 C20.82228432 0.01749887 24.50785449 -0.0037032 28.1953125 -0.02929688 C30.53385847 -0.02665364 32.87240323 -0.02152874 35.2109375 -0.01367188 C36.31518066 -0.0217688 37.41942383 -0.02986572 38.55712891 -0.03820801 C39.58499512 -0.02559937 40.61286133 -0.01299072 41.671875 0 C43.02611572 0.00477356 43.02611572 0.00477356 44.40771484 0.00964355 C47.63579156 0.68489125 48.85642328 1.92188451 50.8359375 4.51757812 C50.7734375 8.14257812 50.7734375 8.14257812 49.8359375 11.51757812 C46.56420079 13.69873593 45.58083927 13.7761349 41.78540039 13.80810547 C40.75745865 13.82086517 39.72951691 13.83362488 38.67042542 13.84677124 C37.00631874 13.85010971 37.00631874 13.85010971 35.30859375 13.85351562 C34.16813095 13.86017242 33.02766815 13.86682922 31.85264587 13.87368774 C29.43929662 13.88381872 27.02591933 13.88850463 24.61254883 13.88818359 C20.91636113 13.89255692 17.22136698 13.92887427 13.52539062 13.96679688 C11.18229576 13.9726648 8.83919521 13.97663435 6.49609375 13.97851562 C4.83502342 14.00007217 4.83502342 14.00007217 3.14039612 14.02206421 C2.10930222 14.01591095 1.07820831 14.00975769 0.01586914 14.00341797 C-1.34289589 14.00769302 -1.34289589 14.00769302 -2.72911072 14.01205444 C-5.94000078 13.36000494 -7.13934404 12.03840264 -9.1640625 9.51757812 C-9.6640625 7.01757812 -9.6640625 7.01757812 -9.1640625 4.51757812 C-6.30281922 0.96064959 -4.53758578 0.01599452 0 0 Z " fill="#FEFEFA" transform="translate(206.1640625,156.482421875)"/>
<path d="M0 0 C0.67151596 -0.00145523 1.34303192 -0.00291046 2.03489685 -0.00440979 C3.44770671 -0.00275692 4.86053573 0.00873581 6.27319336 0.02954102 C8.43095538 0.05855827 10.58626629 0.05012785 12.74414062 0.03710938 C23.11216467 0.08406853 23.11216467 0.08406853 26.28100586 1.80444336 C27.87109375 3.49609375 27.87109375 3.49609375 28.30859375 6.99609375 C27.87109375 10.49609375 27.87109375 10.49609375 26.8203125 12.18774414 C23.82440423 14.19865 20.7348638 13.94393566 17.24609375 13.9296875 C16.50278809 13.93492935 15.75948242 13.9401712 14.99365234 13.9455719 C13.4235153 13.95198983 11.85333017 13.95065799 10.28320312 13.94213867 C7.87933939 13.93362296 5.47784795 13.96239736 3.07421875 13.99414062 C1.5481778 13.99575261 0.02213263 13.99517515 -1.50390625 13.9921875 C-2.22271973 14.00342148 -2.9415332 14.01465546 -3.68212891 14.02622986 C-6.94935174 13.98053838 -8.66999913 13.93835627 -11.07421875 11.62133789 C-12.41846513 8.91261919 -12.72531888 7.47815689 -12.12890625 4.49609375 C-8.23163067 0.52491455 -5.47486986 -0.00813502 0 0 Z " fill="#FEFCF4" transform="translate(209.12890625,346.50390625)"/>
<path d="M0 0 C1.08166443 -0.00642769 1.08166443 -0.00642769 2.18518066 -0.01298523 C3.70824128 -0.01872256 5.23132929 -0.01923317 6.75439453 -0.01489258 C9.08543528 -0.01173003 11.41520968 -0.03520583 13.74609375 -0.06054688 C15.2265609 -0.06281968 16.70703146 -0.06352345 18.1875 -0.0625 C19.23290955 -0.07631462 19.23290955 -0.07631462 20.29943848 -0.09040833 C23.15030801 -0.06312168 25.12804136 -0.01296116 27.52929688 1.60473633 C29.35916325 4.52035141 29.00909482 6.97802269 28.59375 10.30078125 C26.2194216 12.85222689 24.74890773 13.28194425 21.265625 13.70483398 C19.32429688 13.71945679 19.32429688 13.71945679 17.34375 13.734375 C16.30105957 13.74223778 16.30105957 13.74223778 15.23730469 13.7502594 C13.77149793 13.75666654 12.30563967 13.75535947 10.83984375 13.74682617 C8.60063013 13.73830742 6.36396228 13.76710293 4.125 13.79882812 C2.69791743 13.80044016 1.27083035 13.79986256 -0.15625 13.796875 C-1.45046875 13.79872803 -2.7446875 13.80058105 -4.078125 13.80249023 C-7.40625 13.30078125 -7.40625 13.30078125 -9.86328125 11.49633789 C-11.40625 9.30078125 -11.40625 9.30078125 -11.34375 5.67578125 C-9.62725229 -0.50361052 -5.52726416 -0.00722816 0 0 Z " fill="#FEFDF6" transform="translate(208.40625,300.69921875)"/>
<path d="M0 0 C0.84175781 -0.02384766 1.68351562 -0.04769531 2.55078125 -0.07226562 C7.00275887 -0.06174914 8.94174378 0.14098836 12.59375 2.8984375 C14.5 5.5625 14.5 5.5625 14.5 8.75 C13.5 11.5625 13.5 11.5625 10.5 13.5625 C6.84844321 14.02125766 3.17732882 13.93280953 -0.5 13.9375 C-1.510625 13.96199219 -2.52125 13.98648437 -3.5625 14.01171875 C-4.531875 14.01558594 -5.50125 14.01945312 -6.5 14.0234375 C-7.386875 14.03165527 -8.27375 14.03987305 -9.1875 14.04833984 C-11.5 13.5625 -11.5 13.5625 -13.28125 11.68994141 C-14.82960014 8.98715233 -15.11283176 7.62665882 -14.5 4.5625 C-10.167015 -0.18107028 -6.02586729 -0.07843778 0 0 Z " fill="#FEFCF3" transform="translate(159.5,346.4375)"/>
<path d="M0 0 C1.00675781 -0.02449219 2.01351562 -0.04898437 3.05078125 -0.07421875 C10.42090313 -0.10358179 10.42090313 -0.10358179 13.8203125 2.20703125 C15.125 4.375 15.125 4.375 15.125 7.4375 C13.96708773 10.83886731 13.1420029 11.55156579 10.125 13.375 C6.81282849 13.99966393 3.49009479 13.88461456 0.125 13.875 C-0.77734375 13.90335937 -1.6796875 13.93171875 -2.609375 13.9609375 C-9.19150388 13.98041125 -9.19150388 13.98041125 -12.5078125 11.04296875 C-14.24764985 7.64780043 -13.9949051 5.97469496 -12.875 2.375 C-9.44820789 -1.05179211 -4.64577613 0.00590315 0 0 Z " fill="#FEFCF5" transform="translate(158.875,300.625)"/>
<path d="M0 0 C0.89396484 -0.01546875 1.78792969 -0.0309375 2.70898438 -0.046875 C6.98295805 -0.02149134 9.43823323 0.1216565 13.15625 2.375 C15.0625 4.5 15.0625 4.5 15.625 7 C14.84341785 10.47369845 13.98369423 11.41032305 11.0625 13.5 C7.55573794 14.10446867 4.11265775 14.05780447 0.5625 14 C-0.38753906 14.01546875 -1.33757812 14.0309375 -2.31640625 14.046875 C-9.22629891 14.00800078 -9.22629891 14.00800078 -12.5625 11.625 C-14.30331147 8.934655 -14.56645177 7.64475887 -13.9375 4.5 C-10.43428587 -0.77908168 -5.74536743 -0.09898695 0 0 Z " fill="#FEFDF7" transform="translate(158.9375,253.5)"/>
<path d="M0 0 C0.89396484 -0.01546875 1.78792969 -0.0309375 2.70898438 -0.046875 C6.98174842 -0.02149852 9.43665037 0.12021767 13.15234375 2.375 C15.0625 4.5 15.0625 4.5 15.6875 7 C14.76399954 10.69400186 13.30870802 11.53011397 10.0625 13.5 C6.69625661 14.08324534 3.40867009 14.05898203 0 14 C-0.89783203 14.01546875 -1.79566406 14.0309375 -2.72070312 14.046875 C-9.23565322 14.00812437 -9.23565322 14.00812437 -12.52734375 11.625 C-14.3107074 8.93760435 -14.57020979 7.66354894 -13.9375 4.5 C-10.43428587 -0.77908168 -5.74536743 -0.09898695 0 0 Z " fill="#FEFDF8" transform="translate(158.9375,156.5)"/>
<path d="M0 0 C1.58748047 -0.0299707 1.58748047 -0.0299707 3.20703125 -0.06054688 C4.72876953 -0.05958008 4.72876953 -0.05958008 6.28125 -0.05859375 C7.6744043 -0.06137329 7.6744043 -0.06137329 9.09570312 -0.06420898 C11.5 0.4375 11.5 0.4375 13.33398438 2.27319336 C14.5 4.4375 14.5 4.4375 14.375 7.5625 C13.5 10.4375 13.5 10.4375 10.5 12.4375 C6.84844321 12.89625766 3.17732882 12.80780953 -0.5 12.8125 C-1.510625 12.83699219 -2.52125 12.86148438 -3.5625 12.88671875 C-4.531875 12.89058594 -5.50125 12.89445313 -6.5 12.8984375 C-7.386875 12.90665527 -8.27375 12.91487305 -9.1875 12.92333984 C-11.5 12.4375 -11.5 12.4375 -13.2890625 10.56884766 C-14.79008201 7.92693226 -14.96065997 6.43178981 -14.5 3.4375 C-10.9970141 -1.31767479 -5.3635883 -0.03593147 0 0 Z " fill="#FEFEFA" transform="translate(159.5,207.5625)"/>
<path d="M0 0 C2.375 1.125 2.375 1.125 4 3 C4.62060815 6.64607289 4.47464453 8.30628876 2.375 11.375 C-0.69371124 13.47464453 -2.35392711 13.62060815 -6 13 C-8.59814888 10.74827097 -8.95716454 9.34982295 -9.375 5.9375 C-9 3 -9 3 -7.875 1.125 C-5.10703881 -0.53577671 -3.16909182 -0.38805206 0 0 Z " fill="#373733" transform="translate(98,304)"/>
</svg>
