<?xml version="1.0" encoding="UTF-8"?>
<svg version="1.1" xmlns="http://www.w3.org/2000/svg" width="512" height="512">
<path d="M0 0 C22.11 0 44.22 0 67 0 C67.33 13.86 67.66 27.72 68 42 C71.41784337 38.59973661 71.41784337 38.59973661 74.74609375 35.11328125 C89.08407829 19.84812912 109.07736506 9.75493486 129 4 C130.06202637 3.68458252 130.06202637 3.68458252 131.14550781 3.36279297 C164.25363981 -6.02552556 201.95884552 -0.41925158 231.84960938 15.95043945 C241.5501897 21.47791494 249.91931111 28.34329787 258 36 C258.8971875 36.83273438 259.794375 37.66546875 260.71875 38.5234375 C278.1684309 55.23787904 288.44177271 75.95024184 295 99 C295.36222656 100.24265625 295.72445313 101.4853125 296.09765625 102.765625 C300.8682474 122.91305179 299.63702468 147.19861913 294 167 C293.81808105 167.66692871 293.63616211 168.33385742 293.44873047 169.02099609 C287.3795471 190.78653038 274.62880044 208.17479001 260.84667969 225.65332031 C257.88074257 229.42230334 254.94138126 233.21184494 252 237 C250.83346865 238.50010524 249.66680178 240.0001051 248.5 241.5 C247.9225 242.2425 247.345 242.985 246.75 243.75 C241.5 250.5 241.5 250.5 239.74780273 252.75268555 C238.58827977 254.24359335 237.42893552 255.73464016 236.26977539 257.22583008 C233.24530671 261.1161354 230.21720739 265.00353911 227.18359375 268.88671875 C226.55646484 269.69044922 225.92933594 270.49417969 225.28320312 271.32226562 C224.09165457 272.84921303 222.8990238 274.37531684 221.70507812 275.90039062 C218.35715328 280.19351845 215.133506 284.54773728 212 289 C212.87785156 289.26554687 213.75570313 289.53109375 214.66015625 289.8046875 C224.91342601 293.47427878 232.9834558 300.41087488 238.375 309.8125 C241.73437696 317.24384903 241.74601529 325.0238206 239.07421875 332.65234375 C233.47619746 344.88656482 221.94892408 351.88642716 210 357 C180.82438347 367.81229341 145.64354094 367.10481309 117 355 C106.35773973 349.99187752 96.54954881 342.06704198 92 331 C89.77532798 323.70480929 90.43768822 316.40648182 93.5703125 309.50390625 C99.55523458 299.02211649 108.73083274 293.60136396 119 288 C112.65479518 279.43847364 106.2556073 270.94000114 99.53808594 262.66577148 C94.5689828 256.52941137 89.8220381 250.26864953 85 244 C84.67 288.55 84.34 333.1 84 379 C154.62 379 225.24 379 298 379 C298 401.11 298 423.22 298 446 C232.66 446 167.32 446 100 446 C100 462.5 100 479 100 496 C96.35662598 495.99887207 92.71325195 495.99774414 88.95947266 495.99658203 C76.90539376 495.9972103 64.85160959 496.03040957 52.79764748 496.0802784 C45.49116204 496.10971485 38.18496625 496.12811978 30.87841797 496.12011719 C24.50639422 496.11316662 18.13481917 496.12736042 11.76290548 496.16643608 C8.39211628 496.18638246 5.02203059 496.19608534 1.65120316 496.18042374 C-2.12173755 496.16822232 -5.89275468 496.1933898 -9.66552734 496.22705078 C-11.32278336 496.20871941 -11.32278336 496.20871941 -13.01351929 496.1900177 C-20.89206712 496.31620901 -25.60458262 498.53927266 -32 503 C-58.65760152 516.16177318 -95.37076273 515.89365581 -123.18359375 506.64453125 C-130.94078566 503.87484677 -137.53849534 500.07869238 -144 495 C-144.9075 494.38125 -145.815 493.7625 -146.75 493.125 C-153.52536563 486.72604357 -156.34285821 479.80475247 -157.375 470.6875 C-156.32088104 460.32199685 -151.79413882 452.80725505 -144 446 C-133.18596208 438 -133.18596208 438 -128 438 C-134.44805673 428.90864051 -141.28773452 420.13988157 -148.15332031 411.36279297 C-151.10928347 407.58069203 -154.05430635 403.79010098 -157 400 C-160.50931875 395.48640675 -164.01981878 390.97375163 -167.53515625 386.46484375 C-170.45258065 382.722334 -173.36319357 378.97459828 -176.27099609 375.22460938 C-178.00446847 372.99425068 -179.74622238 370.77053027 -181.48828125 368.546875 C-193.70004363 352.88339392 -203.50178071 336.90306663 -209.3125 317.8125 C-209.55500488 317.0177124 -209.79750977 316.2229248 -210.04736328 315.40405273 C-213.40154061 303.82799269 -214.40866448 292.52783797 -214.375 280.5 C-214.37478851 279.79956573 -214.37457703 279.09913147 -214.37435913 278.37747192 C-214.33880775 266.5358309 -213.21390233 255.42420746 -210 244 C-209.50886719 242.11667969 -209.50886719 242.11667969 -209.0078125 240.1953125 C-204.13142432 223.64406796 -195.26589367 208.00984005 -184 195 C-183.56719727 194.49178711 -183.13439453 193.98357422 -182.68847656 193.45996094 C-167.26394537 175.44401837 -148.23429886 163.02033117 -126 155 C-124.93910156 154.60167969 -123.87820312 154.20335937 -122.78515625 153.79296875 C-89.54994126 142.37237364 -52.11460945 147.04151762 -20.90625 162.03222656 C-13.7719587 165.65419515 -7.24771187 170.0018305 -1 175 C-0.505 145.795 -0.505 145.795 0 116 C-70.62 116 -141.24 116 -214 116 C-214 93.89 -214 71.78 -214 49 C-143.38 49 -72.76 49 0 49 C0 32.83 0 16.66 0 0 Z M16 369 C14.19413938 371.33320871 12.4329505 373.6845887 10.6875 376.0625 C6.51657968 381.68878659 2.27359443 387.23725466 -2.125 392.6875 C-6.65377859 398.30236577 -11.08904536 403.97615131 -15.46484375 409.7109375 C-17.30508474 412.11329113 -19.17747646 414.487308 -21.06640625 416.8515625 C-21.5761499 417.49150146 -22.08589355 418.13144043 -22.61108398 418.79077148 C-23.60266663 420.03308813 -24.598137 421.27231396 -25.59790039 422.50805664 C-28.16978663 425.39706795 -28.16978663 425.39706795 -29 429 C-13.82 429 1.36 429 17 429 C17 409.2 17 389.4 17 369 C16.67 369 16.34 369 16 369 Z " fill="#030202" transform="translate(214,0)"/>
<path d="M0 0 C76.23 0 152.46 0 231 0 C231.33 31.35 231.66 62.7 232 95 C234.31 97.64 236.62 100.28 239 103 C260.02101823 131.57874218 267.67653577 165.61877285 263.53515625 200.73046875 C261.78529708 211.05360244 258.96081413 223.34244286 253.54069519 232.45288086 C247.32999899 243.44512535 248.14123182 254.72536409 248.1953125 267.01953125 C248.18404666 269.33267086 248.17015922 271.64579904 248.15377808 273.95890808 C248.11790861 280.00711 248.1173453 286.05480467 248.12445068 292.10308838 C248.1255285 299.38132081 248.08219642 306.6594115 248.04641724 313.93753815 C247.99715505 324.95862031 248.00386249 335.97838777 248 347 C230.18 347.33 212.36 347.66 194 348 C196.31 350.31 198.62 352.62 201 355 C206.72901605 361.96295797 206.81250131 369.25980731 206 378 C205.67 378.66 205.34 379.32 205 380 C235.36 380 265.72 380 297 380 C297 363.5 297 347 297 330 C367.95 330 438.9 330 512 330 C512 335.61 512 341.22 512 347 C446.66 347 381.32 347 314 347 C314 363.5 314 380 314 397 C310.35662598 396.99887207 306.71325195 396.99774414 302.95947266 396.99658203 C290.90539376 396.9972103 278.85160959 397.03040957 266.79764748 397.0802784 C259.49116204 397.10971485 252.18496625 397.12811978 244.87841797 397.12011719 C238.50639422 397.11316662 232.13481917 397.12736042 225.76290548 397.16643608 C222.39211628 397.18638246 219.02203059 397.19608534 215.65120316 397.18042374 C211.87826245 397.16822232 208.10724532 397.1933898 204.33447266 397.22705078 C202.67721664 397.20871941 202.67721664 397.20871941 200.98648071 397.1900177 C193.10793288 397.31620901 188.39541738 399.53927266 182 404 C155.34239848 417.16177318 118.62923727 416.89365581 90.81640625 407.64453125 C83.05921434 404.87484677 76.46150466 401.07869238 70 396 C69.0925 395.38125 68.185 394.7625 67.25 394.125 C60.47463437 387.72604357 57.65714179 380.80475247 56.625 371.6875 C57.67911896 361.32199685 62.20586118 353.80725505 70 347 C80.81403792 339 80.81403792 339 86 339 C79.55194327 329.90864051 72.71226548 321.13988157 65.84667969 312.36279297 C62.89071653 308.58069203 59.94569365 304.79010098 57 301 C53.49068125 296.48640675 49.98018122 291.97375163 46.46484375 287.46484375 C43.54741935 283.722334 40.63680643 279.97459828 37.72900391 276.22460938 C35.99553153 273.99425068 34.25377762 271.77053027 32.51171875 269.546875 C20.29995637 253.88339392 10.49821929 237.90306663 4.6875 218.8125 C4.44499512 218.0177124 4.20249023 217.2229248 3.95263672 216.40405273 C0.59845939 204.82799269 -0.40866448 193.52783797 -0.375 181.5 C-0.37478851 180.79956573 -0.37457703 180.09913147 -0.37435913 179.37747192 C-0.33880775 167.5358309 0.78609767 156.42420746 4 145 C4.49113281 143.11667969 4.49113281 143.11667969 4.9921875 141.1953125 C9.86857568 124.64406796 18.73410633 109.00984005 30 96 C30.43280273 95.49178711 30.86560547 94.98357422 31.31152344 94.45996094 C46.73605463 76.44401837 65.76570114 64.02033117 88 56 C89.06089844 55.60167969 90.12179688 55.20335937 91.21484375 54.79296875 C124.45005874 43.37237364 161.88539055 48.04151762 193.09375 63.03222656 C200.2280413 66.65419515 206.75228813 71.0018305 213 76 C213.495 46.795 213.495 46.795 214 17 C143.38 17 72.76 17 0 17 C0 11.39 0 5.78 0 0 Z M230 270 C228.19413938 272.33320871 226.4329505 274.6845887 224.6875 277.0625 C220.51657968 282.68878659 216.27359443 288.23725466 211.875 293.6875 C207.34622141 299.30236577 202.91095464 304.97615131 198.53515625 310.7109375 C196.69491526 313.11329113 194.82252354 315.487308 192.93359375 317.8515625 C192.4238501 318.49150146 191.91410645 319.13144043 191.38891602 319.79077148 C190.39733337 321.03308813 189.401863 322.27231396 188.40209961 323.50805664 C185.83021337 326.39706795 185.83021337 326.39706795 185 330 C200.18 330 215.36 330 231 330 C231 310.2 231 290.4 231 270 C230.67 270 230.34 270 230 270 Z " fill="#030202" transform="translate(0,99)"/>
<path d="M0 0 C16.5 0 33 0 50 0 C50.28076167 16.61841667 50.28076167 16.61841667 50.34179688 23.79492188 C50.3833722 28.65997897 50.43212331 33.52409947 50.52807617 38.38842773 C50.60508648 42.31781578 50.64618498 46.24619747 50.6641407 50.17628288 C50.67690753 51.66285962 50.70183017 53.14939185 50.7401104 54.63553047 C50.98655928 64.61573857 49.4545992 71.86809014 44.72694397 80.70884705 C31.70438136 105.52681808 31.35803498 140.53835071 39 167 C40.95241053 173.16806934 43.36170317 179.09741825 46 185 C46.52335937 186.19882813 47.04671875 187.39765625 47.5859375 188.6328125 C52.40724227 198.95746028 58.8969726 209.8969726 67 218 C67.24609566 221.02598763 67.24609566 221.02598763 67.24050903 224.99807739 C67.24307709 226.08830704 67.24307709 226.08830704 67.24569702 227.20056152 C67.2490208 229.65610402 67.23793888 232.11137676 67.22705078 234.56689453 C67.22643845 236.34932891 67.22670452 238.13176377 67.2277813 239.91419792 C67.22823399 244.70013838 67.21661778 249.48597942 67.20256042 254.27189636 C67.19119518 258.75800907 67.19063553 263.24409724 67.18920898 267.73022461 C67.17870211 280.86182965 67.15077996 293.99341607 67.125 307.125 C67.08375 336.45375 67.0425 365.7825 67 396 C143.23 396 219.46 396 298 396 C298 406.89 298 417.78 298 429 C227.05 429 156.1 429 83 429 C83 445.5 83 462 83 479 C52.64 479 22.28 479 -9 479 C-9 473.72 -9 468.44 -9 463 C-12.34269399 455.91667225 -15.77431817 452.09662881 -21 446 C-2.85 446 15.3 446 34 446 C33.9071875 438.70132812 33.814375 431.40265625 33.71875 423.8828125 C33.67781472 419.2252026 33.6392999 414.56781829 33.609375 409.91015625 C33.56177547 402.53679647 33.5058159 395.16424052 33.39648438 387.79150391 C33.30878066 381.83915348 33.26156345 375.88766639 33.24098206 369.93471909 C33.22633844 367.67751369 33.19774714 365.42034902 33.15415955 363.163517 C32.89173745 348.99694074 34.32571336 338.55297162 41.02970886 326.00985336 C42.7155878 322.51773711 43.79373844 318.84059544 44.875 315.125 C45.0747065 314.44236525 45.27441299 313.75973049 45.4801712 313.05640984 C48.47767902 302.52684347 49.33746155 292.09926298 49.25 281.1875 C49.23876099 279.33547974 49.23876099 279.33547974 49.22729492 277.44604492 C48.85158785 245.60329633 37.68638134 218.13411157 17 194 C17 162.65 17 131.3 17 99 C-59.23 99 -135.46 99 -214 99 C-214 82.5 -214 66 -214 49 C-143.38 49 -72.76 49 0 49 C0 32.83 0 16.66 0 0 Z " fill="#B2DB7E" transform="translate(214,0)"/>
<path d="M0 0 C76.23 0 152.46 0 231 0 C231.33 31.35 231.66 62.7 232 95 C234.31 97.64 236.62 100.28 239 103 C260.02101823 131.57874218 267.67653577 165.61877285 263.53515625 200.73046875 C261.78529708 211.05360244 258.96081413 223.34244286 253.54069519 232.45288086 C247.32999899 243.44512535 248.14123182 254.72536409 248.1953125 267.01953125 C248.18404666 269.33267086 248.17015922 271.64579904 248.15377808 273.95890808 C248.11790861 280.00711 248.1173453 286.05480467 248.12445068 292.10308838 C248.1255285 299.38132081 248.08219642 306.6594115 248.04641724 313.93753815 C247.99715505 324.95862031 248.00386249 335.97838777 248 347 C230.18 347.33 212.36 347.66 194 348 C196.31 350.31 198.62 352.62 201 355 C206.72901605 361.96295797 206.81250131 369.25980731 206 378 C205.67 378.66 205.34 379.32 205 380 C235.36 380 265.72 380 297 380 C297 363.5 297 347 297 330 C367.95 330 438.9 330 512 330 C512 335.61 512 341.22 512 347 C446.66 347 381.32 347 314 347 C314 363.5 314 380 314 397 C310.35662598 396.99887207 306.71325195 396.99774414 302.95947266 396.99658203 C290.90539376 396.9972103 278.85160959 397.03040957 266.79764748 397.0802784 C259.49116204 397.10971485 252.18496625 397.12811978 244.87841797 397.12011719 C238.50639422 397.11316662 232.13481917 397.12736042 225.76290548 397.16643608 C222.39211628 397.18638246 219.02203059 397.19608534 215.65120316 397.18042374 C211.87826245 397.16822232 208.10724532 397.1933898 204.33447266 397.22705078 C202.67721664 397.20871941 202.67721664 397.20871941 200.98648071 397.1900177 C193.10793288 397.31620901 188.39541738 399.53927266 182 404 C155.34239848 417.16177318 118.62923727 416.89365581 90.81640625 407.64453125 C83.05921434 404.87484677 76.46150466 401.07869238 70 396 C69.0925 395.38125 68.185 394.7625 67.25 394.125 C60.47463437 387.72604357 57.65714179 380.80475247 56.625 371.6875 C57.67911896 361.32199685 62.20586118 353.80725505 70 347 C80.81403792 339 80.81403792 339 86 339 C79.55194327 329.90864051 72.71226548 321.13988157 65.84667969 312.36279297 C62.89071653 308.58069203 59.94569365 304.79010098 57 301 C53.49068125 296.48640675 49.98018122 291.97375163 46.46484375 287.46484375 C43.54741935 283.722334 40.63680643 279.97459828 37.72900391 276.22460938 C35.99553153 273.99425068 34.25377762 271.77053027 32.51171875 269.546875 C20.29995637 253.88339392 10.49821929 237.90306663 4.6875 218.8125 C4.44499512 218.0177124 4.20249023 217.2229248 3.95263672 216.40405273 C0.59845939 204.82799269 -0.40866448 193.52783797 -0.375 181.5 C-0.37478851 180.79956573 -0.37457703 180.09913147 -0.37435913 179.37747192 C-0.33880775 167.5358309 0.78609767 156.42420746 4 145 C4.49113281 143.11667969 4.49113281 143.11667969 4.9921875 141.1953125 C9.86857568 124.64406796 18.73410633 109.00984005 30 96 C30.43280273 95.49178711 30.86560547 94.98357422 31.31152344 94.45996094 C46.73605463 76.44401837 65.76570114 64.02033117 88 56 C89.06089844 55.60167969 90.12179688 55.20335937 91.21484375 54.79296875 C124.45005874 43.37237364 161.88539055 48.04151762 193.09375 63.03222656 C200.2280413 66.65419515 206.75228813 71.0018305 213 76 C213.495 46.795 213.495 46.795 214 17 C143.38 17 72.76 17 0 17 C0 11.39 0 5.78 0 0 Z M45.58984375 103.578125 C22.92968034 130.00469159 15.63841009 159.76504218 17 194 C17.44933382 199.49956456 18.51727854 204.67894313 20 210 C20.3403125 211.22976563 20.680625 212.45953125 21.03125 213.7265625 C25.73466793 229.07623048 33.23294297 242.34317358 43 255 C43.42651855 255.55333008 43.85303711 256.10666016 44.29248047 256.67675781 C46.5181606 259.54995422 48.76615009 262.40469077 51.02734375 265.25 C54.31947115 269.39310083 57.56689715 273.57041072 60.8125 277.75 C62.006508 279.28646021 63.20051843 280.82291853 64.39453125 282.359375 C64.99088379 283.12701172 65.58723633 283.89464844 66.20166016 284.68554688 C69.13299363 288.45815634 72.06659198 292.22900355 75 296 C76.16667794 297.49999123 77.3333446 298.99999124 78.5 300.5 C79.36625 301.61375 79.36625 301.61375 80.25 302.75 C85.5 309.5 85.5 309.5 87.25073242 311.75097656 C88.41491259 313.24775643 89.5791377 314.74450134 90.7434082 316.24121094 C93.69849173 320.04019058 96.65274014 323.83981465 99.60546875 327.640625 C102.52171695 331.39410205 105.44044613 335.14563561 108.36132812 338.89550781 C109.43104359 340.26930807 110.50008493 341.64363359 111.56835938 343.01855469 C113.90066029 346.01916692 116.24043432 349.01257609 118.609375 351.984375 C120.08616921 353.8472592 121.53948032 355.7293774 122.953125 357.640625 C125.86958864 361.47615214 125.86958864 361.47615214 130.02734375 363.65234375 C132.4397981 363.93468935 132.4397981 363.93468935 136 363 C140.04964805 359.41430508 143.34783402 355.23283247 146.6875 351 C147.2129541 350.33846924 147.7384082 349.67693848 148.27978516 348.99536133 C152.34336238 343.86581699 156.34370354 338.68936301 160.3203125 333.4921875 C163.44212382 329.41563601 166.5959138 325.36410097 169.75 321.3125 C170.63921143 320.17010864 170.63921143 320.17010864 171.54638672 319.00463867 C172.75934681 317.44654195 173.97240086 315.88851837 175.18554688 314.33056641 C178.12513338 310.55482734 181.06247715 306.77734465 184 303 C185.16665539 301.49999123 186.33332207 299.99999124 187.5 298.5 C188.0775 297.7575 188.655 297.015 189.25 296.25 C194.5 289.5 194.5 289.5 196.25073242 287.24926758 C197.41522824 285.75191936 198.57945432 284.25436133 199.7434082 282.7565918 C202.69109222 278.96423773 205.64363669 275.17584886 208.60546875 271.39453125 C211.54090384 267.64442823 214.46215528 263.88375152 217.37011719 260.11230469 C218.42237492 258.7485938 219.47751162 257.38709729 220.53613281 256.02832031 C241.00032785 229.67065437 251.31768851 198.80708993 247.17333984 165.38574219 C242.91967401 135.05175173 226.79103795 107.55768619 202.48022461 88.89111328 C154.88144198 53.76805225 85.53168116 58.8786726 45.58984375 103.578125 Z M230 270 C228.19413938 272.33320871 226.4329505 274.6845887 224.6875 277.0625 C220.51657968 282.68878659 216.27359443 288.23725466 211.875 293.6875 C207.34622141 299.30236577 202.91095464 304.97615131 198.53515625 310.7109375 C196.69491526 313.11329113 194.82252354 315.487308 192.93359375 317.8515625 C192.4238501 318.49150146 191.91410645 319.13144043 191.38891602 319.79077148 C190.39733337 321.03308813 189.401863 322.27231396 188.40209961 323.50805664 C185.83021337 326.39706795 185.83021337 326.39706795 185 330 C200.18 330 215.36 330 231 330 C231 310.2 231 290.4 231 270 C230.67 270 230.34 270 230 270 Z " fill="#010201" transform="translate(0,99)"/>
<path d="M0 0 C5.61 0 11.22 0 17 0 C17.33 13.86 17.66 27.72 18 42 C21.41784337 38.59973661 21.41784337 38.59973661 24.74609375 35.11328125 C39.08407829 19.84812912 59.07736506 9.75493486 79 4 C79.70801758 3.78972168 80.41603516 3.57944336 81.14550781 3.36279297 C114.25363981 -6.02552556 151.95884552 -0.41925158 181.84960938 15.95043945 C191.5501897 21.47791494 199.91931111 28.34329787 208 36 C208.8971875 36.83273438 209.794375 37.66546875 210.71875 38.5234375 C228.1684309 55.23787904 238.44177271 75.95024184 245 99 C245.36222656 100.24265625 245.72445313 101.4853125 246.09765625 102.765625 C250.8682474 122.91305179 249.63702468 147.19861913 244 167 C243.81808105 167.66692871 243.63616211 168.33385742 243.44873047 169.02099609 C237.3795471 190.78653038 224.62880044 208.17479001 210.84667969 225.65332031 C207.88074257 229.42230334 204.94138126 233.21184494 202 237 C200.83346865 238.50010524 199.66680178 240.0001051 198.5 241.5 C197.9225 242.2425 197.345 242.985 196.75 243.75 C191.5 250.5 191.5 250.5 189.74780273 252.75268555 C188.58827977 254.24359335 187.42893552 255.73464016 186.26977539 257.22583008 C183.24530671 261.1161354 180.21720739 265.00353911 177.18359375 268.88671875 C176.55646484 269.69044922 175.92933594 270.49417969 175.28320312 271.32226562 C174.09165457 272.84921303 172.8990238 274.37531684 171.70507812 275.90039062 C168.35715328 280.19351845 165.133506 284.54773728 162 289 C162.87785156 289.26554687 163.75570312 289.53109375 164.66015625 289.8046875 C174.91342601 293.47427878 182.9834558 300.41087488 188.375 309.8125 C191.73437696 317.24384903 191.74601529 325.0238206 189.07421875 332.65234375 C183.47619746 344.88656482 171.94892408 351.88642716 160 357 C130.82438347 367.81229341 95.64354094 367.10481309 67 355 C56.35773973 349.99187752 46.54954881 342.06704198 42 331 C39.77532798 323.70480929 40.43768822 316.40648182 43.5703125 309.50390625 C49.55523458 299.02211649 58.73083274 293.60136396 69 288 C62.65479518 279.43847364 56.2556073 270.94000114 49.53808594 262.66577148 C44.5689828 256.52941137 39.8220381 250.26864953 35 244 C34.67 288.55 34.34 333.1 34 379 C104.62 379 175.24 379 248 379 C248 384.61 248 390.22 248 396 C171.77 396 95.54 396 17 396 C17 307.625 17 307.625 17.0625 279.74072266 C17.04265138 271.47805515 17.04265138 271.47805515 17.01220703 263.21542358 C16.99895042 259.54058314 17.00802525 255.86653274 17.03076172 252.19174194 C17.05907006 247.49708557 17.04881116 242.80396785 17.01119995 238.10939288 C17.00389415 236.39102478 17.00988119 234.67253355 17.03103638 232.95428014 C17.13789673 223.63953675 16.77349215 216.97403594 9.93800354 209.89815331 C9.29846237 209.27176271 8.6589212 208.64537212 8 208 C-12.27367312 180.60076667 -19.60501436 146.4085979 -15.4609375 112.9140625 C-14.84865957 108.88271441 -13.97797925 104.9582867 -13 101 C-12.7215625 99.82050781 -12.443125 98.64101562 -12.15625 97.42578125 C-9.583509 87.52294627 -5.57006391 78.14012782 -1 69 C-0.87913832 66.81525817 -0.8225238 64.62687 -0.79467773 62.43896484 C-0.78477814 61.76567642 -0.77487854 61.092388 -0.76467896 60.3986969 C-0.73304885 58.16947974 -0.70830066 55.94024126 -0.68359375 53.7109375 C-0.66302552 52.16679322 -0.64202908 50.62265459 -0.62062073 49.07852173 C-0.56538651 45.01135833 -0.51598322 40.94414401 -0.46777344 36.87689209 C-0.41756825 32.72777771 -0.36187707 28.57873741 -0.30664062 24.4296875 C-0.19904252 16.28651923 -0.0981081 8.14328814 0 0 Z M26 58 C6.25339833 80.92572835 -1.63630908 111.21917478 0 141 C2.13337781 165.33287447 12.33750487 186.9628689 27.34960938 205.9140625 C29.04475115 208.05656122 30.71983176 210.21347092 32.390625 212.375 C35.32217784 216.16444736 38.26768013 219.94274961 41.21777344 223.71777344 C44.15103909 227.47396074 47.0750937 231.23730236 50 235 C51.16662158 236.50003506 52.33328827 238.00003505 53.5 239.5 C74.5 266.5 74.5 266.5 76.25073242 268.75097656 C77.41491259 270.24775643 78.5791377 271.74450134 79.7434082 273.24121094 C82.69849173 277.04019058 85.65274014 280.83981465 88.60546875 284.640625 C94.1616111 291.79134177 99.72275309 298.93800402 105.3125 306.0625 C105.77487061 306.65256836 106.23724121 307.24263672 106.71362305 307.85058594 C109.18036513 311.55314095 109.18036513 311.55314095 112.890625 313.2734375 C114.05851562 313.32371094 114.05851562 313.32371094 115.25 313.375 C116.01828125 313.42398437 116.7865625 313.47296875 117.578125 313.5234375 C123.2979073 312.28722649 127.18104056 305.44423348 130.6875 301 C131.2129541 300.33846924 131.7384082 299.67693848 132.27978516 298.99536133 C136.34336238 293.86581699 140.34370354 288.68936301 144.3203125 283.4921875 C147.44212382 279.41563601 150.5959138 275.36410097 153.75 271.3125 C154.63921143 270.17010864 154.63921143 270.17010864 155.54638672 269.00463867 C156.75934681 267.44654195 157.97240086 265.88851837 159.18554688 264.33056641 C162.12513338 260.55482734 165.06247715 256.77734465 168 253 C169.16665539 251.49999123 170.33332207 249.99999124 171.5 248.5 C172.0775 247.7575 172.655 247.015 173.25 246.25 C178.5 239.5 178.5 239.5 180.25073242 237.24926758 C181.41522824 235.75191936 182.57945432 234.25436133 183.7434082 232.7565918 C186.69109222 228.96423773 189.64363669 225.17584886 192.60546875 221.39453125 C196.0889376 216.94395762 199.55054546 212.47697356 203 208 C203.76836182 207.00806641 203.76836182 207.00806641 204.55224609 205.99609375 C215.52724147 191.76059369 223.20146814 177.38778355 228 160 C228.27070313 159.02740234 228.54140625 158.05480469 228.8203125 157.05273438 C230.91648822 148.87168838 231.47172558 141.1758103 231.375 132.75 C231.36629883 131.48164307 231.35759766 130.21328613 231.34863281 128.90649414 C230.86556895 97.89339827 218.75824019 71.02525927 197 49 C196.16984375 48.14535156 195.3396875 47.29070313 194.484375 46.41015625 C182.87097159 35.13518024 168.32474054 27.01880529 153 22 C152.32469238 21.76023437 151.64938477 21.52046875 150.95361328 21.2734375 C105.66129905 5.54478371 56.97053895 23.5534758 26 58 Z " fill="#010101" transform="translate(264,0)"/>
<path d="M0 0 C1.5941174 1.341455 3.17754636 2.69571496 4.75 4.0625 C5.56984375 4.74957031 6.3896875 5.43664062 7.234375 6.14453125 C30.1925915 25.92995075 43.44479087 54.01318099 45.75 84.0625 C47.96249211 116.70230831 35.49057655 144.91954673 15.75 170.0625 C14.61870455 171.521293 13.48851504 172.98094427 12.359375 174.44140625 C9.42706258 178.22894201 6.48167563 182.006074 3.53222656 185.78027344 C0.59896091 189.53646074 -2.3250937 193.29980236 -5.25 197.0625 C-6.41662158 198.56253506 -7.58328827 200.06253505 -8.75 201.5625 C-9.3275 202.305 -9.905 203.0475 -10.5 203.8125 C-29.75 228.5625 -29.75 228.5625 -31.5012207 230.81396484 C-32.66395367 232.3089768 -33.82655207 233.80409344 -34.98901367 235.29931641 C-37.96475225 239.12651755 -40.94304666 242.95168549 -43.92578125 246.7734375 C-45.13813114 248.32803898 -46.35037223 249.88272532 -47.5625 251.4375 C-48.14491455 252.18386719 -48.7273291 252.93023437 -49.32739258 253.69921875 C-53.47208918 259.0244829 -57.5146565 264.41537319 -61.48046875 269.875 C-64.04413377 273.04421062 -65.87738917 273.9854081 -69.875 274.8125 C-72.89098694 274.71893836 -74.06035081 274.21769853 -76.421875 272.28515625 C-78.84170433 269.63793161 -81.05768084 266.90113101 -83.25 264.0625 C-84.38888672 262.61423828 -84.38888672 262.61423828 -85.55078125 261.13671875 C-87.20199472 259.00986932 -88.84043436 256.87747139 -90.46484375 254.73046875 C-93.60488997 250.58205684 -96.80183271 246.47867515 -100 242.375 C-101.20316216 240.82945601 -102.40628679 239.2838828 -103.609375 237.73828125 C-104.21201172 236.96436035 -104.81464844 236.19043945 -105.43554688 235.39306641 C-108.37513338 231.61732734 -111.31247715 227.83984465 -114.25 224.0625 C-115.41665539 222.56249123 -116.58332207 221.06249124 -117.75 219.5625 C-124.75 210.5625 -131.75 201.5625 -138.75 192.5625 C-139.32806396 191.81943604 -139.90612793 191.07637207 -140.50170898 190.31079102 C-141.66331073 188.81697863 -142.82428528 187.3226783 -143.98461914 185.82788086 C-146.9737118 181.97888348 -149.97462133 178.14005336 -152.99609375 174.31640625 C-165.58336622 158.35359128 -165.58336622 158.35359128 -170.25 150.0625 C-170.56630371 149.51013672 -170.88260742 148.95777344 -171.20849609 148.38867188 C-185.11190159 123.75712502 -190.18803616 92.03034479 -183.28515625 64.38671875 C-177.94012294 47.22210235 -170.68721284 32.06601325 -159.25 18.0625 C-158.60289062 17.26199219 -157.95578125 16.46148437 -157.2890625 15.63671875 C-119.01004253 -29.59502118 -46.40413855 -36.25997803 0 0 Z M-87.25 -1.9375 C-88.43916016 -1.20273438 -88.43916016 -1.20273438 -89.65234375 -0.453125 C-92.89898105 1.65229833 -96.07532647 3.85104955 -99.25 6.0625 C-100.97646396 7.25795483 -102.7030356 8.45325415 -104.4296875 9.6484375 C-112.12712272 14.98537857 -119.80408562 20.35159438 -127.48046875 25.71875 C-128.30595215 26.29584717 -129.13143555 26.87294434 -129.98193359 27.4675293 C-131.61282067 28.6098637 -133.24206843 29.75454226 -134.86962891 30.90161133 C-139.12364291 33.89667983 -143.40212489 36.84363366 -147.73046875 39.73046875 C-148.63321533 40.34067871 -149.53596191 40.95088867 -150.46606445 41.57958984 C-152.17805439 42.73558782 -153.89869359 43.87893026 -155.62963867 45.00634766 C-162.07116174 49.38767502 -166.75313311 54.57189934 -169.25 62.0625 C-170.15203774 71.08287742 -168.35419905 77.40620142 -163.375 84.875 C-158.1070528 90.29788683 -152.37673238 92.912437 -144.8125 93.1875 C-143.966875 93.14625 -143.12125 93.105 -142.25 93.0625 C-142.2075415 93.70791748 -142.16508301 94.35333496 -142.12133789 95.01831055 C-141.54868276 102.45753097 -140.25999679 109.5882586 -138.6875 116.875 C-138.29127875 118.74895909 -137.8950655 120.62291989 -137.49909973 122.49693298 C-137.06729053 124.53552504 -136.63250644 126.57346615 -136.19726562 128.61132812 C-135.15604359 133.49360014 -134.13240034 138.379513 -133.109375 143.265625 C-131.7042338 149.97055942 -130.29905988 156.67548418 -128.88671875 163.37890625 C-128.73591858 164.09745789 -128.58511841 164.81600952 -128.42974854 165.55633545 C-127.75736462 168.74297588 -127.04009796 171.90210815 -126.25 175.0625 C-89.29 175.0625 -52.33 175.0625 -14.25 175.0625 C-13.02942422 171.40077265 -11.99747272 168.29829069 -11.29199219 164.60302734 C-11.13112122 163.77199493 -10.97025024 162.94096252 -10.80450439 162.08474731 C-10.63698669 161.19826508 -10.46946899 160.31178284 -10.296875 159.3984375 C-10.11598328 158.46047333 -9.93509155 157.52250916 -9.74871826 156.55612183 C-9.36238431 154.55240934 -8.97768482 152.54838113 -8.59448242 150.54406738 C-7.59909964 145.34252806 -6.58925536 140.14381039 -5.578125 134.9453125 C-5.37888428 133.9205481 -5.17964355 132.89578369 -4.97436523 131.83996582 C-3.31092236 123.31370918 -1.5711847 114.806386 0.25 106.3125 C0.49266602 105.17345215 0.73533203 104.0344043 0.98535156 102.86083984 C2.61878655 95.3249269 2.61878655 95.3249269 3.75 93.0625 C5.75390625 92.60546875 5.75390625 92.60546875 8.3125 92.25 C14.84533762 91.053715 19.44385922 88.43096891 24.0625 83.6875 C28.82390459 76.28087065 30.00787432 69.87810254 28.75 61.0625 C24.48702691 49.42006213 12.87084422 43.34005762 3.125 36.625 C1.0845952 35.21229767 -0.9557682 33.79953554 -2.99609375 32.38671875 C-4.03233887 31.6704834 -5.06858398 30.95424805 -6.13623047 30.21630859 C-10.11581258 27.46361349 -14.08931612 24.70225739 -18.06103516 21.93823242 C-19.9747879 20.60711684 -21.88982353 19.27784373 -23.80615234 17.95043945 C-28.48703365 14.7041772 -33.14218384 11.42986929 -37.75390625 8.0859375 C-38.63796143 7.45059082 -39.5220166 6.81524414 -40.43286133 6.16064453 C-42.07710481 4.97691432 -43.71439277 3.78342496 -45.3425293 2.57763672 C-57.63639249 -6.23263422 -73.61943719 -10.42307399 -87.25 -1.9375 Z " fill="#FBE7A4" transform="translate(202.25,187.9375)"/>
<path d="M0 0 C0.72880371 0.25168945 1.45760742 0.50337891 2.20849609 0.76269531 C19.27294204 6.75882107 33.32971108 16.19683592 46 29 C46.87140625 29.84949219 47.7428125 30.69898438 48.640625 31.57421875 C71.62458102 55.17252579 78.69906762 85.58807827 78.34375 117.5546875 C78.05029772 127.18725868 76.14807299 135.92541778 73 145 C72.75942871 145.69786621 72.51885742 146.39573242 72.27099609 147.11474609 C66.89585452 162.27401525 58.7710387 174.41900792 49 187 C48.4421582 187.7213916 47.88431641 188.4427832 47.30957031 189.18603516 C43.81335281 193.70673034 40.30120782 198.21478432 36.78222656 202.71777344 C33.84896091 206.47396074 30.9249063 210.23730236 28 214 C26.83337842 215.50003506 25.66671173 217.00003505 24.5 218.5 C23.9225 219.2425 23.345 219.985 22.75 220.75 C3.5 245.5 3.5 245.5 1.74902344 247.7512207 C0.58556688 249.24711662 -0.57784478 250.74304745 -1.74121094 252.23901367 C-4.70661998 256.05209776 -7.67287262 259.86452064 -10.640625 263.67578125 C-11.5392627 264.83025757 -11.5392627 264.83025757 -12.45605469 266.00805664 C-13.63858446 267.52709564 -14.82151777 269.04582059 -16.00488281 270.56420898 C-18.69850512 274.02409394 -21.38081867 277.49126036 -24.03125 280.984375 C-24.49370117 281.59240967 -24.95615234 282.20044434 -25.43261719 282.8269043 C-26.66150133 284.44590677 -27.88562515 286.06851945 -29.109375 287.69140625 C-31.5094997 290.62213703 -33.32509111 291.3203247 -37 291.8125 C-40.57759797 291.76670675 -41.76801875 291.20881989 -44.46484375 288.78125 C-46.65862179 286.14733007 -48.73875208 283.48637823 -50.75146484 280.71435547 C-52.68923513 278.05361574 -54.72838379 275.47233016 -56.75 272.875 C-57.58446016 271.78341256 -58.41775125 270.69093065 -59.25 269.59765625 C-62.3890593 265.48110312 -65.56914213 261.39679161 -68.75 257.3125 C-69.34264648 256.55114746 -69.93529297 255.78979492 -70.54589844 255.00537109 C-71.75900417 253.44701691 -72.97222107 251.88874925 -74.18554688 250.33056641 C-77.12513338 246.55482734 -80.06247715 242.77734465 -83 239 C-84.16665539 237.49999123 -85.33332207 235.99999124 -86.5 234.5 C-93.5 225.5 -100.5 216.5 -107.5 207.5 C-108.07782227 206.75741943 -108.65564453 206.01483887 -109.25097656 205.24975586 C-110.41569614 203.75158572 -111.5791114 202.25240063 -112.74121094 200.75219727 C-115.6777285 196.96474766 -118.63578975 193.19839173 -121.640625 189.46484375 C-143.33606265 162.36890022 -155.66555422 132.55349812 -152.6875 97.30078125 C-152.24474395 93.83384328 -151.66531141 90.43099546 -151 87 C-150.66742188 85.17662109 -150.66742188 85.17662109 -150.328125 83.31640625 C-145.80276576 62.11979434 -134.71946248 44.58084239 -120 29 C-119.30261719 28.23816406 -118.60523438 27.47632813 -117.88671875 26.69140625 C-105.8383773 13.98227825 -88.8008133 3.92589291 -72 -1 C-70.85015625 -1.37125 -69.7003125 -1.7425 -68.515625 -2.125 C-47.34418345 -8.2764639 -20.64031249 -7.47232753 0 0 Z M-65.85546875 22.94140625 C-70.85917411 26.66772875 -75.9956454 30.19975597 -81.125 33.75 C-83.12003551 35.13506551 -85.1148265 36.52048327 -87.109375 37.90625 C-88.09486328 38.59074219 -89.08035156 39.27523437 -90.09570312 39.98046875 C-95.34906846 43.63344774 -100.597276 47.29390305 -105.82885742 50.97802734 C-109.808656 53.77968335 -113.80349355 56.54970436 -117.84765625 59.2578125 C-118.62125488 59.78342773 -119.39485352 60.30904297 -120.19189453 60.85058594 C-121.63094691 61.8274769 -123.07794798 62.79281961 -124.53466797 63.74316406 C-130.42337995 67.77452028 -134.57937925 72.87523495 -136 80 C-136.64595437 87.41259117 -136.71579843 93.95474775 -132 100 C-125.09890917 107.23584523 -119.77131669 109.85776054 -110 111 C-109.81937012 111.94391602 -109.63874023 112.88783203 -109.45263672 113.86035156 C-106.13480455 131.17327752 -102.7566597 148.46188378 -99.00073242 165.68603516 C-97.3672029 173.19770724 -95.87471937 180.71826198 -94.54296875 188.2890625 C-94.13288496 190.95327181 -94.13288496 190.95327181 -93 193 C-56.04 193 -19.08 193 19 193 C22.90884543 175.18649193 22.90884543 175.18649193 26.4375 157.3125 C28.45607585 146.54786381 30.71410984 135.84596405 33.12084961 125.16137695 C33.36585205 124.05109131 33.61085449 122.94080566 33.86328125 121.796875 C34.08282471 120.82073242 34.30236816 119.84458984 34.52856445 118.83886719 C35.02592702 115.84387398 35.08162422 113.03047455 35 110 C35.845625 109.92523438 36.69125 109.85046875 37.5625 109.7734375 C45.21579395 108.88635116 50.57337765 107.64100743 56 102 C61.40145155 95.03497037 63.09978928 88.70471512 62 80 C57.68219489 65.74705111 43.30657387 58.63897509 31.70800781 50.83447266 C27.02519131 47.66221488 22.38919337 44.42306426 17.75 41.1875 C16.32167847 40.19411621 16.32167847 40.19411621 14.86450195 39.18066406 C9.80115049 35.6578164 4.74830539 32.12078117 -0.29296875 28.56640625 C-1.32196289 27.84364502 -2.35095703 27.12088379 -3.41113281 26.3762207 C-5.37325536 24.9977014 -7.33243328 23.61497754 -9.28808594 22.22729492 C-29.72569833 7.89406496 -45.81294072 8.01395419 -65.85546875 22.94140625 Z " fill="#FCE7A5" transform="translate(417,22)"/>
<path d="M0 0 C5.61 0 11.22 0 17 0 C17 21.78 17 43.56 17 66 C-59.23 66 -135.46 66 -214 66 C-214 60.39 -214 54.78 -214 49 C-143.38 49 -72.76 49 0 49 C0 32.83 0 16.66 0 0 Z " fill="#000000" transform="translate(214,0)"/>
<path d="M0 0 C36.96 0 73.92 0 112 0 C110.35 8.25 108.7 16.5 107 25 C105.74454603 31.41566635 104.49227827 37.83179359 103.25 44.25 C102.794751 46.59848368 102.3392957 48.94692723 101.88372803 51.29534912 C101.6063587 52.72552119 101.3292018 54.15573449 101.05230713 55.58599854 C100.37930694 59.05972078 99.69393174 62.53034128 99 66 C92.73 66 86.46 66 80 66 C80 49.83 80 33.66 80 17 C63.83 17 47.66 17 31 17 C31 33.17 31 49.34 31 66 C25.06 66 19.12 66 13 66 C12.731875 64.62457031 12.46375 63.24914062 12.1875 61.83203125 C10.17705044 51.61494936 8.107911 41.41547951 5.88671875 31.2421875 C5.70545441 30.41105942 5.52419006 29.57993134 5.33743286 28.72361755 C4.42854977 24.56212449 3.51362474 20.40205235 2.59179688 16.2434082 C2.25250138 14.69745094 1.91330418 13.1514721 1.57421875 11.60546875 C1.41507492 10.89603119 1.25593109 10.18659363 1.09196472 9.45565796 C0.3778063 6.1837724 0 3.37367178 0 0 Z " fill="#E1E4E8" transform="translate(324,132)"/>
<path d="M0 0 C36.63 0 73.26 0 111 0 C109.75296595 6.85868729 108.49431957 13.70939181 107.16015625 20.55078125 C106.90872108 21.84268623 106.90872108 21.84268623 106.65220642 23.16069031 C106.30048327 24.96649128 105.94839368 26.77222091 105.59594727 28.57788086 C105.0657617 31.29577952 104.53770973 34.01408705 104.00976562 36.73242188 C102.10537004 46.51188612 100.12541384 56.26573789 98 66 C92.06 66 86.12 66 80 66 C80 49.5 80 33 80 16 C63.5 16 47 16 30 16 C30 32.5 30 49 30 66 C24.06 66 18.12 66 12 66 C10.46240672 58.37580473 8.93754591 50.7491408 7.42163086 43.12060547 C7.13043483 41.65602599 6.83891025 40.19151182 6.54711914 38.72705078 C5.58077856 33.87681257 4.61987304 29.02554467 3.66531372 24.17297363 C3.34754083 22.56156046 3.02811091 20.95047314 2.70700073 19.33972168 C2.25199549 17.0554662 1.80305286 14.77009457 1.35546875 12.484375 C1.21820374 11.80197754 1.08093872 11.11958008 0.93951416 10.41650391 C0.23923699 6.80436861 0 3.727087 0 0 Z " fill="#E4E7EB" transform="translate(77,281)"/>
<path d="M0 0 C2.69660256 1.57186577 5.22982103 3.28793106 7.78515625 5.08203125 C8.39391602 5.50597168 9.00267578 5.92991211 9.62988281 6.36669922 C13.22398526 8.8720772 16.80055767 11.40099981 20.3671875 13.9453125 C24.41366352 16.82784249 28.49654634 19.65297316 32.59765625 22.45703125 C39.61081549 27.25809792 46.57973073 32.12055198 53.53393555 37.0065918 C57.29884048 39.65020744 61.06753446 42.28513487 64.875 44.8671875 C65.78245972 45.484729 65.78245972 45.484729 66.70825195 46.11474609 C68.28562031 47.18503046 69.86724274 48.24903798 71.44921875 49.3125 C73.78515625 51.08203125 73.78515625 51.08203125 75.78515625 54.08203125 C75.64684155 57.88568539 75.28431094 60.33329922 73.16015625 63.51953125 C69.77880598 65.7441038 67.79771855 65.52288245 63.78515625 65.08203125 C60.9314998 63.67715996 58.49351797 61.82273906 55.97265625 59.89453125 C54.87232056 59.08520142 54.87232056 59.08520142 53.74975586 58.25952148 C52.19986688 57.11885715 50.65477311 55.97165188 49.11425781 54.81835938 C46.12855899 52.59254281 43.10620938 50.42025406 40.08105469 48.24853516 C35.5480302 44.99296335 31.03361783 41.71156147 26.51464844 38.43652344 C25.39171387 37.62296387 25.39171387 37.62296387 24.24609375 36.79296875 C23.4979541 36.25091797 22.74981445 35.70886719 21.97900391 35.15039062 C19.74616719 33.53652466 17.50802101 31.93023072 15.26953125 30.32421875 C12.16779668 28.09527253 9.10246713 25.8242711 6.05078125 23.52734375 C4.52485537 22.3995829 2.9988177 21.27197329 1.47265625 20.14453125 C0.77325928 19.60562256 0.0738623 19.06671387 -0.64672852 18.51147461 C-4.32253681 15.66966564 -4.32253681 15.66966564 -8.7421875 15.4296875 C-12.08056319 17.66054519 -15.2939583 19.99412059 -18.46484375 22.45703125 C-24.09806729 26.75832829 -29.78325252 30.95512044 -35.58984375 35.01953125 C-40.75681447 38.63860845 -45.89927749 42.2860069 -51.00317383 45.99365234 C-53.99378742 48.16461628 -56.99428465 50.32170839 -59.99511719 52.47851562 C-61.48455042 53.55447223 -62.96954415 54.63659922 -64.45019531 55.72460938 C-66.59037878 57.29641005 -68.74452165 58.84707396 -70.90234375 60.39453125 C-71.85475952 61.1062146 -71.85475952 61.1062146 -72.82641602 61.83227539 C-77.04334263 64.81667396 -79.89229079 65.72620331 -85.21484375 65.08203125 C-87.65234375 63.58203125 -87.65234375 63.58203125 -89.21484375 61.08203125 C-90.08794863 56.16089463 -90.08794863 56.16089463 -89.21484375 53.08203125 C-83.78570784 47.80864924 -77.50324225 43.66844589 -71.27734375 39.39453125 C-70.25535889 38.68828613 -69.23337402 37.98204102 -68.18041992 37.25439453 C-65.19481728 35.19265557 -62.20562553 33.13624795 -59.21484375 31.08203125 C-58.45365234 30.55883301 -57.69246094 30.03563477 -56.90820312 29.49658203 C-54.32572426 27.72189568 -51.74307903 25.94746324 -49.15820312 24.17626953 C-42.83953354 19.84072513 -36.56794487 15.43816827 -30.30200195 11.02685547 C-26.32257285 8.23115749 -22.32998495 5.45589466 -18.3046875 2.7265625 C-17.23335571 1.9991687 -17.23335571 1.9991687 -16.14038086 1.25708008 C-11.21481235 -1.74872203 -5.32884613 -2.20860466 0 0 Z " fill="#EA7082" transform="translate(139.21484375,198.91796875)"/>
<path d="M0 0 C1.33804688 -0.04253906 1.33804688 -0.04253906 2.703125 -0.0859375 C10.1744669 1.04434243 16.14781187 5.89539445 22.0625 10.3125 C28.34353077 14.92629522 34.67734935 19.4344076 41.125 23.8125 C78.826654 49.451654 78.826654 49.451654 82.75 53.375 C83.32692308 60.41346154 83.32692308 60.41346154 81.25 63.875 C77.76246152 65.96752309 74.66666716 66.0865711 70.75 65.375 C67.66568298 63.8460789 65.07058718 61.81502505 62.375 59.6875 C60.78551315 58.48650667 59.19565898 57.28599935 57.60546875 56.0859375 C56.80028809 55.4681543 55.99510742 54.85037109 55.16552734 54.21386719 C51.39158383 51.34087926 47.54001219 48.57869701 43.6875 45.8125 C42.94540283 45.27616943 42.20330566 44.73983887 41.4387207 44.18725586 C35.6470524 40.0028086 29.81870322 35.8718848 23.9597168 31.78222656 C20.42469518 29.30526433 16.94554188 26.78092856 13.52734375 24.14453125 C12.84953857 23.62713379 12.1717334 23.10973633 11.47338867 22.57666016 C10.19147582 21.59306205 8.91882913 20.59722447 7.6574707 19.58740234 C5.20988459 17.71788587 3.43653908 16.40905234 0.30859375 16.25390625 C-3.46587347 17.90775677 -6.62511568 20.19184764 -9.9375 22.625 C-11.0502832 23.42647461 -11.0502832 23.42647461 -12.18554688 24.24414062 C-14.54609128 25.94666593 -16.89814393 27.66049935 -19.25 29.375 C-20.75587282 30.46442354 -22.26237405 31.55297902 -23.76953125 32.640625 C-26.01745434 34.2628729 -28.2648691 35.88577271 -30.50976562 37.51220703 C-36.3186914 41.71828099 -42.16269533 45.87230295 -48.04882812 49.96972656 C-51.55090426 52.41855903 -54.97979033 54.91917804 -58.33203125 57.5703125 C-58.99178955 58.08319824 -59.65154785 58.59608398 -60.33129883 59.12451172 C-61.56559175 60.08976993 -62.78686068 61.07204512 -63.9909668 62.07470703 C-68.06397085 65.2339374 -71.1343562 65.87453034 -76.27099609 65.7434082 C-78.25 65.375 -78.25 65.375 -80.875 63.3125 C-82.25 60.375 -82.25 60.375 -82.625 57.0625 C-80.46602213 51.2725139 -76.21851023 48.83455527 -71.25 45.375 C-70.69924805 44.98892578 -70.14849609 44.60285156 -69.58105469 44.20507812 C-66.37040688 41.95924166 -63.13989474 39.7440634 -59.8984375 37.54296875 C-54.63335747 33.96477011 -49.41060089 30.32658901 -44.1875 26.6875 C-43.22650391 26.01895996 -42.26550781 25.35041992 -41.27539062 24.66162109 C-36.1131706 21.0697327 -30.9561652 17.47056034 -25.8046875 13.86328125 C-24.75933838 13.13262451 -23.71398926 12.40196777 -22.63696289 11.64916992 C-20.62679474 10.24398369 -18.61810411 8.83668083 -16.61108398 7.42700195 C-15.70430908 6.79366943 -14.79753418 6.16033691 -13.86328125 5.5078125 C-12.66892456 4.67080811 -12.66892456 4.67080811 -11.45043945 3.81689453 C-7.51109255 1.23553618 -4.74717469 0.06781678 0 0 Z " fill="#EB7182" transform="translate(379.25,49.625)"/>
<path d="M0 0 C1.77035645 1.94799426 3.24300873 3.80127067 4.75 5.9375 C5.63576968 7.13448164 6.52381026 8.32978599 7.4140625 9.5234375 C7.85137695 10.11479492 8.28869141 10.70615234 8.73925781 11.31542969 C15.76613255 20.79668896 15.76613255 20.79668896 26 26 C33.6465534 26.94111426 40.4960171 26.93921663 47.0625 22.59375 C50.53171152 19.74004375 53.26007295 16.54843012 56 13 C56.42023438 12.46117187 56.84046875 11.92234375 57.2734375 11.3671875 C60.21109613 7.59968179 63.11500895 3.80795599 66 0 C74.97042628 1.23505869 82.36220963 5.17656094 88.5546875 11.8203125 C90.60961228 14.91936122 90.89850246 17.24840572 90.50390625 20.90625 C89.1565321 26.50464182 85.92562027 29.29848835 81.375 32.5 C76.46819697 35.46247412 71.46731124 37.48398401 66.0625 39.3125 C65.34819824 39.55484375 64.63389648 39.7971875 63.89794922 40.046875 C53.56624059 43.33075815 43.29911356 44.33049029 32.5 44.25 C30.94345703 44.26160156 30.94345703 44.26160156 29.35546875 44.2734375 C11.02657407 44.22778645 -7.43900942 39.60406052 -21.58984375 27.52734375 C-23.99702046 24.92012465 -24.91819877 22.62714275 -25.375 19.125 C-24.75565337 13.96377811 -22.66083068 11.35177175 -18.75390625 8.171875 C-12.87857183 3.91516391 -7.44615313 0 0 0 Z " fill="#C9CDD5" transform="translate(347,303)"/>
<path d="M0 0 C1.46190347 1.75964348 2.84428585 3.58566775 4.1875 5.4375 C5.00238022 6.54183195 5.81748652 7.64599711 6.6328125 8.75 C8.05819839 10.69920664 9.46741629 12.65712081 10.8671875 14.625 C15.27871654 20.64256957 19.85508389 24.6183613 27 27 C35.43187636 27.89837343 42.02548112 26.98354414 49 22 C51.67900981 19.56766561 53.82096104 16.8825442 56 14 C57.31482392 12.2813336 58.63166975 10.56423438 59.94921875 8.84765625 C60.84745385 7.67145728 61.73955815 6.49054712 62.625 5.3046875 C65.78556548 1.10721726 65.78556548 1.10721726 68 0 C87.17293472 7.6214044 87.17293472 7.6214044 91 16 C91.50638903 19.31656989 91.19882225 21.87107392 90 25 C87.75 27.8125 87.75 27.8125 85 30 C83.948125 30.99 83.948125 30.99 82.875 32 C67.77331025 42.5055233 49.75330746 44.35868272 31.875 44.25 C29.95494141 44.26160156 29.95494141 44.26160156 27.99609375 44.2734375 C11.66893037 44.24001444 -6.45899106 41.16041661 -19.20703125 30.08203125 C-22.18938073 26.94175695 -23.82920405 24.52137711 -25.1875 20.375 C-24.90852793 15.35350272 -22.99380296 12.83467314 -19.3359375 9.46875 C-14.2996467 5.4065566 -6.6626339 0 0 0 Z " fill="#C9CED6" transform="translate(99,451)"/>
<path d="M0 0 C4.04800946 2.0021236 7.52052185 4.6193692 11.140625 7.3046875 C12.74146716 8.47884733 14.34304897 9.65199928 15.9453125 10.82421875 C16.7609668 11.42186035 17.57662109 12.01950195 18.41699219 12.63525391 C23.03131429 15.98259574 27.7156196 19.23230005 32.40722656 22.47021484 C33.06948242 22.93250488 33.73173828 23.39479492 34.4140625 23.87109375 C35.279104 24.46966187 35.279104 24.46966187 36.16162109 25.08032227 C38.22133541 26.68778358 40.04314633 28.58220883 41.890625 30.4296875 C13.510625 30.4296875 -14.869375 30.4296875 -44.109375 30.4296875 C-38.48805981 24.80837231 -38.48805981 24.80837231 -35.53515625 22.7734375 C-34.87588135 22.31428955 -34.21660645 21.8551416 -33.53735352 21.38208008 C-32.83924561 20.90279053 -32.1411377 20.42350098 -31.421875 19.9296875 C-29.91595591 18.88253182 -28.41077396 17.83431543 -26.90625 16.78515625 C-26.12572266 16.24165527 -25.34519531 15.6981543 -24.54101562 15.13818359 C-19.59289729 11.66158398 -14.71110581 8.09216458 -9.82348633 4.53125 C-9.10443115 4.00917969 -8.38537598 3.48710938 -7.64453125 2.94921875 C-7.009104 2.48620361 -6.37367676 2.02318848 -5.71899414 1.54614258 C-2.51107104 -0.67891921 -2.51107104 -0.67891921 0 0 Z " fill="#E55261" transform="translate(381.109375,85.5703125)"/>
<path d="M0 0 C4.56245126 2.179442 8.59067766 5.01781997 12.75 7.875 C13.5860376 8.44855225 14.4220752 9.02210449 15.28344727 9.61303711 C20.90915257 13.49784563 26.46047478 17.47077957 31.9375 21.5625 C32.59266602 22.05024902 33.24783203 22.53799805 33.92285156 23.04052734 C34.53483398 23.50281738 35.14681641 23.96510742 35.77734375 24.44140625 C36.30577881 24.84045166 36.83421387 25.23949707 37.37866211 25.65063477 C39.3668088 27.30527816 41.1709877 29.1709877 43 31 C15.28 31 -12.44 31 -41 31 C-35.37697023 25.37697023 -35.37697023 25.37697023 -32.28515625 23.23828125 C-31.60549805 22.76390625 -30.92583984 22.28953125 -30.22558594 21.80078125 C-29.51176758 21.30964844 -28.79794922 20.81851563 -28.0625 20.3125 C-26.54794591 19.25684201 -25.03362673 18.2008469 -23.51953125 17.14453125 C-22.76365723 16.61939941 -22.0077832 16.09426758 -21.22900391 15.55322266 C-17.88680805 13.22430152 -14.56618486 10.86575182 -11.25 8.5 C-10.69062744 8.10337158 -10.13125488 7.70674316 -9.55493164 7.2980957 C-6.28309122 4.96576868 -3.11478936 2.53797651 0 0 Z " fill="#EA5464" transform="translate(131,233)"/>
<path d="M0 0 C5.28 0 10.56 0 16 0 C16 10.89 16 21.78 16 33 C10.72 33 5.44 33 0 33 C0 22.11 0 11.22 0 0 Z " fill="#A9B1BC" transform="translate(124,314)"/>
<path d="M0 0 C5.28 0 10.56 0 16 0 C16 10.89 16 21.78 16 33 C10.72 33 5.44 33 0 33 C0 22.11 0 11.22 0 0 Z " fill="#A9B1BC" transform="translate(372,165)"/>
<path d="M0 0 C5.28 0 10.56 0 16 0 C16 5.61 16 11.22 16 17 C10.72 17 5.44 17 0 17 C0 11.39 0 5.78 0 0 Z " fill="#070604" transform="translate(405,231)"/>
<path d="M0 0 C5.28 0 10.56 0 16 0 C16 5.61 16 11.22 16 17 C10.72 17 5.44 17 0 17 C0 11.39 0 5.78 0 0 Z " fill="#070604" transform="translate(372,231)"/>
<path d="M0 0 C5.28 0 10.56 0 16 0 C16 5.61 16 11.22 16 17 C10.72 17 5.44 17 0 17 C0 11.39 0 5.78 0 0 Z " fill="#070604" transform="translate(339,231)"/>
<path d="M0 0 C5.28 0 10.56 0 16 0 C16 5.28 16 10.56 16 16 C10.72 16 5.44 16 0 16 C0 10.72 0 5.44 0 0 Z " fill="#000000" transform="translate(157,380)"/>
<path d="M0 0 C5.28 0 10.56 0 16 0 C16 5.28 16 10.56 16 16 C10.72 16 5.44 16 0 16 C0 10.72 0 5.44 0 0 Z " fill="#000000" transform="translate(124,380)"/>
<path d="M0 0 C5.28 0 10.56 0 16 0 C16 5.28 16 10.56 16 16 C10.72 16 5.44 16 0 16 C0 10.72 0 5.44 0 0 Z " fill="#000000" transform="translate(91,380)"/>
</svg>
