<?xml version="1.0" encoding="UTF-8"?>
<svg version="1.1" xmlns="http://www.w3.org/2000/svg" width="512" height="512">
<path d="M0 0 C1.02875244 0.22220215 2.05750488 0.4444043 3.11743164 0.67333984 C59.41241332 13.29477078 112.14932875 44.26677921 147.9375 90 C148.87916016 91.12341797 148.87916016 91.12341797 149.83984375 92.26953125 C160.95180201 105.60842593 169.9562401 120.62510003 177.9375 136 C178.2876416 136.67289063 178.6377832 137.34578125 178.99853516 138.0390625 C192.24507092 163.88596155 200.24866508 192.25939973 203.9375 221 C204.02482895 221.66720566 204.1121579 222.33441132 204.20213318 223.02183533 C204.89837492 228.7382048 205.11206148 234.37742627 205.140625 240.1328125 C205.14768463 241.0791153 205.15474426 242.02541809 205.16201782 243.00039673 C205.38852085 282.27392926 205.38852085 282.27392926 201.9375 299 C201.73350586 300.02319336 201.52951172 301.04638672 201.31933594 302.10058594 C196.93507144 323.65176676 190.56042059 344.21028914 180.9375 364 C180.50308594 364.89477051 180.06867188 365.78954102 179.62109375 366.71142578 C167.2686895 391.85923485 151.24994192 413.76379404 131.9375 434 C131.10605469 434.87269531 130.27460938 435.74539063 129.41796875 436.64453125 C124.45330559 441.73428828 119.26577773 446.35761426 113.70703125 450.7890625 C111.89230999 452.23776804 110.09694774 453.71113988 108.32421875 455.2109375 C75.68816911 482.77026831 25.05147766 508.8063431 -18.53125 508.28125 C-23.89081693 507.68574256 -27.72206264 505.37571202 -31.4375 501.5625 C-34.91626475 496.07675559 -35.38083079 491.60758399 -35.3984375 485.26171875 C-35.4084227 484.00232231 -35.4084227 484.00232231 -35.41860962 482.71748352 C-35.42871029 480.94489727 -35.43342744 479.1722732 -35.43310547 477.3996582 C-35.43746914 474.7065462 -35.47378822 472.01508702 -35.51171875 469.32226562 C-35.51758962 467.59375556 -35.5215572 465.86523777 -35.5234375 464.13671875 C-35.53780853 463.34061691 -35.55217957 462.54451508 -35.56698608 461.72428894 C-35.5166952 455.47953561 -34.00284699 450.00293065 -29.53263855 445.43757629 C-24.61596751 441.28590093 -18.51528987 440.38923245 -12.375 439.125 C24.22894587 430.93080476 54.85640248 413.76196096 81.9375 388 C82.69289063 387.3090625 83.44828125 386.618125 84.2265625 385.90625 C118.07802847 353.90122762 136.4570136 304.7107304 138.15625 258.83984375 C139.4068932 206.56295819 119.51457056 157.58031483 83.8515625 119.6953125 C58.1015958 92.90764297 24.48040032 74.79194389 -11.7265625 66.9387207 C-19.84459567 65.17614839 -26.5102132 63.63189812 -32.0625 57 C-35.18173947 51.94333006 -35.51731856 47.92650784 -35.49609375 42.1640625 C-35.5013356 41.32587982 -35.50657745 40.48769714 -35.51197815 39.62411499 C-35.51837798 37.85749413 -35.51708784 36.09083055 -35.50854492 34.32421875 C-35.50004698 31.63984182 -35.52880343 28.95760397 -35.56054688 26.2734375 C-35.56215959 24.5494798 -35.56158002 22.82551837 -35.55859375 21.1015625 C-35.56982773 20.30859772 -35.58106171 19.51563293 -35.59263611 18.69863892 C-35.52286374 13.03977374 -34.20423446 8.7394279 -31.0625 4 C-21.95748427 -4.64976494 -11.41188327 -2.49348249 0 0 Z " fill="#FAB240" transform="translate(307.0625,3)"/>
<path d="M0 0 C1.02875244 0.22220215 2.05750488 0.4444043 3.11743164 0.67333984 C59.41241332 13.29477078 112.14932875 44.26677921 147.9375 90 C148.87916016 91.12341797 148.87916016 91.12341797 149.83984375 92.26953125 C160.95180201 105.60842593 169.9562401 120.62510003 177.9375 136 C178.2876416 136.67289063 178.6377832 137.34578125 178.99853516 138.0390625 C192.24507092 163.88596155 200.24866508 192.25939973 203.9375 221 C204.02482895 221.66720566 204.1121579 222.33441132 204.20213318 223.02183533 C204.89837492 228.7382048 205.11206148 234.37742627 205.140625 240.1328125 C205.14768463 241.0791153 205.15474426 242.02541809 205.16201782 243.00039673 C205.38852085 282.27392926 205.38852085 282.27392926 201.9375 299 C201.73350586 300.02319336 201.52951172 301.04638672 201.31933594 302.10058594 C196.93507144 323.65176676 190.56042059 344.21028914 180.9375 364 C180.50308594 364.89477051 180.06867188 365.78954102 179.62109375 366.71142578 C167.2686895 391.85923485 151.24994192 413.76379404 131.9375 434 C131.10605469 434.87269531 130.27460938 435.74539063 129.41796875 436.64453125 C124.45330559 441.73428828 119.26577773 446.35761426 113.70703125 450.7890625 C111.89230999 452.23776804 110.09694774 453.71113988 108.32421875 455.2109375 C75.68816911 482.77026831 25.05147766 508.8063431 -18.53125 508.28125 C-23.89081693 507.68574256 -27.72206264 505.37571202 -31.4375 501.5625 C-34.91626475 496.07675559 -35.38083079 491.60758399 -35.3984375 485.26171875 C-35.4084227 484.00232231 -35.4084227 484.00232231 -35.41860962 482.71748352 C-35.42871029 480.94489727 -35.43342744 479.1722732 -35.43310547 477.3996582 C-35.43746914 474.7065462 -35.47378822 472.01508702 -35.51171875 469.32226562 C-35.51758962 467.59375556 -35.5215572 465.86523777 -35.5234375 464.13671875 C-35.53780853 463.34061691 -35.55217957 462.54451508 -35.56698608 461.72428894 C-35.5166952 455.47953561 -34.00284699 450.00293065 -29.53263855 445.43757629 C-24.61596751 441.28590093 -18.51528987 440.38923245 -12.375 439.125 C24.22894587 430.93080476 54.85640248 413.76196096 81.9375 388 C82.69289063 387.3090625 83.44828125 386.618125 84.2265625 385.90625 C118.07802847 353.90122762 136.4570136 304.7107304 138.15625 258.83984375 C139.4068932 206.56295819 119.51457056 157.58031483 83.8515625 119.6953125 C58.1015958 92.90764297 24.48040032 74.79194389 -11.7265625 66.9387207 C-19.84459567 65.17614839 -26.5102132 63.63189812 -32.0625 57 C-35.18173947 51.94333006 -35.51731856 47.92650784 -35.49609375 42.1640625 C-35.5013356 41.32587982 -35.50657745 40.48769714 -35.51197815 39.62411499 C-35.51837798 37.85749413 -35.51708784 36.09083055 -35.50854492 34.32421875 C-35.50004698 31.63984182 -35.52880343 28.95760397 -35.56054688 26.2734375 C-35.56215959 24.5494798 -35.56158002 22.82551837 -35.55859375 21.1015625 C-35.56982773 20.30859772 -35.58106171 19.51563293 -35.59263611 18.69863892 C-35.52286374 13.03977374 -34.20423446 8.7394279 -31.0625 4 C-21.95748427 -4.64976494 -11.41188327 -2.49348249 0 0 Z M-18.0625 13 C-21.55750971 16.49500971 -20.36644888 21.67972804 -20.38476562 26.40429688 C-20.38259033 27.14800537 -20.38041504 27.89171387 -20.37817383 28.65795898 C-20.37501677 30.92545747 -20.3984576 33.1916476 -20.42382812 35.45898438 C-20.42610141 36.89843585 -20.42680448 38.33789084 -20.42578125 39.77734375 C-20.42876221 41.08952881 -20.43174316 42.40171387 -20.43481445 43.75366211 C-20.32151623 46.92130415 -20.32151623 46.92130415 -18.80834961 48.88232422 C-16.76456511 50.19073499 -15.15079115 50.65692191 -12.765625 51.10546875 C-11.90090576 51.27989502 -11.03618652 51.45432129 -10.14526367 51.6340332 C-9.21045166 51.81667725 -8.27563965 51.99932129 -7.3125 52.1875 C23.00160982 58.62187379 50.69393344 71.73126936 74.9375 91 C76.21367187 91.97066406 76.21367187 91.97066406 77.515625 92.9609375 C91.36443339 103.78291052 103.69981281 116.73163104 113.9375 131 C114.54851562 131.836521 114.54851562 131.836521 115.171875 132.68994141 C135.32301248 160.51732311 145.55660506 191.62960265 151.9375 225 C152.11925781 225.93247559 152.30101562 226.86495117 152.48828125 227.82568359 C153.02251745 231.60075916 153.13650873 235.32776766 153.17578125 239.1328125 C153.18548447 239.9145433 153.19518768 240.69627411 153.20518494 241.50169373 C153.23016047 244.04284819 153.24272894 246.58373486 153.25 249.125 C153.25392761 250.42689774 153.25392761 250.42689774 153.25793457 251.75509644 C153.2645107 272.15636127 151.68208762 292.59806962 144.9375 312 C144.46190744 313.48775982 143.98808787 314.97608708 143.515625 316.46484375 C133.53421145 347.16344009 117.18156695 373.73910646 94.9375 397 C94.06351562 397.92683594 93.18953125 398.85367187 92.2890625 399.80859375 C64.16917571 428.87680517 25.2652647 448.32677597 -14.41015625 455.26171875 C-17.40130039 456.09430526 -18.27790213 456.49424221 -20.0625 459 C-20.51156255 462.36014179 -20.51156255 462.36014179 -20.42578125 466.22265625 C-20.42627975 466.9239415 -20.42677826 467.62522675 -20.42729187 468.34776306 C-20.4249542 469.82798094 -20.41524363 471.30820301 -20.39868164 472.78833008 C-20.37504879 475.05781435 -20.37812728 477.32612676 -20.38476562 479.59570312 C-20.9619793 486.91263112 -20.9619793 486.91263112 -18.0625 493 C-14.79172874 492.73248027 -14.79172874 492.73248027 -11.0625 492 C-9.19223145 491.72361694 -9.19223145 491.72361694 -7.28417969 491.44165039 C3.4113057 489.75133075 13.45354151 486.9374815 23.6875 483.4375 C24.86055695 483.04124924 24.86055695 483.04124924 26.05731201 482.63699341 C56.69970061 472.2510984 83.69595775 456.39137968 107.9375 435 C108.43991211 434.56075195 108.94232422 434.12150391 109.45996094 433.66894531 C123.3272797 421.49782429 135.10206283 407.91125055 145.9375 393 C146.37126953 392.41234863 146.80503906 391.82469727 147.25195312 391.21923828 C159.25012333 374.82395737 169.43740491 355.23953648 175.9375 336 C176.22173828 335.16662109 176.50597656 334.33324219 176.79882812 333.47460938 C180.52657799 322.43144224 183.84783705 311.47822004 185.9375 300 C186.11796875 299.12214844 186.2984375 298.24429687 186.484375 297.33984375 C189.43351694 282.52710811 190.35062225 267.56926333 190.3125 252.5 C190.31195618 251.67883698 190.31141235 250.85767395 190.31085205 250.0116272 C190.2666496 235.37655064 188.97757831 221.3420437 185.9375 207 C185.72319336 205.95602051 185.50888672 204.91204102 185.28808594 203.83642578 C176.52202503 161.9264883 157.16092204 124.08546375 128.9375 92 C128.14085937 91.09121094 127.34421875 90.18242188 126.5234375 89.24609375 C118.58061612 80.30700783 110.29630639 72.44835237 100.9375 65 C99.88714668 64.13647886 98.83769037 63.27186565 97.7890625 62.40625 C67.74209002 37.86603576 21.64048024 13 -18.0625 13 Z " fill="#010100" transform="translate(307.0625,3)"/>
<path d="M0 0 C6.89736914 4.86558598 11.35543555 11.12092775 13.015625 19.421875 C14.74056584 32.43942851 7.1255991 44.63060448 1.65997314 56.04260254 C-0.12843518 59.7783317 -1.90014535 63.52196356 -3.671875 67.265625 C-4.21610611 68.41481415 -4.21610611 68.41481415 -4.77133179 69.58721924 C-8.07539207 76.58058727 -11.27705836 83.61812591 -14.45623779 90.66894531 C-20.42114627 103.89760225 -26.52982098 117.0538894 -32.734375 130.171875 C-33.12695496 131.00400513 -33.51953491 131.83613525 -33.92401123 132.69348145 C-35.04010229 135.05750062 -36.15996502 137.41969069 -37.28125 139.78125 C-37.77714127 140.83209778 -37.77714127 140.83209778 -38.28305054 141.9041748 C-43.08145728 151.97041614 -43.08145728 151.97041614 -45.984375 153.421875 C-48.3173616 153.46209891 -50.65144166 153.46507747 -52.984375 153.421875 C-53.09394531 154.14246094 -53.20351563 154.86304688 -53.31640625 155.60546875 C-54.23718597 159.48782069 -56.15251597 162.57584667 -58.12109375 166.01953125 C-59.26493048 168.34888697 -59.26493048 168.34888697 -58.19140625 170.29296875 C-57.79308594 170.99550781 -57.39476562 171.69804687 -56.984375 172.421875 C-55.30675661 178.78445534 -56.77140512 182.34943616 -59.546875 187.984375 C-60.37906627 189.74080961 -61.21108577 191.49732561 -62.04296875 193.25390625 C-62.50815918 194.22150879 -62.97334961 195.18911133 -63.45263672 196.18603516 C-64.85552448 199.14967468 -66.21567219 202.12753604 -67.55815125 205.11875916 C-68.7647251 207.80650898 -69.98325464 210.48876207 -71.20285034 213.17062378 C-71.800947 214.49098683 -72.39505355 215.81316555 -72.9848938 217.13723755 C-77.5900345 227.44579971 -82.32696036 236.74792489 -93.04296875 241.57421875 C-101.34197868 243.9658325 -110.31841525 243.60224017 -118.0546875 239.6875 C-123.00694527 236.43946049 -126.56328484 232.6882662 -130.109375 227.984375 C-133.79159566 223.19498323 -137.54830691 218.50501631 -141.484375 213.921875 C-145.75386046 208.93827901 -149.83322915 203.83371895 -153.859375 198.65234375 C-156.97585418 194.6593548 -160.18971121 190.76876937 -163.484375 186.921875 C-167.26625695 182.50609807 -170.91704603 178.01269594 -174.484375 173.421875 C-178.11529143 168.74994471 -181.83106845 164.17298642 -185.671875 159.671875 C-189.48490257 155.20315047 -193.23804613 150.69975914 -196.875 146.0859375 C-198.49256668 144.04301069 -200.12854222 142.0219806 -201.78125 140.0078125 C-209.7851492 130.18406265 -214.83704968 123.0808663 -214.4375 109.8671875 C-213.44820047 102.34509971 -209.86482086 96.20828442 -203.984375 91.421875 C-196.03494086 85.84137223 -189.75188379 84.54484162 -179.984375 85.421875 C-170.97492777 87.82025199 -165.4167699 92.48750745 -159.859375 99.859375 C-156.11410926 104.73020411 -152.29160615 109.50320757 -148.296875 114.171875 C-144.41981411 118.71029287 -140.63541784 123.30798464 -136.92578125 127.984375 C-134.90382801 130.52300442 -132.85465231 133.0372083 -130.796875 135.546875 C-126.87418918 140.33364896 -122.95639687 145.1243401 -119.046875 149.921875 C-118.47880127 150.61684082 -117.91072754 151.31180664 -117.32543945 152.02783203 C-116.79136475 152.68380371 -116.25729004 153.33977539 -115.70703125 154.015625 C-115.23015869 154.60021484 -114.75328613 155.18480469 -114.26196289 155.78710938 C-113.09680205 157.27801651 -112.03397622 158.84747317 -110.984375 160.421875 C-105.59044954 149.74615651 -100.3679407 139.00438547 -95.296875 128.171875 C-94.59865235 126.68403467 -93.90032681 125.19624262 -93.2019043 123.70849609 C-87.28556474 111.09747875 -81.41451456 98.46550244 -75.56103516 85.82519531 C-72.87271171 80.02227974 -70.17824165 74.22221881 -67.484375 68.421875 C-63.90228482 60.70872565 -60.32170348 52.99488769 -56.74734497 45.27815247 C-54.83518163 41.15126917 -52.91457545 37.02837805 -50.9921875 32.90625 C-49.10105765 28.84683167 -47.24019378 24.77653984 -45.4140625 20.6875 C-45.02057617 19.82068604 -44.62708984 18.95387207 -44.22167969 18.06079102 C-43.51433457 16.50186821 -42.81833268 14.93771075 -42.13769531 13.36694336 C-38.7605161 6.00066486 -33.34452447 0.0917842 -25.69921875 -2.9140625 C-16.79143613 -5.09294458 -7.95507768 -4.68875439 0 0 Z " fill="#010100" transform="translate(352.984375,136.578125)"/>
<path d="M0 0 C0.74702682 -0.00428513 1.49405365 -0.00857025 2.26371765 -0.01298523 C3.83782951 -0.01870308 5.41196777 -0.01924765 6.98608398 -0.01489258 C9.36944717 -0.01174158 11.75155632 -0.03519097 14.13476562 -0.06054688 C32.92010523 -0.14894905 32.92010523 -0.14894905 39.39453125 6.0703125 C43.14382847 11.00013517 44.16301432 16.99667893 45.48779297 22.93502808 C46.27309259 26.42945559 47.13527186 29.90439403 48.00390625 33.37890625 C48.26116486 34.40944374 48.26116486 34.40944374 48.52362061 35.46080017 C50.81563159 44.45133671 54.1895219 52.89405446 58.07421875 61.30078125 C58.56921875 62.37585938 58.56921875 62.37585938 59.07421875 63.47265625 C75.97050287 99.64126445 102.91676026 128.26595792 136.90234375 148.86328125 C140.66699844 151.35499515 140.66699844 151.35499515 142.07421875 153.30078125 C142.18056641 155.00427734 142.18056641 155.00427734 142.2890625 156.7421875 C142.67511755 160.22560372 142.67511755 160.22560372 144.55126953 161.52294922 C146.54496487 162.56356093 148.54111551 163.42258154 150.63671875 164.23828125 C151.34763672 164.54056641 152.05855469 164.84285156 152.79101562 165.15429688 C154.54181327 165.89456702 156.30682629 166.60105547 158.07421875 167.30078125 C158.71359375 166.62015625 159.35296875 165.93953125 160.01171875 165.23828125 C164.33158928 162.50530193 167.22864082 163.25788526 172.07421875 164.30078125 C175.02319938 164.99550561 177.92144821 165.80948767 180.82421875 166.67578125 C186.299524 168.26753233 191.73662361 169.70347079 197.32421875 170.86328125 C204.58645362 172.49842596 208.74228159 175.04353868 213.07421875 181.30078125 C213.96755298 183.98078394 214.2086571 185.55904486 214.23535156 188.30981445 C214.24495911 189.11107254 214.25456665 189.91233063 214.26446533 190.73786926 C214.27084015 192.03164742 214.27084015 192.03164742 214.27734375 193.3515625 C214.28304382 194.24312546 214.2887439 195.13468842 214.2946167 196.05326843 C214.30406224 197.94036677 214.31059891 199.82748157 214.31445312 201.71459961 C214.32414682 204.59192946 214.3551693 207.46854126 214.38671875 210.34570312 C214.39325032 212.18098535 214.39850019 214.01627268 214.40234375 215.8515625 C214.42086395 217.13623161 214.42086395 217.13623161 214.4397583 218.44685364 C214.41793291 224.34274913 213.4987104 228.67241189 209.35546875 233.1640625 C208.76765625 233.64230469 208.17984375 234.12054688 207.57421875 234.61328125 C206.98640625 235.10441406 206.39859375 235.59554687 205.79296875 236.1015625 C199.94794979 240.17979164 191.17906131 238.63164373 184.55859375 237.453125 C182.64400091 237.06326601 180.73255205 236.65770919 178.82421875 236.23828125 C177.79063232 236.01495117 176.7570459 235.79162109 175.69213867 235.56152344 C131.10166895 225.60814245 90.58894913 204.2979732 57.07421875 173.30078125 C56.09582031 172.42550781 55.11742188 171.55023438 54.109375 170.6484375 C34.58617905 153.15852153 19.0502054 131.98623014 6.07421875 109.30078125 C5.70296875 108.65689453 5.33171875 108.01300781 4.94921875 107.34960938 C-9.25228223 82.47232728 -27.42516025 42.7133884 -22.92578125 13.30078125 C-21.32463234 8.37810001 -18.25472886 5.08367614 -13.92578125 2.30078125 C-9.25496337 0.39886831 -4.98568291 -0.00643277 0 0 Z " fill="#FBB240" transform="translate(22.92578125,272.69921875)"/>
<path d="M0 0 C9.77387843 4.44267201 15.96797422 16.46875597 21.73291016 25.1171875 C22.81157768 26.72001677 23.92387154 28.30013279 25.04296875 29.875 C29.05271888 35.8181926 30.37266644 40.86645787 29 48 C26.76212946 54.3100612 21.35420096 58.90201985 16.85839844 63.67724609 C-6.33264901 88.54687026 -20.57806373 119.75649032 -28.078125 152.6640625 C-28.24658936 153.38875732 -28.41505371 154.11345215 -28.58862305 154.86010742 C-29.02804496 156.7864552 -29.43907785 158.71921906 -29.84765625 160.65234375 C-31.54555282 165.58487718 -34.2422367 168.72562161 -38.5 171.8125 C-43.46469509 174.17073017 -48.48567684 174.17107841 -53.8984375 174.203125 C-54.65162262 174.20882507 -55.40480774 174.21452515 -56.18081665 174.22039795 C-57.76929332 174.22981267 -59.3577892 174.23636784 -60.94628906 174.24023438 C-63.36037643 174.2499412 -65.773612 174.28099738 -68.1875 174.3125 C-69.73697416 174.31903119 -71.28645435 174.32428121 -72.8359375 174.328125 C-73.54970551 174.3404718 -74.26347351 174.3528186 -74.99887085 174.36553955 C-82.1552654 174.33414308 -87.82979807 172.02658521 -93 167 C-100.97726288 153.18050811 -93.76939709 134.30302581 -90 120 C-77.5760293 75.00322051 -77.5760293 75.00322051 -67.125 67.6875 C-65 67 -65 67 -62.671875 67.3828125 C-59.65189701 67.25257368 -59.65189701 67.25257368 -57.5078125 64.04296875 C-56.69507325 62.76941166 -55.90135701 61.48355653 -55.125 60.1875 C-54.70992187 59.54490234 -54.29484375 58.90230469 -53.8671875 58.24023438 C-52.53127564 56.15351557 -52.53127564 56.15351557 -51 53 C-51.33 52.01 -51.66 51.02 -52 50 C-53.03826759 44.72213974 -52.83581595 42.32719358 -49.93359375 37.71875 C-47.13174163 33.99493427 -44.0985648 30.47829561 -41 27 C-40.50902832 26.44812012 -40.01805664 25.89624023 -39.51220703 25.32763672 C-37.20338029 22.75213698 -34.86504042 20.20775579 -32.49609375 17.6875 C-30.35766043 15.38508666 -28.32596957 13.03568466 -26.3125 10.625 C-18.54097264 1.63330531 -11.79883415 -1.00844736 0 0 Z " fill="#020100" transform="translate(96,65)"/>
<path d="M0 0 C0.74702682 -0.00428513 1.49405365 -0.00857025 2.26371765 -0.01298523 C3.83782951 -0.01870308 5.41196777 -0.01924765 6.98608398 -0.01489258 C9.36944717 -0.01174158 11.75155632 -0.03519097 14.13476562 -0.06054688 C32.92010523 -0.14894905 32.92010523 -0.14894905 39.39453125 6.0703125 C43.14382847 11.00013517 44.16301432 16.99667893 45.48779297 22.93502808 C46.27309259 26.42945559 47.13527186 29.90439403 48.00390625 33.37890625 C48.26116486 34.40944374 48.26116486 34.40944374 48.52362061 35.46080017 C50.81563159 44.45133671 54.1895219 52.89405446 58.07421875 61.30078125 C58.56921875 62.37585938 58.56921875 62.37585938 59.07421875 63.47265625 C75.97050287 99.64126445 102.91676026 128.26595792 136.90234375 148.86328125 C138.95216019 150.21999429 140.55431459 151.37035635 142.07421875 153.30078125 C142.26171875 156.98828125 142.26171875 156.98828125 142.07421875 160.30078125 C141.41421875 160.30078125 140.75421875 160.30078125 140.07421875 160.30078125 C139.74421875 161.29078125 139.41421875 162.28078125 139.07421875 163.30078125 C136.16933882 164.75322122 134.31831864 164.62972844 131.07421875 164.30078125 C128.3513022 163.09199603 125.92734598 161.50837417 123.44921875 159.86328125 C122.39371826 159.18048096 122.39371826 159.18048096 121.31689453 158.48388672 C100.75134637 145.03053222 82.1066241 128.777676 67.38574219 109.05664062 C66.53102464 107.91235012 65.66997614 106.77275291 64.80175781 105.63867188 C45.02173443 79.79030409 33.41657336 49.01255431 27.07421875 17.30078125 C15.85421875 17.30078125 4.63421875 17.30078125 -6.92578125 17.30078125 C-6.25171576 24.71550165 -5.45047603 31.363095 -3.67578125 38.48828125 C-3.45108154 39.4011792 -3.22638184 40.31407715 -2.99487305 41.25463867 C7.32760533 82.49039438 27.70713752 122.97444989 59.07421875 152.30078125 C64.07421875 157.30078125 64.07421875 157.30078125 65.88671875 159.21875 C84.03242973 178.0649388 107.48252406 192.31881482 131.07421875 203.30078125 C132.14833008 203.80158203 132.14833008 203.80158203 133.24414062 204.3125 C149.74483843 211.88801825 167.04888584 216.91785043 184.76171875 220.80078125 C185.53322266 220.97319336 186.30472656 221.14560547 187.09960938 221.32324219 C191.34237501 222.19428617 193.69611969 222.17640106 198.07421875 221.30078125 C198.07421875 210.41078125 198.07421875 199.52078125 198.07421875 188.30078125 C192.79421875 186.98078125 187.51421875 185.66078125 182.07421875 184.30078125 C178.83836488 183.48410206 175.61081499 182.65935601 172.38671875 181.80078125 C171.27006836 181.52041016 171.27006836 181.52041016 170.13085938 181.234375 C165.66856629 180.03436386 162.34161408 178.75180926 159.07421875 175.30078125 C158.21490005 172.22111113 158.46004038 169.42482317 159.07421875 166.30078125 C160.51171875 164.17578125 160.51171875 164.17578125 163.07421875 163.30078125 C169.20345093 163.46049045 174.98393926 164.93282686 180.82421875 166.67578125 C186.299524 168.26753233 191.73662361 169.70347079 197.32421875 170.86328125 C204.58645362 172.49842596 208.74228159 175.04353868 213.07421875 181.30078125 C213.96755298 183.98078394 214.2086571 185.55904486 214.23535156 188.30981445 C214.24495911 189.11107254 214.25456665 189.91233063 214.26446533 190.73786926 C214.27084015 192.03164742 214.27084015 192.03164742 214.27734375 193.3515625 C214.28304382 194.24312546 214.2887439 195.13468842 214.2946167 196.05326843 C214.30406224 197.94036677 214.31059891 199.82748157 214.31445312 201.71459961 C214.32414682 204.59192946 214.3551693 207.46854126 214.38671875 210.34570312 C214.39325032 212.18098535 214.39850019 214.01627268 214.40234375 215.8515625 C214.42086395 217.13623161 214.42086395 217.13623161 214.4397583 218.44685364 C214.41793291 224.34274913 213.4987104 228.67241189 209.35546875 233.1640625 C208.76765625 233.64230469 208.17984375 234.12054688 207.57421875 234.61328125 C206.98640625 235.10441406 206.39859375 235.59554687 205.79296875 236.1015625 C199.94794979 240.17979164 191.17906131 238.63164373 184.55859375 237.453125 C182.64400091 237.06326601 180.73255205 236.65770919 178.82421875 236.23828125 C177.79063232 236.01495117 176.7570459 235.79162109 175.69213867 235.56152344 C131.10166895 225.60814245 90.58894913 204.2979732 57.07421875 173.30078125 C56.09582031 172.42550781 55.11742188 171.55023438 54.109375 170.6484375 C34.58617905 153.15852153 19.0502054 131.98623014 6.07421875 109.30078125 C5.70296875 108.65689453 5.33171875 108.01300781 4.94921875 107.34960938 C-9.25228223 82.47232728 -27.42516025 42.7133884 -22.92578125 13.30078125 C-21.32463234 8.37810001 -18.25472886 5.08367614 -13.92578125 2.30078125 C-9.25496337 0.39886831 -4.98568291 -0.00643277 0 0 Z " fill="#010100" transform="translate(22.92578125,272.69921875)"/>
<path d="M0 0 C3.78171013 2.03630545 7.09528802 4.08475871 9 8 C10.12633241 16.95434269 6.38765876 23.81844197 2.625 31.6875 C1.94998396 33.13157431 1.27643324 34.57633434 0.60424805 36.02172852 C-1.20029002 39.88934058 -3.02673397 43.74618304 -4.85980225 47.6003418 C-6.38942238 50.81957767 -7.91031339 54.04290739 -9.43161011 57.26608276 C-12.48830843 63.74136615 -15.55462404 70.21200038 -18.63088989 76.67800903 C-23.1775587 86.23702219 -27.65670238 95.82405081 -32.06030273 105.44995117 C-34.16237519 110.04198073 -36.28479955 114.61743254 -38.5078125 119.15234375 C-38.8898584 119.93762451 -39.2719043 120.72290527 -39.66552734 121.53198242 C-40.35625369 122.94469039 -41.0561508 124.35297758 -41.76806641 125.75512695 C-43.67127946 129.65974692 -44.48865064 132.65925924 -44 137 C-43.484375 137.66 -42.96875 138.32 -42.4375 139 C-41 141 -41 141 -41.25 143.73046875 C-42.5273351 149.29885145 -44.63365174 154.36401608 -48 159 C-50 159.71484375 -50 159.71484375 -52.0625 159.75 C-53.361875 159.8325 -54.66125 159.915 -56 160 C-61.11766539 166.85232094 -64.337562 174.877148 -67.875 182.625 C-69.93564119 187.11816989 -72.00873807 191.60512338 -74.10632324 196.08117676 C-74.70932285 197.37588387 -75.30628148 198.67341938 -75.89758301 199.97351074 C-76.77269037 201.89378923 -77.66910618 203.80279499 -78.5703125 205.7109375 C-79.08609863 206.8251709 -79.60188477 207.9394043 -80.13330078 209.08740234 C-82.33764817 212.52683007 -84.43157402 214.05552147 -88 216 C-92.13389899 216.73343369 -94.41456986 217.08662491 -97.90893555 214.69165039 C-102.72342298 210.37057888 -106.9068931 205.80447173 -110.9375 200.75 C-111.5452124 199.99984619 -112.1529248 199.24969238 -112.77905273 198.47680664 C-113.98402792 196.98887274 -115.18635681 195.49879102 -116.38574219 194.00634766 C-118.42723739 191.46899019 -120.4938301 188.9527278 -122.5625 186.4375 C-127.82602918 179.99673046 -133.06752562 173.5380303 -138.31054688 167.08056641 C-141.0395869 163.71974572 -143.76982464 160.3598984 -146.5 157 C-149.79750415 152.94191675 -153.09469763 148.8835828 -156.390625 144.82421875 C-156.9477417 144.1381958 -157.5048584 143.45217285 -158.07885742 142.74536133 C-159.18596482 141.38205844 -160.29290064 140.0186162 -161.3996582 138.6550293 C-164.4804981 134.86153126 -167.5783294 131.08284748 -170.6875 127.3125 C-174.00761322 123.2607322 -177.24166977 119.14991259 -180.4375 115 C-180.86313232 114.44739502 -181.28876465 113.89479004 -181.72729492 113.32543945 C-187.66783366 105.56703094 -187.66783366 105.56703094 -187 99 C-184.88247695 95.06745719 -182.76139594 92.38494308 -179 90 C-174.82798907 89.02085458 -170.79472312 89.05288034 -166.95703125 91.078125 C-161.40292135 95.6130271 -157.18915258 101.65564835 -152.85546875 107.3203125 C-150.17589484 110.80841792 -147.36630695 114.16475398 -144.5 117.5 C-140.71730583 121.9150472 -137.06729387 126.40922423 -133.5 131 C-129.42958352 136.23743866 -125.22754034 141.33591048 -120.9206543 146.38012695 C-118.16614572 149.60997765 -115.46173833 152.87077779 -112.8125 156.1875 C-112.18085938 156.97382813 -111.54921875 157.76015625 -110.8984375 158.5703125 C-109.55609788 160.28828625 -108.25215477 162.03658857 -106.9765625 163.8046875 C-103.03920454 169.25603999 -103.03920454 169.25603999 -97.25 172.375 C-93.25236443 171.91373436 -92.55786006 171.01221053 -90 168 C-88.49994517 165.41576683 -88.49994517 165.41576683 -87.21484375 162.48828125 C-86.6940625 161.3590625 -86.17328125 160.22984375 -85.63671875 159.06640625 C-85.07024838 157.81513319 -84.50384439 156.56383008 -83.9375 155.3125 C-83.33164169 153.99176852 -82.72484429 152.67146748 -82.1171875 151.3515625 C-80.79004055 148.4662 -79.46756483 145.57875576 -78.14794922 142.68994141 C-74.70317106 135.15735719 -71.208528 127.64778886 -67.72201538 120.13446045 C-66.49506371 117.48935819 -65.269402 114.84366214 -64.04418945 112.19775391 C-59.25399044 101.85340457 -54.45032526 91.51550993 -49.625 81.1875 C-45.21816468 71.75508247 -40.8210123 62.31828158 -36.4375 52.875 C-35.91043457 51.74118896 -35.38336914 50.60737793 -34.84033203 49.43920898 C-32.33525479 44.04734672 -29.83741353 38.65242032 -27.36231995 33.24673462 C-26.19281895 30.69383058 -25.01931826 28.14277439 -23.8454895 25.59185791 C-23.02646672 23.80765647 -22.21320876 22.02081224 -21.40014648 20.23388672 C-11.43593739 -1.40441336 -11.43593739 -1.40441336 0 0 Z " fill="#95D779" transform="translate(341,148)"/>
<path d="M0 0 C6.08342006 6.06907237 7.16455744 10.43873618 7.23828125 19.015625 C7.246353 19.90481628 7.25442474 20.79400757 7.26274109 21.71014404 C7.27657043 23.5930385 7.28729773 25.47595791 7.29516602 27.35888672 C7.31235265 30.22542421 7.35624544 33.09080021 7.40039062 35.95703125 C7.41052044 37.78905404 7.41903564 39.62108662 7.42578125 41.453125 C7.44328934 42.30440979 7.46079742 43.15569458 7.47883606 44.03277588 C7.45779328 49.86347266 6.34762134 53.20021767 3 58 C-2.11344467 62.85121674 -7.52746901 64.19066779 -14.24658203 65.59765625 C-28.65768952 68.61631723 -42.32824153 73.02452703 -55.8125 78.9375 C-61.58445329 81.39037777 -65.96552352 81.75045883 -72 80 C-80.06674452 76.56832501 -84.97040065 67.44879951 -89.6875 60.4375 C-90.24244141 59.62603516 -90.79738281 58.81457031 -91.36914062 57.97851562 C-92.93768858 55.66765842 -94.47697554 53.34106024 -96 51 C-96.41781738 50.36731201 -96.83563477 49.73462402 -97.26611328 49.08276367 C-100.94105168 43.17947477 -100.85993765 37.74052141 -100 31 C-96.58414991 23.78876092 -90.34394695 20.4004613 -83.375 17.1875 C-82.63209717 16.84348145 -81.88919434 16.49946289 -81.1237793 16.14501953 C-17.63441242 -12.71318105 -17.63441242 -12.71318105 0 0 Z " fill="#010000" transform="translate(230,4)"/>
<path d="M0 0 C2.67030973 1.04486269 3.52344282 2.29611321 5.16210938 4.63354492 C5.99548828 5.80626953 5.99548828 5.80626953 6.84570312 7.00268555 C7.41417969 7.82575195 7.98265625 8.64881836 8.56835938 9.49682617 C9.13683594 10.30055664 9.7053125 11.10428711 10.29101562 11.93237305 C11.39778463 13.50264973 12.49573999 15.07918244 13.58398438 16.66235352 C14.49072864 17.97385172 15.41402767 19.27433853 16.36523438 20.55395508 C18.05280667 22.87362421 19.03639055 24.62325121 19.52539062 27.46948242 C18.94611795 30.43516046 18.02456711 31.278188 15.75585938 33.24682617 C9.78757855 38.85722067 4.98933057 45.28864768 0.06835938 51.80932617 C-0.3626709 52.37425781 -0.79370117 52.93918945 -1.23779297 53.52124023 C-19.40888209 77.46481627 -31.0356794 105.39612735 -37.32128906 134.66259766 C-37.51754883 135.57468994 -37.71380859 136.48678223 -37.91601562 137.42651367 C-38.08842773 138.24748535 -38.26083984 139.06845703 -38.43847656 139.91430664 C-38.93164062 141.80932617 -38.93164062 141.80932617 -39.93164062 142.80932617 C-42.44088216 142.91019829 -44.92200446 142.94904649 -47.43164062 142.94213867 C-48.18251953 142.9430954 -48.93339844 142.94405212 -49.70703125 142.94503784 C-51.29752689 142.94571955 -52.8880253 142.94386589 -54.47851562 142.93969727 C-56.92128717 142.93434884 -59.36387484 142.93964251 -61.80664062 142.94604492 C-63.3483077 142.94538414 -64.88997466 142.94410297 -66.43164062 142.94213867 C-67.16705078 142.9441629 -67.90246094 142.94618713 -68.66015625 142.94827271 C-73.81668902 142.92427778 -73.81668902 142.92427778 -74.93164062 141.80932617 C-75.14230202 137.13768467 -74.7208265 133.02504685 -73.64648438 128.48510742 C-73.36691895 127.30166748 -73.08735352 126.11822754 -72.79931641 124.89892578 C-72.4923584 123.65248291 -72.18540039 122.40604004 -71.86914062 121.12182617 C-71.71169373 120.47827179 -71.55424683 119.83471741 -71.39202881 119.17166138 C-66.69142262 100.05615908 -60.34266549 81.05803864 -50.79614258 63.75073242 C-49.51022977 60.86296664 -50.15078017 58.80262458 -50.93164062 55.80932617 C-51.59164062 55.14932617 -52.25164063 54.48932617 -52.93164062 53.80932617 C-52.48671143 47.29510648 -48.20529435 41.49703631 -43.93164062 36.80932617 C-41.00891073 35.98496646 -39.02431211 36.45442944 -35.93164062 36.80932617 C-30.66815356 32.3651975 -26.58041638 26.57379227 -22.27929688 21.22338867 C-18.85916717 17.01399827 -15.33172688 13.07169894 -11.42602539 9.3059082 C-9.7372578 7.67076043 -9.7372578 7.67076043 -7.74414062 5.05932617 C-3.39834588 -0.33545351 -3.39834588 -0.33545351 0 0 Z " fill="#FBB240" transform="translate(89.931640625,80.190673828125)"/>
<path d="M0 0 C5.76416635 0.55732999 10.50844036 2.15451754 15.8125 4.4375 C16.63709717 4.79021973 17.46169434 5.14293945 18.3112793 5.50634766 C65.84374048 26.31905659 104.15449625 66.28824007 123.28515625 114.48828125 C135.85837442 147.16196761 141.1199215 183.28578506 135 218 C134.84402344 218.89750977 134.68804687 219.79501953 134.52734375 220.71972656 C129.39282526 249.38745481 119.05085088 277.1785016 102 301 C100.89205078 302.56041016 100.89205078 302.56041016 99.76171875 304.15234375 C95.51552332 309.96794475 90.99376359 315.41451115 86.109375 320.703125 C84.22100188 322.75935351 82.42019417 324.86286408 80.625 327 C61.94958141 348.27040842 35.34875993 364.36804351 8.8671875 373.89453125 C5.89758933 374.96773675 5.89758933 374.96773675 2.8828125 376.69921875 C0 378 0 378 -2.375 377.6875 C-3.179375 377.3471875 -3.179375 377.3471875 -4 377 C-3.00742187 376.5153125 -2.01484375 376.030625 -0.9921875 375.53125 C30.9092323 359.84552834 58.99128943 339.06829736 80 310 C80.41024414 309.43941895 80.82048828 308.87883789 81.24316406 308.30126953 C111.97164873 265.85800626 125.63914051 210.20636933 118.01171875 158.2578125 C116.94045832 152.10206226 115.54129887 146.05278495 114 140 C113.67168819 138.58528021 113.34587826 137.1699757 113.0234375 135.75390625 C107.2036025 111.84197547 96.52038327 88.84875267 82 69 C81.59426758 68.44022461 81.18853516 67.88044922 80.77050781 67.30371094 C75.13300336 59.58287812 69.01599838 52.3885264 62.41210938 45.47949219 C61.4756544 44.4983516 60.54457769 43.51204753 59.61914062 42.52050781 C42.8641028 24.59568949 22.09261752 11.40697256 0 1 C0 0.67 0 0.34 0 0 Z " fill="#FA9537" transform="translate(341,68)"/>
<path d="M0 0 C5.28 0 10.56 0 16 0 C16.2475 3.031875 16.2475 3.031875 16.5 6.125 C18.69822507 26.01318638 25.29824177 46.59935826 33 65 C33.26071289 65.6276123 33.52142578 66.25522461 33.79003906 66.90185547 C43.75091744 90.44518316 58.11021551 111.90942542 75 131 C75.74765625 131.85851562 76.4953125 132.71703125 77.265625 133.6015625 C86.42306679 143.9778005 96.08630328 153.47461918 107 162 C107.97195312 162.78890625 108.94390625 163.5778125 109.9453125 164.390625 C125.00877349 176.39609015 141.88326125 185.29402866 159 194 C159 194.66 159 195.32 159 196 C152.27826825 194.13231187 145.91331275 191.8849807 139.5625 189 C138.7055957 188.61118652 137.84869141 188.22237305 136.96582031 187.82177734 C114.17500702 177.25315359 93.78944152 162.95830916 75.27734375 146.0546875 C73.3262384 144.29434202 71.33986456 142.60815677 69.3125 140.9375 C66.17359266 138.26686788 63.52543655 135.31215575 60.86328125 132.171875 C58.90460514 129.88880599 56.86239992 127.70133397 54.8125 125.5 C43.95751467 113.41023705 35.10302497 100.04336541 27 86 C26.41871338 85.0102417 26.41871338 85.0102417 25.82568359 84.00048828 C14.74004044 64.96701081 6.51330753 43.55559511 2 22 C1.83532227 21.21963379 1.67064453 20.43926758 1.50097656 19.63525391 C1.02092908 17.30203303 0.56519267 14.9660476 0.125 12.625 C-0.07416016 11.58049683 -0.07416016 11.58049683 -0.27734375 10.51489258 C-0.97264425 6.47245942 -0.83261384 4.16306922 0 0 Z " fill="#FB9537" transform="translate(16,289)"/>
<path d="M0 0 C1.44632813 -0.00386719 1.44632813 -0.00386719 2.921875 -0.0078125 C5.25 0.125 5.25 0.125 6.25 1.125 C6.37559165 3.54987038 6.4386098 5.94476873 6.453125 8.37109375 C6.45882507 9.09740494 6.46452515 9.82371613 6.47039795 10.57203674 C6.47986 12.11124204 6.4863867 13.6504677 6.49023438 15.18969727 C6.49994587 17.54934861 6.53095857 19.90813124 6.5625 22.26757812 C6.5690292 23.76041147 6.57428 25.25325107 6.578125 26.74609375 C6.5904718 27.45446884 6.6028186 28.16284393 6.61553955 28.89268494 C6.60644531 30.88452148 6.60644531 30.88452148 6.25 34.125 C2.89927927 36.35881382 0.75862349 36.70074451 -3.1875 37.375 C-16.82639919 39.92016273 -30.1275542 43.90965947 -42.63842773 49.94042969 C-49.32583916 53.10490455 -49.32583916 53.10490455 -52.75 52.125 C-55.07877357 49.69123249 -56.85647854 46.94303815 -58.6875 44.125 C-59.69540962 42.62419007 -60.70452197 41.12418716 -61.71484375 39.625 C-62.20710449 38.87734375 -62.69936523 38.1296875 -63.20654297 37.359375 C-64.76717386 35.10013838 -66.45904638 33.00405678 -68.19140625 30.875 C-70.05129918 28.39903675 -70.7153556 27.47339584 -71.02734375 24.3359375 C-69.17621528 21.13184356 -66.60093506 20.11468187 -63.3125 18.75 C-62.30376831 18.31010742 -62.30376831 18.31010742 -61.2746582 17.86132812 C-59.10815643 16.92795866 -56.9300079 16.02630278 -54.75 15.125 C-54.07227539 14.83334961 -53.39455078 14.54169922 -52.69628906 14.24121094 C-36.76607414 7.38991716 -17.49108126 -0.04727319 0 0 Z " fill="#FAB240" transform="translate(215.75,16.875)"/>
<path d="M0 0 C3.04187752 1.61599743 4.27109748 4.16041363 6 7.0625 C5.0409375 7.990625 5.0409375 7.990625 4.0625 8.9375 C3.03694268 9.97451606 2.01688089 11.01697458 1 12.0625 C0.36835937 12.70960937 -0.26328125 13.35671875 -0.9140625 14.0234375 C-32.46886344 47.64364359 -54.03500524 97.37629167 -58 143.0625 C-60.64590014 143.08934679 -63.29153096 143.10926357 -65.9375 143.125 C-66.69224609 143.13337891 -67.44699219 143.14175781 -68.22460938 143.15039062 C-70.14994313 143.15902441 -72.07535581 143.11474333 -74 143.0625 C-75 142.0625 -75 142.0625 -75.14282227 138.89526367 C-75.00911432 135.30709083 -74.5395541 132.22333032 -73.71484375 128.73828125 C-73.43527832 127.55484131 -73.15571289 126.37140137 -72.86767578 125.15209961 C-72.56071777 123.90565674 -72.25375977 122.65921387 -71.9375 121.375 C-71.7800531 120.73144562 -71.6226062 120.08789124 -71.46038818 119.42483521 C-66.759782 100.30933291 -60.41102487 81.31121247 -50.86450195 64.00390625 C-49.57858915 61.11614047 -50.21913955 59.0557984 -51 56.0625 C-51.66 55.4025 -52.32 54.7425 -53 54.0625 C-52.55507081 47.54828031 -48.27365372 41.75021014 -44 37.0625 C-41.07727011 36.23814029 -39.09267148 36.70760327 -36 37.0625 C-30.73651293 32.61837133 -26.64877575 26.8269661 -22.34765625 21.4765625 C-18.92752655 17.2671721 -15.40008626 13.32487276 -11.49438477 9.55908203 C-9.80561717 7.92393426 -9.80561717 7.92393426 -7.8125 5.3125 C-3.62422084 0.1132569 -3.62422084 0.1132569 0 0 Z " fill="#FB9537" transform="translate(90,79.9375)"/>
<path d="M0 0 C-0.99902344 0.55429687 -1.99804688 1.10859375 -3.02734375 1.6796875 C-4.33088911 2.41117338 -5.63426584 3.14295982 -6.9375 3.875 C-7.59685547 4.23980469 -8.25621094 4.60460937 -8.93554688 4.98046875 C-12.57936369 6.85417898 -12.57936369 6.85417898 -15 10 C-16.32400836 19.12094647 -12.20909347 23.82258496 -7 31 C-5.58968417 33.30144946 -4.29273523 35.62998542 -3 38 C-4.051875 38.66 -5.10375 39.32 -6.1875 40 C-6.77917969 40.37125 -7.37085938 40.7425 -7.98046875 41.125 C-10.76842515 42.33293469 -11.98911475 42.71475021 -15 42 C-17.34223399 39.58117523 -19.10757265 36.81635426 -20.9375 34 C-21.94540962 32.49919007 -22.95452197 30.99918716 -23.96484375 29.5 C-24.45710449 28.75234375 -24.94936523 28.0046875 -25.45654297 27.234375 C-27.01717386 24.97513838 -28.70904638 22.87905678 -30.44140625 20.75 C-32.29596775 18.27960263 -32.9644701 17.3423354 -33.2890625 14.21484375 C-31.39938037 10.96802628 -28.71405966 9.9441226 -25.375 8.5625 C-24.71218018 8.27246094 -24.04936035 7.98242188 -23.36645508 7.68359375 C-21.25272058 6.7677168 -19.12781193 5.88261581 -17 5 C-15.57940229 4.39458942 -14.15882902 3.7891215 -12.73828125 3.18359375 C-11.38900461 2.62003467 -10.03877365 2.05875381 -8.6875 1.5 C-8.04796387 1.2326001 -7.40842773 0.9652002 -6.74951172 0.68969727 C-2.23576513 -1.11788257 -2.23576513 -1.11788257 0 0 Z " fill="#F99437" transform="translate(178,27)"/>
<path d="M0 0 C0.66 0.33 1.32 0.66 2 1 C-1.52686171 5.48873309 -6.58251782 7.58485642 -12 9 C-14.15234375 8.53979492 -14.15234375 8.53979492 -16 8 C-13.37964982 6.63610475 -10.75443001 5.28367827 -8.125 3.9375 C-7.37863281 3.54755859 -6.63226563 3.15761719 -5.86328125 2.75585938 C-4.79013672 2.20961914 -4.79013672 2.20961914 -3.6953125 1.65234375 C-3.03547363 1.31195068 -2.37563477 0.97155762 -1.69580078 0.62084961 C-1.13618652 0.41596924 -0.57657227 0.21108887 0 0 Z " fill="#EC8E34" transform="translate(353,437)"/>
<path d="M0 0 C-3.96 1.98 -7.92 3.96 -12 6 C-12.33 5.01 -12.66 4.02 -13 3 C-11.21189234 2.30329584 -9.41937948 1.61788811 -7.625 0.9375 C-6.62726563 0.55464844 -5.62953125 0.17179687 -4.6015625 -0.22265625 C-2 -1 -2 -1 0 0 Z " fill="#DF8631" transform="translate(178,27)"/>
</svg>
