<?xml version="1.0" encoding="UTF-8"?>
<svg version="1.1" xmlns="http://www.w3.org/2000/svg" width="512" height="512">
<path d="M0 0 C0.85014646 -0.00666801 1.70029291 -0.01333602 2.57620138 -0.02020609 C5.43857999 -0.03651042 8.29960425 -0.0170301 11.16194916 0.00215912 C13.2292315 -0.0021678 15.29651023 -0.00868189 17.36377954 -0.01720095 C23.05517177 -0.03424376 28.74612612 -0.01997531 34.43749547 -0.00068617 C40.57118414 0.01470278 46.70481783 0.0013488 52.83850861 -0.00843048 C64.16341417 -0.02213777 75.48813857 -0.01323231 86.8130192 0.00698569 C97.27445858 0.02553062 107.73584793 0.03396539 118.19730377 0.0324173 C119.23753939 0.03227978 119.23753939 0.03227978 120.29878988 0.03213949 C123.11377772 0.03174634 125.92876554 0.03129673 128.74375335 0.0307681 C155.15935184 0.02589518 181.57486153 0.04857134 207.99043242 0.08472433 C231.46750423 0.11671846 254.94450019 0.12876804 278.42159271 0.12264252 C279.92901105 0.12225567 281.43642938 0.12186922 282.94384772 0.12148315 C283.68908084 0.1212918 284.43431396 0.12110046 285.20212991 0.12090331 C288.95340764 0.119949 292.70468538 0.11903463 296.45596313 0.11816406 C297.19600651 0.11799027 297.93604988 0.11781647 298.69851882 0.11763741 C318.30629168 0.11328379 337.91405635 0.12329323 357.52182341 0.13800192 C358.21919084 0.13852206 358.91655826 0.1390422 359.63505804 0.13957811 C360.67921706 0.14035712 360.67921706 0.14035712 361.74447021 0.14115188 C362.43931471 0.14166962 363.13415921 0.14218736 363.85005961 0.14272078 C365.24943254 0.14376888 366.64880545 0.14482909 368.04817836 0.1459015 C377.81073205 0.15328709 387.57327415 0.15536941 397.33583029 0.1539075 C409.91576811 0.15206311 422.49562895 0.16043381 435.07554924 0.18554896 C441.14392996 0.1974324 447.21221541 0.20451852 453.28060722 0.1987114 C458.83078316 0.19355699 464.38075747 0.20216603 469.93089885 0.221986 C471.94360548 0.22674372 473.95633163 0.22640308 475.96903545 0.22057563 C478.69588285 0.21344071 481.42205356 0.22460167 484.14884949 0.24050903 C485.33266863 0.23083133 485.33266863 0.23083133 486.54040331 0.22095811 C491.05063575 0.27065699 493.99591087 0.80943597 497.57442474 3.62361908 C499.0109547 6.49667898 498.70395244 8.95520688 498.70864582 12.16795921 C498.71099805 12.85117148 498.71335028 13.53438376 498.71577379 14.23829943 C498.72248337 16.55041994 498.72200498 18.8624845 498.72159576 21.17461395 C498.72489316 22.83990952 498.72861846 24.50520428 498.73273724 26.17049801 C498.74277928 30.76449388 498.74647756 35.35847669 498.74912655 39.95248199 C498.75302302 44.90008716 498.76260171 49.84768191 498.77133942 54.79528046 C498.79112112 66.75155589 498.8011716 78.70783219 498.81006721 90.6641199 C498.81444678 96.28913058 498.8198144 101.91414031 498.82505608 107.53915024 C498.84206906 126.22803489 498.85656488 144.91691895 498.86380482 163.60581017 C498.86571483 168.45793788 498.86763515 173.3100656 498.86959076 178.1621933 C498.8700745 179.36822142 498.87055824 180.57424954 498.87105664 181.81682397 C498.87936308 201.36879981 498.90471005 220.92071459 498.93717144 240.47266375 C498.97019859 260.5282077 498.98824959 280.58372058 498.99144906 300.63929188 C498.99361805 311.90712527 499.00242351 323.17486959 499.02791023 334.44267654 C499.04955787 344.03555925 499.05769699 353.62833126 499.04794345 363.22123562 C499.04338163 368.11892605 499.04539366 373.0163878 499.0647049 377.91404724 C499.08221554 382.39356512 499.08143823 386.87268545 499.0658076 391.35220684 C499.06341301 392.97670755 499.06784995 394.60123493 499.07963625 396.22569464 C499.0946232 398.42681874 499.08517672 400.62650988 499.06940937 402.82759666 C499.07038618 404.05224975 499.07136299 405.27690283 499.0723694 406.53866661 C498.47562335 410.23573048 497.5216639 411.38541145 494.57442474 413.62361908 C490.82415905 414.87370764 487.33533222 414.7665489 483.4289732 414.76063347 C482.58481078 414.7632853 481.74064835 414.76593712 480.87090525 414.76866931 C478.01728119 414.77638249 475.16370002 414.77692225 472.31006622 414.77751923 C470.25347698 414.7815325 468.19688854 414.7859705 466.14030105 414.79079878 C460.46927802 414.80278487 454.79826351 414.80841742 449.12723029 414.81297994 C443.01872104 414.81892819 436.91022202 414.83053983 430.80171967 414.84127045 C416.73899952 414.8646501 402.67627899 414.87920302 388.61354583 414.89149986 C383.74923522 414.89575382 378.884925 414.90031952 374.02061486 414.90508318 C348.16519364 414.93034035 322.30977178 414.95239181 296.45434093 414.96481133 C290.46352575 414.96773272 284.47271059 414.97070023 278.48189545 414.97371674 C277.73760216 414.97408764 276.99330887 414.97445855 276.22646123 414.9748407 C252.08601046 414.98700056 227.94563253 415.01795205 203.80521598 415.05963826 C178.9945853 415.1024038 154.1839931 415.12904943 129.37332456 415.13428604 C125.87078101 415.13502651 122.36823753 415.1359372 118.86569405 415.13694382 C118.176346 415.13713443 117.48699794 415.13732505 116.77676056 415.13752144 C105.67307178 415.14103799 94.56947412 415.16134939 83.46581883 415.18774045 C72.30991245 415.21385641 61.15410992 415.22120956 49.9981676 415.21063916 C43.95187217 415.20543701 37.90586706 415.20844038 31.85961342 415.23310471 C26.32834086 415.25548068 20.79756914 415.25494824 15.2662885 415.23590083 C13.26156723 415.23308444 11.25681283 415.23878951 9.25214513 415.25371377 C6.53328111 415.27272308 3.81622082 415.26109713 1.09739971 415.24165154 C0.31345096 415.25450076 -0.47049779 415.26734998 -1.27820256 415.28058857 C-5.07159485 415.22070276 -7.85531771 414.72581835 -10.91124535 412.5169102 C-13.99481433 408.96858398 -14.17618469 407.36560361 -14.17782879 402.71292877 C-14.18624984 402.02655456 -14.19467089 401.34018036 -14.20334712 400.63300693 C-14.22428344 398.32738778 -14.202389 396.02417374 -14.18074799 393.71858978 C-14.18694399 392.05140722 -14.19575975 390.38423267 -14.20697337 388.7170763 C-14.23012681 384.13153108 -14.21574299 379.54674824 -14.19526422 374.96121836 C-14.1796604 370.01769904 -14.19854478 365.07429656 -14.2130661 360.13079071 C-14.23592033 350.44482285 -14.22639706 340.75914311 -14.20556524 331.07318091 C-14.18929691 323.20289755 -14.18507783 315.33269295 -14.18953133 307.46239471 C-14.190162 306.34326984 -14.19079268 305.22414496 -14.19144246 304.07110721 C-14.19278849 301.79779551 -14.19416806 299.52448384 -14.19558082 297.25117218 C-14.20752462 275.92237116 -14.18343346 254.59372828 -14.14656273 233.26496327 C-14.11566879 214.95444614 -14.11329793 196.64411115 -14.13236237 178.33358002 C-14.15446302 157.08236224 -14.16062907 135.83124662 -14.14003974 114.58002377 C-14.13787675 112.31496367 -14.13572765 110.04990356 -14.13359261 107.78484344 C-14.13252624 106.6703214 -14.13145988 105.55579935 -14.1303612 104.4075039 C-14.12388528 96.54451574 -14.12866463 88.68158006 -14.13761711 80.81859589 C-14.14814123 71.23930092 -14.1406888 61.66021973 -14.11016133 52.08096433 C-14.09500896 47.19120747 -14.08789977 42.30178837 -14.10235214 37.41202164 C-14.11533581 32.93862124 -14.10535725 28.46589101 -14.07679341 23.99256837 C-14.07049663 22.37151945 -14.07268532 20.75041157 -14.08406385 19.12939036 C-14.09824157 16.93022101 -14.08181708 14.73334182 -14.05757427 12.53430939 C-14.05622044 11.31166224 -14.0548666 10.0890151 -14.05347174 8.82931805 C-12.5096842 0.94757601 -7.13697499 -0.11102759 0 0 Z " fill="#FDE2AD" transform="translate(13.425575256347656,48.376380920410156)"/>
<path d="M0 0 C0.85014646 -0.00666801 1.70029291 -0.01333602 2.57620138 -0.02020609 C5.43857999 -0.03651042 8.29960425 -0.0170301 11.16194916 0.00215912 C13.2292315 -0.0021678 15.29651023 -0.00868189 17.36377954 -0.01720095 C23.05517177 -0.03424376 28.74612612 -0.01997531 34.43749547 -0.00068617 C40.57118414 0.01470278 46.70481783 0.0013488 52.83850861 -0.00843048 C64.16341417 -0.02213777 75.48813857 -0.01323231 86.8130192 0.00698569 C97.27445858 0.02553062 107.73584793 0.03396539 118.19730377 0.0324173 C119.23753939 0.03227978 119.23753939 0.03227978 120.29878988 0.03213949 C123.11377772 0.03174634 125.92876554 0.03129673 128.74375335 0.0307681 C155.15935184 0.02589518 181.57486153 0.04857134 207.99043242 0.08472433 C231.46750423 0.11671846 254.94450019 0.12876804 278.42159271 0.12264252 C279.92901105 0.12225567 281.43642938 0.12186922 282.94384772 0.12148315 C283.68908084 0.1212918 284.43431396 0.12110046 285.20212991 0.12090331 C288.95340764 0.119949 292.70468538 0.11903463 296.45596313 0.11816406 C297.19600651 0.11799027 297.93604988 0.11781647 298.69851882 0.11763741 C318.30629168 0.11328379 337.91405635 0.12329323 357.52182341 0.13800192 C358.21919084 0.13852206 358.91655826 0.1390422 359.63505804 0.13957811 C360.67921706 0.14035712 360.67921706 0.14035712 361.74447021 0.14115188 C362.43931471 0.14166962 363.13415921 0.14218736 363.85005961 0.14272078 C365.24943254 0.14376888 366.64880545 0.14482909 368.04817836 0.1459015 C377.81073205 0.15328709 387.57327415 0.15536941 397.33583029 0.1539075 C409.91576811 0.15206311 422.49562895 0.16043381 435.07554924 0.18554896 C441.14392996 0.1974324 447.21221541 0.20451852 453.28060722 0.1987114 C458.83078316 0.19355699 464.38075747 0.20216603 469.93089885 0.221986 C471.94360548 0.22674372 473.95633163 0.22640308 475.96903545 0.22057563 C478.69588285 0.21344071 481.42205356 0.22460167 484.14884949 0.24050903 C485.33266863 0.23083133 485.33266863 0.23083133 486.54040331 0.22095811 C491.05063575 0.27065699 493.99591087 0.80943597 497.57442474 3.62361908 C499.0109547 6.49667898 498.70395244 8.95520688 498.70864582 12.16795921 C498.71099805 12.85117148 498.71335028 13.53438376 498.71577379 14.23829943 C498.72248337 16.55041994 498.72200498 18.8624845 498.72159576 21.17461395 C498.72489316 22.83990952 498.72861846 24.50520428 498.73273724 26.17049801 C498.74277928 30.76449388 498.74647756 35.35847669 498.74912655 39.95248199 C498.75302302 44.90008716 498.76260171 49.84768191 498.77133942 54.79528046 C498.79112112 66.75155589 498.8011716 78.70783219 498.81006721 90.6641199 C498.81444678 96.28913058 498.8198144 101.91414031 498.82505608 107.53915024 C498.84206906 126.22803489 498.85656488 144.91691895 498.86380482 163.60581017 C498.86571483 168.45793788 498.86763515 173.3100656 498.86959076 178.1621933 C498.8700745 179.36822142 498.87055824 180.57424954 498.87105664 181.81682397 C498.87936308 201.36879981 498.90471005 220.92071459 498.93717144 240.47266375 C498.97019859 260.5282077 498.98824959 280.58372058 498.99144906 300.63929188 C498.99361805 311.90712527 499.00242351 323.17486959 499.02791023 334.44267654 C499.04955787 344.03555925 499.05769699 353.62833126 499.04794345 363.22123562 C499.04338163 368.11892605 499.04539366 373.0163878 499.0647049 377.91404724 C499.08221554 382.39356512 499.08143823 386.87268545 499.0658076 391.35220684 C499.06341301 392.97670755 499.06784995 394.60123493 499.07963625 396.22569464 C499.0946232 398.42681874 499.08517672 400.62650988 499.06940937 402.82759666 C499.07038618 404.05224975 499.07136299 405.27690283 499.0723694 406.53866661 C498.47562335 410.23573048 497.5216639 411.38541145 494.57442474 413.62361908 C490.82415905 414.87370764 487.33533222 414.7665489 483.4289732 414.76063347 C482.58481078 414.7632853 481.74064835 414.76593712 480.87090525 414.76866931 C478.01728119 414.77638249 475.16370002 414.77692225 472.31006622 414.77751923 C470.25347698 414.7815325 468.19688854 414.7859705 466.14030105 414.79079878 C460.46927802 414.80278487 454.79826351 414.80841742 449.12723029 414.81297994 C443.01872104 414.81892819 436.91022202 414.83053983 430.80171967 414.84127045 C416.73899952 414.8646501 402.67627899 414.87920302 388.61354583 414.89149986 C383.74923522 414.89575382 378.884925 414.90031952 374.02061486 414.90508318 C348.16519364 414.93034035 322.30977178 414.95239181 296.45434093 414.96481133 C290.46352575 414.96773272 284.47271059 414.97070023 278.48189545 414.97371674 C277.73760216 414.97408764 276.99330887 414.97445855 276.22646123 414.9748407 C252.08601046 414.98700056 227.94563253 415.01795205 203.80521598 415.05963826 C178.9945853 415.1024038 154.1839931 415.12904943 129.37332456 415.13428604 C125.87078101 415.13502651 122.36823753 415.1359372 118.86569405 415.13694382 C118.176346 415.13713443 117.48699794 415.13732505 116.77676056 415.13752144 C105.67307178 415.14103799 94.56947412 415.16134939 83.46581883 415.18774045 C72.30991245 415.21385641 61.15410992 415.22120956 49.9981676 415.21063916 C43.95187217 415.20543701 37.90586706 415.20844038 31.85961342 415.23310471 C26.32834086 415.25548068 20.79756914 415.25494824 15.2662885 415.23590083 C13.26156723 415.23308444 11.25681283 415.23878951 9.25214513 415.25371377 C6.53328111 415.27272308 3.81622082 415.26109713 1.09739971 415.24165154 C0.31345096 415.25450076 -0.47049779 415.26734998 -1.27820256 415.28058857 C-5.07159485 415.22070276 -7.85531771 414.72581835 -10.91124535 412.5169102 C-13.99481433 408.96858398 -14.17618469 407.36560361 -14.17782879 402.71292877 C-14.18624984 402.02655456 -14.19467089 401.34018036 -14.20334712 400.63300693 C-14.22428344 398.32738778 -14.202389 396.02417374 -14.18074799 393.71858978 C-14.18694399 392.05140722 -14.19575975 390.38423267 -14.20697337 388.7170763 C-14.23012681 384.13153108 -14.21574299 379.54674824 -14.19526422 374.96121836 C-14.1796604 370.01769904 -14.19854478 365.07429656 -14.2130661 360.13079071 C-14.23592033 350.44482285 -14.22639706 340.75914311 -14.20556524 331.07318091 C-14.18929691 323.20289755 -14.18507783 315.33269295 -14.18953133 307.46239471 C-14.190162 306.34326984 -14.19079268 305.22414496 -14.19144246 304.07110721 C-14.19278849 301.79779551 -14.19416806 299.52448384 -14.19558082 297.25117218 C-14.20752462 275.92237116 -14.18343346 254.59372828 -14.14656273 233.26496327 C-14.11566879 214.95444614 -14.11329793 196.64411115 -14.13236237 178.33358002 C-14.15446302 157.08236224 -14.16062907 135.83124662 -14.14003974 114.58002377 C-14.13787675 112.31496367 -14.13572765 110.04990356 -14.13359261 107.78484344 C-14.13252624 106.6703214 -14.13145988 105.55579935 -14.1303612 104.4075039 C-14.12388528 96.54451574 -14.12866463 88.68158006 -14.13761711 80.81859589 C-14.14814123 71.23930092 -14.1406888 61.66021973 -14.11016133 52.08096433 C-14.09500896 47.19120747 -14.08789977 42.30178837 -14.10235214 37.41202164 C-14.11533581 32.93862124 -14.10535725 28.46589101 -14.07679341 23.99256837 C-14.07049663 22.37151945 -14.07268532 20.75041157 -14.08406385 19.12939036 C-14.09824157 16.93022101 -14.08181708 14.73334182 -14.05757427 12.53430939 C-14.05622044 11.31166224 -14.0548666 10.0890151 -14.05347174 8.82931805 C-12.5096842 0.94757601 -7.13697499 -0.11102759 0 0 Z M3.57442474 88.62361908 C3.57442474 172.11361908 3.57442474 255.60361908 3.57442474 341.62361908 C161.31442474 341.62361908 319.05442474 341.62361908 481.57442474 341.62361908 C481.57442474 258.13361908 481.57442474 174.64361908 481.57442474 88.62361908 C323.83442474 88.62361908 166.09442474 88.62361908 3.57442474 88.62361908 Z " fill="#010000" transform="translate(13.425575256347656,48.376380920410156)"/>
<path d="M0 0 C126.72 0 253.44 0 384 0 C384 17.49 384 34.98 384 53 C257.28 53 130.56 53 0 53 C0 35.51 0 18.02 0 0 Z " fill="#FEA620" transform="translate(17,67)"/>
<path d="M0 0 C157.74 0 315.48 0 478 0 C478 12.54 478 25.08 478 38 C320.26 38 162.52 38 0 38 C0 25.46 0 12.92 0 0 Z " fill="#FE3D19" transform="translate(17,407)"/>
<path d="M0 0 C0.65411267 -0.00709439 1.30822535 -0.01418877 1.98215961 -0.02149814 C4.16668871 -0.03905388 6.34943261 -0.02098889 8.53393555 -0.00291443 C10.10290333 -0.00805426 11.67186534 -0.01533602 13.24081421 -0.02459717 C17.49713395 -0.04311165 21.75282728 -0.03017262 26.00912094 -0.01050687 C30.46442136 0.00588071 34.91968213 -0.00293341 39.375 -0.00802612 C46.85679122 -0.01254697 54.33833242 0.00332211 61.82006836 0.03126526 C70.46857969 0.06331719 79.1166401 0.06330144 87.76518345 0.04605049 C96.08662632 0.03018375 104.40790395 0.03691989 112.7293396 0.0539875 C116.26993206 0.06085804 119.81039207 0.05982554 123.35098267 0.05244255 C127.52080581 0.04477832 131.69011613 0.05690994 135.85985184 0.08429146 C137.38966983 0.09117499 138.91953572 0.09127355 140.44935226 0.08407593 C142.53890892 0.07537802 144.62688409 0.09133937 146.71630859 0.11352539 C147.88510056 0.11633231 149.05389252 0.11913923 150.25810242 0.12203121 C154.00458794 0.73373489 155.66594309 2.00436951 158.3581543 4.62818909 C159.58545741 7.08279531 159.49814653 8.71283032 159.51928711 11.45753479 C159.52889465 12.46230362 159.5385022 13.46707245 159.54840088 14.50228882 C159.5547757 16.13662117 159.5547757 16.13662117 159.5612793 17.80397034 C159.56697937 18.92128036 159.57267944 20.03859039 159.57855225 21.1897583 C159.58801171 23.55781606 159.59453997 25.92588704 159.59838867 28.29396057 C159.60808649 31.91536994 159.63909849 35.53621007 159.6706543 39.15748596 C159.67718496 41.45631071 159.68243518 43.75513953 159.6862793 46.05397034 C159.6986261 47.13745255 159.7109729 48.22093475 159.72369385 49.33724976 C159.69522299 58.95901517 159.69522299 58.95901517 156.3581543 62.62818909 C152.9004573 64.86298068 149.97594919 64.88382254 145.91249084 64.89561462 C145.2673997 64.90014574 144.62230856 64.90467685 143.9576692 64.90934527 C141.79820384 64.92199567 139.63899048 64.92036854 137.47949219 64.91871643 C135.93038102 64.92470123 134.38127284 64.93150667 132.83216858 64.93907166 C128.62557637 64.95674227 124.41906551 64.96142744 120.21243978 64.96270323 C116.7009328 64.96460248 113.18944476 64.97196019 109.67794508 64.97904742 C101.39401091 64.99533245 93.11012021 65.00021621 84.82617188 64.99879456 C76.27939432 64.99759257 67.73286907 65.01870549 59.18615538 65.05028188 C51.84846561 65.07642589 44.51085835 65.08716267 37.17312235 65.08588374 C32.79049113 65.08537362 28.40808419 65.09108445 24.02549934 65.11223984 C19.90417412 65.13159116 15.78328787 65.13176826 11.66194725 65.11720657 C10.14984624 65.1151136 8.63771797 65.11984848 7.12566376 65.13192749 C5.06019273 65.14735825 2.99623957 65.13808895 0.93080139 65.12266541 C-0.2245407 65.12375494 -1.37988279 65.12484447 -2.57023525 65.12596703 C-6.3018201 64.52123519 -7.95929587 63.23891077 -10.6418457 60.62818909 C-11.88826457 58.13535135 -11.79580805 56.40478096 -11.8347168 53.61524963 C-11.85077972 52.5704393 -11.86684265 51.52562897 -11.88339233 50.44915771 C-11.92778376 45.66875303 -11.9689045 40.88848792 -11.99194336 36.10792542 C-12.00851027 33.58504517 -12.03580954 31.062212 -12.07397461 28.53956604 C-12.1286776 24.90609839 -12.1506082 21.27373155 -12.1652832 17.63990784 C-12.18795258 16.51267807 -12.21062195 15.3854483 -12.23397827 14.22406006 C-12.23112823 13.16979324 -12.2282782 12.11552643 -12.2253418 11.02931213 C-12.23342865 10.10490829 -12.2415155 9.18050446 -12.24984741 8.22808838 C-10.73861234 1.76583848 -6.09832544 0.00305915 0 0 Z " fill="#000000" transform="translate(73.641845703125,201.37181091308594)"/>
<path d="M0 0 C0.82435547 -0.01568527 1.64871094 -0.03137054 2.49804688 -0.04753113 C3.81385742 -0.02460747 3.81385742 -0.02460747 5.15625 -0.0012207 C6.06955078 -0.00458939 6.98285156 -0.00795807 7.92382812 -0.01142883 C9.85031784 -0.01113049 11.77685554 0.00407087 13.703125 0.03320312 C16.64731097 0.07287759 19.58699 0.05390733 22.53125 0.02807617 C24.40626743 0.03563576 26.28127488 0.0465897 28.15625 0.0612793 C29.03345703 0.0542952 29.91066406 0.0473111 30.81445312 0.04011536 C31.63880859 0.05910385 32.46316406 0.07809235 33.3125 0.09765625 C34.39241211 0.10814751 34.39241211 0.10814751 35.49414062 0.11885071 C38.88975415 1.12656401 40.41493936 3.06960592 42.65625 5.76049805 C43.2854557 8.93863678 43.2854557 8.93863678 43.29116821 12.59216309 C43.30286814 13.60395874 43.30286814 13.60395874 43.31480443 14.63619471 C43.33470163 16.8897782 43.3189712 19.14166856 43.30322266 21.39526367 C43.30999988 23.01349369 43.31890361 24.631716 43.32977295 26.24992371 C43.35256071 30.64051166 43.34373231 35.03051197 43.32787752 39.42111015 C43.31521575 44.01655533 43.3269594 48.6119503 43.33480835 53.20739746 C43.34390411 60.92457104 43.33191896 68.64150533 43.30810547 76.35864258 C43.28089427 85.27986721 43.28970849 94.2005205 43.3172375 103.12173128 C43.33992968 110.78219381 43.34312813 118.44248437 43.33004415 126.10296965 C43.32225022 130.6778573 43.32120638 135.25247642 43.33772659 139.8273468 C43.35217378 144.12856595 43.34214564 148.42904875 43.31325531 152.73018837 C43.30664574 154.30838613 43.30854006 155.88664589 43.31956863 157.46481895 C43.3332426 159.62032576 43.31609175 161.77347626 43.29116821 163.92883301 C43.28928308 165.13449669 43.28739796 166.34016037 43.2854557 167.58235931 C42.47626044 171.66963123 40.84140996 173.16591285 37.65625 175.76049805 C35.53210449 176.38868713 35.53210449 176.38868713 33.40429688 176.39160156 C32.59996216 176.40413467 31.79562744 176.41666779 30.96691895 176.42958069 C30.11158569 176.41632248 29.25625244 176.40306427 28.375 176.3894043 C27.48389526 176.39181625 26.59279053 176.39422821 25.67468262 176.39671326 C23.79528339 176.39573607 21.91585493 176.38237316 20.03662109 176.35742188 C17.1653432 176.32310672 14.29714362 176.33677016 11.42578125 176.35620117 C9.59634111 176.34930242 7.76690889 176.33962977 5.9375 176.3269043 C4.65450012 176.3343441 4.65450012 176.3343441 3.34558105 176.3419342 C-0.69198686 176.26243959 -2.84735895 176.06447733 -6.36132812 173.91259766 C-9.71152204 170.27565685 -9.47528922 167.04154526 -9.49765015 162.28996277 C-9.5020324 161.63009741 -9.50641465 160.97023204 -9.5109297 160.29037076 C-9.52430522 158.07492526 -9.5304937 155.85951953 -9.53662109 153.64404297 C-9.54452295 152.05729493 -9.55279196 150.47054868 -9.56140137 148.88380432 C-9.58760857 143.66954258 -9.60292625 138.45527285 -9.6171875 133.2409668 C-9.62254744 131.44598193 -9.62792495 129.65099711 -9.63331985 127.85601234 C-9.65494536 120.39016382 -9.67368268 112.92431746 -9.68494225 105.45844555 C-9.70118642 94.75790829 -9.73437917 84.05773384 -9.79134309 73.35733336 C-9.83003091 65.83367441 -9.84957347 58.31011256 -9.85486281 50.78635675 C-9.85851745 46.29238029 -9.87055069 41.79879092 -9.90296555 37.3049221 C-9.93302651 33.07686813 -9.9393653 28.84943586 -9.92758179 24.62129784 C-9.92736089 23.07089928 -9.93567912 21.52047204 -9.95323563 19.97017288 C-10.09424057 6.80052853 -10.09424057 6.80052853 -7.07876587 2.83898926 C-4.39018964 0.79579012 -3.30639598 0.00807081 0 0 Z " fill="#030402" transform="translate(407.34375,175.239501953125)"/>
<path d="M0 0 C0.87315353 -0.00807175 1.74630707 -0.01614349 2.6459198 -0.02445984 C4.49610405 -0.03830239 6.34631387 -0.04902378 8.1965332 -0.05688477 C11.02149072 -0.07408795 13.84527496 -0.11797041 16.66992188 -0.16210938 C18.46743931 -0.17223722 20.2649667 -0.18075304 22.0625 -0.1875 C22.90537064 -0.20500809 23.74824127 -0.22251617 24.61665344 -0.24055481 C28.68775361 -0.2255544 30.71808951 -0.08536824 34.2409668 2.13989258 C37.07659973 5.13072152 37.35727604 6.72404108 37.3843689 10.73506165 C37.39296936 11.68138458 37.40156982 12.62770752 37.41043091 13.60270691 C37.41469086 14.64429459 37.41895081 15.68588226 37.42333984 16.7590332 C37.43560608 18.4006543 37.43560608 18.4006543 37.44812012 20.07543945 C37.47300054 23.7091415 37.48949604 27.34280445 37.50390625 30.9765625 C37.50922993 32.21516714 37.5145536 33.45377178 37.5200386 34.7299099 C37.54127282 39.93446287 37.56040292 45.13900995 37.571661 50.34359455 C37.587899 57.80121763 37.62107301 65.2583196 37.67806184 72.71574622 C37.72143742 78.5922381 37.73740662 84.46856828 37.74379349 90.34520531 C37.7505226 92.84471536 37.76578734 95.34421734 37.7896843 97.84362221 C37.82120206 101.33926903 37.82139212 104.83359488 37.81396484 108.3293457 C37.83037018 109.36486069 37.84677551 110.40037567 37.86367798 111.4672699 C37.82279066 116.16025272 37.76844034 118.49380295 34.95974731 122.38064575 C32.28476661 124.20132437 31.14166889 124.86505224 27.97851562 124.86938477 C27.17418091 124.88191788 26.36984619 124.89445099 25.5411377 124.90736389 C24.68580444 124.89410568 23.83047119 124.88084747 22.94921875 124.8671875 C22.05811401 124.86959946 21.16700928 124.87201141 20.24890137 124.87449646 C18.36950214 124.87351928 16.49007368 124.86015636 14.61083984 124.83520508 C11.73956195 124.80088992 8.87136237 124.81455336 6 124.83398438 C4.17055986 124.82708563 2.34112764 124.81741298 0.51171875 124.8046875 C-0.77128113 124.8121273 -0.77128113 124.8121273 -2.0802002 124.81971741 C-6.16065196 124.73937847 -8.26271216 124.55914366 -11.78710938 122.32788086 C-14.60922471 119.35319057 -14.89584903 117.76904051 -14.91670227 113.77946472 C-14.92385757 112.84155594 -14.93101288 111.90364716 -14.93838501 110.93731689 C-14.94107391 109.90507996 -14.94376282 108.87284302 -14.9465332 107.80932617 C-14.9531044 106.72466568 -14.9596756 105.64000519 -14.96644592 104.5224762 C-14.9862101 100.92123349 -14.99784794 97.32003253 -15.0078125 93.71875 C-15.01188803 92.49117792 -15.01596355 91.26360584 -15.02016258 89.99883461 C-15.03888184 84.17305834 -15.05344517 78.34729855 -15.06177455 72.52149791 C-15.07154614 65.79806919 -15.0978631 59.07496978 -15.13827544 52.35165709 C-15.17208098 46.52748941 -15.18392011 40.70343218 -15.18797874 34.87917519 C-15.19285849 32.40200885 -15.20451165 29.92484639 -15.22301674 27.44774437 C-15.24729017 23.98336765 -15.2464644 20.51985514 -15.23950195 17.05541992 C-15.25231201 16.02925568 -15.26512207 15.00309143 -15.27832031 13.9458313 C-15.24582154 9.51659536 -15.21514069 6.96683421 -12.86515808 3.12471008 C-8.89605778 -0.4481709 -5.10358356 0.04440794 0 0 Z " fill="#000000" transform="translate(346.76953125,226.76171875)"/>
<path d="M0 0 C0.87315353 -0.00807175 1.74630707 -0.01614349 2.6459198 -0.02445984 C4.49610405 -0.03830239 6.34631387 -0.04902378 8.1965332 -0.05688477 C11.02149072 -0.07408795 13.84527496 -0.11797041 16.66992188 -0.16210938 C18.46743931 -0.17223722 20.2649667 -0.18075304 22.0625 -0.1875 C22.90537064 -0.20500809 23.74824127 -0.22251617 24.61665344 -0.24055481 C28.68775361 -0.2255544 30.71808951 -0.08536824 34.2409668 2.13989258 C37.65318802 5.73886686 37.38942758 8.72390391 37.4074707 13.4543457 C37.4173275 14.56927399 37.4173275 14.56927399 37.42738342 15.70672607 C37.44712775 18.17167253 37.45878158 20.63655803 37.46875 23.1015625 C37.47282553 23.9429949 37.47690105 24.7844273 37.48110008 25.65135765 C37.50196582 30.105053 37.51626525 34.5587175 37.52563477 39.01245117 C37.53669944 43.61271524 37.57109827 48.21249562 37.61080647 52.81258869 C37.63695229 56.34965413 37.64532478 59.88660398 37.64891624 63.42375755 C37.65378761 65.11943007 37.6654173 66.81509724 37.68395424 68.51067543 C37.70830298 70.88551774 37.70738902 73.25910428 37.70043945 75.6340332 C37.71324951 76.3329216 37.72605957 77.03181 37.73925781 77.75187683 C37.68859966 82.50757179 36.58596366 84.89622406 33.23046875 88.23828125 C29.89029892 89.90836616 26.13563725 89.44458774 22.4609375 89.4765625 C21.58778397 89.48463425 20.71463043 89.49270599 19.8150177 89.50102234 C17.96483345 89.51486489 16.11462363 89.52558628 14.2644043 89.53344727 C11.43944678 89.55065045 8.61566254 89.59453291 5.79101562 89.63867188 C3.99349819 89.64879972 2.1959708 89.65731554 0.3984375 89.6640625 C-0.44443314 89.68157059 -1.28730377 89.69907867 -2.15571594 89.71711731 C-6.22681611 89.7021169 -8.25715201 89.56193074 -11.7800293 87.33666992 C-15.19225052 83.73769564 -14.92849008 80.75265859 -14.9465332 76.0222168 C-14.9531044 75.27893127 -14.9596756 74.53564575 -14.96644592 73.76983643 C-14.98619025 71.30488997 -14.99784408 68.84000447 -15.0078125 66.375 C-15.01188803 65.5335676 -15.01596355 64.6921352 -15.02016258 63.82520485 C-15.04102832 59.3715095 -15.05532775 54.917845 -15.06469727 50.46411133 C-15.07576194 45.86384726 -15.11016077 41.26406688 -15.14986897 36.66397381 C-15.17601479 33.12690837 -15.18438728 29.58995852 -15.18797874 26.05280495 C-15.19285011 24.35713243 -15.2044798 22.66146526 -15.22301674 20.96588707 C-15.24736548 18.59104476 -15.24645152 16.21745822 -15.23950195 13.8425293 C-15.25231201 13.1436409 -15.26512207 12.4447525 -15.27832031 11.72468567 C-15.22766216 6.96899071 -14.12502616 4.58033844 -10.76953125 1.23828125 C-7.42936142 -0.43180366 -3.67469975 0.03197476 0 0 Z " fill="#000000" transform="translate(280.76953125,261.76171875)"/>
<path d="M0 0 C45.21 0 90.42 0 137 0 C137 9.9 137 19.8 137 30 C91.79 30 46.58 30 0 30 C0 20.1 0 10.2 0 0 Z " fill="#FB3D19" transform="translate(79,219)"/>
<path d="M0 0 C25.08 0 50.16 0 76 0 C76 17.49 76 34.98 76 53 C50.92 53 25.84 53 0 53 C0 35.51 0 18.02 0 0 Z " fill="#4C4C4C" transform="translate(419,67)"/>
<path d="M0 0 C0.64408786 -0.00226556 1.28817572 -0.00453111 1.95178139 -0.00686532 C4.1197379 -0.01321819 6.28763211 -0.01237514 8.45559692 -0.0115509 C10.00603314 -0.01454161 11.5564686 -0.01794394 13.10690308 -0.02172852 C17.3259309 -0.03058215 21.54493845 -0.03290721 25.76397467 -0.0335443 C29.28292498 -0.03449245 32.80187053 -0.03816969 36.32081902 -0.0417164 C44.62193232 -0.0498663 52.92303477 -0.05230016 61.22415161 -0.05158997 C69.79354972 -0.05098917 78.36288489 -0.0615402 86.93226707 -0.07733363 C94.28347981 -0.0904003 101.63467196 -0.09577422 108.98589623 -0.09513456 C113.37907695 -0.09487929 117.77220176 -0.09774604 122.16537094 -0.10831261 C126.29723067 -0.11797881 130.42898088 -0.11808296 134.56084442 -0.11079597 C136.07819656 -0.10974826 137.59555546 -0.11212409 139.11289597 -0.11815643 C141.18281545 -0.12585315 143.25235456 -0.12124722 145.32226562 -0.11352539 C146.48112715 -0.11407016 147.63998867 -0.11461493 148.83396721 -0.1151762 C151.76166102 0.13148388 153.37835777 0.49249152 155.78811646 2.13371277 C158.27970685 5.87109836 158.2460493 7.70702859 157.78811646 12.13371277 C156.17507172 14.82101345 156.17507172 14.82101345 153.78811646 17.13371277 C150.79270172 17.76012516 150.79270172 17.76012516 147.22183228 17.76190186 C146.23476123 17.77254344 146.23476123 17.77254344 145.22774935 17.7834 C143.02396922 17.80099473 140.82194958 17.78287075 138.61819458 17.76481628 C137.03789974 17.76995462 135.45761063 17.77723525 133.87733459 17.78649902 C129.58590208 17.80503252 125.29508988 17.7920625 121.00368309 17.77240872 C116.51454304 17.75603683 112.02544272 17.76483308 107.5362854 17.76992798 C99.99724404 17.77445058 92.45845065 17.75856886 84.91946411 17.7306366 C76.2010863 17.69858387 67.48315576 17.69859984 58.76474619 17.71585137 C50.38083184 17.73171052 41.9970816 17.72498686 33.61317444 17.70791435 C30.04384498 17.70103847 26.47464685 17.70208179 22.90531921 17.7094593 C18.70268268 17.71711577 14.50055567 17.70501734 10.29800606 17.6776104 C8.75486832 17.6707187 7.21168306 17.67063703 5.66854668 17.67782593 C3.56326115 17.68650414 1.45955404 17.67059584 -0.64559937 17.64837646 C-1.82398628 17.64556954 -3.0023732 17.64276262 -4.21646881 17.63987064 C-7.85400963 17.02520787 -9.00905618 16.04397253 -11.21188354 13.13371277 C-12.21188354 9.69621277 -12.21188354 9.69621277 -12.21188354 6.13371277 C-8.69839949 0.56060013 -6.33910697 0.00917303 0 0 Z " fill="#020201" transform="translate(74.21188354492188,318.8662872314453)"/>
<path d="M0 0 C1.15238663 -0.01272446 2.30477325 -0.02544891 3.49208069 -0.03855896 C4.74730026 -0.03203308 6.00251984 -0.0255072 7.29577637 -0.01878357 C8.63814745 -0.02584496 9.98051058 -0.0345909 11.32286072 -0.04489136 C14.96134485 -0.0673696 18.59939368 -0.06444976 22.23792076 -0.05556989 C25.27728677 -0.05045585 28.31657128 -0.05775581 31.3559289 -0.06504196 C38.52621762 -0.08203554 45.69629348 -0.07848019 52.86657715 -0.06175232 C60.2609408 -0.04482467 67.65471439 -0.06067507 75.04901361 -0.0929752 C81.40162601 -0.11967244 87.75405473 -0.126947 94.10671759 -0.11846012 C97.89916425 -0.11353202 101.69125577 -0.11573988 105.48365784 -0.13624763 C109.04948806 -0.15460778 112.61446935 -0.14864358 116.18025398 -0.12404823 C118.11036605 -0.11665622 120.04052331 -0.13389264 121.9705658 -0.15187073 C131.40742141 -0.04824786 131.40742141 -0.04824786 134.50878906 2.83535767 C136.80421352 6.40576263 136.97560658 8.346677 136.23132324 12.5146637 C134.57440783 15.10201093 133.85209232 16.08960877 131.23132324 17.5146637 C126.84732798 18.27335177 122.49867548 18.18676357 118.0592041 18.14576721 C116.70535851 18.15090815 115.35151961 18.15819076 113.99769592 18.16744995 C110.32816635 18.18594891 106.65936426 18.17303643 102.98986506 18.15335965 C99.14802515 18.13696234 95.30623091 18.14578738 91.46437073 18.15087891 C85.01409291 18.15539814 78.56410525 18.13953951 72.1138916 18.11158752 C64.65708022 18.07952258 57.20079173 18.07955701 49.74394315 18.09680229 C42.56831427 18.11266566 35.39287705 18.10593601 28.21725655 18.08886528 C25.16427062 18.08199366 22.11143828 18.08302824 19.05845451 18.09041023 C15.46396619 18.09807142 11.87007308 18.08595349 8.27568626 18.05856133 C6.32752219 18.04839015 4.37928666 18.05786125 2.43112183 18.06788635 C1.27169571 18.0551619 0.11226959 18.04243744 -1.08229065 18.02932739 C-2.08976884 18.02652047 -3.09724703 18.02371355 -4.13525486 18.02082157 C-7.48199425 17.37756023 -8.67073478 16.14521297 -10.76867676 13.5146637 C-11.33508301 11.2959137 -11.33508301 11.2959137 -11.33117676 9.0146637 C-11.35309082 8.2618512 -11.37500488 7.5090387 -11.39758301 6.7334137 C-9.86129403 1.31346252 -5.09460859 0.01431187 0 0 Z " fill="#000000" transform="translate(48.7686767578125,84.48533630371094)"/>
<path d="M0 0 C5.61 0 11.22 0 17 0 C17 46.53 17 93.06 17 141 C11.39 141 5.78 141 0 141 C0 94.47 0 47.94 0 0 Z " fill="#7DD53E" transform="translate(416,193)"/>
<path d="M0 0 C1.13547272 -0.0071553 2.27094543 -0.01431061 3.44082642 -0.02168274 C7.19330091 -0.0385887 10.94458409 -0.01915538 14.69702148 0.00219727 C17.30346272 0.00136881 19.9099039 -0.00108968 22.51634216 -0.00511169 C27.97799398 -0.00962912 33.43930292 0.00621645 38.90087891 0.03417969 C45.2125566 0.06624654 51.52361653 0.06620882 57.83533818 0.04896492 C63.91214948 0.03309542 69.98869825 0.03993243 76.06550407 0.05690193 C78.64953034 0.06209149 81.23357439 0.06159262 83.81759834 0.05535698 C87.42566576 0.04991835 91.03267777 0.07023809 94.640625 0.09765625 C96.24832512 0.08786743 96.24832512 0.08786743 97.88850403 0.07788086 C105.08981702 0.17112407 105.08981702 0.17112407 108.38780212 2.44960022 C110.36184965 5.5979771 110.75561523 7.92419091 110.75561523 11.63110352 C108.98920351 14.43299797 107.72511702 16.14635262 104.75561523 17.63110352 C103.22131271 17.7339645 101.68265657 17.77488828 100.14494324 17.78500366 C99.17337784 17.79360413 98.20181244 17.80220459 97.20080566 17.81106567 C95.59634583 17.8174556 95.59634583 17.8174556 93.95947266 17.82397461 C92.83579788 17.8321521 91.71212311 17.84032959 90.55439758 17.84875488 C86.82329854 17.87363671 83.09223757 17.89013112 79.36108398 17.90454102 C78.08938166 17.90986469 76.81767933 17.91518837 75.50744057 17.92067337 C70.16391507 17.94190787 64.82040296 17.96103799 59.47684765 17.97229576 C51.81954144 17.9885344 44.1627427 18.02170981 36.50562781 18.07869661 C30.4721424 18.12206839 24.43888803 18.13804095 18.4052372 18.14442825 C15.83874205 18.15115801 13.27225478 18.16642441 10.70586205 18.19031906 C7.11682662 18.22183132 3.52907805 18.22202765 -0.06005859 18.21459961 C-1.65540939 18.23920761 -1.65540939 18.23920761 -3.2829895 18.26431274 C-10.464177 18.2033586 -10.464177 18.2033586 -14.40434265 15.31338501 C-16.8461891 11.7538363 -17.00024136 9.86390047 -16.24438477 5.63110352 C-11.93529497 -0.65623673 -6.9720082 -0.07620111 0 0 Z " fill="#000000" transform="translate(100.244384765625,286.368896484375)"/>
<path d="M0 0 C5.94 0 11.88 0 18 0 C18 29.7 18 59.4 18 90 C12.06 90 6.12 90 0 90 C0 60.3 0 30.6 0 0 Z " fill="#FAA320" transform="translate(349,244)"/>
<path d="M0 0 C5.94 0 11.88 0 18 0 C18 18.15 18 36.3 18 55 C12.06 55 6.12 55 0 55 C0 36.85 0 18.7 0 0 Z " fill="#F63C19" transform="translate(283,279)"/>
</svg>
