<?xml version="1.0" encoding="UTF-8"?>
<svg version="1.1" xmlns="http://www.w3.org/2000/svg" width="512" height="512">
<path d="M0 0 C0.98364092 -0.00488276 1.96728184 -0.00976553 2.98073006 -0.01479626 C6.23333335 -0.02917045 9.48589655 -0.03598926 12.73852539 -0.04199219 C15.03836594 -0.04899271 17.33820623 -0.0560796 19.63804626 -0.06324768 C27.03742705 -0.08288573 34.43677749 -0.08768616 41.83618164 -0.08886719 C43.09101601 -0.08930904 44.34585037 -0.0897509 45.63871002 -0.09020615 C81.69584259 -0.09688994 117.6360026 -0.00800476 153.59771729 2.8949585 C157.20384405 3.18573968 160.81073334 3.46576108 164.41772461 3.74560547 C172.1848133 4.35421973 179.94860772 4.9975427 187.71118164 5.66113281 C188.90829773 5.76259613 190.10541382 5.86405945 191.33880615 5.96859741 C194.72063812 6.26046753 198.10074409 6.56724538 201.48071289 6.87988281 C202.46232895 6.96426102 203.44394501 7.04863922 204.45530701 7.13557434 C220.71111418 8.69891273 234.98291833 13.62601375 245.76977539 26.37207031 C252.20607295 34.92611739 255.83580043 44.10566585 256.91040039 54.75488281 C257.03094788 55.89805969 257.03094788 55.89805969 257.15393066 57.06433105 C258.339167 68.88618566 259.03397794 80.75327343 259.77105331 92.60963821 C259.90040668 94.68886109 260.03101638 96.76800244 260.16177368 98.84713745 C262.45498418 135.433805 263.93669054 172.02864517 264.55761719 208.68286133 C264.63122962 213.00452454 264.72932243 217.32505958 264.84188843 221.64587402 C264.88015391 223.3405765 264.9077897 225.03554834 264.92544556 226.73059082 C265.03811412 237.34799047 265.71715255 245.2961538 271.46118164 254.53613281 C272.56753511 256.48826051 273.66506159 258.44541461 274.75415039 260.40722656 C275.29217285 261.36870605 275.83019531 262.33018555 276.38452148 263.32080078 C285.53189263 280.47986494 289.93980409 300.16729658 293.39868164 319.16113281 C294.53514806 325.28427611 296.46632647 330.83037818 298.91821289 336.53417969 C300.91958583 341.38093889 301.42812864 345.0085764 300.89868164 350.16113281 C299.50805664 351.72753906 299.50805664 351.72753906 297.64868164 352.72363281 C293.7221174 355.60153632 292.82566741 358.83791689 291.77368164 363.41113281 C289.1192826 374.84568164 284.90879786 383.79513262 274.88696289 390.50878906 C270.25397342 393.04828624 266.12193506 393.60072125 260.89868164 394.16113281 C260.86129883 395.41796875 260.82391602 396.67480469 260.78540039 397.96972656 C260.3487352 410.88833505 259.6044854 423.7832677 258.71133423 436.67752075 C258.58730565 438.48429586 258.46693976 440.29132654 258.35043335 442.09860229 C257.1347054 460.80551625 254.62913642 478.90882055 239.89868164 492.16113281 C229.9768277 499.76085073 219.36716946 503.4635857 207.02368164 504.72363281 C205.41783203 504.89958984 205.41783203 504.89958984 203.77954102 505.07910156 C200.15452324 505.46304711 196.52763567 505.81643377 192.89868164 506.16113281 C191.62863281 506.28343262 190.35858398 506.40573242 189.05004883 506.53173828 C178.92364527 507.49009812 168.78590936 508.24958717 158.63970947 508.96392822 C155.89306119 509.16153718 153.14761474 509.37174201 150.40209961 509.58447266 C79.99878895 514.9501512 7.62730642 515.04301054 -62.75744629 509.42730713 C-66.41351074 509.1362821 -70.07034263 508.8562987 -73.72729492 508.57666016 C-81.62525947 507.96714652 -89.52011098 507.32364433 -97.41381836 506.66113281 C-98.63467133 506.55966949 -99.85552429 506.45820618 -101.1133728 506.35366821 C-104.56494947 506.06176139 -108.01483793 505.75493848 -111.46459961 505.44238281 C-112.46810455 505.35800461 -113.4716095 505.2736264 -114.50552368 505.18669128 C-129.63781558 503.76176598 -143.47768985 499.5500227 -154.10131836 488.16113281 C-164.54034846 475.28347683 -167.08000412 462.58839224 -168.13647461 446.38378906 C-168.22005722 445.17782578 -168.30363983 443.97186249 -168.38975525 442.72935486 C-168.65384743 438.89450109 -168.90879743 435.05909928 -169.16381836 431.22363281 C-169.33838682 428.6838806 -169.51351235 426.14416661 -169.68920898 423.60449219 C-170.42727613 412.84843327 -171.13952818 402.09112894 -171.71850586 391.32519531 C-171.75827042 390.59506729 -171.79803497 389.86493927 -171.83900452 389.11268616 C-172.1619458 382.79215717 -172.20355772 376.48861307 -172.10131836 370.16113281 C-173.25631836 370.09925781 -174.41131836 370.03738281 -175.60131836 369.97363281 C-182.79078662 369.07017751 -188.51534119 364.59189525 -193.10131836 359.16113281 C-198.70904896 351.48893742 -203.10131836 341.80976888 -203.10131836 332.16113281 C-203.86444336 331.89300781 -204.62756836 331.62488281 -205.41381836 331.34863281 C-208.07773421 330.17155372 -209.30421252 329.39692012 -211.10131836 327.16113281 C-212.37481635 320.94102782 -210.45553042 315.67841383 -207.91381836 310.09863281 C-204.85079204 302.86507141 -202.96182023 295.74293105 -201.47631836 288.03613281 C-199.61972119 278.44847845 -197.3362002 269.38151457 -194.10131836 260.16113281 C-193.87863281 259.51273437 -193.65594727 258.86433594 -193.42651367 258.19628906 C-190.29137235 249.12250911 -186.52119383 240.51250196 -182.12866211 231.97753906 C-181.82768112 231.38854324 -181.52670013 230.79954742 -181.21659851 230.19270325 C-180.10131836 228.16113281 -180.10131836 228.16113281 -178.83718872 226.33439636 C-174.63754938 219.95024399 -174.35453484 214.08254288 -174.32453728 206.56917572 C-174.315964 204.47204776 -174.27735809 202.37721145 -174.23182678 200.28057861 C-174.14067403 195.82431814 -174.08856815 191.36801561 -174.03881836 186.91113281 C-173.97655473 181.75220672 -173.89756931 176.59411893 -173.79049873 171.43592072 C-173.75474638 169.3949061 -173.74210594 167.35469033 -173.73118591 165.31341553 C-173.27059271 140.5025069 -158.36842008 121.28734722 -142.75756836 103.25488281 C-140.27551709 100.38657572 -137.90441077 97.43895287 -135.53881836 94.47363281 C-131.77629038 89.84282914 -127.70643766 85.66376477 -123.44116211 81.49707031 C-121.37079103 79.43015561 -119.43979715 77.32009994 -117.53881836 75.09863281 C-111.92338403 68.56047453 -105.77179114 62.57148422 -99.20288086 56.99707031 C-97.63741429 55.62946941 -96.11798665 54.20882103 -94.62475586 52.76269531 C-87.23878906 45.6891259 -87.23878906 45.6891259 -83.22631836 45.03613281 C-80.10131836 45.16113281 -80.10131836 45.16113281 -78.20288086 45.84863281 C-75.09720734 46.310443 -73.8360222 45.11312093 -71.35131836 43.28613281 C-68.03741627 40.72553144 -68.03741627 40.72553144 -66.80053711 36.93457031 C-66.95621916 35.44921046 -67.12275188 33.96493699 -67.30151367 32.48217773 C-67.10131836 30.16113281 -67.10131836 30.16113281 -65.65625 28.39916992 C-64.98972412 27.85526611 -64.32319824 27.3113623 -63.63647461 26.75097656 C-62.53541382 25.85064697 -62.53541382 25.85064697 -61.41210938 24.93212891 C-57.88837968 22.23153353 -54.30426307 19.67261183 -50.60131836 17.22363281 C-49.44152466 16.4543042 -49.44152466 16.4543042 -48.25830078 15.66943359 C-43.11997595 12.32488743 -37.89344511 9.2856941 -32.41381836 6.53613281 C-31.46249023 6.05865601 -31.46249023 6.05865601 -30.49194336 5.5715332 C-20.57908837 0.79268472 -10.79610504 0.01314811 0 0 Z " fill="#030202" transform="translate(211.101318359375,-0.1611328125)"/>
<path d="M0 0 C19.13358202 8.00275457 36.46932802 18.54968376 53 31 C53.97501465 31.69657715 54.9500293 32.3931543 55.95458984 33.11083984 C59.71893427 36.28155403 61.11701554 40.02479479 62.8125 44.55078125 C63.14329056 45.38917038 63.47408112 46.22755951 63.81489563 47.09135437 C64.52310325 48.89061779 65.22371832 50.69288501 65.91738892 52.49780273 C67.75661494 57.27963486 69.65424004 62.03833773 71.54296875 66.80078125 C71.92051804 67.75735626 72.29806732 68.71393127 72.6870575 69.69949341 C76.055184 78.21095621 79.61767312 86.62581028 83.3125 95 C83.73690872 95.96377563 83.73690872 95.96377563 84.16989136 96.94702148 C89.10969507 108.145114 94.20854839 119.26987773 99.37890625 130.36328125 C99.80961426 131.2960791 100.24032227 132.22887695 100.68408203 133.18994141 C101.59499506 135.13513788 102.52996885 137.06918032 103.48388672 138.99365234 C103.95197754 139.95867676 104.42006836 140.92370117 104.90234375 141.91796875 C105.32894287 142.77543701 105.75554199 143.63290527 106.19506836 144.51635742 C107.15787526 147.48712923 106.9586971 149.05115043 106 152 C104.40724129 154.0437031 102.85631973 155.84127722 101.0625 157.6875 C100.57249512 158.20497803 100.08249023 158.72245605 99.57763672 159.25561523 C98.06233355 160.84763337 96.53249223 162.4245407 95 164 C94.53223145 164.48823242 94.06446289 164.97646484 93.58251953 165.47949219 C89.2822683 169.9665766 85.3877407 173.86524348 80 177 C79.37544922 176.33355469 78.75089844 175.66710937 78.10742188 174.98046875 C75.76780255 172.50403971 73.41083968 170.04703431 71.04003906 167.60058594 C70.02020668 166.54065869 69.00768533 165.473644 68.00292969 164.39941406 C61.86128062 157.18650679 61.86128062 157.18650679 53.40625 154.125 C49.74310338 154.66181397 49.74310338 154.66181397 48 158 C47.35961115 161.05963564 47.37702104 163.03920851 49.109375 165.7109375 C51.98065254 169.07971362 55.1468286 172.14902722 58.2890625 175.26171875 C58.86825439 175.83656006 59.44744629 176.41140137 60.04418945 177.00366211 C61.20805609 178.15306679 62.37833519 179.29602025 63.55541992 180.43188477 C67.60927361 184.39585257 69.79345463 186.93454627 70.375 192.75 C70.21660347 197.46669667 68.93768758 201.28057483 66 205 C62.35462503 207.81508349 58.90791519 208.87477032 54.375 209.5 C47.18805544 208.43526747 42.47302988 202.74869968 37.57348633 197.78466797 C36.85566483 197.06553223 36.13784332 196.34639648 35.39826965 195.60546875 C33.03821508 193.23894854 30.68521872 190.86553446 28.33203125 188.4921875 C26.68920582 186.84308865 25.04586216 185.1945059 23.40202332 183.54641724 C19.08350933 179.21462214 14.77060399 174.87728946 10.45928955 170.53833008 C3.54927825 163.58513618 -3.36751766 156.63870718 -10.2875309 149.6954689 C-12.7045962 147.26816959 -15.11822681 144.83749281 -17.53153992 142.40646362 C-19.00813497 140.92304231 -20.48483902 139.43972949 -21.96166992 137.95654297 C-22.63341248 137.27806305 -23.30515503 136.59958313 -23.99725342 135.90054321 C-24.92440407 134.97111908 -24.92440407 134.97111908 -25.87028503 134.0229187 C-26.40542819 133.48425611 -26.94057135 132.94559353 -27.49193096 132.39060783 C-30.21769521 129.87714922 -31.76892538 129.02063166 -35.5 128.6875 C-38.86545864 128.73913004 -38.86545864 128.73913004 -40.9375 130.125 C-42.49487103 132.87330182 -42.28213829 134.88105491 -42 138 C-40.62461211 140.32289239 -40.62461211 140.32289239 -38.49389648 142.37939453 C-37.66614716 143.24437561 -36.83839783 144.10935669 -35.98556519 145.00054932 C-34.99178836 146.00176926 -33.99649258 147.00148294 -33 148 C-31.84354142 149.17375262 -30.68714224 150.34756376 -29.53079224 151.52142334 C-26.14932374 154.93750866 -22.74343374 158.3283919 -19.33104134 161.7135582 C-17.05442666 163.97258308 -14.78154489 166.23530476 -12.5096283 168.49905396 C-6.05718348 174.92720298 0.40106671 181.34949698 6.86352539 187.76757812 C10.83329046 191.71059252 14.79819566 195.65843967 18.76013374 199.60931778 C20.26655371 201.10953171 21.77486829 202.60784569 23.28510857 204.10421371 C25.38855988 206.18848806 27.48581479 208.2788142 29.58178711 210.37060547 C30.20565811 210.98571487 30.82952911 211.60082428 31.4723053 212.23457336 C32.04262482 212.80619705 32.61294434 213.37782074 33.20054626 213.96676636 C33.69584304 214.45892073 34.19113981 214.9510751 34.70144558 215.45814323 C38.15629691 219.56030932 38.44236391 223.33014124 38.3046875 228.53125 C37.83611983 232.32784955 36.62596658 234.24273509 34 237 C30.09538321 239.89981698 26.39638212 241.35663237 21.5 241.1875 C11.45991644 239.19374944 3.15593465 227.27344167 -3.82244492 220.25271988 C-5.96354163 218.0987549 -8.10783868 215.94802146 -10.25296021 213.79806519 C-14.79646953 209.24319201 -19.33600774 204.6843739 -23.875 200.125 C-29.15749629 194.81890317 -34.44160741 189.51443537 -39.72992325 184.21413803 C-41.84477338 182.09279543 -43.95659732 179.96847108 -46.06832886 177.84402466 C-47.35644076 176.55228263 -48.64469192 175.26067944 -49.93310547 173.96923828 C-50.52114456 173.37603287 -51.10918365 172.78282745 -51.71504211 172.17164612 C-55.63135044 168.05316093 -55.63135044 168.05316093 -60.9375 166.875 C-64.04198085 166.85995188 -64.04198085 166.85995188 -67 168 C-67.73521812 171.65369451 -67.93088944 173.4500354 -67 177 C-63.53914607 181.75513388 -59.31647022 185.68168082 -55.07421875 189.734375 C-53.84619099 190.94051185 -52.62029376 192.14882137 -51.3964386 193.35919189 C-48.17640036 196.53364711 -44.9311686 199.68100624 -41.67895508 202.82244873 C-36.47786432 207.85664167 -31.31955372 212.9348026 -26.15464211 218.00605011 C-24.35133698 219.77034343 -22.53944911 221.52539674 -20.72550964 223.27874756 C-19.61340007 224.36121094 -18.50136119 225.44374697 -17.3894043 226.52636719 C-16.88589951 227.00854202 -16.38239471 227.49071686 -15.8636322 227.98750305 C-11.18436129 232.56397777 -8.5666739 236.244073 -8.4375 242.875 C-8.56786366 248.1677646 -9.53870392 251.06636319 -13.36328125 254.73046875 C-17.35545721 257.82702528 -20.82409956 258.23435357 -25.83984375 258.4609375 C-31.7126542 257.20778807 -36.1858801 252.0905404 -40.24902344 247.9621582 C-40.84165482 247.36821259 -41.43428619 246.77426697 -42.0448761 246.162323 C-43.98769894 244.21304878 -45.92344283 242.25689694 -47.859375 240.30078125 C-49.21313195 238.94074948 -50.56740829 237.58123451 -51.92218018 236.22221375 C-55.47663194 232.65449603 -59.0254614 229.08124272 -62.57269287 225.50634766 C-68.26309891 219.77271285 -73.96034657 214.04589507 -79.66077423 208.32222557 C-81.65187525 206.32088386 -83.63954064 204.31617569 -85.62689209 202.31111145 C-86.84066535 201.09051339 -88.05454692 199.87002302 -89.26855469 198.6496582 C-89.82233292 198.08914261 -90.37611115 197.52862701 -90.94667053 196.9511261 C-94.77711649 193.00819839 -94.77711649 193.00819839 -99.9375 191.75 C-102.91244441 191.77674522 -102.91244441 191.77674522 -104.875 193.0625 C-106.66527324 196.14574836 -106.35640928 198.49486526 -106 202 C-104.3950374 204.26398496 -103.0175379 205.87555521 -101.04296875 207.75170898 C-100.25292953 208.54328148 -100.25292953 208.54328148 -99.44692993 209.35084534 C-97.70986621 211.08304996 -95.94938087 212.78916872 -94.1875 214.49609375 C-92.97528527 215.69524644 -91.7646116 216.89595881 -90.55541992 218.09815979 C-87.37471718 221.25218545 -84.17355706 224.38462324 -80.96765137 227.51300049 C-77.69756784 230.71136899 -74.44730691 233.92974346 -71.1953125 237.14648438 C-64.8161006 243.45071082 -58.41509419 249.73230515 -52 256 C-54.87996647 258.87996647 -57.82356907 258.4277725 -61.6875 258.4375 C-104.35116782 258.2888618 -145.74695646 212.24072938 -173.625 184.5 C-174.58297485 183.54903442 -174.58297485 183.54903442 -175.56030273 182.57885742 C-179.2902026 178.83618561 -182.81828427 174.97128534 -186.27197266 170.97314453 C-189.05367208 167.79686666 -191.97091268 164.75143037 -194.875 161.6875 C-199.80236423 156.45225704 -204.47796136 151.12689886 -208.96484375 145.5078125 C-211.65482815 142.19309084 -214.49867197 139.03176252 -217.37109375 135.875 C-221.04232884 131.64911788 -221.04232884 131.64911788 -220.81787109 128.20703125 C-219.92133264 124.69153001 -218.60986453 121.8938282 -216.9140625 118.6875 C-212.73091041 110.60295622 -209.04403927 102.32767798 -205.375 94 C-204.67072616 92.40605549 -203.96637913 90.81214331 -203.26196289 89.21826172 C-201.84109492 86.00051195 -200.42311259 82.78151124 -199.00732422 79.56152344 C-197.48019464 76.08851907 -195.94583754 72.6187999 -194.40779114 69.15061951 C-193.07748209 66.14510277 -191.75832222 63.13469516 -190.4375 60.125 C-189.65572388 58.36579224 -189.65572388 58.36579224 -188.8581543 56.57104492 C-186.10341703 50.26551339 -183.58461703 43.95086346 -181.33885193 37.44482422 C-180.12043127 33.92120724 -178.85723949 30.41415034 -177.59524536 26.90594482 C-176.99644904 25.19517295 -176.42164476 23.47578841 -175.87277222 21.74835205 C-172.39220168 10.80246751 -172.39220168 10.80246751 -169 7 C-164.2873654 4.81077693 -160.11573832 4.31021706 -154.97070312 4.10964966 C-152.19005906 3.95493499 -149.52727261 3.37141653 -146.80078125 2.8203125 C-137.65517728 1.45588726 -128.40893491 1.7879666 -119.1875 1.875 C-117.31966629 1.8850552 -115.4518273 1.89417653 -113.58398438 1.90234375 C-109.05585691 1.9241438 -104.5279883 1.95853198 -100 2 C-100.95507784 3.12489848 -101.91166849 4.24851265 -102.86889648 5.37158203 C-103.40143539 5.99743195 -103.9339743 6.62328186 -104.48265076 7.26809692 C-106.23438491 9.26752704 -108.11310419 11.06899911 -110.0625 12.875 C-119.59604155 22.36047327 -127.35558589 33.41983475 -134.125 45 C-134.57407715 45.76425293 -135.0231543 46.52850586 -135.48583984 47.31591797 C-140.94771998 56.96279341 -143.78719131 66.02327042 -141.30859375 77.0859375 C-138.15370376 87.56703645 -132.33992307 95.61511089 -122.89453125 101.2578125 C-114.44896951 105.30376 -104.64561773 105.37183234 -95.65625 103.1875 C-87.97707276 100.33749608 -82.81127198 95.61178055 -77 90 C-56.2367882 71.08407329 -56.2367882 71.08407329 -47 70 C-45.34209251 71.04546165 -45.34209251 71.04546165 -43.68515015 72.7203064 C-43.05148026 73.34854813 -42.41781036 73.97678986 -41.76493835 74.62406921 C-40.73926506 75.67906364 -40.73926506 75.67906364 -39.69287109 76.75537109 C-38.96398178 77.48513657 -38.23509247 78.21490204 -37.4841156 78.96678162 C-35.06866996 81.39083428 -32.67130849 83.83200897 -30.2734375 86.2734375 C-28.60359039 87.95514549 -26.93256446 89.63568372 -25.26040649 91.31509399 C-20.85424949 95.74605118 -16.46286522 100.19136362 -12.07476807 104.64019775 C-5.88501036 110.91027831 0.32454369 117.16076389 6.53182983 123.41348267 C9.84002997 126.74600592 13.14266464 130.08390068 16.44107056 133.42611694 C17.94458457 134.94604026 19.44811362 136.4659487 20.95166016 137.98583984 C21.63949081 138.685121 22.32732147 139.38440216 23.03599548 140.10487366 C23.66402573 140.73875504 24.29205597 141.37263641 24.93911743 142.02572632 C25.75817283 142.85590554 25.75817283 142.85590554 26.5937748 143.70285606 C28.77762751 145.71730674 29.92314757 145.99509453 32.9375 146.1875 C36.17431454 146.2469358 36.17431454 146.2469358 39 144 C39.72719744 139.93276461 39.95689916 137.50976968 37.71707153 133.97583008 C35.80134575 131.7574478 33.7867316 129.70602018 31.69140625 127.65625 C30.52562294 126.46943886 30.52562294 126.46943886 29.33628845 125.25865173 C26.76477502 122.65196214 24.1651357 120.07558909 21.5625 117.5 C19.764452 115.69656261 17.96759296 113.89193911 16.171875 112.08618164 C12.40495209 108.30746643 8.6243395 104.54322413 4.83251953 100.78955078 C0.45478234 96.45534985 -3.89338575 92.0930777 -8.22731495 87.71510506 C-12.40480784 83.49687322 -16.60463268 79.30143697 -20.8142395 75.11523438 C-22.5998982 73.33491193 -24.37963424 71.5486286 -26.15328979 69.75634766 C-28.63542946 67.25388632 -31.14178097 64.7785116 -33.65625 62.30859375 C-34.38489761 61.56375229 -35.11354523 60.81891083 -35.86427307 60.05149841 C-40.38929598 55.67265829 -40.38929598 55.67265829 -46.38581848 54.50723267 C-50.25903485 55.02119563 -50.25903485 55.02119563 -53.82421875 56.3984375 C-54.45352295 56.70749023 -55.08282715 57.01654297 -55.73120117 57.33496094 C-56.37677979 57.67817383 -57.0223584 58.02138672 -57.6875 58.375 C-58.37884033 58.73368164 -59.07018066 59.09236328 -59.7824707 59.46191406 C-70.24671171 65.07716605 -78.99043558 72.69392921 -87.51245117 80.88964844 C-94.84154942 87.8868407 -100.20713783 90.45012386 -110.1796875 90.34375 C-116.01456879 89.63257333 -120.05562877 86.28568981 -123.875 82 C-127.11965907 77.41930484 -128.7098782 73.58828645 -128.56640625 67.83984375 C-125.19164703 50.91949925 -111.16078585 35.45736918 -100 23 C-98.95972656 21.83210938 -98.95972656 21.83210938 -97.8984375 20.640625 C-86.54761734 8.63242143 -72.58899026 -0.45228051 -58 -8 C-56.98164063 -8.5671875 -55.96328125 -9.134375 -54.9140625 -9.71875 C-39.22006363 -16.61906049 -14.8572749 -5.75673089 0 0 Z " fill="#FEEBE3" transform="translate(312,216)"/>
<path d="M0 0 C87.03576019 -0.58973297 87.03576019 -0.58973297 126.6875 1.375 C127.98444794 1.43821442 129.28139587 1.50142883 130.61764526 1.56655884 C145.5957452 2.31557781 160.52528758 3.38572021 175.45755005 4.76867676 C178.59527227 5.05416048 181.7346471 5.31510674 184.87486267 5.57147217 C187.62389553 5.7965316 190.37201814 6.03166797 193.12011719 6.26782227 C194.47433558 6.38243281 195.82884246 6.49367718 197.18359375 6.60180664 C212.44819958 7.82636564 226.30001041 9.11112268 237 21 C237.680625 21.7425 238.36125 22.485 239.0625 23.25 C243.80915755 29.98719136 245.61701031 36.61757983 246.15625 44.75390625 C246.22936401 45.66314346 246.30247803 46.57238068 246.37780762 47.50917053 C246.60110971 50.33850118 246.80166278 53.16882247 247 56 C247.13170863 57.72518229 247.26449137 59.45028296 247.3984375 61.17529297 C247.79800482 66.42729737 248.1542671 71.68170737 248.5 76.9375 C248.59471588 78.36425049 248.59471588 78.36425049 248.69134521 79.81982422 C251.43302027 121.42665367 253.44528499 163.29163924 253 205 C250.38838479 203.69419239 250.09684751 202.47743356 248.87109375 199.8515625 C248.47599609 199.01109375 248.08089844 198.170625 247.67382812 197.3046875 C247.26583984 196.42039063 246.85785156 195.53609375 246.4375 194.625 C245.8197168 193.31015625 245.8197168 193.31015625 245.18945312 191.96875 C243.64688575 188.66649448 242.15355599 185.46066797 241 182 C216.75423032 178.93379025 187.79823527 195.52648374 167.96484375 208.140625 C164.6921326 210.19307626 161.36409524 212.10165911 158 214 C157.46334717 213.65855957 156.92669434 213.31711914 156.3737793 212.96533203 C128.70648428 195.42910194 99.21439107 179.31373275 66 176 C64.74445313 175.86851562 63.48890625 175.73703125 62.1953125 175.6015625 C50.08845692 174.74220323 41.07599317 179.13962105 31.23046875 185.90234375 C26.75781208 188.9732308 24.03029488 190.34930171 18.5546875 189.66796875 C8.81857399 188.71109081 -0.91136072 188.76685559 -10.6875 188.75 C-11.68123627 188.74533722 -12.67497253 188.74067444 -13.69882202 188.73587036 C-26.75711048 188.68839811 -39.4831087 188.95368808 -52.33666992 191.54785156 C-56.26455606 192.22615706 -58.79804652 192.65598181 -62.37402344 190.7043457 C-66.41141178 187.42183208 -68.87396411 184.59184049 -69.625 179.3125 C-71.36987524 170.39797716 -75.26500132 161.27579423 -82 155 C-91.32948476 149.51030318 -100.18442923 147.11771594 -110.984375 149.71875 C-115.47458216 151.29159093 -119.37136643 153.19495385 -123.375 155.75 C-127.34685904 158.15175592 -130.1561378 158.10671365 -134.75 157.8125 C-139.03358254 157.50709824 -139.03358254 157.50709824 -142.6953125 159.3046875 C-144.05063956 161.46782538 -145.00307422 163.64836672 -146 166 C-146.93513183 167.74121149 -147.87097753 169.48214095 -148.82666016 171.2121582 C-150.2489719 173.79155119 -151.62276077 176.39634313 -153 179 C-153.33 179 -153.66 179 -154 179 C-154 169.1 -154 159.2 -154 149 C-148.57433594 148.70996094 -148.57433594 148.70996094 -143.0390625 148.4140625 C-139.47421593 148.21996498 -135.909469 148.02412458 -132.34472656 147.828125 C-129.89723388 147.69447352 -127.44964397 147.56258891 -125.00195312 147.43261719 C-112.16259983 146.74967286 -99.3770772 146.01145189 -86.61328125 144.42919922 C-72.04411034 142.69861797 -72.04411034 142.69861797 -66.625 146.875 C-65.99722656 147.4215625 -65.36945313 147.968125 -64.72265625 148.53125 C-60.6234968 152.02622495 -55.68137555 152.46178951 -50.48828125 152.3046875 C-41.3871284 151.19026062 -33.81747646 147.0852361 -28 140 C-26.58259554 137.29295712 -25.43829853 134.564506 -24.30859375 131.7265625 C-22.48076857 127.9181387 -19.81844491 125.29763928 -16.9296875 122.26171875 C-13.79405424 118.58655345 -11.88652342 114.4165122 -10 110 C-9.67999023 109.34354492 -9.35998047 108.68708984 -9.03027344 108.01074219 C-7.51269415 103.57595836 -7.05040306 99.11264735 -6.5078125 94.46875 C-6.38004425 93.38613892 -6.252276 92.30352783 -6.12063599 91.18811035 C-4.45110682 76.13786723 -3.77067374 61.01211469 -2.99804688 45.89508057 C-2.67076735 39.52465608 -2.32860089 33.15501273 -1.9867897 26.78535461 C-1.8703864 24.59153857 -1.75793438 22.39754987 -1.64620972 20.20349121 C-1.29487639 13.43753139 -0.84929078 6.7236295 0 0 Z " fill="#F7F4F4" transform="translate(207,15)"/>
<path d="M0 0 C0.53657227 0.13639893 1.07314453 0.27279785 1.62597656 0.41333008 C5.70354447 1.39228046 9.60400348 2.11423234 13.796875 2.32421875 C22.2141318 2.85602068 28.70404706 3.58296247 34.58056641 10.06542969 C36.6962843 12.69480865 38.70712532 15.3789493 40.65087891 18.13769531 C42.54108985 20.74691158 44.68279303 23.08005129 46.875 25.4375 C49.34529035 28.16149584 51.78804512 30.90103627 54.1875 33.6875 C63.67054231 44.51914652 73.71080924 54.8112512 83.875 65 C84.61266602 65.74154831 84.61266602 65.74154831 85.36523438 66.49807739 C91.0638502 72.22035028 96.85530845 77.75685891 103 83 C104.16867153 84.03289226 105.3353706 85.06802095 106.5 86.10546875 C132.56588715 109.14413503 164.92996805 134.51843021 201.33203125 133.4140625 C206.2627288 133.10768522 210.36918646 131.76507976 214.875 129.765625 C217 129 217 129 220.375 129.625 C221.24125 130.07875 222.1075 130.5325 223 131 C229.59734507 134.01497557 236.23554094 134.02834004 243.203125 132.125 C251.89946527 128.80378462 257.56244483 124.60371158 261.4375 116.0625 C261.97517716 114.71493256 262.50243738 113.3628889 263 112 C266.14125696 112.4908214 268.841435 113.32926844 271.75 114.5625 C279.5857057 117.54124205 287.43286238 116.3076482 295 113 C302.9374678 108.62159034 306.97003881 102.43593512 310 94 C310.65336507 90.90740533 310.8942018 88.1739459 311 85 C311.61746094 84.90203125 312.23492187 84.8040625 312.87109375 84.703125 C321.68346986 83.1472108 329.66960903 80.61813601 336 74 C339.4788653 68.75271151 341.10269188 64.13478369 341.625 57.875 C342.13224517 54.18807909 342.49276045 52.51001641 345.140625 49.84765625 C347.0119635 48.54039264 348.91691216 47.28031493 350.84765625 46.0625 C354.32388605 43.78808943 357.27906939 41.25922938 360.3125 38.4375 C361.06974365 37.73584717 361.06974365 37.73584717 361.84228516 37.02001953 C365.52388979 33.55548201 368.84456839 29.94428951 372 26 C372.59167969 26.32226562 373.18335938 26.64453125 373.79296875 26.9765625 C380.27045925 29.98028376 387.2592549 27.31455446 393.7199707 25.42333984 C397.01098465 24.46822712 399.52883787 24 403 24 C403.38807032 38.48239488 402.18889042 52.82133648 401.0625 67.25 C400.87771383 69.67704218 400.69346552 72.10412536 400.50976562 74.53125 C400.09338076 80.00637627 399.67565591 85.4813618 399.24069214 90.95504761 C399.07315252 93.07456083 398.91088879 95.19449496 398.75271606 97.31472778 C398.67020599 98.38310883 398.58769592 99.45148987 398.50268555 100.55224609 C398.43043259 101.5123056 398.35817963 102.47236511 398.28373718 103.46151733 C397.3139144 112.13813241 392.77053821 120.03123292 386.140625 125.546875 C376.40056509 132.72750311 364.78992481 134.54901417 352.98828125 135.37890625 C351.76822388 135.47625061 350.5481665 135.57359497 349.2911377 135.67388916 C345.98921935 135.9327826 342.68695604 136.17777319 339.38336563 136.41376114 C337.28245225 136.56465816 335.18189707 136.71986154 333.08139038 136.87631226 C325.11222797 137.46884961 317.1415722 138.03535649 309.16884136 138.57773876 C304.73289219 138.87966389 300.29791484 139.19285131 295.86328125 139.51367188 C233.56127065 143.96016623 170.68831869 143.67270948 108.375 139.6875 C107.53850922 139.63401398 106.70201843 139.58052795 105.84017944 139.52542114 C94.9790331 138.82466338 84.12600633 138.03530782 73.27610779 137.17858124 C70.93434417 136.99484871 68.59227506 136.81547557 66.25012207 136.63677979 C62.33746928 136.3368905 58.42605432 136.02395113 54.51521683 135.70127296 C53.05797214 135.58230451 51.60045186 135.46665388 50.1426506 135.35471153 C35.85663653 134.2484525 23.92002361 132.02224846 14 121 C12.9790625 119.9171875 12.9790625 119.9171875 11.9375 118.8125 C7.01860094 111.67216265 5.37383291 104.09082372 4.8046875 95.5703125 C4.72685028 94.59401886 4.64901306 93.61772522 4.56881714 92.61184692 C4.32136736 89.45055803 4.0974 86.28814166 3.875 83.125 C3.70956137 80.92408562 3.54321144 78.72323956 3.37597656 76.52246094 C2.88909213 70.01682573 2.43761178 63.50911815 2 57 C1.93727905 56.07159302 1.87455811 55.14318604 1.80993652 54.18664551 C0.60019101 36.13001217 -0.3825136 18.10564359 0 0 Z " fill="#F7F4F4" transform="translate(54,355)"/>
<path d="M0 0 C19.13358202 8.00275457 36.46932802 18.54968376 53 31 C53.97501465 31.69657715 54.9500293 32.3931543 55.95458984 33.11083984 C59.71893427 36.28155403 61.11701554 40.02479479 62.8125 44.55078125 C63.14329056 45.38917038 63.47408112 46.22755951 63.81489563 47.09135437 C64.52310325 48.89061779 65.22371832 50.69288501 65.91738892 52.49780273 C67.75661494 57.27963486 69.65424004 62.03833773 71.54296875 66.80078125 C71.92051804 67.75735626 72.29806732 68.71393127 72.6870575 69.69949341 C76.055184 78.21095621 79.61767312 86.62581028 83.3125 95 C83.59543915 95.64251709 83.8783783 96.28503418 84.16989136 96.94702148 C89.10969507 108.145114 94.20854839 119.26987773 99.37890625 130.36328125 C99.80961426 131.2960791 100.24032227 132.22887695 100.68408203 133.18994141 C101.59499506 135.13513788 102.52996885 137.06918032 103.48388672 138.99365234 C103.95197754 139.95867676 104.42006836 140.92370117 104.90234375 141.91796875 C105.32894287 142.77543701 105.75554199 143.63290527 106.19506836 144.51635742 C107.15787526 147.48712923 106.9586971 149.05115043 106 152 C104.40724129 154.0437031 102.85631973 155.84127722 101.0625 157.6875 C100.57249512 158.20497803 100.08249023 158.72245605 99.57763672 159.25561523 C98.06233355 160.84763337 96.53249223 162.4245407 95 164 C94.53223145 164.48823242 94.06446289 164.97646484 93.58251953 165.47949219 C89.2822683 169.9665766 85.3877407 173.86524348 80 177 C79.37544922 176.33355469 78.75089844 175.66710937 78.10742188 174.98046875 C75.76780255 172.50403971 73.41083968 170.04703431 71.04003906 167.60058594 C70.02020668 166.54065869 69.00768533 165.473644 68.00292969 164.39941406 C62.57398622 158.17383881 62.57398622 158.17383881 55.56640625 154.27734375 C52.75812581 154.2417959 50.51164987 154.74417506 48 156 C47.52949219 155.45730469 47.05898438 154.91460937 46.57421875 154.35546875 C45.64029297 153.28232422 45.64029297 153.28232422 44.6875 152.1875 C44.07261719 151.47980469 43.45773437 150.77210938 42.82421875 150.04296875 C41.26665665 148.29863261 39.67341125 146.63221959 38 145 C38.33 144.67 38.66 144.34 39 144 C39.58397195 140.01789887 39.90443237 137.43850268 37.72488403 133.97192383 C35.80250732 131.76010035 33.78631439 129.70561204 31.69140625 127.65625 C30.52562294 126.46943886 30.52562294 126.46943886 29.33628845 125.25865173 C26.76477502 122.65196214 24.1651357 120.07558909 21.5625 117.5 C19.764452 115.69656261 17.96759296 113.89193911 16.171875 112.08618164 C12.40495209 108.30746643 8.6243395 104.54322413 4.83251953 100.78955078 C0.45478234 96.45534985 -3.89338575 92.0930777 -8.22731495 87.71510506 C-12.40480784 83.49687322 -16.60463268 79.30143697 -20.8142395 75.11523438 C-22.5998982 73.33491193 -24.37963424 71.5486286 -26.15328979 69.75634766 C-28.63542946 67.25388632 -31.14178097 64.7785116 -33.65625 62.30859375 C-34.38489761 61.56375229 -35.11354523 60.81891083 -35.86427307 60.05149841 C-40.38929598 55.67265829 -40.38929598 55.67265829 -46.38581848 54.50723267 C-50.25903485 55.02119563 -50.25903485 55.02119563 -53.82421875 56.3984375 C-54.45352295 56.70749023 -55.08282715 57.01654297 -55.73120117 57.33496094 C-56.37677979 57.67817383 -57.0223584 58.02138672 -57.6875 58.375 C-58.37884033 58.73368164 -59.07018066 59.09236328 -59.7824707 59.46191406 C-70.24671171 65.07716605 -78.99043558 72.69392921 -87.51245117 80.88964844 C-94.84154942 87.8868407 -100.20713783 90.45012386 -110.1796875 90.34375 C-116.01456879 89.63257333 -120.05562877 86.28568981 -123.875 82 C-127.11965907 77.41930484 -128.7098782 73.58828645 -128.56640625 67.83984375 C-125.19164703 50.91949925 -111.16078585 35.45736918 -100 23 C-98.95972656 21.83210938 -98.95972656 21.83210938 -97.8984375 20.640625 C-86.54761734 8.63242143 -72.58899026 -0.45228051 -58 -8 C-56.47246094 -8.85078125 -56.47246094 -8.85078125 -54.9140625 -9.71875 C-39.22006363 -16.61906049 -14.8572749 -5.75673089 0 0 Z " fill="#E1A66F" transform="translate(312,216)"/>
<path d="M0 0 C20.43225126 4.25523325 41.48745698 11.98536602 58 25 C56.14921614 31.49829363 54.0295241 37.78321057 51.48046875 44.0390625 C51.14543335 44.87037689 50.81039795 45.70169128 50.46520996 46.55819702 C49.37808156 49.24937395 48.28347687 51.9374155 47.1875 54.625 C46.81106354 55.55151367 46.43462708 56.47802734 46.04678345 57.43261719 C32.4811172 90.80032071 17.59101027 123.53093634 2 156 C-3.71639082 156.43828771 -8.35480823 154.88088617 -13.6875 153.0625 C-14.6057959 152.75183594 -15.5240918 152.44117188 -16.47021484 152.12109375 C-29.26986073 147.65911392 -44.64521145 142.05493212 -55 133 C-56.59072181 129.2567225 -55.47352936 126.83289834 -54.03515625 123.1640625 C-53.57334961 121.97458008 -53.11154297 120.78509766 -52.63574219 119.55957031 C-52.11203069 118.24776617 -51.5875928 116.93625184 -51.0625 115.625 C-50.51822411 114.24589865 -49.97428669 112.86666368 -49.43066406 111.48730469 C-34.44595474 73.65499041 -17.82295021 36.57503463 0 0 Z " fill="#D94953" transform="translate(73,188)"/>
<path d="M0 0 C19.02129019 36.86916957 35.24334269 75.21695134 50.5625 113.75 C50.98574554 114.80646729 50.98574554 114.80646729 51.4175415 115.88427734 C52.20392603 117.85224549 52.98062599 119.82372702 53.75390625 121.796875 C54.40854858 123.45734863 54.40854858 123.45734863 55.07641602 125.15136719 C56 128 56 128 56 132 C53.82196054 133.67137496 51.81394106 134.98122732 49.4375 136.3125 C48.7571167 136.70421387 48.0767334 137.09592773 47.37573242 137.49951172 C37.14070444 143.29719788 26.63235335 147.92053504 15.5625 151.875 C14.31980347 152.32286865 14.31980347 152.32286865 13.05200195 152.77978516 C8.00608974 154.52361175 3.31962019 155.5236161 -2 156 C-20.521905 117.87335253 -37.77385232 79.16884969 -53.0625 39.625 C-53.46194824 38.59238037 -53.86139648 37.55976074 -54.27294922 36.49584961 C-55.85489348 32.32752351 -57.20972533 28.39927671 -58 24 C-41.86302543 13.79680083 -25.55448036 5.71759773 -7 1 C-6.24589844 0.79375 -5.49179687 0.5875 -4.71484375 0.375 C-3 0 -3 0 0 0 Z " fill="#B2E39E" transform="translate(439,212)"/>
<path d="M0 0 C0.3899702 18.83606038 -0.56343129 37.46859261 -1.91650391 56.24389648 C-2.20036291 60.19267919 -2.46075424 64.14265077 -2.71571732 68.09339046 C-2.91891663 71.18708399 -3.13716711 74.27958411 -3.35958099 77.37195015 C-3.4620692 78.82864134 -3.55940582 80.28570593 -3.65110016 81.74311638 C-4.87031165 100.87031165 -4.87031165 100.87031165 -11 107 C-12.19004479 104.79300784 -13.37696181 102.58441209 -14.5625 100.375 C-14.92601562 99.70146484 -15.28953125 99.02792969 -15.6640625 98.33398438 C-17.46717294 94.96964416 -19.21372229 91.60132288 -20.80859375 88.1328125 C-24.55110987 80.0361879 -28.21996469 73.34260484 -36.8046875 69.86328125 C-45.52453507 67.50743001 -53.92121969 67.89990225 -62 72 C-69.49375055 76.55701047 -74.55469163 81.90452108 -78 90 C-79.90476993 103.39688187 -75.06777385 111.57604889 -67.35546875 121.96875 C-66 124 -66 124 -66 126 C-71.52762983 126.4105842 -77.0553848 126.81943007 -82.58325195 127.22680664 C-84.45568135 127.36502463 -86.3280784 127.50368154 -88.20043945 127.64282227 C-123.0579967 130.23213397 -123.0579967 130.23213397 -135 130 C-128.69741905 115.71946848 -119.0155243 103.8574598 -109 92 C-108.5344873 91.44425293 -108.06897461 90.88850586 -107.58935547 90.31591797 C-101.96214096 83.60393921 -96.27628607 77.09758611 -89.98828125 70.98828125 C-88.16627714 69.16627714 -86.52127347 67.29219595 -84.875 65.3125 C-77.06832644 56.21079415 -67.60628476 48.2638408 -58.5390625 40.453125 C-56.25002722 38.29190387 -56.0105543 37.24802606 -55.875 34.0625 C-55.85995188 30.95801915 -55.85995188 30.95801915 -57 28 C-55.42982807 26.63059432 -53.84334609 25.27987105 -52.25 23.9375 C-51.36828125 23.18339844 -50.4865625 22.42929687 -49.578125 21.65234375 C-47 20 -47 20 -45.109375 20.25390625 C-44.41328125 20.50011719 -43.7171875 20.74632813 -43 21 C-35.93048453 21.97151624 -32.35501645 19.02181169 -26.9375 15 C-25.26197596 13.80457302 -23.58356411 12.6131837 -21.90234375 11.42578125 C-21.07718262 10.84135254 -20.25202148 10.25692383 -19.40185547 9.65478516 C-16.02715194 7.32974546 -12.55866227 5.21692641 -9 3.1875 C-7.906875 2.56230469 -6.81375 1.93710937 -5.6875 1.29296875 C-3 0 -3 0 0 0 Z " fill="#ECE4E2" transform="translate(191,19)"/>
<path d="M0 0 C6.24198746 18.77528448 -12.98180291 53.15399657 -21.296875 69.91796875 C-25.30938845 77.68281393 -30.07801625 84.9966868 -34.94360352 92.24853516 C-36.16440646 94.12790613 -36.16440646 94.12790613 -37 97 C-35.71054719 99.20564296 -34.40001219 101.15255039 -32.875 103.1875 C-32.42632568 103.79972412 -31.97765137 104.41194824 -31.51538086 105.04272461 C-25.93733142 112.56848336 -19.99348204 119.803788 -14 127 C-13.50290527 127.5976416 -13.00581055 128.1952832 -12.49365234 128.81103516 C-6.48537353 136.01652065 -0.32935698 143.07393596 6 150 C6.9194139 151.01289099 7.83867779 152.02591816 8.7578125 153.0390625 C16.13468409 161.15248809 23.60411914 168.93046228 32 176 C32.84594727 176.71663818 32.84594727 176.71663818 33.70898438 177.44775391 C42.39932055 184.77827129 51.02974858 191.47081235 61 197 C61.99515625 197.55300781 62.9903125 198.10601562 64.015625 198.67578125 C71.0941012 202.4095848 78.29203599 204.886526 86 207 C86.33 206.34 86.66 205.68 87 205 C98.22 216.22 109.44 227.44 121 239 C118.12003353 241.87996647 115.17643093 241.4277725 111.3125 241.4375 C68.64883218 241.2888618 27.25304354 195.24072938 -0.625 167.5 C-1.58297485 166.54903442 -1.58297485 166.54903442 -2.56030273 165.57885742 C-6.2902026 161.83618561 -9.81828427 157.97128534 -13.27197266 153.97314453 C-16.05367208 150.79686666 -18.97091268 147.75143037 -21.875 144.6875 C-26.80236423 139.45225704 -31.47796136 134.12689886 -35.96484375 128.5078125 C-38.65482815 125.19309084 -41.49867197 122.03176252 -44.37109375 118.875 C-48.04232884 114.64911788 -48.04232884 114.64911788 -47.81787109 111.20703125 C-46.92133264 107.69153001 -45.60986453 104.8938282 -43.9140625 101.6875 C-39.73089628 93.60292892 -36.0443895 85.32754668 -32.375 77 C-31.67367508 75.41337119 -30.97225745 73.82678335 -30.27075195 72.24023438 C-28.50772609 68.24911733 -26.75017185 64.25561692 -24.99456787 60.26123047 C-24.05621606 58.12781175 -23.11568833 55.99536874 -22.17431641 53.86328125 C-14.32656016 36.07804715 -6.96281595 18.14859777 0 0 Z " fill="#FCDACB" transform="translate(139,233)"/>
<path d="M0 0 C5.07060248 3.86500469 8.32458605 9.97375816 10.3125 15.9375 C10.7668683 25.20839199 10.187113 34.51059762 9.36035156 43.74389648 C9.24442654 45.08931447 9.14006317 46.43577521 9.046875 47.78295898 C8.31652256 58.31347463 6.3047301 65.66698184 -1.6875 72.8125 C-7.77855559 77.12699771 -12.24233242 78.44221356 -19.5625 78.375 C-20.32691406 78.39498047 -21.09132812 78.41496094 -21.87890625 78.43554688 C-28.81411763 78.4296596 -33.85470981 76.36430255 -39.11328125 71.859375 C-40.04720703 70.78429687 -40.04720703 70.78429687 -41 69.6875 C-41.63550781 68.98109375 -42.27101562 68.2746875 -42.92578125 67.546875 C-47.93961466 60.12062063 -48.35329072 52.53559975 -48.875 43.8125 C-48.95177979 42.60924072 -49.02855957 41.40598145 -49.10766602 40.16625977 C-49.31597999 36.75733879 -49.50296024 33.34777359 -49.6875 29.9375 C-49.74099609 29.12684082 -49.79449219 28.31618164 -49.84960938 27.48095703 C-50.49753269 17.525005 -48.7434276 10.87038492 -42.375 3.125 C-29.95459929 -6.98462848 -13.97473729 -8.54853778 0 0 Z " fill="#040404" transform="translate(275.6875,62.0625)"/>
<path d="M0 0 C8.30602648 4.81541546 14.43226924 10.62785081 18.23144531 19.54003906 C18.70019531 22.83691406 18.70019531 22.83691406 18.73144531 26.29003906 C18.76238281 27.41925781 18.79332031 28.54847656 18.82519531 29.71191406 C17.36855509 39.10341024 11.15029293 47.00065325 5.85644531 54.66503906 C5.22222656 55.6021875 4.58800781 56.53933594 3.93457031 57.50488281 C-7.09905456 73.60496809 -7.09905456 73.60496809 -13.58105469 75.97753906 C-14.33 76.265 -15.07894531 76.55246094 -15.85058594 76.84863281 C-16.48351562 77.07679688 -17.11644531 77.30496094 -17.76855469 77.54003906 C-18.75855469 78.03503906 -18.75855469 78.03503906 -19.76855469 78.54003906 C-29.6004282 79.93200682 -37.09462039 76.73426028 -44.94042969 70.93457031 C-50.28612475 66.12572924 -53.0625396 60.19261757 -54.13647461 53.11547852 C-54.51913082 44.53186067 -51.38257595 38.03161916 -47.64355469 30.47753906 C-47.06619993 29.26421732 -46.49066872 28.05002612 -45.91699219 26.83496094 C-34.7395359 3.55282755 -34.7395359 3.55282755 -24.48730469 -1.60839844 C-16.44884419 -4.1261921 -7.50632889 -3.85396033 0 0 Z " fill="#040403" transform="translate(381.7685546875,89.4599609375)"/>
<path d="M0 0 C0.56195068 0.38744385 1.12390137 0.7748877 1.70288086 1.17407227 C6.51989586 4.447983 11.32547128 7.39351129 16.5625 9.9375 C17.24159424 10.27104492 17.92068848 10.60458984 18.62036133 10.94824219 C32.20546331 17.55712622 45.86404552 24.07257508 61 26 C51.28699135 47.81378535 51.28699135 47.81378535 47 56 C41.28360918 56.43828771 36.64519177 54.88088617 31.3125 53.0625 C30.3942041 52.75183594 29.4759082 52.44117188 28.52978516 52.12109375 C15.73013927 47.65911392 0.35478855 42.05493212 -10 33 C-11.27484244 30.17927272 -10.97237226 28.90393886 -10.10375977 25.88378906 C-9.63768311 24.68979492 -9.17160645 23.49580078 -8.69140625 22.265625 C-8.44583481 21.62759949 -8.20026337 20.98957397 -7.94725037 20.33221436 C-7.16259653 18.30065003 -6.36282342 16.27543574 -5.5625 14.25 C-5.02698629 12.8714851 -4.4924692 11.4925826 -3.95898438 10.11328125 C-2.65084608 6.73761765 -1.32908518 3.3674798 0 0 Z " fill="#D52D3C" transform="translate(28,288)"/>
<path d="M0 0 C3.18067153 4.7710073 4.99920931 10.12897787 7.125 15.4375 C7.59292969 16.58283203 8.06085938 17.72816406 8.54296875 18.90820312 C8.98511719 20.00970703 9.42726563 21.11121094 9.8828125 22.24609375 C10.28902832 23.25341553 10.69524414 24.2607373 11.11376953 25.29858398 C12 28 12 28 12 32 C9.82196054 33.67137496 7.81394106 34.98122732 5.4375 36.3125 C4.7571167 36.70421387 4.0767334 37.09592773 3.37573242 37.49951172 C-6.85929556 43.29719788 -17.36764665 47.92053504 -28.4375 51.875 C-29.26596436 52.1735791 -30.09442871 52.4721582 -30.94799805 52.77978516 C-35.99391026 54.52361175 -40.68037981 55.5236161 -46 56 C-47.80085662 52.31692004 -49.58900718 48.62780767 -51.375 44.9375 C-51.88289063 43.89916016 -52.39078125 42.86082031 -52.9140625 41.79101562 C-55.42639832 36.58453021 -57.67319017 31.63494534 -59 26 C-58.40799805 25.83508057 -57.81599609 25.67016113 -57.20605469 25.50024414 C-26.42877764 17.13004992 -26.42877764 17.13004992 0 0 Z " fill="#77C0A2" transform="translate(483,312)"/>
<path d="M0 0 C4.35194074 0.53553675 8.40562917 1.35407938 12.64501953 2.51123047 C21.48240711 4.82563793 30.0014693 5.37932102 39.125 5.375 C40.27452148 5.37636963 41.42404297 5.37773926 42.60839844 5.37915039 C48.7595854 5.29949279 54.09718618 4.70708553 60 3 C63.74153133 3.08701236 64.77895554 3.80527035 67.625 6.3125 C76.19114315 16.00576725 76.19114315 16.00576725 75.88671875 22.3671875 C74.70762947 25.86809575 72.58534908 28.09095067 70.0625 30.6875 C69.32749268 31.46371704 69.32749268 31.46371704 68.57763672 32.25561523 C67.06233355 33.84763337 65.53249223 35.4245407 64 37 C63.53223145 37.48823242 63.06446289 37.97646484 62.58251953 38.47949219 C58.2822683 42.9665766 54.3877407 46.86524348 49 50 C48.37544922 49.33355469 47.75089844 48.66710937 47.10742188 47.98046875 C44.76780255 45.50403971 42.41083968 43.04703431 40.04003906 40.60058594 C39.02020668 39.54065869 38.00768533 38.473644 37.00292969 37.39941406 C31.57398622 31.17383881 31.57398622 31.17383881 24.56640625 27.27734375 C21.75812581 27.2417959 19.51164987 27.74417506 17 29 C16.52949219 28.45730469 16.05898438 27.91460937 15.57421875 27.35546875 C14.95160156 26.64003906 14.32898438 25.92460937 13.6875 25.1875 C13.07261719 24.47980469 12.45773437 23.77210938 11.82421875 23.04296875 C10.26665665 21.29863261 8.67341125 19.63221959 7 18 C7.33 17.67 7.66 17.34 8 17 C8.50024523 13.83178024 8.75848134 12.04438716 8 9 C6.09705853 6.57656032 4.05305997 4.6095723 1.75 2.56640625 C1.1725 2.04949219 0.595 1.53257812 0 1 C0 0.67 0 0.34 0 0 Z " fill="#D2965B" transform="translate(343,343)"/>
<path d="M0 0 C5.26422341 4.85928315 5.26422341 4.85928315 5.75683594 8.81298828 C5.72879883 9.76415527 5.70076172 10.71532227 5.671875 11.6953125 C5.64416016 12.7565332 5.61644531 13.81775391 5.58789062 14.91113281 C5.53826172 16.01295898 5.48863281 17.11478516 5.4375 18.25 C5.37079102 19.84473145 5.37079102 19.84473145 5.30273438 21.47167969 C5.13991996 24.6936396 4.92121943 27.90746247 4.6875 31.125 C4.5946875 32.75695312 4.5946875 32.75695312 4.5 34.421875 C4.05229148 40.52563447 3.56657686 44.61625819 -0.5625 49.25 C-5.22790818 52.36027212 -10.09945405 51.85536455 -15.5625 51.25 C-19.31137959 49.15062743 -20.93006473 47.14226493 -22.5625 43.25 C-22.97314453 40.69140625 -22.97314453 40.69140625 -23.1953125 37.8125 C-23.27910156 36.75160156 -23.36289063 35.69070312 -23.44921875 34.59765625 C-23.52785156 33.49292969 -23.60648438 32.38820312 -23.6875 31.25 C-23.77386719 30.17621094 -23.86023438 29.10242188 -23.94921875 27.99609375 C-24.36066777 22.56888523 -24.66093725 17.14065488 -24.79296875 11.69921875 C-24.83006958 10.2774231 -24.83006958 10.2774231 -24.86791992 8.8269043 C-24.42764346 5.11218162 -22.73838167 3.06552436 -20.16796875 0.45703125 C-14.75883996 -3.60968602 -5.71475208 -2.80724664 0 0 Z " fill="#F3E9AB" transform="translate(265.5625,73.75)"/>
<path d="M0 0 C4.30833628 2.87788331 6.52309977 6.14722624 8.76953125 10.70703125 C9.25833015 11.67246101 9.25833015 11.67246101 9.75700378 12.65739441 C10.43926188 14.01348563 11.11546654 15.37263762 11.78588867 16.73461914 C12.80892775 18.80526969 13.85894195 20.86055724 14.91210938 22.91601562 C15.574592 24.24135139 16.23545425 25.56749861 16.89453125 26.89453125 C17.20695267 27.50206741 17.51937408 28.10960358 17.84126282 28.73554993 C19.89518908 32.97955446 20.37313502 36.31752822 20 41 C18.02993544 46.17141946 13.85928252 48.7415906 9 51 C5.07209621 51.70702268 3.58105449 51.33205222 0.11669922 49.35229492 C-3.19490441 46.85289801 -5.4318027 44.18608509 -7.7421875 40.80078125 C-8.15542267 40.20629684 -8.56865784 39.61181244 -8.99441528 38.99931335 C-9.85886216 37.74678073 -10.71742493 36.49016847 -11.5703125 35.22973633 C-12.87046389 33.31916581 -14.20314319 31.43449937 -15.5390625 29.54882812 C-22.56123242 19.40179801 -22.56123242 19.40179801 -22.69921875 13.8125 C-21.58251456 7.7236548 -18.64605511 5.22647244 -13.8125 1.625 C-9.49612815 -0.62291357 -4.73308033 -1.03488573 0 0 Z " fill="#F4EBAC" transform="translate(149,102)"/>
<path d="M0 0 C5.32003502 2.07694167 10.19749082 4.88237455 13 10 C14.34103591 18.88436294 8.50638576 26.06457827 3.625 33 C3.13894287 33.69625488 2.65288574 34.39250977 2.15209961 35.10986328 C0.77394915 37.07746503 -0.61249387 39.03899134 -2 41 C-2.63035156 41.90492188 -3.26070313 42.80984375 -3.91015625 43.7421875 C-4.41417969 44.44601563 -4.91820312 45.14984375 -5.4375 45.875 C-5.84871094 46.44992188 -6.25992187 47.02484375 -6.68359375 47.6171875 C-9.20221797 50.26286398 -11.69080472 50.95243149 -15.25 51.5 C-20.29157179 50.82779043 -23.43742416 48.57076567 -27 45 C-29.48058919 41.44055139 -29.27034801 38.24680755 -29 34 C-28.06183663 31.4802856 -27.1129294 29.26383404 -25.89453125 26.89453125 C-25.57344894 26.24804123 -25.25236664 25.60155121 -24.92155457 24.93547058 C-24.24316524 23.57831251 -23.55784427 22.22459927 -22.8659668 20.87426758 C-21.81467607 18.81675884 -20.79188414 16.74679911 -19.77148438 14.67382812 C-19.105824 13.35072738 -18.43855914 12.0284324 -17.76953125 10.70703125 C-17.46723099 10.09342239 -17.16493073 9.47981354 -16.85346985 8.84761047 C-12.93794967 1.30560801 -8.25467138 -1.55193173 0 0 Z " fill="#F5EBAC" transform="translate(372,102)"/>
<path d="M0 0 C1.0828125 0.01546875 2.165625 0.0309375 3.28125 0.046875 C6.41498015 0.24463467 9.41536796 0.67395426 12.5 1.25 C12.5 1.91 12.5 2.57 12.5 3.25 C11.32824219 3.74628906 10.15648437 4.24257812 8.94921875 4.75390625 C-0.02965003 8.61047305 -8.52568594 12.53360636 -16.5 18.25 C-17.09490234 18.67265137 -17.68980469 19.09530273 -18.30273438 19.53076172 C-27.43379366 26.05651628 -35.96081677 33.00640125 -44.01806641 40.81933594 C-45.42734191 42.17985561 -46.85961268 43.51643643 -48.29296875 44.8515625 C-61.15526757 57.13849153 -74.25123461 73.00405658 -79.5 90.25 C-82.67078024 85.49382963 -83.52277171 81.92036671 -82.5 76.25 C-76.18872274 60.37109497 -65.81807511 46.88293122 -54.5 34.25 C-53.45972656 33.08210938 -53.45972656 33.08210938 -52.3984375 31.890625 C-41.04761734 19.88242143 -27.08899026 10.79771949 -12.5 3.25 C-11.49324219 2.68023437 -10.48648438 2.11046875 -9.44921875 1.5234375 C-6.06414396 0.06180256 -3.67077885 -0.0873995 0 0 Z " fill="#D1955A" transform="translate(266.5,204.75)"/>
<path d="M0 0 C7.69273642 5.76528805 13.27156498 16.4465129 15.07421875 25.8203125 C15.11497767 27.81989713 15.1226376 29.82089868 15.07421875 31.8203125 C14.45417969 31.48 13.83414063 31.1396875 13.1953125 30.7890625 C11.27407053 29.73755307 9.34915963 28.69273634 7.421875 27.65234375 C5.22559294 26.4504111 3.04493827 25.21937396 0.8828125 23.95703125 C-10.78622344 17.33262973 -23.2524907 13.1270264 -35.92578125 8.8203125 C-37.08207031 8.418125 -38.23835938 8.0159375 -39.4296875 7.6015625 C-42.56220181 6.62111984 -45.67257307 6.21069748 -48.92578125 5.8203125 C-48.39597656 5.5625 -47.86617188 5.3046875 -47.3203125 5.0390625 C-43.25476747 2.96981283 -39.29483862 0.70101674 -35.3125 -1.5234375 C-23.4929041 -7.30372431 -11.16453944 -6.83912964 0 0 Z " fill="#D74B55" transform="translate(123.92578125,168.1796875)"/>
<path d="M0 0 C0.721875 0.598125 1.44375 1.19625 2.1875 1.8125 C2.1875 2.4725 2.1875 3.1325 2.1875 3.8125 C1.2903125 4.03164062 0.393125 4.25078125 -0.53125 4.4765625 C-19.9142639 9.40241107 -37.49050854 17.1473063 -54.5546875 27.5625 C-56.8125 28.8125 -56.8125 28.8125 -58.8125 28.8125 C-56.40673167 16.33379924 -52.72481782 4.25851603 -41.94921875 -3.53515625 C-28.89207328 -11.33589198 -12.22943378 -7.55431224 0 0 Z " fill="#B2E39E" transform="translate(431.8125,194.1875)"/>
<path d="M0 0 C-0.58580125 11.71602505 -5.15676233 22.71370387 -13.875 30.6875 C-19.97734314 35.78779787 -23.82252468 36.97781558 -32 38 C-32 31.07 -32 24.14 -32 17 C-29.091875 15.494375 -26.18375 13.98875 -23.1875 12.4375 C-16.54328176 8.9740849 -10.14167278 5.38297346 -3.93359375 1.1796875 C-2 0 -2 0 0 0 Z " fill="#B0E29D" transform="translate(504,356)"/>
<path d="M0 0 C1.48326246 0.15173249 2.96184374 0.34912505 4.4375 0.5625 C5.26121094 0.66691406 6.08492187 0.77132813 6.93359375 0.87890625 C15.54442791 4.02707109 22.1999856 11.95014049 28.47238731 18.35262299 C29.98586918 19.89676797 31.5063606 21.43370691 33.02876282 22.96905518 C37.34932096 27.328981 41.65661579 31.70192765 45.96118164 36.07763672 C48.61062833 38.7699028 51.26743508 41.45473129 53.92862892 44.13538361 C54.93423134 45.15150211 55.93691189 46.17052143 56.93649864 47.19255829 C58.33312755 48.62054826 59.7399879 50.03850945 61.1472168 51.45605469 C61.94169724 52.26322937 62.73617767 53.07040405 63.55473328 53.90203857 C67.59937012 57.37220892 71.74482074 59.22717952 77 60 C73.77702734 63.22297266 70.63715603 63.17070354 66.23046875 63.42578125 C60.39399487 62.31163825 56.03167993 57.31816262 51.99462891 53.23754883 C51.42804565 52.67286392 50.8614624 52.10817902 50.27770996 51.52638245 C48.42241771 49.67476939 46.57437987 47.8161015 44.7265625 45.95703125 C43.43512874 44.66440457 42.14332421 43.37214823 40.85116577 42.08024597 C38.15336139 39.38088198 35.45893752 36.67820429 32.76708984 33.97290039 C29.30854459 30.49728927 25.8433758 27.02837446 22.37590981 23.56166553 C19.71288003 20.89836467 17.05245776 18.23247236 14.39292526 15.56567955 C13.11522117 14.28478477 11.83690298 13.00450226 10.55797195 11.72483253 C8.77911128 9.94381686 7.00357452 8.15955645 5.22900391 6.37426758 C4.69608734 5.8418042 4.16317078 5.30934082 3.61410522 4.76074219 C0 1.11448071 0 1.11448071 0 0 Z " fill="#FBDACB" transform="translate(220,411)"/>
<path d="M0 0 C0.81339844 0.47308594 1.62679688 0.94617188 2.46484375 1.43359375 C11.85607926 6.86346566 21.39324497 11.9603908 31 17 C31 23.93 31 30.86 31 38 C21.58274504 36.82284313 16.1453347 34.27737004 10 27 C4.3922694 19.32780461 0 9.64863607 0 0 Z " fill="#D74852" transform="translate(8,332)"/>
<path d="M0 0 C2.8853954 -0.50494419 5.06820459 -0.62442105 7.57434082 1.05500793 C14.18454297 6.99533463 20.39909005 13.33182851 26.63905334 19.65558434 C28.75546192 21.79889736 30.87644512 23.93758187 32.99890137 26.0749054 C39.02818499 32.14668651 45.05465359 38.22117522 51.06494141 44.31176758 C54.75482326 48.05028112 58.45449268 51.77886343 62.16065979 55.50123024 C63.5644727 56.9149057 64.96463103 58.33222046 66.36094666 59.75330162 C68.31539448 61.74166116 70.28210313 63.71709988 72.25195312 65.69018555 C73.10165428 66.56381493 73.10165428 66.56381493 73.96852112 67.45509338 C77.42018391 70.88114777 80.75364854 73.15290531 85.19426727 75.15151691 C87 76 87 76 90 78 C86.38069302 79.20643566 83.80768995 79.32268559 80 79 C74.75226269 76.0230715 70.75307752 72.03143207 66.52587891 67.76879883 C65.80323853 67.04805679 65.08059814 66.32731476 64.33605957 65.58473206 C61.96132053 63.21368231 59.59383142 60.83553738 57.2265625 58.45703125 C55.57640453 56.80568081 53.92587634 55.15470027 52.2749939 53.5040741 C48.82393828 50.05145705 45.3762615 46.59551329 41.93115234 43.13696289 C37.50405422 38.69281548 33.07034148 34.25533957 28.63433266 29.82008839 C25.23013342 26.41561805 21.82854015 23.0085543 18.42783737 19.60059166 C16.79287463 17.96243703 15.15729693 16.32489594 13.52110672 14.6879673 C11.24412112 12.40882702 8.97045088 10.1264333 6.69775391 7.84301758 C6.01522552 7.16094238 5.33269714 6.47886719 4.62948608 5.77612305 C4.01550964 5.15788162 3.4015332 4.5396402 2.76895142 3.90266418 C2.23104288 3.36307981 1.69313435 2.82349543 1.13892555 2.26756001 C0 1 0 1 0 0 Z " fill="#FDDBCC" transform="translate(283,346)"/>
<path d="M0 0 C6.23969238 18.76838112 -12.97733924 53.18220345 -21.3125 69.9296875 C-26.80935621 80.55721714 -33.13375671 90.95883513 -41 100 C-41.33 99.34 -41.66 98.68 -42 98 C-41.05832833 95.61605037 -40.05031094 93.35273262 -38.94140625 91.046875 C-38.24603115 89.5639942 -37.55072178 88.08108257 -36.85546875 86.59814453 C-36.48212402 85.80941956 -36.1087793 85.02069458 -35.72412109 84.20806885 C-29.00027204 69.97994921 -22.58054845 55.63940769 -16.5 41.125 C-16.16735138 40.33119934 -15.83470276 39.53739868 -15.49197388 38.71954346 C-10.12789291 25.89079919 -4.94576248 12.99636474 0 0 Z " fill="#D34A54" transform="translate(139,233)"/>
<path d="M0 0 C-1.55801105 1.55801105 -3.20875426 1.1929123 -5.375 1.3125 C-13.104767 2.02924016 -19.86691576 4.56198235 -26.375 8.75 C-30.34685904 11.15175592 -33.1561378 11.10671365 -37.75 10.8125 C-42.03358254 10.50709824 -42.03358254 10.50709824 -45.6953125 12.3046875 C-47.05063956 14.46782538 -48.00307422 16.64836672 -49 19 C-49.93513183 20.74121149 -50.87097753 22.48214095 -51.82666016 24.2121582 C-53.2489719 26.79155119 -54.62276077 29.39634313 -56 32 C-56.33 32 -56.66 32 -57 32 C-57 22.1 -57 12.2 -57 2 C-49.52549127 1.54877625 -42.05095537 1.10126261 -34.57568359 0.66333008 C-32.03225818 0.51319169 -29.48896125 0.36086005 -26.94580078 0.20629883 C-23.29230732 -0.0153626 -19.63842583 -0.22915697 -15.984375 -0.44140625 C-14.27637726 -0.54758018 -14.27637726 -0.54758018 -12.53387451 -0.65589905 C-11.47307678 -0.71603683 -10.41227905 -0.77617462 -9.31933594 -0.83813477 C-8.38667908 -0.89365005 -7.45402222 -0.94916534 -6.49310303 -1.00636292 C-4.12981695 -1.00033132 -2.25003449 -0.68830664 0 0 Z " fill="#F2EEEE" transform="translate(110,162)"/>
<path d="M0 0 C2.23918543 3.35877815 3.64476032 6.83247145 5.1328125 10.55859375 C5.77267814 12.14089741 6.41282778 13.72308624 7.05322266 15.30517578 C7.39057434 16.14147522 7.72792603 16.97777466 8.07550049 17.8394165 C14.01571177 32.54467813 20.1547365 47.14491425 26.625 61.625 C26.95389221 62.36168915 27.28278442 63.0983783 27.62164307 63.85739136 C28.57118668 65.98139559 29.52331441 68.10421855 30.4765625 70.2265625 C30.92202927 71.22113213 30.92202927 71.22113213 31.37649536 72.23579407 C32.81623385 75.43495564 34.28690329 78.61252364 35.82714844 81.76464844 C36.66681152 83.50149902 36.66681152 83.50149902 37.5234375 85.2734375 C38.02536621 86.28583496 38.52729492 87.29823242 39.04443359 88.34130859 C40.0535045 91.14886664 40.08717134 92.27355913 39 95 C26.24019467 76.73216591 16.56029976 57.96935913 9 37 C8.73461426 36.27941406 8.46922852 35.55882812 8.19580078 34.81640625 C4.2504028 24.0538081 0 11.57748761 0 0 Z " fill="#AEDB98" transform="translate(373,259)"/>
<path d="M0 0 C18.43599002 16.95777399 27.46593846 56.07795491 29 80 C27.44117146 77.66175719 26.41593121 75.80963876 25.37109375 73.26074219 C25.06285172 72.51356934 24.75460968 71.76639648 24.43702698 70.99658203 C24.10718307 70.18817871 23.77733917 69.37977539 23.4375 68.546875 C23.08956894 67.7027002 22.74163788 66.85852539 22.38316345 65.98876953 C21.25219495 63.24383552 20.12562242 60.49713029 19 57.75 C14.56848188 46.93817701 10.1386895 36.1572063 5.22998047 25.55200195 C1.20323556 16.82231715 -1.69223391 9.79615406 0 0 Z " fill="#AFE09C" transform="translate(475,242)"/>
<path d="M0 0 C6.54902367 1.16532596 9.8364689 2.97715122 14.38085938 7.74731445 C15.25578789 8.62815704 15.25578789 8.62815704 16.14839172 9.52679443 C18.06106007 11.45883341 19.95187081 13.4109004 21.84375 15.36328125 C23.17924016 16.71760593 24.51630307 18.07038136 25.8548584 19.42167664 C29.36963206 22.97626913 32.86730798 26.54717475 36.36029053 30.12316895 C41.94645068 35.83887664 47.55281571 41.53457816 53.16938782 47.22038841 C55.11981642 49.20127865 57.05955578 51.19219387 58.99841309 53.18440247 C60.20496228 54.41145637 61.41185389 55.6381737 62.61914062 56.86450195 C63.14820511 57.41377853 63.67726959 57.96305511 64.22236633 58.52897644 C69.09935313 63.44921567 74.86604414 68.33119164 82 69 C78.33614459 71.44257027 76.70251478 71.36558617 72.4810791 70.68862915 C63.22332114 68.11911736 54.33898025 55.48333912 47.65625 48.7890625 C46.27777451 47.41126145 44.89915068 46.03360881 43.52038574 44.65609741 C40.64770622 41.78488479 37.77682511 38.91188942 34.90722656 36.03759766 C31.22057119 32.34520781 27.52939368 28.65737617 23.83689117 24.97083473 C20.99736308 22.13490747 18.1602052 19.29661866 15.32377625 16.45759201 C13.96247344 15.09562055 12.60042307 13.73439586 11.23762512 12.37392044 C9.34414554 10.48296355 7.45387215 8.58886058 5.56445312 6.69384766 C4.9972757 6.12869446 4.43009827 5.56354126 3.84573364 4.98126221 C0 1.11427009 0 1.11427009 0 0 Z " fill="#FBD9CB" transform="translate(259,386)"/>
<path d="M0 0 C0.33 0 0.66 0 1 0 C1.84568513 10.18789572 -0.11992918 17.06023975 -4.625 26.125 C-5.82285949 28.63529022 -6.99994997 31.15511074 -8.17578125 33.67578125 C-8.48418442 34.33202988 -8.79258759 34.9882785 -9.1103363 35.66441345 C-13.0251857 44.06960547 -16.40771796 52.69133657 -19.8125 61.3125 C-20.4350556 62.88362749 -21.05761412 64.45475382 -21.68017578 66.02587891 C-23.12640963 69.68146713 -24.56546386 73.33980652 -26 77 C-26.33 77 -26.66 77 -27 77 C-26.88693576 50.20377536 -13.14697244 22.71633955 0 0 Z " fill="#D74851" transform="translate(36,219)"/>
<path d="M0 0 C4.455 0.99 4.455 0.99 9 2 C11.01823001 2.38876726 13.03870061 2.76635201 15.0625 3.125 C16.00222656 3.29257812 16.94195312 3.46015625 17.91015625 3.6328125 C18.94462891 3.81457031 18.94462891 3.81457031 20 4 C20 4.33 20 4.66 20 5 C18.576875 5.3403125 18.576875 5.3403125 17.125 5.6875 C12.83938536 6.88817322 9.05654768 8.89959342 5.13671875 10.9765625 C3 12 3 12 1 12 C1 14.97 1 17.94 1 21 C0.67 21 0.34 21 0 21 C0 14.07 0 7.14 0 0 Z " fill="#CF515A" transform="translate(54,355)"/>
<path d="M0 0 C0 5.28 0 10.56 0 16 C-0.33 16 -0.66 16 -1 16 C-1 14.35 -1 12.7 -1 11 C-1.804375 10.773125 -2.60875 10.54625 -3.4375 10.3125 C-7.91285739 8.66368412 -11.88721318 6.39455588 -16 4 C-16 3.67 -16 3.34 -16 3 C-14.08487728 2.49411853 -12.16783078 1.99551609 -10.25 1.5 C-8.64898437 1.08234375 -8.64898437 1.08234375 -7.015625 0.65625 C-4 0 -4 0 0 0 Z " fill="#A9D697" transform="translate(457,379)"/>
<path d="M0 0 C1.79068573 2.6860286 2.66055791 4.6626589 3.625 7.6875 C3.88539063 8.49574219 4.14578125 9.30398438 4.4140625 10.13671875 C4.60742188 10.75160156 4.80078125 11.36648438 5 12 C4.34 12 3.68 12 3 12 C2.67 12.66 2.34 13.32 2 14 C1.66179834 12.4176994 1.32964061 10.83410625 1 9.25 C0.814375 8.36828125 0.62875 7.4865625 0.4375 6.578125 C0 4 0 4 0 0 Z " fill="#A4BE83" transform="translate(373,259)"/>
<path d="M0 0 C1.08557659 3.24215827 0.94015194 5.02321809 -0.3125 8.1875 C-0.57675781 8.88230469 -0.84101563 9.57710937 -1.11328125 10.29296875 C-2 12 -2 12 -4 13 C-3.27991594 8.39146203 -1.68704061 4.32762591 0 0 Z " fill="#C55A60" transform="translate(139,233)"/>
</svg>
