<?xml version="1.0" encoding="UTF-8"?>
<svg version="1.1" xmlns="http://www.w3.org/2000/svg" width="512" height="512">
<path d="M0 0 C1.58366058 -0.01152344 1.58366058 -0.01152344 3.1993143 -0.02327967 C4.35299528 -0.0215467 5.50667626 -0.01981374 6.69531727 -0.01802826 C8.54099119 -0.02694163 8.54099119 -0.02694163 10.42395145 -0.03603506 C13.83668573 -0.05038229 17.24921863 -0.05575262 20.66196859 -0.05723 C24.3437925 -0.06093601 28.02557298 -0.07603317 31.70737171 -0.08950043 C39.75707107 -0.11664848 47.80675048 -0.12871365 55.85648799 -0.13752174 C60.88440132 -0.14304986 65.91230697 -0.15152518 70.94021511 -0.16053009 C84.86564335 -0.18491323 98.79106546 -0.20551214 112.71651459 -0.21228027 C113.60754196 -0.21271941 114.49856933 -0.21315854 115.41659753 -0.21361098 C116.30973673 -0.21404753 117.20287593 -0.21448409 118.12307996 -0.21493387 C119.93286972 -0.2158208 121.74265947 -0.21671393 123.55244923 -0.21761322 C124.45016428 -0.21805608 125.34787932 -0.21849894 126.27279786 -0.21895522 C140.81550152 -0.22684945 155.35800464 -0.26175303 169.90063085 -0.30833226 C184.83734933 -0.35578691 199.77396725 -0.38068523 214.71076232 -0.38301611 C223.09482104 -0.38484812 231.47861846 -0.39631461 239.86260509 -0.43265533 C247.00252516 -0.4634949 254.14210319 -0.47367657 261.28207722 -0.45717913 C264.92301273 -0.4493788 268.56325987 -0.45115993 272.20411015 -0.47929382 C276.15712187 -0.50955964 280.10917117 -0.49300126 284.06226063 -0.47212982 C285.204788 -0.48824263 286.34731537 -0.50435544 287.52446479 -0.52095652 C295.21406699 -0.42613487 300.71667809 1.29865003 306.69624805 6.26285553 C311.15156451 11.82882134 312.81960145 16.5379169 312.83046913 23.68480968 C312.83282136 24.34265181 312.83517359 25.00049393 312.8375971 25.67827067 C312.84429126 27.89810699 312.84382876 30.11788483 312.84341908 32.33773041 C312.84671744 33.93916628 312.85044295 35.54060133 312.85456055 37.14203531 C312.86459177 41.55502582 312.86829915 45.96800272 312.87094986 50.38100302 C312.87484959 55.13575484 312.88442814 59.89049585 312.89316273 64.64524078 C312.91293635 76.13392985 312.9229944 87.62261982 312.93189052 99.11132166 C312.93627187 104.51914161 312.94163907 109.92696057 312.94687939 115.33477974 C312.96389242 133.30740372 312.97838721 151.28002709 312.98562813 169.25265789 C312.98753808 173.91792235 312.9894584 178.5831868 312.99141407 183.24845123 C312.99189781 184.40800539 312.99238155 185.56755955 312.99287995 186.76225171 C313.00118252 205.55164608 313.02652294 224.34097682 313.05899475 243.1303434 C313.09204789 262.41300989 313.1100753 281.69564404 313.11327237 300.97833902 C313.11543906 311.80809842 313.12421103 322.63776505 313.14973354 333.46749687 C313.17141669 342.68950645 313.17950271 351.91140071 313.16976676 361.13343289 C313.16521517 365.83922917 313.16715817 370.54478743 313.18652821 375.25055122 C313.20411133 379.55938763 313.20320173 383.8678115 313.18763091 388.17665199 C313.18524745 389.73457283 313.1896166 391.29252187 313.20145956 392.85039952 C313.26747756 402.10896738 313.109312 409.22687401 306.7314043 416.50504303 C306.08042774 417.04387115 305.42945118 417.58269928 304.75874805 418.13785553 C304.11034962 418.6921524 303.46195118 419.24644928 302.7939043 419.81754303 C298.85763735 422.52968227 295.37000217 423.51652122 290.6142168 423.45816803 C289.68286915 423.45172272 288.75152149 423.4452774 287.79195118 423.43863678 C286.83224415 423.42187897 285.87253712 423.40512115 284.88374805 423.38785553 C283.90470509 423.37883209 282.92566212 423.36980865 281.91695118 423.36051178 C279.50979744 423.33702735 277.10315062 423.30418393 274.69624805 423.26285553 C274.7426543 424.5184024 274.78906055 425.77394928 274.83687305 427.06754303 C275.35616812 446.76141491 275.35616812 446.76141491 268.9657793 454.30582428 C261.0680756 461.95130591 252.09613981 462.70752018 241.51314259 462.64380646 C240.31123846 462.64848643 239.10933434 462.6531664 237.87100887 462.65798819 C234.55647385 462.66784271 231.24245305 462.66435215 227.92794991 462.65502954 C224.3450629 462.64821774 220.76221954 462.65873079 217.17934132 462.6669693 C210.16903883 462.68028619 203.15883289 462.67743804 196.14852667 462.66873138 C190.4494396 462.66194717 184.75037951 462.66104129 179.05128956 462.66430283 C178.23915127 462.66476253 177.42701298 462.66522222 176.59026444 462.66569585 C174.94025182 462.66665506 173.29023921 462.6676277 171.6402266 462.66861363 C156.179976 462.67716153 140.71977882 462.66734281 125.25953698 462.65121253 C112.00338788 462.63780989 98.74731761 462.64013815 85.49116993 462.65396881 C70.0850002 462.67003522 54.67887725 462.67633761 39.27270031 462.66713202 C37.62886906 462.66617641 35.98503781 462.66523329 34.34120655 462.66430283 C33.12811587 462.66360859 33.12811587 462.66360859 31.89051831 462.66290032 C26.20044492 462.66031362 20.5104013 462.66467453 14.82033253 462.67174149 C7.8829249 462.68016848 0.94561907 462.67785118 -5.99177694 462.66189925 C-9.52912687 462.65403263 -13.06630727 462.65089731 -16.60365582 462.66084671 C-20.44274788 462.67148125 -24.28156434 462.65875507 -28.12064648 462.64380646 C-29.23223063 462.65049862 -30.34381477 462.65719079 -31.48908329 462.66408575 C-40.35703442 462.59715186 -48.18347512 461.32305272 -54.8123579 455.02687836 C-60.9522333 447.76462569 -60.84526816 439.570588 -60.69437695 430.47769928 C-60.68871716 429.18086716 -60.68305737 427.88403503 -60.67722607 426.54790497 C-60.66208329 423.12985121 -60.62290363 419.71249672 -60.57841015 416.29471588 C-60.53720888 412.79525965 -60.5191625 409.29568845 -60.49906445 405.79605865 C-60.45639505 398.9513736 -60.38828548 392.1071483 -60.30375195 385.26285553 C-62.03353254 384.93240975 -63.76417483 384.60647303 -65.4951582 384.28238678 C-66.45881298 384.10038727 -67.42246777 383.91838776 -68.41532421 383.73087311 C-75.90198635 382.5032151 -75.90198635 382.5032151 -82.86625195 384.76285553 C-83.34062695 385.25785553 -83.81500195 385.75285553 -84.30375195 386.26285553 C-83.80875195 387.71691803 -83.80875195 387.71691803 -83.30375195 389.20035553 C-79.17746425 404.72012418 -89.89466757 417.6753733 -97.36625195 430.63785553 C-99.34248199 434.03901106 -101.32399475 437.43703451 -103.30716991 440.83414459 C-105.90419077 445.29398329 -108.47641803 449.76784983 -111.04764843 454.24259186 C-113.51935482 458.5396077 -116.00368155 462.82926636 -118.48832226 467.11881256 C-120.2985159 470.25378751 -122.09438018 473.39668275 -123.88968945 476.54019928 C-125.0271355 478.51058328 -126.16513061 480.48065045 -127.30375195 482.45035553 C-127.80729198 483.34077545 -128.31083202 484.23119537 -128.82963085 485.14859772 C-134.41292762 494.73951425 -140.7200502 500.73495495 -151.30375195 504.26285553 C-162.47935953 505.03664902 -171.94423918 504.68583987 -181.11625195 497.51285553 C-187.09465964 491.92924835 -190.85849194 484.92255322 -191.63968945 476.74723053 C-191.65258007 475.51488678 -191.6654707 474.28254303 -191.67875195 473.01285553 C-191.70711132 471.79082428 -191.7354707 470.56879303 -191.76468945 469.30973053 C-191.18570287 460.12849388 -185.59537777 451.93661313 -180.99125195 444.26285553 C-179.73273912 442.13566554 -178.47495128 440.0080465 -177.21781445 437.88004303 C-176.24763378 436.24373932 -176.24763378 436.24373932 -175.25785351 434.57437897 C-172.08753156 429.2017844 -168.97763568 423.79472358 -165.86625195 418.38785553 C-165.25104687 417.32196198 -164.63584179 416.25606842 -164.00199413 415.15787506 C-161.07458514 410.08476509 -158.15484144 405.00753867 -155.25646496 399.91779327 C-154.24193819 398.1371471 -153.22521458 396.35777366 -152.20780468 394.5787735 C-150.9346724 392.35114764 -149.66567859 390.12114931 -148.40165234 387.88834381 C-137.60508984 369.02996816 -137.60508984 369.02996816 -129.30375195 366.26285553 C-126.97075369 366.22331319 -124.63667006 366.21883821 -122.30375195 366.26285553 C-121.80065034 359.97408543 -122.0609052 356.26723887 -126.30375195 351.26285553 C-127.33980073 350.25703628 -128.38205483 349.25758896 -129.42875195 348.26285553 C-150.22383195 327.91211484 -160.95727278 297.46741721 -161.7060957 268.87174225 C-162.07562917 233.56589811 -149.61885808 202.73778685 -124.99125195 177.51285553 C-109.07976201 161.76912855 -86.65743217 148.42641207 -64.14138317 145.72353363 C-62.87496487 145.57150986 -61.60854656 145.41948608 -60.30375195 145.26285553 C-60.31263439 144.15309357 -60.32151684 143.0433316 -60.33066845 141.89994049 C-60.41187158 131.42459497 -60.47177368 120.9493136 -60.51100063 110.47372437 C-60.53184584 105.08852232 -60.56010767 99.70357504 -60.60550976 94.31851959 C-60.64907656 89.11840573 -60.67291211 83.91853642 -60.68326092 78.71825409 C-60.69063283 76.73757327 -60.70502846 74.75690533 -60.72667217 72.77632904 C-60.75585013 69.99485446 -60.75970194 67.21438122 -60.75785351 64.4327774 C-60.77223461 63.61997314 -60.78661572 62.80716888 -60.80143261 61.96973419 C-60.7534087 55.25984469 -58.76353221 50.12098077 -54.37406445 45.02066803 C-53.73211132 44.4818399 -53.0901582 43.94301178 -52.42875195 43.38785553 C-51.79195507 42.83355865 -51.1551582 42.27926178 -50.49906445 41.70816803 C-44.58716238 37.81599051 -38.74883495 38.01137753 -31.92875195 38.13785553 C-30.53849804 38.15139069 -30.53849804 38.15139069 -29.1201582 38.16519928 C-26.84775118 38.18862616 -24.57589014 38.22142805 -22.30375195 38.26285553 C-22.3501582 37.00730865 -22.39656445 35.75176178 -22.44437695 34.45816803 C-22.9720213 14.44765573 -22.9720213 14.44765573 -16.4326582 7.18473053 C-11.42023198 2.52288989 -6.96268501 0.01907288 0 0 Z " fill="#020202" transform="translate(195.3037519454956,3.7371444702148438)"/>
<path d="M0 0 C1.01743341 -0.00445784 2.03486682 -0.00891569 3.08313155 -0.01350862 C4.20937005 -0.01332426 5.33560855 -0.01313989 6.49597549 -0.01294994 C7.68584824 -0.01662663 8.87572098 -0.02030332 10.10165048 -0.02409142 C13.41482153 -0.03323019 16.727943 -0.03783056 20.04112196 -0.04048073 C23.61043159 -0.04437946 27.1797268 -0.05395811 30.74902725 -0.0626936 C39.37417389 -0.08247044 47.99932172 -0.09252586 56.62448537 -0.10142139 C60.68421148 -0.10580238 64.74393628 -0.11116968 68.80366135 -0.11641026 C82.29577107 -0.13342392 95.78787997 -0.14791861 109.27999878 -0.155159 C112.78251268 -0.15706896 116.28502656 -0.15898928 119.78754044 -0.16094494 C120.65809508 -0.16142868 121.52864973 -0.16191242 122.42558482 -0.16241082 C136.5314056 -0.17071302 150.63714162 -0.19605252 164.74292538 -0.22852562 C179.21847823 -0.26157881 193.69398799 -0.27960619 208.16957879 -0.28280324 C216.2997502 -0.28496998 224.42979803 -0.29374245 232.55993271 -0.31926441 C239.48332602 -0.34094771 246.40656575 -0.34903359 253.32998917 -0.33929763 C256.86293133 -0.33474594 260.39555646 -0.33668899 263.92845535 -0.35605907 C267.75806061 -0.37687471 271.58722669 -0.36672776 275.41687393 -0.35352612 C276.53418955 -0.36449536 277.65150516 -0.37546461 278.80267882 -0.38676625 C284.89285221 -0.33592382 288.60839425 -0.01084462 293.210392 4.13422108 C294.80451484 7.32246675 294.31213935 10.7631877 294.272892 14.25922108 C294.26838028 15.01332264 294.26386856 15.7674242 294.25922012 16.54437733 C294.24742699 18.40769234 294.22949142 20.27096663 294.210392 22.13422108 C290.13475322 20.59436507 286.32939247 18.69570466 282.460392 16.69672108 C266.0951395 8.38019926 246.2357229 5.63203105 228.27850723 10.6193285 C225.18229537 11.63895047 222.19923685 12.83517039 219.210392 14.13422108 C218.1275795 14.59183826 217.044767 15.04945545 215.929142 15.52093983 C208.86450355 18.77673911 203.00698365 22.97732121 197.210392 28.13422108 C196.52332169 28.72718983 195.83625137 29.32015858 195.12836075 29.93109608 C183.42267428 40.73634512 174.13859647 57.84472845 173.02118301 73.84320545 C172.94212238 76.88034607 172.93753534 79.90869003 172.960392 82.94672108 C172.95265762 83.96314686 172.94492325 84.97957264 172.9369545 86.0267992 C172.96201519 95.85685431 174.18031735 105.01748037 178.272892 114.00922108 C178.72209 115.01614002 178.72209 115.01614002 179.1803627 116.04340076 C182.60668042 123.42423476 187.10716663 131.86273058 193.522892 136.97797108 C195.210392 139.13422108 195.210392 139.13422108 195.19867325 142.96234608 C194.99578966 144.43955076 194.76968141 145.91371422 194.522892 147.38422108 C194.4178334 148.10996326 194.31277481 148.83570545 194.20453262 149.58343983 C193.99215005 151.04536158 193.77199976 152.50617576 193.54413223 153.96576405 C192.74916479 159.13101705 192.06417244 164.27486077 192.022892 169.50922108 C192.00871231 170.34195545 191.99453262 171.17468983 191.97992325 172.03265858 C192.01262431 174.35365986 192.01262431 174.35365986 194.210392 176.13422108 C198.50412452 176.6741826 200.64395997 176.47421964 204.38617325 174.22797108 C205.44443412 173.37896519 206.48966558 172.51352207 207.522892 171.63422108 C208.37016861 170.96278065 208.37016861 170.96278065 209.23456192 170.27777576 C211.87794886 168.16725435 214.32255695 166.0213551 216.710392 163.61859608 C220.37766589 160.07521658 222.5900768 158.15524138 227.82367325 158.08734608 C231.28399291 158.47853873 234.68939463 159.14882968 238.10931778 159.79584217 C256.88696483 162.8199903 276.55117444 157.47521381 292.210392 147.13422108 C292.870392 147.13422108 293.530392 147.13422108 294.210392 147.13422108 C294.30160249 178.02287549 294.37241003 208.91149437 294.41465332 239.80025144 C294.41965626 243.44526628 294.42483354 247.09028085 294.43011856 250.7352953 C294.4311678 251.46096544 294.43221704 252.18663559 294.43329808 252.93429574 C294.45071297 264.69101332 294.48225659 276.44765281 294.51900318 288.20432404 C294.55638252 300.26383082 294.57862147 312.32329665 294.58674598 324.38285899 C294.59174649 331.15821035 294.60379375 337.93339876 294.63331223 344.7086916 C294.66039107 351.08127384 294.66885217 357.45360528 294.66282272 363.82623959 C294.66392633 366.16923159 294.67192467 368.51223168 294.6872139 370.85517406 C294.70702347 374.04642203 294.70236373 377.23671466 294.69141006 380.42798328 C294.70306143 381.36183235 294.7147128 382.29568142 294.72671723 383.25782895 C294.6683222 389.52267275 294.6683222 389.52267275 292.30532837 392.67836094 C289.0702319 394.92656669 287.29266256 395.26058949 283.38675594 395.26844215 C282.36173904 395.2729 281.33672214 395.27735784 280.28064412 395.28195077 C279.1459416 395.28176641 278.01123908 395.28158205 276.84215164 395.2813921 C275.04403352 395.28690713 275.04403352 395.28690713 273.20958978 395.29253358 C269.87168507 395.30167244 266.53382957 395.30627273 263.19591701 395.30892289 C259.60004145 395.31282154 256.0041802 395.32240013 252.40831375 395.33113575 C243.71939728 395.35091202 235.03047962 395.36096758 226.34154627 395.36986354 C222.25230344 395.37424431 218.16306191 395.37961164 214.07382011 395.38485241 C200.48477287 395.40186542 186.89572645 395.41636055 173.30667019 395.42360115 C169.77905336 395.42551112 166.25143654 395.42743144 162.72381973 395.42938709 C161.84702154 395.42987083 160.97022336 395.43035457 160.06685553 395.43085297 C145.85689508 395.43915685 131.64701872 395.46449946 117.43709501 395.49696777 C102.85645584 395.53001223 88.27585944 395.54804752 73.69518262 395.55124539 C65.50523975 395.55341286 57.31541952 395.56219599 49.12551308 395.58770657 C42.15195249 395.60937789 35.17854431 395.61748164 28.20495387 395.60773978 C24.64580806 395.60318471 21.08697695 395.6051507 17.52787399 395.62450123 C13.67164523 395.64528649 9.81585364 395.63518091 5.95958328 395.62196827 C4.83157293 395.63293752 3.70356258 395.64390676 2.54137009 395.65520841 C-5.00081611 395.59254751 -5.00081611 395.59254751 -8.96143246 393.29123688 C-11.83797401 389.89728185 -11.91312618 387.12352123 -11.90313339 382.83661366 C-11.9030201 381.21527264 -11.9030201 381.21527264 -11.90290451 379.56117725 C-11.89516258 377.81262691 -11.89516258 377.81262691 -11.88726425 376.02875233 C-11.8858493 374.83441074 -11.88443436 373.64006916 -11.88297653 372.40953541 C-11.8773715 368.588572 -11.86481811 364.76766683 -11.852108 360.94672108 C-11.84709365 358.3588313 -11.84253063 355.7709406 -11.83843613 353.1830492 C-11.82740043 346.8334199 -11.81065736 340.48382465 -11.789608 334.13422108 C-11.22924347 334.11014683 -10.66887894 334.08607258 -10.09153366 334.06126881 C-7.50501507 333.94778545 -4.9188146 333.82814459 -2.33257675 333.70843983 C-1.010905 333.65182178 -1.010905 333.65182178 0.33746719 333.59405994 C33.9761493 332.00550205 63.96083175 316.7276532 86.60736465 291.98724842 C93.20607151 284.35944077 98.07751901 275.67715989 102.4994545 266.65765858 C102.8601503 265.92893543 103.2208461 265.20021229 103.59247208 264.44940662 C104.46814781 262.67917657 105.33971291 260.90691405 106.210392 259.13422108 C106.970379 259.13183272 107.730366 259.12944437 108.51338291 259.12698364 C126.99080333 259.06789213 145.46808949 258.99237979 163.94536686 258.89850616 C172.88078318 258.85350742 181.81615928 258.81410225 190.75165176 258.78778553 C198.53826002 258.76483839 206.32474143 258.73147738 214.11124915 258.68551952 C218.23558712 258.66154278 222.35979912 258.64284327 226.48420525 258.63660717 C230.36416917 258.63057631 234.24381059 258.61064962 238.12365532 258.57994556 C239.54948567 258.5711331 240.97535811 258.56744937 242.4012146 258.56921291 C244.34450534 258.57085793 246.28778251 258.5524488 248.2309761 258.53294849 C249.31961362 258.52833953 250.40825113 258.52373056 251.52987766 258.51898193 C254.22099897 258.34499394 254.22099897 258.34499394 256.05676174 256.79680061 C257.87822639 254.1717569 257.66171452 252.22900408 257.210392 249.13422108 C254.1020629 246.02616118 251.67603246 245.75461983 247.37646866 245.73549366 C246.18457428 245.72295551 244.9926799 245.71041737 243.76466751 245.69749928 C242.46059448 245.69893436 241.15652145 245.70036945 239.81293106 245.70184803 C238.42318729 245.69283009 237.03345148 245.68250278 235.64372635 245.67096424 C231.87340133 245.6433716 228.10322713 245.63410671 224.33281422 245.62811017 C220.39161635 245.61873235 216.4505314 245.59252946 212.50940323 245.56810474 C205.0474145 245.52441969 197.58544767 245.49588509 190.12336993 245.47278136 C181.6276061 245.44574041 173.13195575 245.40182824 164.63627291 245.35649264 C147.16103768 245.26361766 129.68577794 245.19195002 112.210392 245.13422108 C112.83311432 237.72710298 113.91527165 230.45227972 115.210392 223.13422108 C115.91791988 223.13183272 116.62544777 223.12944437 117.35441589 223.12698364 C134.56372569 223.06786841 151.77288484 222.99234077 168.98204041 222.89850616 C177.30423848 222.85352508 185.62639354 222.8141158 193.94867325 222.78778553 C201.20169343 222.76482412 208.45457774 222.73144702 215.70749021 222.68551952 C219.54849218 222.66156208 223.3893594 222.6428499 227.23043442 222.63660717 C230.84530114 222.6305676 234.45982293 222.6106092 238.07456207 222.57994556 C240.0346844 222.56694974 241.99488725 222.56873836 243.95505142 222.57094288 C245.12170334 222.55840473 246.28835526 222.54586658 247.49036026 222.53294849 C249.01131868 222.52603505 249.01131868 222.52603505 250.56300354 222.51898193 C253.63438294 222.07259993 255.01943198 221.3105614 257.210392 219.13422108 C257.87705866 216.13422108 257.87705866 216.13422108 257.210392 213.13422108 C254.13071644 210.07942592 251.77830545 209.75495328 247.52832413 209.73549366 C246.37008636 209.72295551 245.2118486 209.71041737 244.01851273 209.69749928 C242.11850761 209.69965191 242.11850761 209.69965191 240.18011856 209.70184803 C238.8297829 209.69282976 237.47945543 209.68250237 236.12913895 209.67096424 C232.46624789 209.64337542 228.80351209 209.63410724 225.14053059 209.62811017 C221.31143982 209.61873135 217.48246523 209.59252838 213.6534462 209.56810474 C206.40395393 209.52442244 199.15448418 209.49588615 191.90490031 209.47278136 C183.65096796 209.44573893 175.39715239 209.40182686 167.14330339 209.35649264 C150.1657242 209.26362159 133.18812376 209.19255055 116.210392 209.13422108 C115.220392 201.87422108 114.230392 194.61422108 113.210392 187.13422108 C114.88585098 187.12487537 116.56130997 187.11552967 118.28754044 187.10590076 C124.4974474 187.06606111 130.7068558 187.00031806 136.91644669 186.92670155 C139.60526389 186.89623912 142.29389298 186.87557542 144.98285294 186.86322498 C148.84559397 186.8418445 152.70732648 186.795216 156.569767 186.74359608 C157.7740535 186.74236744 158.97834 186.7411388 160.21912003 186.73987293 C161.33998001 186.7201543 162.46084 186.70043568 163.61566544 186.68011951 C164.60161697 186.67123707 165.58756851 186.66235462 166.60339737 186.65320301 C169.9304368 185.99087968 171.13359336 184.76605165 173.210392 182.13422108 C173.79389705 179.59131483 173.79389705 179.59131483 173.210392 177.13422108 C172.09863624 175.39522409 172.09863624 175.39522409 170.210392 174.13422108 C167.44679519 173.65999276 167.44679519 173.65999276 164.27020645 173.70184803 C162.43864754 173.67215679 162.43864754 173.67215679 160.57008743 173.64186573 C159.25127075 173.63547581 157.93245407 173.62908588 156.57367325 173.62250233 C155.21030937 173.60565676 153.84696103 173.58750668 152.48363113 173.56810474 C148.89817537 173.52058455 145.31278262 173.49078868 141.72711563 173.46466541 C138.0671176 173.43486978 134.40733675 173.38833613 130.74750137 173.34320545 C123.56857262 173.25714956 116.38962812 173.18981488 109.210392 173.13422108 C107.53745193 169.67888794 105.87311437 166.21948115 104.210392 162.75922108 C103.73343887 161.77437733 103.25648575 160.78953358 102.7650795 159.77484608 C102.08832169 158.36332264 102.08832169 158.36332264 101.397892 156.92328358 C100.97894669 156.05397205 100.56000137 155.18466053 100.12836075 154.28900623 C99.210392 152.13422108 99.210392 152.13422108 99.210392 150.13422108 C100.09322357 150.13057545 100.97605515 150.12692982 101.88563919 150.12317371 C110.19955225 150.08533017 118.51307157 150.02851927 126.82670689 149.95031834 C131.1010207 149.91078397 135.37512667 149.878625 139.64960098 149.86322498 C143.77362161 149.84809725 147.89707105 149.81372202 152.02083778 149.76591206 C153.59527183 149.75105791 155.16978741 149.74317775 156.74429131 149.74233723 C158.94756187 149.73997774 161.14924069 149.71298501 163.3522377 149.68011951 C164.60688324 149.67123707 165.86152878 149.66235462 167.15419388 149.65320301 C170.27452105 149.41547457 170.27452105 149.41547457 172.14683914 147.29541492 C173.66149968 144.21754718 173.19269389 142.36178443 172.210392 139.13422108 C168.53047904 136.68094577 165.83881891 136.90209467 161.59296036 136.98993397 C159.98773076 137.00573639 158.38250106 137.02152876 156.77727127 137.03731251 C155.9261067 137.04934774 155.07494213 137.06138298 154.1979847 137.07378292 C149.67949084 137.1302599 145.16082432 137.12971556 140.64203262 137.14008045 C134.89632896 137.15758185 129.15199136 137.19131919 123.4069252 137.28143787 C118.76031766 137.35284178 114.11617863 137.37001835 109.46909142 137.35217571 C107.70486865 137.35528367 105.94056003 137.37799418 104.17686653 137.4213171 C89.64914419 137.76359359 89.64914419 137.76359359 84.96010208 133.71442127 C82.38980467 131.08326019 80.32262662 128.14155041 78.210392 125.13422108 C76.09803994 123.08356286 73.87043859 121.28219584 71.522892 119.50922108 C70.93822159 119.06103016 70.35355118 118.61283924 69.75116348 118.15106678 C58.72589469 109.87076328 47.19728016 103.71535638 34.210392 99.13422108 C33.10824356 98.74363514 32.00609512 98.3530492 30.87054825 97.95062733 C19.81294386 94.29156551 8.80613516 93.14302531 -2.7505455 92.58343983 C-3.62348251 92.53941029 -4.49641953 92.49538074 -5.39580917 92.45001698 C-7.52697826 92.3428021 -9.65828039 92.23823713 -11.789608 92.13422108 C-11.90552994 81.15533554 -11.99433781 70.17659593 -12.04866886 59.19722271 C-12.07474706 54.09885361 -12.11011287 49.00090365 -12.16680527 43.90277576 C-12.22118812 38.98146039 -12.25104192 34.06054781 -12.26399422 29.13895512 C-12.27322282 27.26265721 -12.29124446 25.38638099 -12.31825829 23.51025486 C-12.35463261 20.87905711 -12.35954994 18.24951708 -12.35723495 15.6181078 C-12.37521133 14.84486668 -12.39318771 14.07162556 -12.41170883 13.27495289 C-12.37387983 9.2932637 -11.85316888 6.72828168 -9.37913132 3.66647816 C-5.98488204 0.3472913 -4.59483318 0.00930696 0 0 Z " fill="#E1EEFC" transform="translate(160.78960800170898,55.86577892303467)"/>
<path d="M0 0 C22.44066921 18.25423252 36.67615137 43.60441344 40.375 72.375 C41.93367102 91.74606663 39.12848194 109.61702524 31.375 127.375 C30.9725708 128.29756592 30.9725708 128.29756592 30.56201172 129.23876953 C19.22364655 154.6364361 -1.78440653 174.23068214 -27.625 184.375 C-40.76513695 189.23543775 -52.79202314 191.75243534 -66.875 191.6875 C-68.05779541 191.68548584 -69.24059082 191.68347168 -70.45922852 191.68139648 C-79.20137411 191.58128414 -87.19950692 190.70802749 -95.625 188.375 C-102.75720835 186.42745971 -108.79856423 186.82513331 -115.47265625 190.0859375 C-118.87882075 192.12592713 -121.77432865 194.62515626 -124.625 197.375 C-128.93264815 195.80858249 -132.68671464 193.69163844 -136.625 191.375 C-136.295 190.611875 -135.965 189.84875 -135.625 189.0625 C-133.4902774 181.19071043 -133.75662132 174.21605705 -137.75 167.0234375 C-140.47870743 163.16913826 -143.70002815 159.86806014 -146.96655273 156.46875 C-159.35992724 143.39308422 -166.96206739 126.61372056 -171.625 109.375 C-171.83898437 108.63765625 -172.05296875 107.9003125 -172.2734375 107.140625 C-178.94222225 82.97836143 -173.52926977 54.27431824 -161.66845703 32.62939453 C-147.15169985 7.42717929 -124.31728486 -11.14426044 -96.32421875 -19.625 C-62.88774567 -28.28600423 -27.16461706 -21.36686673 0 0 Z " fill="#FBCBBD" transform="translate(222.625,184.625)"/>
<path d="M0 0 C2.23056261 1.66114082 4.2885679 3.40407043 6.34375 5.27734375 C7.57158203 6.36789063 7.57158203 6.36789063 8.82421875 7.48046875 C20.48280197 18.41590233 30.44558373 34.79440589 31.53271484 51.11401367 C31.61199566 54.31680734 31.61659238 57.5112001 31.59375 60.71484375 C31.60148438 61.79572266 31.60921875 62.87660156 31.6171875 63.99023438 C31.56637963 84.93577825 22.8862845 102.48056913 8.34375 117.27734375 C7.73015625 117.90382813 7.1165625 118.5303125 6.484375 119.17578125 C-8.5904236 133.41309104 -28.72780364 139.11371466 -49.03515625 138.58203125 C-66.40757214 137.70635438 -82.91709894 129.95095243 -95.65625 118.27734375 C-96.28789063 117.71402344 -96.91953125 117.15070313 -97.5703125 116.5703125 C-110.64091295 104.27703851 -119.23544359 85.90633807 -119.859375 67.96484375 C-120.25466247 44.28032661 -113.87949278 24.85059852 -97.40625 7.46484375 C-89.52538639 -0.10696639 -79.97266446 -6.05459778 -69.65625 -9.72265625 C-68.61726563 -10.09390625 -67.57828125 -10.46515625 -66.5078125 -10.84765625 C-43.22930129 -18.11903502 -20.16316783 -13.07640737 0 0 Z " fill="#FDFDFD" transform="translate(199.65625,206.72265625)"/>
<path d="M0 0 C1.20130869 -0.00638882 2.40261738 -0.01277764 3.64032936 -0.01936007 C6.97196056 -0.0319836 10.30215916 -0.02216901 13.63366795 -0.00284529 C17.22746754 0.01257599 20.82117472 -0.00081864 24.41497803 -0.0105896 C31.45397167 -0.02512188 38.49267705 -0.01287654 45.53164339 0.00852364 C53.72713914 0.03252605 61.92256873 0.03081974 70.11809182 0.02821773 C84.74008336 0.02452681 99.36193901 0.04535947 113.98388672 0.07946777 C128.17532791 0.11255961 142.36662647 0.12672615 156.55810547 0.1204834 C172.00816533 0.11372044 187.45816544 0.11617693 202.90821648 0.1358428 C203.72510142 0.13688229 204.54198636 0.13792177 205.38362539 0.13899276 C207.0243376 0.14108367 208.66504978 0.14319464 210.30576193 0.14532593 C216.01970326 0.1522236 221.73362618 0.15289049 227.4475708 0.15144348 C234.41009013 0.15000425 241.3724931 0.15968595 248.33497381 0.18338984 C251.88799328 0.19525565 255.4408505 0.20237118 258.99388885 0.19655228 C262.84337183 0.19043412 266.69254911 0.2075326 270.54199219 0.22705078 C272.23093818 0.21905889 272.23093818 0.21905889 273.95400429 0.21090555 C275.50048936 0.22449051 275.50048936 0.22449051 277.07821655 0.23834991 C277.9667098 0.23992112 278.85520306 0.24149232 279.77062035 0.24311113 C282.87577189 0.71297269 284.73702674 1.78903734 287.27099609 3.62145996 C289.64766324 7.18646069 289.52391722 8.70817203 289.53105831 12.93967915 C289.53486398 13.58630185 289.53866965 14.23292455 289.54259065 14.89914188 C289.55295367 17.08085657 289.54899169 19.26231336 289.54515076 21.44404602 C289.54960062 23.01803537 289.55491383 24.59202247 289.56101948 26.16600627 C289.57524022 30.5030629 289.576862 34.84004801 289.57642257 39.17712462 C289.5780672 43.85004711 289.59112705 48.52293982 289.60261536 53.19584656 C289.62549187 63.4188858 289.63338877 73.64190431 289.6384418 83.86496568 C289.64169566 90.24530933 289.64821624 96.62564693 289.65544319 103.00598717 C289.67501237 120.6629317 289.69141478 138.31987059 289.69431973 155.97682667 C289.69450729 157.10733943 289.69469486 158.23785219 289.69488812 159.40262292 C289.69525438 161.69456176 289.69561807 163.9865006 289.69597923 166.27843944 C289.69616204 167.4161992 289.69634485 168.55395896 289.6965332 169.72619629 C289.69680403 171.434913 289.69680403 171.434913 289.69708032 173.17814925 C289.70062305 191.64235701 289.72765018 210.10644823 289.76503109 228.57061557 C289.80308114 247.51653369 289.82247696 266.46239393 289.82277924 285.40835112 C289.82336454 296.05026995 289.83190363 306.69204975 289.8607769 317.33393288 C289.88524663 326.39462764 289.89260355 335.45513269 289.87752938 344.51585153 C289.87034243 349.14043806 289.8712944 353.76464961 289.89393997 358.38919449 C289.91446676 362.62153008 289.91198916 366.85320092 289.89106513 371.08552881 C289.88755809 372.61784217 289.89253147 374.15020287 289.90676957 375.68245409 C290.01880731 388.56850306 290.01880731 388.56850306 286.85757542 392.50918102 C283.62895221 395.14577242 282.19528322 395.74768734 278.13818359 395.71911621 C277.33251953 395.71589355 276.52685547 395.7126709 275.69677734 395.70935059 C274.85501953 395.70097168 274.01326172 395.69259277 273.14599609 395.68395996 C272.29650391 395.67944824 271.44701172 395.67493652 270.57177734 395.67028809 C268.47148701 395.6584887 266.37123279 395.64055302 264.27099609 395.62145996 C264.11114142 367.14513075 263.98734284 338.66885819 263.91353879 310.19216777 C263.90478435 306.82655675 263.89572404 303.46094661 263.88647461 300.09533691 C263.88463844 299.42533401 263.88280226 298.7553311 263.88091045 298.06502507 C263.85049123 287.231186 263.79532166 276.39760823 263.73092652 265.56392392 C263.66535372 254.438926 263.62708465 243.31403432 263.61237663 232.18884832 C263.60326111 225.94349611 263.58187972 219.69873557 263.5308857 213.45357323 C263.48324172 207.570819 263.46874194 201.68889808 263.47924232 195.80596924 C263.4773224 193.65132933 263.46347597 191.49666049 263.43655777 189.34218788 C263.29580434 177.49162097 263.30359007 169.07834837 271.27099609 159.62145996 C272.7673078 157.01950736 274.04928505 154.36174641 275.27099609 151.62145996 C275.54685547 151.02333496 275.82271484 150.42520996 276.10693359 149.80895996 C283.41755024 132.43719764 281.70985131 110.60864431 275.02099609 93.43395996 C272.34261102 87.3585987 269.01875996 80.36922383 264.27099609 75.62145996 C264.18500579 73.2192608 264.15835999 70.84022958 264.16552734 68.43786621 C264.15205169 66.93720097 264.13702503 65.43654901 264.12060547 63.93591309 C264.09793499 61.57257632 264.08335351 59.21071872 264.09594727 56.84729004 C264.13356644 47.22796508 264.09862278 39.16767675 257.27099609 31.62145996 C254.76033278 29.52242456 254.76033278 29.52242456 252.08349609 28.55895996 C251.24431641 28.1967334 250.40513672 27.83450684 249.54052734 27.46130371 C246.12623441 26.19783903 243.45301692 25.49497274 239.82571888 25.48279476 C238.91057949 25.47732032 237.9954401 25.47184587 237.05256921 25.46620554 C236.04577023 25.46522743 235.03897125 25.46424932 234.00166321 25.46324158 C232.39910755 25.45583461 232.39910755 25.45583461 230.76417702 25.44827801 C227.16659815 25.43285961 223.56903718 25.42453063 219.97143555 25.4161377 C217.39959555 25.40656259 214.82775715 25.39655273 212.25592041 25.38613892 C206.70984456 25.36437082 201.1637663 25.34622755 195.61767006 25.33053398 C187.59890932 25.30783839 179.58017501 25.27969513 171.56143668 25.2502147 C158.55211854 25.20253498 145.5427896 25.15927182 132.53344727 25.11877441 C119.89476684 25.07942142 107.25609601 25.03799567 94.61743164 24.99377441 C93.83861397 24.99105014 93.05979629 24.98832587 92.25737808 24.98551904 C88.35034727 24.9718396 84.4433166 24.95811932 80.536286 24.94437873 C48.1145425 24.83040798 15.69277906 24.72359994 -16.72900391 24.62145996 C-16.86431235 21.55747545 -16.9632446 18.4994887 -17.04150391 15.43395996 C-17.08339844 14.56964355 -17.12529297 13.70532715 -17.16845703 12.81481934 C-17.24855585 8.63366109 -17.0763773 6.21927552 -14.9425354 2.54701996 C-10.05655946 -0.38067496 -5.59787277 -0.06223407 0 0 Z " fill="#4DB0FB" transform="translate(204.72900390625,17.3785400390625)"/>
<path d="M0 0 C13.51586117 10.14079769 24.5125092 24.9638235 27 42 C28.42088441 61.91582873 24.16237874 79.53878742 11.16015625 95.21875 C1.12791144 105.88698579 -14.80665887 114.70788059 -29.63671875 115.30078125 C-31.32021487 115.31932852 -33.00393286 115.32274029 -34.6875 115.3125 C-35.56873535 115.31121094 -36.4499707 115.30992187 -37.35791016 115.30859375 C-43.35107425 115.22063684 -48.75754671 114.50502972 -54.4921875 112.65625 C-57.57258535 111.85016458 -59.8230642 111.61247035 -63 112 C-65.3125984 113.43364034 -67.24343355 114.78393742 -69.3125 116.5 C-74.94087838 121 -74.94087838 121 -76 121 C-76.07516883 116.2643638 -76.03104257 112.07036196 -75.0625 107.4375 C-74.7240105 104.64254384 -74.7353759 103.43534932 -76.2109375 101.0078125 C-78.06529668 98.91851188 -80.01189892 96.96223359 -82 95 C-95.52599817 80.20432001 -98.89170658 63.69956882 -98.14355469 44.32910156 C-97.22956486 29.500083 -89.32769238 17.21897983 -79 7 C-78.40960938 6.37609375 -77.81921875 5.7521875 -77.2109375 5.109375 C-73.01083149 1.00178234 -68.25274524 -1.66126824 -63.0625 -4.3125 C-62.07817993 -4.81934326 -62.07817993 -4.81934326 -61.07397461 -5.33642578 C-41.98772227 -14.64966812 -17.42999893 -11.37791597 0 0 Z " fill="#FAD934" transform="translate(445,88)"/>
<path d="M0 0 C4.47750786 3.46812748 8.66543567 7.12257944 12.703125 11.09375 C13.86134766 12.23263672 13.86134766 12.23263672 15.04296875 13.39453125 C30.18340259 29.20787326 38.34727072 50.73291268 38.078125 72.46875 C38.06797363 73.65758789 38.05782227 74.84642578 38.04736328 76.07128906 C37.61199461 100.68818126 27.8131508 121.29782783 11.015625 139.15625 C-7.52762285 157.05012341 -32.09680932 164.77407505 -57.48828125 164.375 C-81.25486781 163.4153155 -103.24706599 150.79254826 -119.421875 133.96875 C-137.05564625 113.84385869 -142.44606979 90.35787164 -141.296875 64.09375 C-139.82830962 42.20738858 -128.15681358 22.12974812 -112.60546875 7.09375 C-80.94687803 -20.33298172 -34.57653365 -24.56256489 0 0 Z M-102.296875 17.09375 C-103.03035156 17.73570312 -103.76382813 18.37765625 -104.51953125 19.0390625 C-117.96325966 31.53734861 -126.52991649 48.91270896 -127.40185547 67.30859375 C-128.09716576 88.6256844 -123.39693877 108.51273067 -108.671875 124.71875 C-94.23675897 140.01315255 -75.64285749 149.83667011 -54.42138672 150.51538086 C-46.06263403 150.5727535 -38.30599816 149.61061186 -30.296875 147.09375 C-29.24242187 146.76503906 -28.18796875 146.43632812 -27.1015625 146.09765625 C-8.00830067 139.4495205 7.46360021 126.12432338 16.703125 108.09375 C24.54196824 91.00692375 27.4994894 69.4258155 21.578125 51.21875 C14.15433179 31.2203857 0.60554002 14.87070959 -18.68359375 5.4375 C-46.84832398 -7.20409509 -78.91620598 -4.14483043 -102.296875 17.09375 Z " fill="#040404" transform="translate(207.296875,194.90625)"/>
<path d="M0 0 C2.46362305 1.18334961 2.46362305 1.18334961 5.01171875 2.65234375 C6.39520508 3.44608398 6.39520508 3.44608398 7.80664062 4.25585938 C8.75732422 4.81080078 9.70800781 5.36574219 10.6875 5.9375 C11.64978516 6.48857422 12.61207031 7.03964844 13.60351562 7.60742188 C20.71409105 11.71409105 20.71409105 11.71409105 23 14 C23.44336658 18.44829074 22.80556055 21.06593632 20.5 24.8515625 C19.95085937 25.77066406 19.40171875 26.68976563 18.8359375 27.63671875 C18.23007813 28.62285156 17.62421875 29.60898437 17 30.625 C15.70682567 32.7829514 14.41522131 34.94184422 13.125 37.1015625 C12.44695312 38.22981445 11.76890625 39.35806641 11.0703125 40.52050781 C7.96641055 45.71253571 4.98746155 50.97586946 2.00164795 56.23635864 C-3.49429898 65.91329085 -9.03513505 75.56451743 -14.625 85.1875 C-15.18058594 86.14849609 -15.73617187 87.10949219 -16.30859375 88.09960938 C-27.22595647 106.8397539 -27.22595647 106.8397539 -35 109 C-40.04677913 109.9192032 -43.84333547 109.43709989 -48.3125 106.875 C-52.733745 103.77484414 -55.29132628 100.12602117 -57 95 C-57.84650025 87.48938507 -55.35596196 82.96937296 -51.625 76.5625 C-51.07626221 75.59022461 -50.52752441 74.61794922 -49.9621582 73.61621094 C-48.32727287 70.73259635 -46.66873214 67.86413434 -45 65 C-44.35248779 63.88310791 -44.35248779 63.88310791 -43.69189453 62.74365234 C-41.73051243 59.36826934 -39.74693873 56.00679385 -37.75 52.65234375 C-34.33762541 46.90605774 -31.01899276 41.10590515 -27.6875 35.3125 C-22.70879465 26.67510465 -17.72357644 18.04159782 -12.6875 9.4375 C-12.14246826 8.49753174 -11.59743652 7.55756348 -11.03588867 6.58911133 C-10.28142456 5.30556763 -10.28142456 5.30556763 -9.51171875 3.99609375 C-8.85369263 2.86965454 -8.85369263 2.86965454 -8.18237305 1.72045898 C-5.81571813 -1.72323649 -3.69804616 -1.00184104 0 0 Z " fill="#C66E5B" transform="translate(75,385)"/>
<path d="M0 0 C0.66 0 1.32 0 2 0 C2.04562133 31.49159838 2.08101736 62.98318736 2.10213066 94.47481105 C2.10463208 98.19235456 2.10722073 101.909898 2.10986328 105.62744141 C2.1103879 106.36754001 2.11091252 107.10763861 2.11145304 107.87016444 C2.12015658 119.85506128 2.13592628 131.83993894 2.15430559 143.82482441 C2.17300605 156.12164713 2.18411704 168.4184598 2.18817699 180.71529615 C2.19092174 188.30361124 2.19959211 195.89187213 2.21583293 203.48017053 C2.22765064 209.29805083 2.22891096 215.11590327 2.22621536 220.93379593 C2.22676639 223.32108901 2.23075524 225.70838411 2.23841095 228.09566498 C2.24834192 231.35166388 2.24597549 234.60742969 2.24050903 237.86343384 C2.24633472 238.81091197 2.2521604 239.7583901 2.25816262 240.73457968 C2.25418052 241.61040808 2.25019842 242.48623647 2.24609566 243.38860512 C2.2468551 244.13969193 2.24761454 244.89077874 2.24839699 245.66462576 C2 248 2 248 0 254 C-4.62 254 -9.24 254 -14 254 C-14.18276558 225.55774572 -14.32421331 197.11556569 -14.40852264 168.67283847 C-14.41852748 165.30980476 -14.42888214 161.94677221 -14.43945312 158.58374023 C-14.44155161 157.91426195 -14.44365009 157.24478366 -14.44581217 156.55501815 C-14.48055916 145.73542027 -14.54359996 134.91616477 -14.61722237 124.09676955 C-14.69221289 112.98307055 -14.73590943 101.86951057 -14.75270796 90.75556535 C-14.76311723 84.51789347 -14.78749768 78.28099638 -14.84584045 72.04357338 C-14.900372 66.16567021 -14.91684599 60.28885675 -14.90486145 54.41072464 C-14.90705208 52.26013569 -14.92282873 50.10950815 -14.9536438 47.95913887 C-15.13441955 34.6866599 -14.10433438 26.67142172 -6 16 C-4.60761127 13.12183822 -3.51461233 10.21641623 -2.5 7.1875 C-2.24992187 6.48302734 -1.99984375 5.77855469 -1.7421875 5.05273438 C-1.14805607 3.37317052 -0.5718164 1.68729158 0 0 Z " fill="#4DB0FB" transform="translate(484,158)"/>
<path d="M0 0 C6.3477937 0.36621887 6.3477937 0.36621887 9.20274013 3.14051157 C11.3642077 6.57946417 11.50199124 8.52429594 11.50615788 12.56431484 C11.51227123 13.21324523 11.51838459 13.86217562 11.52468321 14.53077057 C11.54030285 16.70858054 11.52741043 18.88527994 11.5146637 21.06309509 C11.51998807 22.63881458 11.52705313 24.21452898 11.53571075 25.79023367 C11.55437965 30.12286323 11.54801858 34.45515196 11.53755772 38.7877959 C11.53057771 43.45933526 11.54655452 48.13080374 11.55955505 52.80232239 C11.58122051 61.95515668 11.58106163 71.10786676 11.57292951 80.26071828 C11.56663491 87.69858497 11.56776159 95.13641539 11.57420158 102.57428169 C11.57510324 103.6320599 11.57600489 104.68983811 11.57693387 105.7796702 C11.57878504 107.92840215 11.5806476 110.07713409 11.58252143 112.22586603 C11.59910881 132.3853157 11.59037276 152.54469543 11.57353585 172.70414091 C11.55883849 191.15529742 11.57346618 209.60629109 11.60230602 228.05742662 C11.63168521 246.99437949 11.64267658 265.93125717 11.63312382 284.86823183 C11.63210124 287.00945539 11.63110663 289.15067896 11.6301403 291.29190254 C11.62966391 292.34547345 11.62918752 293.39904436 11.6286967 294.48454167 C11.62653059 301.91425785 11.63634711 309.34390301 11.65091133 316.77360344 C11.66841043 325.82694691 11.66835218 334.88008275 11.64555968 343.93341797 C11.63439535 348.55395622 11.63130438 353.17412833 11.64986038 357.79465103 C11.66662401 362.02322565 11.66037054 366.25111362 11.63564359 370.47964341 C11.63074628 372.01054313 11.63431413 373.54149779 11.64713103 375.07235169 C11.74714918 387.94607931 11.74714918 387.94607931 8.58573818 391.88687992 C1.01170603 398.07653962 0.42765858 395 -14 395 C-14 320.75 -14 246.5 -14 170 C-13.67 170 -13.34 170 -13 170 C-13 243.92 -13 317.84 -13 394 C-8.38 394 -3.76 394 1 394 C1.63846522 390.16920867 2.12537367 387.14441111 2.1386652 383.38860512 C2.14413964 382.51277672 2.14961409 381.63694833 2.15525442 380.73457968 C2.15623253 379.78710155 2.15721064 378.83962343 2.15821838 377.86343384 C2.16315636 376.8455863 2.16809434 375.82773877 2.17318195 374.77904737 C2.18853284 371.37044075 2.19691108 367.96185294 2.20532227 364.55322266 C2.21490268 362.10901728 2.22491286 359.66481356 2.23532104 357.22061157 C2.25675768 351.95942355 2.27520536 346.69823806 2.29092598 341.43703079 C2.3136604 333.83025553 2.34179822 326.22350777 2.37124526 318.61675589 C2.41887744 306.27462676 2.46215344 293.93248637 2.50268555 281.59033203 C2.54206275 269.60269291 2.5834943 257.61506379 2.62768555 245.62744141 C2.63040982 244.88824284 2.63313409 244.14904428 2.63594092 243.38744576 C2.64962076 239.67901977 2.66334096 235.97059393 2.67708123 232.26216817 C2.79097727 201.50813276 2.89772913 170.75407637 3 140 C2.34 140 1.68 140 1 140 C1.165 138.700625 1.33 137.40125 1.5 136.0625 C1.9896536 131.15896896 2.11207703 126.29811356 2.125 121.375 C2.12951172 120.67125244 2.13402344 119.96750488 2.13867188 119.24243164 C2.12517028 114.41730076 1.67640911 109.77781041 1 105 C1.66 105 2.32 105 3 105 C2.91564664 92.04787245 2.82078256 79.09586872 2.71247292 66.14391804 C2.66251207 60.1299044 2.61618183 54.11590832 2.578125 48.10180664 C2.54126979 42.29864259 2.49490886 36.49562543 2.44193649 30.6925869 C2.42339387 28.47783165 2.40828543 26.26304491 2.39665604 24.04824257 C2.3797916 20.94777996 2.3507555 17.84765365 2.31884766 14.74731445 C2.31668747 13.83021698 2.31452728 12.91311951 2.31230164 11.9682312 C2.25405976 7.54255781 2.08471991 4.02192228 0 0 Z " fill="#298CED" transform="translate(483,18)"/>
<path d="M0 0 C0.65325825 -0.00623996 1.3065165 -0.01247993 1.97957045 -0.01890898 C4.16696981 -0.03485483 6.3532572 -0.0222298 8.54066467 -0.00964355 C10.10948334 -0.01506407 11.67829691 -0.02218634 13.24710083 -0.03088379 C17.50752117 -0.04913015 21.76755435 -0.04204393 26.02798152 -0.02936745 C30.48596034 -0.01924474 34.94390587 -0.02863126 39.40188599 -0.03491211 C46.88961237 -0.04219141 54.37718099 -0.03259424 61.86488342 -0.0135498 C70.52074745 0.00821158 79.1762345 0.00117412 87.83208936 -0.02085543 C95.26321734 -0.0390109 102.69423186 -0.0415668 110.12537485 -0.03110075 C114.56387005 -0.02486559 119.00218811 -0.0240306 123.44067192 -0.0372467 C127.61456493 -0.04880649 131.78797238 -0.04077743 135.96181297 -0.01766968 C137.49324996 -0.01238289 139.02472784 -0.01389592 140.55614853 -0.02272034 C142.64792761 -0.03366182 144.73815372 -0.01993226 146.82983398 0 C147.99992476 0.0015081 149.17001554 0.0030162 150.37556362 0.00457001 C154.14412544 0.61593163 155.82155679 1.80579044 158.47840881 4.50793457 C159.04090881 7.50793457 159.04090881 7.50793457 158.47840881 10.50793457 C156.28877169 13.41316921 155.10903524 14.40196093 151.48299408 15.01129913 C150.30460716 15.01280724 149.12622025 15.01431534 147.91212463 15.01586914 C146.92505358 15.02522908 146.92505358 15.02522908 145.91804171 15.03477812 C143.71449158 15.05072475 141.51204513 15.03809866 139.30848694 15.0255127 C137.72819371 15.03093312 136.14790554 15.03805534 134.56762695 15.04675293 C130.27628392 15.06499884 125.98532526 15.05791365 121.69397545 15.04523659 C117.20483228 15.03511544 112.71572221 15.0444998 108.22657776 15.05078125 C100.68757717 15.05806024 93.14873327 15.04846337 85.60975647 15.02941895 C76.89138942 15.00764967 68.17339653 15.01470087 59.45503855 15.03672457 C51.97212218 15.05487142 44.4893185 15.05744041 37.00638723 15.04696989 C32.53606628 15.04073101 28.06592125 15.03991012 23.59561157 15.05311584 C19.39299553 15.06466338 15.19086226 15.05666903 10.98829842 15.03353882 C9.44515345 15.02824581 7.90196791 15.02977566 6.35883904 15.03858948 C4.25357365 15.04950618 2.14985927 15.03583147 0.04469299 15.01586914 C-1.72288738 15.01360699 -1.72288738 15.01360699 -3.52617645 15.01129913 C-7.1515527 14.40207267 -8.33538191 13.41561174 -10.52159119 10.50793457 C-11.02159119 7.50793457 -11.02159119 7.50793457 -10.52159119 4.50793457 C-7.39794314 0.36060309 -5.07143586 0.00653856 0 0 Z " fill="#030304" transform="translate(260.52159118652344,396.4920654296875)"/>
<path d="M0 0 C0.98707105 -0.00935994 0.98707105 -0.00935994 1.99408293 -0.01890898 C4.19763306 -0.03485561 6.4000795 -0.02222951 8.6036377 -0.00964355 C10.18393092 -0.01506398 11.76421909 -0.0221862 13.34449768 -0.03088379 C17.63584071 -0.0491297 21.92679938 -0.04204451 26.21814919 -0.02936745 C30.70729235 -0.0192463 35.19640243 -0.02863066 39.68554688 -0.03491211 C47.22454746 -0.0421911 54.76339136 -0.03259423 62.30236816 -0.0135498 C71.02073521 0.00821947 79.73872811 0.00116827 88.45708609 -0.02085543 C95.94000246 -0.03900228 103.42280614 -0.04157127 110.9057374 -0.03110075 C115.37605835 -0.02486187 119.84620339 -0.02404098 124.31651306 -0.0372467 C128.51912911 -0.04879424 132.72126238 -0.04079989 136.92382622 -0.01766968 C138.46697119 -0.01237667 140.01015672 -0.01390652 141.5532856 -0.02272034 C143.65855099 -0.03363704 145.76226536 -0.01996233 147.86743164 0 C149.63501202 0.00226215 149.63501202 0.00226215 151.43830109 0.00457001 C155.06434224 0.61390821 156.2440787 1.60269993 158.43371582 4.50793457 C158.99621582 7.50793457 158.99621582 7.50793457 158.43371582 10.50793457 C155.77686379 13.2100787 154.09943245 14.39993751 150.33087063 15.01129913 C149.16077985 15.01280724 147.99068907 15.01431534 146.78514099 15.01586914 C146.13032275 15.0221091 145.47550451 15.02834907 144.8008433 15.03477812 C142.61421397 15.05068936 140.42870234 15.03811263 138.24206543 15.0255127 C136.67147676 15.03093465 135.10089317 15.03805772 133.53031921 15.04675293 C129.27002502 15.06497924 125.01011853 15.05792214 120.74981761 15.04523659 C116.2913768 15.03510708 111.8329691 15.04450196 107.37452698 15.05078125 C99.88858074 15.05805705 92.40279239 15.04847096 84.91687012 15.02941895 C76.26039739 15.00764234 67.60430139 15.01470748 58.94783777 15.03672457 C51.51585601 15.05487104 44.08398771 15.05744083 36.65199095 15.04696989 C32.2129836 15.04073182 27.77415339 15.03990804 23.33515739 15.05311584 C19.1628955 15.06466312 14.99111991 15.05666955 10.8189106 15.03353882 C9.28705274 15.02824601 7.75515402 15.02977533 6.22331238 15.03858948 C4.13342324 15.0495068 2.04509633 15.03583094 -0.04469299 15.01586914 C-1.21440675 15.01436104 -2.3841205 15.01285294 -3.58928013 15.01129913 C-7.20167475 14.40050002 -8.38514429 13.40387868 -10.56628418 10.50793457 C-11.06628418 7.50793457 -11.06628418 7.50793457 -10.56628418 4.50793457 C-7.435005 0.34330628 -5.08684335 0.00651015 0 0 Z " fill="#020202" transform="translate(260.5662841796875,360.4920654296875)"/>
<path d="M0 0 C0.09121049 30.88865442 0.16201803 61.77727329 0.20426132 92.66603036 C0.20926427 96.3110452 0.21444154 99.95605978 0.21972656 103.60107422 C0.2207758 104.32674437 0.22182505 105.05241451 0.22290608 105.80007467 C0.24032097 117.55679224 0.27186459 129.31343174 0.30861118 141.07010296 C0.34599052 153.12960974 0.36822947 165.18907558 0.37635398 177.24863791 C0.38135449 184.02398927 0.39340175 190.79917768 0.42292023 197.57447052 C0.44999907 203.94705276 0.45846017 210.3193842 0.45243073 216.69201851 C0.45353433 219.03501052 0.46153267 221.37801061 0.4768219 223.72095299 C0.49663147 226.91220095 0.49197173 230.10249358 0.48101807 233.29376221 C0.49266943 234.22761128 0.5043208 235.16146035 0.51632524 236.12360787 C0.45831972 242.3466625 0.45831972 242.3466625 -1.79568863 245.55976486 C-4.78438947 247.51249805 -7.48241762 247.72941674 -11 248 C-10.6749605 247.21123663 -10.349921 246.42247326 -10.01503181 245.60980797 C-8.73496037 241.05742642 -8.72933146 236.94672346 -8.75949097 232.24307251 C-8.75778212 231.2660605 -8.75607327 230.28904849 -8.75431263 229.28243005 C-8.75102103 226.01194232 -8.76201614 222.74166021 -8.77294922 219.47119141 C-8.7735134 217.12550868 -8.77319663 214.77982559 -8.77206421 212.43414307 C-8.77148998 206.06690193 -8.78325575 199.69973602 -8.79721212 193.33251238 C-8.80844174 187.35227373 -8.81045837 181.372035 -8.81251587 175.39178781 C-8.81689031 163.54877534 -8.83019261 151.70579046 -8.84912109 139.86279297 C-8.86748638 128.3601902 -8.88163971 116.85759494 -8.89013672 105.35498047 C-8.89066217 104.64565186 -8.89118761 103.93632326 -8.89172898 103.20549984 C-8.89433911 99.64691474 -8.89686651 96.08832958 -8.89935279 92.52974439 C-8.92007748 63.01981179 -8.95544514 33.50990638 -9 4 C-2.25 0 -2.25 0 0 0 Z " fill="#B5DAFE" transform="translate(455,203)"/>
<path d="M0 0 C1.6152079 -0.00569504 1.6152079 -0.00569504 3.26304626 -0.01150513 C6.82605013 -0.01892062 10.38824034 0.00248687 13.95117188 0.02490234 C16.42451888 0.02728626 18.89786772 0.0281922 21.37121582 0.02767944 C26.55634893 0.03080919 31.74120589 0.04738838 36.92626953 0.07421875 C43.57791117 0.10819878 50.22909542 0.11584742 56.88083649 0.11432838 C61.9885753 0.11487185 67.09624754 0.12583535 72.20396423 0.14033127 C74.65680945 0.14670257 77.10966222 0.15063894 79.56251526 0.15211868 C82.98842253 0.15644806 86.41400591 0.17394176 89.83984375 0.1953125 C91.36574379 0.19395294 91.36574379 0.19395294 92.92247009 0.19256592 C93.85615921 0.20109589 94.78984833 0.20962585 95.75183105 0.21841431 C96.56150078 0.221766 97.3711705 0.22511768 98.20537567 0.22857094 C100.69445339 0.5177328 102.30170682 1.16007652 104.41992188 2.48583984 C105.94484185 5.5356798 105.65554736 8.12817674 105.41992188 11.48583984 C103.84447337 13.67091916 102.95031309 14.39081417 100.28157139 14.86894989 C99.44885684 14.8726786 98.61614229 14.87640732 97.75819397 14.88024902 C96.80063705 14.89159882 95.84308014 14.90294861 94.85650635 14.91464233 C93.80759216 14.91171173 92.75867798 14.90878113 91.67797852 14.90576172 C90.01909859 14.91846603 90.01909859 14.91846603 88.32670593 14.931427 C84.66104722 14.95487823 80.99580626 14.9558172 77.33007812 14.95458984 C74.78803843 14.96168645 72.24600036 14.9693847 69.70396423 14.97766113 C64.37168299 14.99112465 59.03955678 14.99284682 53.70727539 14.98681641 C47.54441652 14.98017491 41.38215607 15.00304219 35.21941859 15.04013014 C29.29004093 15.07451852 23.36084804 15.08116467 17.43136406 15.07704163 C14.90871841 15.07873828 12.38606527 15.08843278 9.86348152 15.10618591 C6.33892143 15.12825999 2.81581384 15.11873088 -0.70874023 15.10107422 C-2.27907516 15.12096909 -2.27907516 15.12096909 -3.88113403 15.14126587 C-10.93440042 15.0589454 -10.93440042 15.0589454 -14.25953674 12.10754395 C-15.58007812 9.48583984 -15.58007812 9.48583984 -15.58007812 6.92333984 C-12.47048838 -0.65628515 -7.27135663 -0.08033574 0 0 Z " fill="#070808" transform="translate(200.580078125,95.51416015625)"/>
<path d="M0 0 C1.61279846 -0.01051392 1.61279846 -0.01051392 3.25817871 -0.02124023 C6.8163426 -0.03886126 10.37371262 -0.0271814 13.93188477 -0.01367188 C16.40283867 -0.01636579 18.87379155 -0.02024736 21.34474182 -0.02526855 C26.52566614 -0.03116937 31.70631474 -0.02258222 36.88720703 -0.00390625 C43.52988632 0.01887121 50.17191875 0.00577079 56.81457424 -0.01819611 C61.91808447 -0.03264821 67.02144129 -0.02805047 72.12495613 -0.01768494 C74.57418964 -0.01501543 77.02343706 -0.01829522 79.47265434 -0.02760315 C82.8962074 -0.0377572 86.31871252 -0.0222815 89.7421875 0 C90.75585892 -0.00809692 91.76953033 -0.01619385 92.81391907 -0.02453613 C97.15584597 0.02783878 99.75558411 0.1251886 103.57289124 2.32727051 C105.43579102 4.51757812 105.43579102 4.51757812 105.93579102 8.08007812 C105.43579102 11.51757812 105.43579102 11.51757812 104.19631958 13.20861244 C101.918315 14.90232528 100.59195542 14.89469834 97.76733398 14.89852905 C96.80833191 14.90698853 95.84932983 14.915448 94.86126709 14.92416382 C93.81078186 14.91809113 92.76029663 14.91201843 91.67797852 14.90576172 C90.01668915 14.91364716 90.01668915 14.91364716 88.32183838 14.92169189 C84.6513469 14.93492386 80.98128711 14.92614219 77.31079102 14.91601562 C74.76635657 14.91803543 72.22192269 14.92094609 69.67749023 14.92471313 C64.34100304 14.92914084 59.00467137 14.92297602 53.66821289 14.90869141 C47.49752002 14.89236452 41.3271245 14.89765295 35.15643883 14.91417062 C29.22171932 14.92942115 23.28709227 14.92781183 17.35235596 14.91902542 C14.82611042 14.91702005 12.29985733 14.91949443 9.77362061 14.92646408 C6.24674191 14.93405833 2.72043917 14.92250211 -0.80639648 14.90576172 C-1.85688171 14.91183441 -2.90736694 14.9179071 -3.98968506 14.92416382 C-4.94868713 14.91570435 -5.90768921 14.90724487 -6.89575195 14.89852905 C-7.72976532 14.89739798 -8.56377869 14.8962669 -9.42306519 14.89510155 C-12.09456712 14.42406614 -12.97557468 13.69183421 -14.56420898 11.51757812 C-15.03314082 7.83311371 -15.19273449 5.52458832 -13.1971283 2.32727051 C-9.04105781 -0.52933397 -4.92947548 -0.0392968 0 0 Z " fill="#070708" transform="translate(200.564208984375,131.482421875)"/>
<path d="M0 0 C4.90480273 4.21235999 8.31893031 9.57725117 9.31640625 16.0546875 C9.73287793 23.6049161 7.56562498 30.72116956 2.90625 36.67578125 C0.64489927 39.15949813 -1.66702257 41.58370195 -4 44 C-8.15694955 48.67656824 -9.65190759 52.53449373 -10.4453125 58.765625 C-11.10093639 61.40658882 -11.82140289 62.39417959 -14 64 C-20.0670506 64.65004114 -20.0670506 64.65004114 -22.6875 62.82421875 C-25.53144556 58.87147299 -24.57110228 53.60839961 -24 49 C-21.91310331 41.67929893 -17.03002633 36.43772154 -11.8347168 31.109375 C-8.12040191 27.29916115 -6.20390568 24.8691354 -5.625 19.5625 C-6.06605362 15.37249061 -7.01086137 13.906107 -10 11 C-13.79105203 8.67927213 -16.51558854 8.78478537 -20.81640625 9.40625 C-24.37797422 10.37469066 -25.86395351 12.04722985 -28 15 C-28.86683182 17.05675551 -29.59615087 19.08952535 -30.2265625 21.23046875 C-31 23 -31 23 -34 25 C-39.26012099 25.54792927 -39.26012099 25.54792927 -41.65625 23.7734375 C-43.86641902 20.85652839 -43.53001845 18.17302879 -43.40625 14.625 C-42.33410732 7.69730887 -37.41332417 2.78700467 -32.16796875 -1.5234375 C-21.27635713 -8.94150811 -10.56206073 -6.83073443 0 0 Z " fill="#050505" transform="translate(173,228)"/>
<path d="M0 0 C5.89160068 3.47584054 9.64199031 8.03270435 12.2578125 14.33203125 C13.48110338 23.50671286 12.84441998 31.71842459 7.2578125 39.33203125 C4.77385488 42.21152352 2.23115634 44.98219283 -0.4375 47.69140625 C-4.65372754 52.52220255 -6.10333113 57.1866572 -7.01953125 63.37890625 C-7.7421875 65.33203125 -7.7421875 65.33203125 -9.61328125 66.61328125 C-12.61105437 67.62537346 -14.71795188 67.12096228 -17.7421875 66.33203125 C-20.44107758 63.63314117 -20.10407809 62.10360669 -20.1796875 58.33203125 C-19.92125441 46.56040422 -13.88203565 39.86523266 -6.0703125 31.80078125 C-2.90063174 28.43964326 -2.6039634 26.89733618 -2.6171875 22.39453125 C-2.61460937 21.51925781 -2.61203125 20.64398438 -2.609375 19.7421875 C-2.64396747 17.18744069 -2.64396747 17.18744069 -3.7421875 14.33203125 C-8.22659189 12.25389263 -12.86993525 11.41604783 -17.7421875 12.33203125 C-22.93531621 15.42793491 -24.72270297 18.74028105 -26.78515625 24.34375 C-27.7421875 26.33203125 -27.7421875 26.33203125 -30.7421875 28.33203125 C-34.05045044 28.19418696 -36.04225861 27.87391168 -38.6796875 25.83203125 C-40.37146472 21.85137898 -39.84206176 18.45316505 -38.7421875 14.33203125 C-35.56950965 7.10828953 -30.24478678 2.39238377 -23.5546875 -1.54296875 C-15.48028408 -3.92557959 -7.67576583 -3.49235005 0 0 Z " fill="#050401" transform="translate(422.7421875,97.66796875)"/>
<path d="M0 0 C0.33 0 0.66 0 1 0 C0.18678732 22.769955 -15.54157137 45.51532616 -31 61 C-51.11146305 79.25864819 -77.21756647 89.43714412 -104.25 89.3125 C-105.43279541 89.31048584 -106.61559082 89.30847168 -107.83422852 89.30639648 C-116.57637411 89.20628414 -124.57450692 88.33302749 -133 86 C-140.13220835 84.05245971 -146.17356423 84.45013331 -152.84765625 87.7109375 C-156.25382075 89.75092713 -159.14932865 92.25015626 -162 95 C-163.65 94.34 -165.3 93.68 -167 93 C-163.23586254 86.67128536 -159.47573007 80.70772266 -152.05859375 78.39453125 C-143.83573252 76.81861287 -136.48709397 78.70760378 -128.61328125 81.02734375 C-103.12846187 87.88758162 -74.18805037 82.63841698 -51.3828125 70.02929688 C-26.70722426 55.72052735 -8.6914604 32.16833014 -1.125 4.625 C-0.7391448 3.08601433 -0.35952986 1.54534766 0 0 Z " fill="#F5AB9B" transform="translate(260,287)"/>
<path d="M0 0 C15.50808532 8.11699785 25.69177902 21.03949345 31.30859375 37.5625 C36.14829197 54.62448694 32.7777776 72.61815751 24.3984375 87.92578125 C18.57212573 97.5431863 11.55691616 104.15966235 2 110 C2 109.01 2 108.02 2 107 C3.65750128 105.65528997 5.32602884 104.3241511 7 103 C20.10939329 86.28718157 26.646267 68.36008441 25 47 C22.83584063 30.8283005 15.22336479 14.03470078 2.2265625 3.8203125 C1.49179687 3.21960938 0.75703125 2.61890625 0 2 C0 1.34 0 0.68 0 0 Z " fill="#F5C12C" transform="translate(439,85)"/>
<path d="M0 0 C1.32 0.66 2.64 1.32 4 2 C4.25869389 6.46489489 3.8228751 9.03750662 1.5 12.8515625 C0.95085937 13.77066406 0.40171875 14.68976563 -0.1640625 15.63671875 C-1.07285156 17.11591797 -1.07285156 17.11591797 -2 18.625 C-3.29317433 20.7829514 -4.58477869 22.94184422 -5.875 25.1015625 C-6.55304688 26.22981445 -7.23109375 27.35806641 -7.9296875 28.52050781 C-11.03358945 33.71253571 -14.01253845 38.97586946 -16.99835205 44.23635864 C-22.49429898 53.91329085 -28.03513505 63.56451743 -33.625 73.1875 C-34.18058594 74.14849609 -34.73617187 75.10949219 -35.30859375 76.09960938 C-46.29565165 94.95938882 -46.29565165 94.95938882 -54 97 C-57.03711711 97.27867793 -59.9628295 97.25309754 -63 97 C-62.39929688 96.70351563 -61.79859375 96.40703125 -61.1796875 96.1015625 C-50.9384119 90.92586408 -46.36258659 82.24612215 -41 72.5 C-39.85172678 70.44058796 -38.70193921 68.38201969 -37.55078125 66.32421875 C-36.96377441 65.27411621 -36.37676758 64.22401367 -35.77197266 63.14208984 C-32.96591507 58.16634431 -30.07824936 53.23937103 -27.1875 48.3125 C-22.23193397 39.8485562 -17.31194008 31.36516626 -12.43740845 22.8543396 C-11.73862441 21.63467411 -11.03908098 20.41544334 -10.3387146 19.19668579 C-6.70902815 12.87810708 -3.16897516 6.56315668 0 0 Z " fill="#9F4D3F" transform="translate(94,397)"/>
<path d="M0 0 C3.37223771 0.7782087 4.4947794 1.68439541 6.4375 4.5625 C7.26250224 8.62917773 7.08883288 11.56044942 4.8125 15.0625 C1.69423949 17.03192769 0.06029473 17.24177401 -3.5625 16.5625 C-6.42062053 14.00523427 -7.41817742 12.33222041 -8.125 8.5625 C-7.24128756 3.84936699 -4.74176112 1.04087439 0 0 Z " fill="#0B0A02" transform="translate(409.5625,171.4375)"/>
<path d="M0 0 C2.17890019 1.59652134 2.90414847 2.48127407 3.3984375 5.15625 C3.39070312 5.9296875 3.38296875 6.703125 3.375 7.5 C3.38273438 8.2734375 3.39046875 9.046875 3.3984375 9.84375 C2.90414847 12.51872593 2.17890019 13.40347866 0 15 C-6.10699588 15.65432099 -6.10699588 15.65432099 -8.6953125 13.7578125 C-10.34361055 11.53705165 -10.40244171 10.24417088 -10.375 7.5 C-10.38273438 6.7265625 -10.39046875 5.953125 -10.3984375 5.15625 C-9.3305481 -0.62291619 -5.10780837 -0.54726518 0 0 Z " fill="#040404" transform="translate(159,300)"/>
<path d="M0 0 C3.87646817 -0.45075211 5.50563328 -0.36790082 8.6875 2 C11.73167056 5.94919424 11.59248513 8.49244828 11.3125 13.3125 C11.27866211 14.42334961 11.27866211 14.42334961 11.24414062 15.55664062 C11.1855815 17.37197357 11.09590886 19.18625681 11 21 C7.03520428 19.52069807 4.22411767 17.76352943 1 15 C1.66 15 2.32 15 3 15 C2.50669135 7.26767987 2.50669135 7.26767987 0 0 Z " fill="#B3D7FA" transform="translate(444,57)"/>
<path d="M0 0 C0.33 0 0.66 0 1 0 C0.57281554 11.96116487 -5.02635656 23.28753721 -10 34 C-10.66 33.01 -11.32 32.02 -12 31 C-11.44848633 28.99804688 -11.44848633 28.99804688 -10.33203125 26.71875 C-9.9342749 25.88118164 -9.53651855 25.04361328 -9.12670898 24.18066406 C-8.69302002 23.29604492 -8.25933105 22.41142578 -7.8125 21.5 C-4.48613032 14.45919471 -1.53284932 7.68186554 0 0 Z " fill="#E4A092" transform="translate(260,287)"/>
</svg>
