<?xml version="1.0" encoding="UTF-8"?>
<svg version="1.1" xmlns="http://www.w3.org/2000/svg" width="512" height="512">
<path d="M0 0 C2.4375 1.9375 2.4375 1.9375 5 5 C5.56074219 5.6084375 6.12148438 6.216875 6.69921875 6.84375 C11.30211696 11.84811804 15.48826182 17.1263113 19.65087891 22.49389648 C22.98458696 26.76909479 26.44488888 30.9077155 30 35 C34.45390822 40.12915507 38.69625818 45.38018348 42.85546875 50.75 C46.11981246 54.94033232 49.51772465 58.98956463 53 63 C57.45067681 68.1257152 61.69087947 73.37248631 65.84667969 78.73901367 C69.19516671 83.03792618 72.68475458 87.19220309 76.25 91.3125 C77.25026969 92.47633077 78.25027852 93.64038579 79.25 94.8046875 C80.92682869 96.75752311 82.61376857 98.69878381 84.3125 100.6328125 C87.27321619 104.15463217 88.85855588 106.21562807 89.6875 110.8125 C88.84545879 114.71650926 88.26508129 115.70498799 85 118 C81.58653176 118.56048526 78.21647783 118.46455381 74.765625 118.390625 C73.77246277 118.38496521 72.77930054 118.37930542 71.75604248 118.37347412 C68.58686941 118.35110026 65.4188308 118.30090106 62.25 118.25 C60.10027676 118.22993635 57.95053577 118.21168534 55.80078125 118.1953125 C50.53346771 118.15123239 45.26681491 118.08431033 40 118 C39.92015506 122.59127497 39.89969154 127.17767908 39.93286133 131.76953125 C39.93593272 133.32915289 39.92313084 134.88889337 39.89379883 136.44824219 C39.41115278 145.43077541 39.41115278 145.43077541 42.9230957 153.24414062 C45.22124833 154.73984255 47.50298086 155.87744434 50 157 C57.37100217 163.52628764 61.45792751 171.31230552 63 181 C63.16667874 184.18714904 63.18487934 187.37269216 63.20532227 190.5637207 C63.21522186 191.52030075 63.22512146 192.4768808 63.23532104 193.46244812 C63.26684912 196.61686752 63.29165911 199.77130197 63.31640625 202.92578125 C63.33698328 205.11582322 63.35797995 207.30586129 63.37937927 209.49589539 C63.43452255 215.25469802 63.48396598 221.01353603 63.53222656 226.7723999 C63.58249814 232.65103294 63.63815467 238.52961471 63.69335938 244.40820312 C63.80084623 255.93875827 63.90231222 267.46935796 64 279 C64.44508408 278.22053009 64.89016815 277.44106018 65.34873962 276.63796997 C67.03913083 273.67789401 68.72975208 270.71794968 70.42051697 267.75808716 C71.14495056 266.48978658 71.8692988 265.22143725 72.59355164 263.95303345 C78.78525694 253.10955112 85.01085157 242.28607677 91.26171875 231.4765625 C93.83790527 227.01931857 96.40156155 222.55508064 98.95703125 218.0859375 C120.58020321 180.31029088 120.58020321 180.31029088 134.55859375 174.921875 C145.5315526 171.98246718 156.13976291 173.30733632 166 179 C173.77237061 183.91423808 178.65647442 192.22515537 181 201 C181.23782046 203.79853838 181.36996355 206.45477205 181.375 209.25 C181.39949219 209.94996094 181.42398437 210.64992187 181.44921875 211.37109375 C181.50606627 221.77419036 175.8822475 230.34184542 170.6875 239 C169.42898718 241.12718999 168.17119933 243.25480903 166.9140625 245.3828125 C166.26727539 246.47368164 165.62048828 247.56455078 164.95410156 248.68847656 C161.78378292 254.06106553 158.67346459 259.4678959 155.5625 264.875 C154.30345388 267.05993529 153.04433897 269.24483093 151.78515625 271.4296875 C151.16012207 272.51475586 150.53508789 273.59982422 149.89111328 274.71777344 C146.76319852 280.14659942 143.63141552 285.57319281 140.5 291 C139.24998121 293.16665583 137.99998122 295.3333225 136.75 297.5 C124.25 319.16666667 111.75 340.83333333 99.25 362.5 C98.63060547 363.5737085 98.01121094 364.64741699 97.37304688 365.75366211 C96.129877 367.90830624 94.88639025 370.06276757 93.64257812 372.21704102 C90.75016853 377.22754121 87.86064773 382.23962635 84.98303223 387.25863647 C83.97451686 389.01728749 82.9649523 390.77533209 81.95507812 392.53320312 C80.69649482 394.72472231 79.43983013 396.91734504 78.18554688 399.11132812 C67.77120114 417.22879886 67.77120114 417.22879886 64 421 C63.67615278 424.12349774 63.67615278 424.12349774 63.69140625 427.80859375 C63.66620301 429.21028984 63.64080576 430.61198245 63.61523438 432.01367188 C63.58675655 434.21181944 63.56273899 436.4099047 63.54370117 438.6081543 C63.41663967 450.89123117 62.56360497 461.84377123 55 472 C54.39671875 472.82371094 53.7934375 473.64742188 53.171875 474.49609375 C50.86627183 477.15417222 48.65883495 478.81728211 45.6875 480.6875 C44.78386719 481.26886719 43.88023437 481.85023438 42.94921875 482.44921875 C35.44568908 486.39478336 28.46041168 486.29074848 20.12849426 486.27415466 C18.82832688 486.27939134 17.52815949 486.28462802 16.18859309 486.29002339 C12.59045298 486.30416505 8.99239941 486.30586741 5.39423549 486.30542648 C1.50927573 486.30707808 -2.37564872 486.32015098 -6.2605896 486.33161926 C-14.75037899 486.35444173 -23.24014334 486.36238688 -31.72995925 486.36744571 C-37.03428948 486.37070587 -42.33861248 486.37723027 -47.64293861 486.3844471 C-62.33878311 486.40400928 -77.03462089 486.42041578 -91.73047924 486.42332363 C-93.14033434 486.42360499 -93.14033434 486.42360499 -94.57867135 486.42389202 C-96.48395367 486.42425827 -98.38923599 486.42462197 -100.29451831 486.42498314 C-101.2402594 486.42516595 -102.18600048 486.42534876 -103.16040039 486.42553711 C-104.58075021 486.42580793 -104.58075021 486.42580793 -106.02979396 486.42608423 C-121.36960574 486.42962515 -136.70927708 486.4566441 -152.04904016 486.494035 C-167.81074019 486.5321459 -183.57237059 486.55148131 -199.33411771 486.55178314 C-208.17871432 486.55236708 -217.02314337 486.5608179 -225.86769676 486.58978081 C-233.39944408 486.61433192 -240.93096271 486.62155247 -248.46273925 486.60653328 C-252.30232213 486.59937961 -256.14145377 486.60015444 -259.98098564 486.62294388 C-264.15217825 486.64746368 -268.32235081 486.63285525 -272.49357605 486.61473083 C-274.29580141 486.63453079 -274.29580141 486.63453079 -276.13443536 486.65473074 C-287.92588351 486.53805871 -297.29974966 482.71545806 -305.80078125 474.54296875 C-311.43703994 468.02573179 -315.11307045 460.82442931 -315.13701439 452.16846466 C-315.14208893 451.19255009 -315.14716347 450.21663552 -315.15239179 449.21114779 C-315.15288955 448.14151906 -315.15338731 447.07189034 -315.15390015 445.96984863 C-315.1582824 444.83150306 -315.16266465 443.69315749 -315.1671797 442.5203166 C-315.18057499 438.69127712 -315.18674827 434.86226066 -315.19287109 431.03320312 C-315.20024557 428.29349489 -315.20903551 425.55379148 -315.21765137 422.81408691 C-315.2421606 414.58129756 -315.25680127 406.34850221 -315.26971143 398.11568761 C-315.27342474 395.7892441 -315.27739787 393.46280118 -315.2814641 391.13635826 C-315.30670431 376.6811851 -315.32875164 362.22601095 -315.34119225 347.77082062 C-315.34412182 344.42338558 -315.3470835 341.07595058 -315.35009766 337.72851562 C-315.35121673 336.48057202 -315.35121673 336.48057202 -315.35235842 335.20741743 C-315.36500363 321.73947269 -315.39821617 308.27166023 -315.43989949 294.80377728 C-315.48237019 280.96771999 -315.50589328 267.13173032 -315.51111281 253.29560804 C-315.51452134 245.53076773 -315.52621018 237.76613404 -315.55921555 230.00135803 C-315.58728808 223.38631473 -315.59818404 216.77152043 -315.58702008 210.1564222 C-315.58185131 206.78454837 -315.58735716 203.41361555 -315.60948563 200.04174805 C-315.63222714 196.37607523 -315.62385696 192.71170127 -315.60800171 189.04602051 C-315.6218838 187.99423756 -315.63576588 186.94245461 -315.65006864 185.85879946 C-315.534124 174.92694691 -311.70789246 165.76862529 -304.09765625 157.90234375 C-293.6164863 148.39707417 -281.99409685 147.55501648 -268.375 147.8125 C-266.97527492 147.82758394 -265.575534 147.84126575 -264.17578125 147.85351562 C-260.78344156 147.88860879 -257.39193225 147.93777735 -254 148 C-254.02618408 147.11739502 -254.05236816 146.23479004 -254.0793457 145.32543945 C-254.16480275 142.0358842 -254.22735745 138.74751578 -254.2746582 135.45727539 C-254.29973147 134.03618709 -254.33379999 132.61522687 -254.37719727 131.19458008 C-254.43817858 129.14632538 -254.46627762 127.09978117 -254.48828125 125.05078125 C-254.51446533 123.82012939 -254.54064941 122.58947754 -254.56762695 121.3215332 C-254 118 -254 118 -252.10644531 115.09863281 C-247.67881486 112.10744204 -244.04214478 112.29774274 -238.80859375 112.37109375 C-237.82633316 112.36868179 -236.84407257 112.36626984 -235.83204651 112.36378479 C-233.76014153 112.36476237 -231.68821016 112.37813465 -229.61645508 112.40307617 C-226.44457412 112.4374234 -223.27547369 112.42372054 -220.10351562 112.40429688 C-218.08852981 112.41119439 -216.07355117 112.42086592 -214.05859375 112.43359375 C-212.63660927 112.42615395 -212.63660927 112.42615395 -211.18589783 112.41856384 C-207.29622761 112.48820611 -204.75797177 112.53805433 -201.39575195 114.5871582 C-199.47101418 117.91445984 -199.54654393 120.33917993 -199.609375 124.171875 C-199.61936523 125.4206543 -199.62935547 126.66943359 -199.63964844 127.95605469 C-199.67606445 129.53805664 -199.71248047 131.12005859 -199.75 132.75 C-199.8325 137.7825 -199.915 142.815 -200 148 C-184.49 148 -168.98 148 -153 148 C-153.15805168 137.97759137 -153.15805168 137.97759137 -153.36035156 127.95605469 C-153.3703418 126.70727539 -153.38033203 125.45849609 -153.390625 124.171875 C-153.41157227 122.8940918 -153.43251953 121.61630859 -153.45410156 120.29980469 C-153 117 -153 117 -151.60424805 114.5871582 C-147.53693684 112.10833659 -143.61823433 112.40912465 -138.94140625 112.43359375 C-137.96010239 112.42739517 -136.97879852 112.42119659 -135.96775818 112.41481018 C-133.89412426 112.40771191 -131.82043336 112.41088613 -129.74682617 112.42358398 C-126.57689256 112.4374371 -123.40991807 112.40339367 -120.24023438 112.36523438 C-118.22395761 112.36428304 -116.20767716 112.36614276 -114.19140625 112.37109375 C-112.77245811 112.35120644 -112.77245811 112.35120644 -111.32484436 112.33091736 C-106.90722711 112.39329192 -104.62710497 112.57634437 -100.89355469 115.09863281 C-98.54192343 118.70188009 -98.42062849 120.76953906 -98.51171875 125.05078125 C-98.53045044 126.85929565 -98.53045044 126.85929565 -98.54956055 128.7043457 C-98.59508057 130.22503662 -98.64060059 131.74572754 -98.6875 133.3125 C-98.8421875 140.5828125 -98.8421875 140.5828125 -99 148 C-81.84 148 -64.68 148 -47 148 C-47 138.1 -47 128.2 -47 118 C-51.80304688 118.06960937 -51.80304688 118.06960937 -56.703125 118.140625 C-59.80418309 118.17181949 -62.90522371 118.19610795 -66.00634766 118.21972656 C-68.16170067 118.23984276 -70.31699911 118.26713925 -72.47216797 118.30175781 C-75.57012395 118.35027486 -78.66735846 118.37296873 -81.765625 118.390625 C-82.72929993 118.41127014 -83.69297485 118.43191528 -84.68585205 118.45318604 C-91.35642847 118.45542373 -91.35642847 118.45542373 -94.60717773 116.1550293 C-96.55025551 113.14862308 -96.58520529 111.52443186 -96 108 C-94.19921875 105.02734375 -94.19921875 105.02734375 -91.6875 101.9375 C-91.23818115 101.37732178 -90.7888623 100.81714355 -90.32592773 100.23999023 C-86.69186548 95.74124362 -82.93922759 91.33604649 -79.17626953 86.94482422 C-75.86102349 83.06562663 -72.68878616 79.09498858 -69.5625 75.0625 C-65.35943402 69.64633264 -60.97491243 64.42619274 -56.48071289 59.25024414 C-53.03070328 55.25652238 -49.73144096 51.17200446 -46.5 47 C-42.79374423 42.21497815 -38.96807581 37.57020787 -35 33 C-30.01596717 27.25674061 -25.28819498 21.35055968 -20.6171875 15.3515625 C-18.08827131 12.10439651 -15.52574709 8.88766494 -12.9375 5.6875 C-12.22464844 4.80449219 -11.51179688 3.92148437 -10.77734375 3.01171875 C-7.55588064 -0.63455268 -4.73052542 -0.48107038 0 0 Z " fill="#010101" transform="translate(323,13)"/>
<path d="M0 0 C84.15 0 168.3 0 255 0 C255.33 17.16 255.66 34.32 256 52 C259.20963299 55.20963299 259.93137387 55.35048667 264.22645569 55.40658569 C265.28321754 55.39747665 265.28321754 55.39747665 266.36132812 55.38818359 C267.10797226 55.39344055 267.85461639 55.39869751 268.62388611 55.40411377 C271.09321988 55.41732325 273.56190961 55.40857267 276.03125 55.3984375 C277.7461357 55.40045797 279.46102056 55.40336918 281.17590332 55.40713501 C284.77050962 55.41155964 288.36489233 55.40512294 291.95947266 55.39111328 C296.56995694 55.37402121 301.17991733 55.38386167 305.79038239 55.40183067 C309.33168494 55.41266483 312.87286303 55.40922389 316.41416931 55.4014473 C318.11425335 55.39944426 319.81434865 55.40190818 321.51441956 55.40888596 C323.88947535 55.41649452 326.2636796 55.40490539 328.63867188 55.38818359 C329.34317978 55.39425629 330.04768768 55.40032898 330.77354431 55.40658569 C333.54358875 55.37040552 335.55124385 55.27965388 337.93305969 53.79536438 C339.36167993 51.39139306 339.3985499 49.67977813 339.43237305 46.88598633 C339.46206429 45.32470757 339.46206429 45.32470757 339.49235535 43.73188782 C339.49874527 42.60993515 339.50513519 41.48798248 339.51171875 40.33203125 C339.52966995 39.18208176 339.54762115 38.03213226 339.56611633 36.84733582 C339.62036261 33.16909468 339.65416171 29.49098436 339.6875 25.8125 C339.72066034 23.32094528 339.75514878 20.82940785 339.79101562 18.33789062 C339.87609735 12.22537772 339.94438656 6.11284818 340 0 C342.97 0 345.94 0 349 0 C349.32837358 9.86753576 349.57509087 19.73371702 349.72537041 29.60565853 C349.79760402 34.19296308 349.8950566 38.77645992 350.05615234 43.36157227 C350.82677915 65.89539965 350.54125777 82.52804604 336.86254883 101.34573364 C333.56528754 106.0445687 330.82437871 111.07080532 328 116.0625 C324.45443953 122.1860773 320.85593718 128.2584761 317.078125 134.2421875 C316.43746094 135.27980225 315.79679687 136.31741699 315.13671875 137.38647461 C313.92998546 139.337891 312.70019053 141.27535085 311.44140625 143.19360352 C306.81298748 150.76131095 305.77844531 158.00636995 305.16650391 166.66171265 C304.99644753 169.04988885 304.79137748 171.43294306 304.578125 173.81762695 C304.20990808 178.00415073 303.88041244 182.19255982 303.56738281 186.38354492 C303.37535619 188.93277143 303.17228373 191.48096649 302.96875 194.02929688 C302.3222041 202.39407241 301.85895702 210.73781049 301.7890625 219.12890625 C301.77170547 220.27539894 301.77170547 220.27539894 301.7539978 221.4450531 C301.61423299 225.68323205 301.61423299 225.68323205 304 229 C307.98588635 229.67118323 310.35071534 229.03027917 313.63671875 226.8671875 C314.99752715 225.88423169 316.34723482 224.88578726 317.6875 223.875 C318.41211426 223.34672607 319.13672852 222.81845215 319.88330078 222.27416992 C322.26691522 220.53100908 324.63416878 218.76720779 327 217 C329.60877539 215.0636653 332.21911588 213.12948931 334.83129883 211.19775391 C336.50573683 209.9567509 338.17626925 208.71045798 339.8425293 207.45849609 C340.603479 206.8908252 341.36442871 206.3231543 342.1484375 205.73828125 C342.82052246 205.23337158 343.49260742 204.72846191 344.18505859 204.20825195 C346 203 346 203 349 202 C350.18488963 226.29935203 350.18488963 226.29935203 344.78125 233.2578125 C339.180697 238.73554635 333.50457699 242.24535821 325.51887035 242.25726891 C324.42354589 242.2637178 323.32822142 242.27016669 322.1997053 242.276811 C321.00185965 242.2737138 319.804014 242.2706166 318.56987 242.26742554 C316.65470077 242.27422221 316.65470077 242.27422221 314.70084125 242.28115618 C311.15886429 242.29339076 307.61698175 242.29312519 304.07498848 242.29076743 C300.25415028 242.29035938 296.4333424 242.30139731 292.61251831 242.31088257 C285.12744411 242.32749611 277.64240142 242.33299228 270.15731033 242.33410732 C264.07292027 242.33505764 257.9885406 242.33916713 251.90415382 242.34550858 C234.6535682 242.36312205 217.40300747 242.3723473 200.15241279 242.37084763 C199.22241198 242.37076772 198.29241117 242.3706878 197.33422852 242.37060547 C196.40309208 242.37052371 195.47195565 242.37044195 194.51260296 242.37035771 C179.42217645 242.3695448 164.33184976 242.38868326 149.24145212 242.4168822 C133.74651804 242.44560859 118.25163264 242.45942263 102.75667125 242.45769465 C94.05751729 242.45703066 85.35846797 242.46252698 76.659338 242.48405075 C69.25261233 242.50225934 61.84603873 242.50661258 54.43930038 242.4930319 C50.66104592 242.48650054 46.88308322 242.48639082 43.10485649 242.5037384 C39.00671037 242.52236117 34.90924012 242.50991912 30.81108093 242.49447632 C29.61992745 242.50476344 28.42877396 242.51505057 27.20152491 242.52564943 C19.13728958 242.45841315 13.76905096 241.29044132 7.5390625 235.8515625 C6.90742188 235.11679687 6.27578125 234.38203125 5.625 233.625 C4.97789063 232.89539063 4.33078125 232.16578125 3.6640625 231.4140625 C-0.1817945 225.8348615 -0.28522173 220.33645326 -0.24050903 213.81253052 C-0.24222107 212.89897293 -0.24393311 211.98541534 -0.24569702 211.04417419 C-0.24900277 207.97875117 -0.23796784 204.91354753 -0.22705078 201.84814453 C-0.22643803 199.61466923 -0.22670523 197.38119355 -0.2277813 195.14771843 C-0.22823282 189.16655613 -0.216641 183.18547386 -0.20256042 177.20433044 C-0.19117067 171.59186552 -0.19063419 165.97942005 -0.18920898 160.36694336 C-0.17871429 143.95295164 -0.15079199 127.53897481 -0.125 111.125 C-0.08375 74.45375 -0.0425 37.7825 0 0 Z " fill="#F2F4F6" transform="translate(22,243)"/>
<path d="M0 0 C3.60189277 1.20063092 4.34305857 2.39814637 6.625 5.375 C7.33011719 6.28121094 8.03523438 7.18742187 8.76171875 8.12109375 C9.50035156 9.07113281 10.23898437 10.02117188 11 11 C12.4731862 12.81736422 13.95238379 14.62987169 15.4375 16.4375 C16.19546875 17.36175781 16.9534375 18.28601563 17.734375 19.23828125 C18.48203125 20.14964844 19.2296875 21.06101562 20 22 C21.39596765 23.70822358 22.79179898 25.41655857 24.1875 27.125 C28.72725768 32.67447612 33.28687401 38.20751417 37.84643555 43.74072266 C41.76787066 48.50061382 45.67921121 53.26850698 49.578125 58.046875 C51.53957606 60.43857984 53.50940799 62.82260327 55.484375 65.203125 C56.10505859 65.95271484 56.72574219 66.70230469 57.36523438 67.47460938 C58.58856028 68.95147433 59.81371511 70.42682697 61.04101562 71.90039062 C61.89469727 72.93196289 61.89469727 72.93196289 62.765625 73.984375 C63.26868164 74.58991211 63.77173828 75.19544922 64.29003906 75.81933594 C66.63294801 78.80718042 68.80757661 81.90004563 71 85 C69.86457764 85.01458252 68.72915527 85.02916504 67.55932617 85.04418945 C63.34904391 85.10213676 59.1392985 85.17936941 54.92944336 85.26245117 C53.10694081 85.2957174 51.28433481 85.32374406 49.46166992 85.34643555 C46.8424875 85.37995081 44.22425452 85.43226352 41.60546875 85.48828125 C40.78974899 85.49467117 39.97402924 85.5010611 39.1335907 85.50764465 C35.00326332 85.54131444 35.00326332 85.54131444 31.28561687 87.11534595 C29.36886938 89.92520789 29.61418276 92.2069527 29.60127258 95.58683777 C29.59462576 96.25910363 29.58797893 96.93136949 29.58113068 97.62400705 C29.56244777 99.88124559 29.5651094 102.13795653 29.56762695 104.39526367 C29.55861298 106.01145683 29.54828667 107.62764312 29.53674316 109.24382019 C29.509104 113.63608236 29.4998793 118.02821508 29.49388909 122.42055297 C29.48452337 127.00904354 29.4583215 131.59743672 29.43388367 136.18586731 C29.39016527 144.87682652 29.36165114 153.56776689 29.33856028 162.25880271 C29.31153719 172.15233121 29.26762394 182.04576198 29.22227156 191.93922079 C29.12934876 212.29277516 29.05993291 232.64631991 29 253 C10.19 253 -8.62 253 -28 253 C-28.01458252 248.04766357 -28.02916504 243.09532715 -28.04418945 237.99291992 C-28.09443698 221.66408374 -28.1608627 205.33534335 -28.23571491 189.00660229 C-28.28071767 179.10263824 -28.32012192 169.19871052 -28.34643555 159.29467773 C-28.36937942 150.66427344 -28.40273679 142.03398367 -28.44870156 133.40367013 C-28.47268266 128.83220318 -28.49137932 124.26084998 -28.49761391 119.68932152 C-28.50364277 115.38913465 -28.52356231 111.08923903 -28.55427551 106.78915977 C-28.56309118 105.20852171 -28.56677106 103.62784565 -28.56500816 102.04718399 C-28.56336406 99.89339534 -28.57997886 97.74050372 -28.60127258 95.58683777 C-28.60588155 94.38021075 -28.61049051 93.17358374 -28.61523914 91.93039227 C-28.77113958 89.02882159 -28.77113958 89.02882159 -30.29135418 87.11534595 C-33.31828184 85.13947039 -36.88154373 85.51649554 -40.38671875 85.48828125 C-41.20372757 85.47033005 -42.02073639 85.45237885 -42.86250305 85.43388367 C-45.47078294 85.37972212 -48.07887925 85.34586692 -50.6875 85.3125 C-52.45640579 85.27933201 -54.22528733 85.24484283 -55.99414062 85.20898438 C-60.32929473 85.12399254 -64.66439384 85.05720965 -69 85 C-67.17366833 81.11265669 -64.67809261 78.09503075 -61.875 74.875 C-60.8674549 73.70140833 -59.86095016 72.52692273 -58.85546875 71.3515625 C-58.36353027 70.77696289 -57.8715918 70.20236328 -57.36474609 69.61035156 C-55.59610307 67.52341608 -53.8859909 65.39429871 -52.1875 63.25 C-46.76004312 56.40425707 -41.16959359 49.69188979 -35.60986328 42.95361328 C-33.56681111 40.47431339 -31.532288 37.9881283 -29.5 35.5 C-25.07493417 30.08424779 -20.62743729 24.68708848 -16.17871094 19.29077148 C-11.99144525 14.20990991 -7.82279284 9.11452878 -3.671875 4.00390625 C-2 2 -2 2 0 0 Z " fill="#65D3F0" transform="translate(319,32)"/>
<path d="M0 0 C4.455 0.061875 8.91 0.12375 13.5 0.1875 C13.83 11.0775 14.16 21.9675 14.5 33.1875 C17.25763968 34.10671323 18.96705097 34.32773935 21.81616211 34.36450195 C22.68393784 34.37733719 23.55171356 34.39017242 24.44578552 34.40339661 C25.38019974 34.41078354 26.31461395 34.41817047 27.27734375 34.42578125 C28.24023819 34.433853 29.20313263 34.44192474 30.19520569 34.45024109 C32.2319255 34.46406939 34.26866837 34.47479715 36.30541992 34.48266602 C39.42215587 34.49991508 42.53784085 34.54381655 45.65429688 34.58789062 C47.6328047 34.59801463 49.61132154 34.60653165 51.58984375 34.61328125 C52.52223373 34.63078934 53.45462372 34.64829742 54.41526794 34.66633606 C59.51859691 34.65622939 59.51859691 34.65622939 64.08129883 32.58178711 C65.95962415 29.4118101 66.04484896 27.1311093 66.109375 23.453125 C66.13999023 22.28555664 66.17060547 21.11798828 66.20214844 19.91503906 C66.21793945 18.43745117 66.23373047 16.95986328 66.25 15.4375 C66.3325 10.735 66.415 6.0325 66.5 1.1875 C82.01 1.1875 97.52 1.1875 113.5 1.1875 C113.8125 15.4375 113.8125 15.4375 113.88793945 19.91503906 C113.92105225 21.08260742 113.95416504 22.25017578 113.98828125 23.453125 C114.01446533 24.64711914 114.04064941 25.84111328 114.06762695 27.07128906 C114.61227469 31.29631469 114.61227469 31.29631469 117.5 34.1875 C120.75836146 34.7764002 123.97431604 34.72330434 127.27734375 34.68359375 C128.24023819 34.68504898 129.20313263 34.68650421 130.19520569 34.68800354 C132.23197453 34.68634328 134.26875575 34.67476784 136.30541992 34.65405273 C139.42225524 34.62514141 142.53738568 34.6334326 145.65429688 34.64648438 C147.63282077 34.64024569 149.61133928 34.63185374 151.58984375 34.62109375 C152.52223373 34.62402939 153.45462372 34.62696503 154.41526794 34.62998962 C157.97151352 34.57819655 160.7839516 34.48846653 164.08129883 33.10253906 C166.25011455 30.17495508 166.05048614 27.72022369 166.109375 24.11328125 C166.15529785 22.23636597 166.15529785 22.23636597 166.20214844 20.3215332 C166.21793945 18.73042725 166.23373047 17.13932129 166.25 15.5 C166.3325 10.446875 166.415 5.39375 166.5 0.1875 C184.32 0.1875 202.14 0.1875 220.5 0.1875 C220.5 18.0075 220.5 35.8275 220.5 54.1875 C136.35 54.1875 52.2 54.1875 -34.5 54.1875 C-34.5 14.28183962 -34.5 14.28183962 -26.1875 5.8125 C-18.53276516 -0.78175521 -9.51335728 -0.1870666 0 0 Z " fill="#FACA55" transform="translate(56.5,174.8125)"/>
<path d="M0 0 C4.24999255 0.59459898 7.27169441 2.08440381 10.96484375 4.23828125 C12.09470703 4.89376953 13.22457031 5.54925781 14.38867188 6.22460938 C14.97189209 6.5677417 15.5551123 6.91087402 16.15600586 7.2644043 C17.92486157 8.30506451 19.69906155 9.33604188 21.47460938 10.36523438 C26.75489395 13.44314385 31.93966621 16.5747102 37 20 C35.70891809 23.39002721 34.24218459 26.52160831 32.453125 29.67578125 C31.94547607 30.57321045 31.43782715 31.47063965 30.91479492 32.39526367 C30.3654126 33.35795166 29.81603027 34.32063965 29.25 35.3125 C28.67290283 36.32868408 28.09580566 37.34486816 27.5012207 38.3918457 C22.87474475 46.51704339 18.17017856 54.5956416 13.44433594 62.66333008 C8.91014007 70.41246774 4.44435477 78.19917869 0 86 C-5.53968899 95.72134099 -11.13375063 105.40895092 -16.78344727 115.06689453 C-22.9171256 125.55571895 -28.9826952 136.08347601 -35.04736328 146.61230469 C-37.11142758 150.19331946 -39.1783705 153.77265987 -41.24609375 157.3515625 C-42.28592855 159.15185866 -43.32572267 160.95217831 -44.36550903 162.75250244 C-45.35717984 164.46915208 -46.34936163 166.1855065 -47.34155273 167.90185547 C-47.93782471 168.93455566 -48.53409668 169.96725586 -49.1484375 171.03125 C-49.67614746 171.94455078 -50.20385742 172.85785156 -50.74755859 173.79882812 C-51.53336511 175.17988691 -52.28939248 176.57878495 -53 178 C-57.2140066 176.71992321 -60.80387718 175.12544885 -64.58984375 172.8828125 C-66.13768555 171.97208984 -66.13768555 171.97208984 -67.71679688 171.04296875 C-68.77962891 170.41003906 -69.84246094 169.77710938 -70.9375 169.125 C-73.05067162 167.87741846 -75.16395014 166.63001796 -77.27734375 165.3828125 C-78.26460449 164.79790039 -79.25186523 164.21298828 -80.26904297 163.61035156 C-83.49512435 161.70804217 -86.74093611 159.84510303 -90 158 C-88.37160894 151.81833713 -85.05752905 146.68909366 -81.8125 141.25 C-80.53580222 139.08632451 -79.25978329 136.92224834 -77.984375 134.7578125 C-77.32501953 133.64180664 -76.66566406 132.52580078 -75.98632812 131.37597656 C-72.81074644 125.9787367 -69.6862344 120.55236 -66.5625 115.125 C-65.30341652 112.94008624 -64.04430177 110.75519051 -62.78515625 108.5703125 C-62.16012207 107.48524414 -61.53508789 106.40017578 -60.89111328 105.28222656 C-57.13971976 98.77128743 -53.38309006 92.26336806 -49.62744141 85.75488281 C-46.48817754 80.31414664 -43.35018503 74.87268523 -40.21484375 69.4296875 C-33.6087497 57.9645656 -26.97676041 46.51545649 -20.30004883 35.09130859 C-13.48508731 23.42210657 -6.74226747 11.71130435 0 0 Z " fill="#B7825D" transform="translate(435,238)"/>
<path d="M0 0 C0.95135757 -0.00623996 1.90271514 -0.01247993 2.88290173 -0.01890898 C6.07900941 -0.03489671 9.27436055 -0.02221183 12.47047424 -0.00964355 C14.75849351 -0.01506212 17.04650929 -0.02218328 19.33451843 -0.03088379 C25.55557993 -0.04915246 31.77637671 -0.04203457 37.99744296 -0.02936745 C44.50140531 -0.01925697 51.00534464 -0.02862781 57.50930786 -0.03491211 C69.13398937 -0.04266152 80.75854983 -0.03021113 92.38321228 -0.00987476 C102.92261332 0.00799232 113.46183811 0.00489605 124.00123596 -0.0135498 C136.23906199 -0.03495818 148.47676248 -0.04292243 160.71460682 -0.03110075 C167.19311669 -0.02485908 173.67150515 -0.02404868 180.15000725 -0.0372467 C186.24117638 -0.04878821 192.33201223 -0.04081014 198.42314529 -0.01766968 C200.66088494 -0.01237332 202.89865257 -0.01391212 205.13638115 -0.02272034 C208.1870046 -0.03362257 211.23655464 -0.01997586 214.28710938 0 C215.62105678 -0.01338433 215.62105678 -0.01338433 216.98195261 -0.02703905 C221.05595276 0.02484086 223.20168938 0.20271911 226.76063633 2.35218048 C228.70704651 4.50793457 228.70704651 4.50793457 229.26954651 7.50793457 C228.55774857 11.30419022 227.83421402 12.24488312 224.70704651 14.50793457 C221.598326 15.10726119 218.52713546 15.04731212 215.36940002 15.01586914 C213.93517999 15.02522908 213.93517999 15.02522908 212.47198582 15.03477812 C209.25972589 15.05076618 206.04821867 15.03808087 202.83595276 15.0255127 C200.5364589 15.03093121 198.23696852 15.03805234 195.93748474 15.04675293 C189.68550007 15.06502118 183.4337788 15.05790416 177.1817894 15.04523659 C170.64666267 15.03512712 164.11155887 15.04449655 157.57643127 15.05078125 C145.89719264 15.05933085 134.21806506 15.04608029 122.53884566 15.0257439 C111.94739217 15.00787261 101.35611402 15.01097663 90.7646637 15.02941895 C78.46788743 15.05082059 66.17122301 15.05879547 53.87443066 15.04696989 C47.3640948 15.04072569 40.85387978 15.03992484 34.34355164 15.05311584 C28.22365894 15.06464905 22.10409822 15.0566946 15.98424149 15.03353882 C13.73479387 15.02823823 11.48531844 15.02978842 9.23588181 15.03858948 C6.17177177 15.04947497 3.10873418 15.03586555 0.04469299 15.01586914 C-1.29946009 15.02925347 -1.29946009 15.02925347 -2.67076778 15.04290819 C-8.65789843 14.96680438 -8.65789843 14.96680438 -11.8453064 12.66368866 C-13.83057232 9.70734304 -13.8747225 7.9985486 -13.29295349 4.50793457 C-9.84469854 -0.6171224 -5.62892369 -0.0563372 0 0 Z " fill="#020202" transform="translate(88.29295349121094,458.4920654296875)"/>
<path d="M0 0 C0.78549191 -0.00482883 1.57098383 -0.00965766 2.38027853 -0.01463282 C5.00910256 -0.02589355 7.63695164 -0.00859293 10.26573181 0.00863647 C12.15158349 0.00649037 14.03743387 0.00261231 15.92327881 -0.00286865 C21.04305299 -0.01256371 26.16247856 0.00274296 31.28221059 0.02303743 C36.63750772 0.04060069 41.99279396 0.03708351 47.34811401 0.03631592 C56.34056942 0.03818904 65.33288985 0.05555529 74.32530212 0.08285522 C84.72669116 0.11431566 95.12793242 0.12485109 105.5293656 0.12338412 C115.53053787 0.12216402 125.53166195 0.13237006 135.53281975 0.14896774 C139.7915071 0.15603446 144.05017739 0.15969439 148.30887032 0.16075516 C153.32148217 0.16276219 158.33396964 0.1749568 163.34654045 0.19508743 C165.18800978 0.20093567 167.02949343 0.20338852 168.87097168 0.20223236 C171.38082943 0.20125276 173.89033741 0.21254413 176.40014648 0.22705078 C177.13214659 0.22395358 177.8641467 0.22085637 178.61832863 0.21766531 C182.25788572 0.25250481 185.10269412 0.36498144 188.13658142 2.49447632 C189.6615014 5.54431628 189.3722069 8.13681322 189.13658142 11.49447632 C187.5939533 13.59806013 186.45549825 14.33501791 184.13658142 15.49447632 C181.62907368 15.60082121 179.14880585 15.6466844 176.64065552 15.64837646 C175.85843244 15.65275872 175.07620937 15.65714097 174.27028257 15.66165602 C171.63481145 15.67506906 168.99937379 15.68122847 166.36387634 15.68734741 C164.48009082 15.69524634 162.59630681 15.70351516 160.71252441 15.71212769 C154.51404775 15.73836974 148.31556424 15.75365647 142.11705017 15.76791382 C139.98555814 15.77327241 137.85406617 15.77864991 135.72257423 15.78404617 C126.85849055 15.80567718 117.9944087 15.82441527 109.13030529 15.83566856 C96.41429411 15.85191665 83.69858807 15.88511286 70.98269194 15.94206941 C62.04846473 15.9807272 53.11431929 16.00029626 44.18001062 16.00558913 C38.84044133 16.009248 33.50119734 16.02132628 28.16171837 16.05369186 C23.13919801 16.08369959 18.11720102 16.09011041 13.09461021 16.07830811 C11.2503108 16.07808677 9.4059876 16.08644162 7.56177139 16.10396194 C5.04503282 16.12657159 2.53020528 16.11839814 0.01345825 16.10247803 C-1.08324219 16.12330116 -1.08324219 16.12330116 -2.20209819 16.14454496 C-6.08295038 16.08398984 -7.73944363 15.59298461 -10.81666088 13.14788246 C-12.86341858 10.49447632 -12.86341858 10.49447632 -13.48841858 7.43197632 C-12.86341858 4.49447632 -12.86341858 4.49447632 -10.81581974 2.34178734 C-7.14357637 0.0440726 -4.19667231 -0.059158 0 0 Z " fill="#0F0F0F" transform="translate(87.86341857910156,367.5055236816406)"/>
<path d="M0 0 C1.07672974 -0.00983414 2.15345947 -0.01966827 3.26281738 -0.02980042 C4.43904663 -0.02013245 5.61527588 -0.01046448 6.82714844 -0.00050354 C8.0697644 -0.00590652 9.31238037 -0.01130951 10.59265137 -0.01687622 C13.99788535 -0.02724171 17.40214798 -0.01966007 20.80729675 -0.00316501 C24.37153516 0.01068985 27.93574438 0.00422492 31.5 0.0007019 C37.48543433 -0.00199989 43.47066809 0.01147254 49.45605469 0.03465271 C56.37485261 0.06126241 63.2933152 0.06300952 70.21214676 0.05126435 C76.86929869 0.04048301 83.52632937 0.04667638 90.18347168 0.06081963 C93.015939 0.06657639 95.84831751 0.06649922 98.68078613 0.06175423 C102.63595253 0.05609345 106.59078372 0.07530771 110.54589844 0.09715271 C112.31024231 0.09040024 112.31024231 0.09040024 114.11022949 0.08351135 C115.18695923 0.09341599 116.26368896 0.10332062 117.37304688 0.11352539 C118.30808044 0.11595529 119.24311401 0.11838518 120.20648193 0.12088871 C123.18423248 0.5775296 124.55939606 1.38477402 126.68652344 3.50120544 C127.18652344 6.93870544 127.18652344 6.93870544 126.68652344 10.50120544 C124.66609462 13.10636584 123.47200542 14.34177916 120.20648193 15.00457001 C119.27144836 15.00607811 118.33641479 15.00758621 117.37304688 15.00914001 C116.29631714 15.02041931 115.2195874 15.03169861 114.11022949 15.0433197 C112.34588562 15.03117432 112.34588562 15.03117432 110.54589844 15.01878357 C108.68197449 15.02929749 108.68197449 15.02929749 106.78039551 15.0400238 C103.37517158 15.05461417 99.97091962 15.05119292 96.56575012 15.03850746 C93.00150246 15.02837661 89.43729618 15.03777336 85.87304688 15.04405212 C79.8876195 15.05132832 73.90238958 15.04174172 67.91699219 15.02268982 C60.99813386 15.00092091 54.07974702 15.00797231 47.16090012 15.02999544 C41.21936382 15.04815039 35.27796941 15.05070737 29.33641434 15.04024076 C25.78828453 15.03400627 22.2403763 15.03316873 18.69226074 15.04638672 C14.73703703 15.06009223 10.78234095 15.04109379 6.82714844 15.01878357 C5.65091919 15.02688049 4.47468994 15.03497742 3.26281738 15.0433197 C1.64772278 15.02640076 1.64772278 15.02640076 0 15.00914001 C-0.93503357 15.00763191 -1.87006714 15.00612381 -2.83343506 15.00457001 C-6.08490975 14.34463059 -7.28378911 13.07630898 -9.31347656 10.50120544 C-9.81347656 7.50120544 -9.81347656 7.50120544 -9.31347656 4.50120544 C-6.43756437 0.85176847 -4.60171704 0.00102998 0 0 Z " fill="#020202" transform="translate(84.3134765625,413.49879455566406)"/>
<path d="M0 0 C1.61279846 -0.01051392 1.61279846 -0.01051392 3.25817871 -0.02124023 C6.8163426 -0.03886126 10.37371262 -0.0271814 13.93188477 -0.01367188 C16.40283867 -0.01636579 18.87379155 -0.02024736 21.34474182 -0.02526855 C26.52566614 -0.03116937 31.70631474 -0.02258222 36.88720703 -0.00390625 C43.52988632 0.01887121 50.17191875 0.00577079 56.81457424 -0.01819611 C61.91808447 -0.03264821 67.02144129 -0.02805047 72.12495613 -0.01768494 C74.57418964 -0.01501543 77.02343706 -0.01829522 79.47265434 -0.02760315 C82.8962074 -0.0377572 86.31871252 -0.0222815 89.7421875 0 C90.75585892 -0.00809692 91.76953033 -0.01619385 92.81391907 -0.02453613 C97.17819164 0.02810833 99.74913056 0.11326718 103.56898499 2.36242676 C105.43579102 4.51757812 105.43579102 4.51757812 105.99829102 7.51757812 C105.27750511 11.36176961 104.64844806 12.26558898 101.43579102 14.51757812 C97.88424587 15.12809154 94.35993626 15.06351803 90.76391602 15.03515625 C89.67735718 15.04216553 88.59079834 15.0491748 87.47131348 15.05639648 C83.87588017 15.07401681 80.28123248 15.0623387 76.68579102 15.04882812 C74.19002125 15.05152186 71.6942525 15.05540328 69.19848633 15.0604248 C63.96630826 15.06632533 58.73433493 15.05811959 53.50219727 15.0390625 C47.4558209 15.01729381 41.40998405 15.02434537 35.36362076 15.04636812 C29.54366136 15.06671659 23.72390681 15.06455107 17.90393066 15.05284119 C15.42875086 15.05016968 12.95355732 15.05345849 10.47839355 15.0627594 C7.02111142 15.07289921 3.56487045 15.05745831 0.10766602 15.03515625 C-1.43226013 15.04730164 -1.43226013 15.04730164 -3.0032959 15.05969238 C-9.9077904 14.97702858 -9.9077904 14.97702858 -13.19995117 12.67272949 C-15.07774544 9.70633205 -15.13850627 7.96336186 -14.56420898 4.51757812 C-11.08002107 -0.95946336 -5.83256338 -0.04649604 0 0 Z " fill="#030303" transform="translate(89.564208984375,322.482421875)"/>
<path d="M0 0 C8.25 0 16.5 0 25 0 C25 18.48 25 36.96 25 56 C16.75 56 8.5 56 0 56 C0 37.52 0 19.04 0 0 Z " fill="#A6ADB7" transform="translate(184,140)"/>
<path d="M0 0 C8.25 0 16.5 0 25 0 C25 18.48 25 36.96 25 56 C16.75 56 8.5 56 0 56 C0 37.52 0 19.04 0 0 Z " fill="#A5ACB7" transform="translate(84,140)"/>
<path d="M0 0 C4.73661777 3.778447 8.34524647 8.57452933 9.390625 14.62109375 C10.07710348 24.83246121 4.18651715 33.20379938 -0.953125 41.6328125 C-5.02872502 40.12850155 -8.66549051 38.17769936 -12.42578125 36.0078125 C-13.03070908 35.66024902 -13.6356369 35.31268555 -14.25889587 34.95458984 C-16.17959213 33.85039983 -18.09772163 32.74184525 -20.015625 31.6328125 C-21.93752189 30.52453549 -23.85995405 29.41720276 -25.7830658 28.31103516 C-27.52579202 27.30815938 -29.26696618 26.30258795 -31.00805664 25.296875 C-33.29846414 24.00271787 -35.58477859 22.77498352 -37.953125 21.6328125 C-34.14298624 11.50341921 -29.04601717 2.85020784 -19.640625 -2.7421875 C-12.35864429 -4.43567139 -6.41240339 -3.97932835 0 0 Z " fill="#90735F" transform="translate(480.953125,204.3671875)"/>
<path d="M0 0 C5.36047418 1.50736873 9.71881104 4.01291279 14.4375 6.875 C15.89429862 7.74778424 17.35132739 8.62018445 18.80859375 9.4921875 C19.50710449 9.91209961 20.20561523 10.33201172 20.92529297 10.76464844 C23.92680813 12.55185328 26.96062466 14.27808775 30 16 C25.69981548 20.62357238 20.84753829 24.23201246 15.75 27.9375 C14.94175781 28.53240234 14.13351562 29.12730469 13.30078125 29.74023438 C7.96459419 33.6463233 2.533041 37.37859974 -3 41 C-3.24273986 32.23185554 -2.75591383 23.61513774 -2.0625 14.875 C-1.97564941 13.7600415 -1.88879883 12.64508301 -1.79931641 11.49633789 C-1.12785446 3.38356338 -1.12785446 3.38356338 0 0 Z " fill="#CEA385" transform="translate(341,410)"/>
<path d="M0 0 C0.66 0 1.32 0 2 0 C3.47265625 1.8984375 3.47265625 1.8984375 5.0625 4.375 C5.85333984 5.59316406 5.85333984 5.59316406 6.66015625 6.8359375 C9.26199226 11.03831985 9.12891977 14.44922591 9.09765625 19.2890625 C9.0962413 20.10748627 9.09482635 20.92591003 9.09336853 21.76913452 C9.0877629 24.38779325 9.07520948 27.00636704 9.0625 29.625 C9.05748572 31.39843627 9.05292269 33.17187387 9.04882812 34.9453125 C9.03779164 39.29690782 9.02052325 43.6484395 9 48 C6.03 48 3.06 48 0 48 C0 32.16 0 16.32 0 0 Z " fill="#EFC251" transform="translate(362,181)"/>
<path d="M0 0 C1.2694043 -0.0299707 1.2694043 -0.0299707 2.56445312 -0.06054688 C6.68611126 -0.05731926 9.00958321 0.11055176 12.62109375 2.24609375 C14.5625 4.4375 14.5625 4.4375 15.1875 7.9375 C14.5625 11.4375 14.5625 11.4375 12.6171875 13.62109375 C8.38065315 16.14026059 4.90359514 16.06301579 0.0625 16 C-0.77925781 16.02384766 -1.62101562 16.04769531 -2.48828125 16.07226562 C-6.92051276 16.06179579 -8.88052182 15.85364931 -12.52734375 13.12890625 C-14.4375 10.4375 -14.4375 10.4375 -14.5 6.8125 C-12.16336992 -0.60973673 -6.79521865 -0.05666975 0 0 Z " fill="#0F0F0F" transform="translate(56.4375,367.5625)"/>
<path d="M0 0 C0.90234375 -0.01998047 1.8046875 -0.03996094 2.734375 -0.06054688 C9.3047213 -0.05568715 9.3047213 -0.05568715 12.59375 2.27734375 C14.52368102 5.24193223 14.57833783 6.96747305 14 10.4375 C12.625 12.59375 12.625 12.59375 10 14.4375 C6.49255644 15.03895139 3.05041443 14.99530865 -0.5 14.9375 C-1.45003906 14.95296875 -2.40007813 14.9684375 -3.37890625 14.984375 C-10.25361745 14.94569871 -10.25361745 14.94569871 -13.65625 12.62890625 C-15 10.4375 -15 10.4375 -15 6.875 C-12.76215787 -0.81758231 -6.84989824 -0.05382063 0 0 Z " fill="#050505" transform="translate(57,458.5625)"/>
<path d="M0 0 C0.95003906 -0.01546875 1.90007813 -0.0309375 2.87890625 -0.046875 C9.77773242 -0.00806304 9.77773242 -0.00806304 13.12109375 2.34375 C15.03377921 5.33469157 15.15241882 7.02043295 14.5 10.5 C11.59142863 13.7245932 9.25447405 14.76640297 5.03125 15.06640625 C3.35428313 15.08621295 1.67694178 15.08432849 0 15.0625 C-0.84175781 15.08634766 -1.68351562 15.11019531 -2.55078125 15.13476562 C-7.0198773 15.12420871 -8.92672505 14.94514837 -12.55859375 12.125 C-14.5 9.5 -14.5 9.5 -15.0625 6.9375 C-13.25568599 -0.89202738 -6.61325606 -0.10767852 0 0 Z " fill="#040404" transform="translate(56.5,413.5)"/>
<path d="M0 0 C1.2694043 -0.0299707 1.2694043 -0.0299707 2.56445312 -0.06054688 C6.70822728 -0.05730195 9.0063857 0.10340582 12.625 2.27734375 C14.5625 4.4375 14.5625 4.4375 15.125 7.4375 C14.40542681 11.27522369 13.76450625 12.18512005 10.5625 14.4375 C7.05507631 15.03901376 3.6129011 14.99530843 0.0625 14.9375 C-0.88753906 14.95296875 -1.83757813 14.9684375 -2.81640625 14.984375 C-9.69111745 14.94569871 -9.69111745 14.94569871 -13.09375 12.62890625 C-14.4375 10.4375 -14.4375 10.4375 -14.4375 6.875 C-13.4375 3.4375 -13.4375 3.4375 -11.96484375 1.75 C-8.06680278 -0.27433039 -4.32726638 -0.03608789 0 0 Z " fill="#040405" transform="translate(56.4375,322.5625)"/>
</svg>
