<?xml version="1.0" encoding="UTF-8"?>
<svg version="1.1" xmlns="http://www.w3.org/2000/svg" width="512" height="512">
<path d="M0 0 C8.17090675 7.77326451 11.60285757 15.85077286 13.75 26.8125 C14.51699219 26.35101563 15.28398438 25.88953125 16.07421875 25.4140625 C75.61967722 -9.5801326 145.27670205 -20.00648033 212.375 -2.875 C235.6741656 3.38753478 257.03887024 12.9320745 277.97265625 24.81616211 C279.21492533 25.51254949 280.47620634 26.17560317 281.75 26.8125 C281.89695312 26.06226563 282.04390625 25.31203125 282.1953125 24.5390625 C284.95597023 11.94157836 290.82378755 2.28473928 301.625 -4.9375 C313.01150895 -11.59422831 325.07672031 -12.29721968 337.75 -9.1875 C348.32691959 -5.5292022 357.19262445 2.29703229 362.56640625 12.0703125 C367.77510005 24.13797933 367.84881223 35.46726794 363.75 47.8125 C362.30319298 50.971362 360.6277515 53.89219322 358.75 56.8125 C358.15058594 57.74642578 358.15058594 57.74642578 357.5390625 58.69921875 C356.62911893 60.0834946 355.69293493 61.45048288 354.75 62.8125 C355.32105469 63.05742188 355.89210938 63.30234375 356.48046875 63.5546875 C375.38983328 72.27283649 388.13718757 87.13175711 396.125 106.125 C399.3476033 114.87003803 402.5048724 126.35307605 400.015625 135.515625 C398.50178782 138.26295914 397.5409121 139.35697465 394.75 140.8125 C392.10097425 141.18167274 389.65440473 141.41218888 387 141.5 C386.30261719 141.53416016 385.60523438 141.56832031 384.88671875 141.60351562 C383.17502892 141.68558295 381.4625424 141.75072919 379.75 141.8125 C380.24628906 143.02679688 380.74257813 144.24109375 381.25390625 145.4921875 C390.39340903 168.34094445 395.88878373 191.38539987 398.75 215.8125 C398.83475586 216.52792969 398.91951172 217.24335938 399.00683594 217.98046875 C399.44642335 221.926239 399.65122885 225.84447632 399.75 229.8125 C399.77046387 230.62009766 399.79092773 231.42769531 399.81201172 232.25976562 C400.76666358 276.28420679 392.57314213 323.97596778 368.84375 361.85546875 C365.79481687 366.76840872 364.26011949 369.68669451 365.375 375.5 C365.831618 377.27127642 366.28981639 379.04214659 366.75 380.8125 C367.98947795 392.39520771 363.95142408 403.57103687 357.24609375 412.90625 C356.13179681 414.2522953 354.94982342 415.54209873 353.75 416.8125 C354.63171875 417.07933594 355.5134375 417.34617187 356.421875 417.62109375 C373.52773251 423.7446695 386.64540157 439.2117033 394.2109375 455.171875 C398.51678281 465.35727558 403.49902968 479.19142763 399.56640625 490.09375 C397.42861611 493.29353912 396.35893622 493.69943424 392.75 494.8125 C390.02755833 495.06697559 390.02755833 495.06697559 387.02601624 495.07319641 C385.88348892 495.08028122 384.74096161 495.08736603 383.56381226 495.09466553 C382.31951447 495.09218811 381.07521667 495.08971069 379.79321289 495.0871582 C378.47563492 495.09226913 377.15805695 495.09738007 375.80055237 495.10264587 C372.19309431 495.11601795 368.58574114 495.11661657 364.97826314 495.11408257 C361.96386609 495.11301168 358.94949016 495.11789923 355.93509763 495.122688 C348.82235691 495.1337769 341.70966901 495.13422401 334.59692383 495.12817383 C327.26520747 495.12213318 319.93368297 495.13444867 312.60199934 495.1557439 C306.30120754 495.17337026 300.00047674 495.17935964 293.6996612 495.17610615 C289.93912089 495.17429486 286.17871747 495.17691408 282.41819954 495.19082069 C278.22406719 495.20575102 274.03032448 495.1964199 269.83618164 495.18481445 C268.59390808 495.19245819 267.35163452 495.20010193 266.07171631 495.20797729 C255.41687087 495.1427251 255.41687087 495.1427251 250.75 491.8125 C249.6017315 489.515963 249.63438825 488.22936833 249.65234375 485.6796875 C249.65556641 484.87402344 249.65878906 484.06835938 249.66210938 483.23828125 C249.67048828 482.39652344 249.67886719 481.55476563 249.6875 480.6875 C249.69201172 479.83800781 249.69652344 478.98851562 249.70117188 478.11328125 C249.71297126 476.01299091 249.73090694 473.9127367 249.75 471.8125 C248.01943359 472.55693359 248.01943359 472.55693359 246.25390625 473.31640625 C225.81696674 481.91022661 204.68303133 487.61853094 182.75 490.8125 C181.95416504 490.92964355 181.15833008 491.04678711 180.33837891 491.16748047 C147.84574157 495.71091386 114.43637983 492.90598687 82.75 484.8125 C81.92016602 484.60286621 81.09033203 484.39323242 80.23535156 484.17724609 C54.70333955 477.55726933 29.26872561 466.23917678 7.84375 450.76171875 C5.80079181 449.56951273 5.80079181 449.56951273 3.71484375 450.3515625 C1.29132261 452.15354442 -0.32961565 454.11434812 -2.1875 456.5 C-27.39637833 488.02148048 -27.39637833 488.02148048 -46.25 490.8125 C-61.0759057 491.70273914 -74.6604891 489.2504416 -86.4375 479.625 C-96.75716617 469.97246376 -102.01559179 457.77765445 -102.5 443.75 C-102.30695238 429.52239063 -97.55175822 417.71639184 -87.5625 407.6875 C-82.919554 403.17077981 -78.01249749 399.02248709 -72.94140625 394.9921875 C-68.55545706 391.44014157 -64.40739219 387.62720043 -60.25 383.8125 C-60.57162109 383.32072266 -60.89324219 382.82894531 -61.22460938 382.32226562 C-67.87937307 372.09804238 -74.16410697 361.88768025 -79.31445312 350.81933594 C-79.94494311 349.46687569 -80.58448115 348.11860124 -81.23242188 346.77441406 C-93.28919983 321.75601224 -100.46656046 294.42033633 -103.25 266.8125 C-103.36085938 265.76449219 -103.47171875 264.71648437 -103.5859375 263.63671875 C-107.27351134 222.02693281 -100.40571515 180.26211995 -84.25 141.8125 C-85.20261719 141.79832031 -86.15523437 141.78414062 -87.13671875 141.76953125 C-97.17902094 141.38765542 -97.17902094 141.38765542 -101.625 139 C-106.11152366 130.19951129 -102.79641299 118.84255087 -100.25 109.8125 C-93.06688689 88.47365484 -78.17353506 72.81214497 -58.25 62.8125 C-58.62511719 62.35101563 -59.00023437 61.88953125 -59.38671875 61.4140625 C-67.08177953 51.60625204 -72.60434235 40.59137538 -71.25 27.8125 C-69.45229346 15.24489703 -64.48258871 5.64661179 -54.62109375 -2.46875 C-37.49361773 -14.88405387 -15.99137698 -13.46892763 0 0 Z " fill="#1A3852" transform="translate(108.25,14.1875)"/>
<path d="M0 0 C8.17090675 7.77326451 11.60285757 15.85077286 13.75 26.8125 C14.51699219 26.35101563 15.28398438 25.88953125 16.07421875 25.4140625 C75.61967722 -9.5801326 145.27670205 -20.00648033 212.375 -2.875 C232.79966184 2.61490283 252.13591651 10.50656243 270.6875 20.625 C271.54666016 21.09325195 272.40582031 21.56150391 273.29101562 22.04394531 C274.49081055 22.71248535 274.49081055 22.71248535 275.71484375 23.39453125 C276.4224585 23.78874268 277.13007324 24.1829541 277.85913086 24.58911133 C279.78907534 25.83778167 281.25988029 27.06375263 282.75 28.8125 C283.0859375 31.0546875 283.0859375 31.0546875 283.125 33.6875 C283.80195083 43.70902695 287.75128428 53.50592288 294.75 60.8125 C295.41 61.1425 296.07 61.4725 296.75 61.8125 C296.75 62.4725 296.75 63.1325 296.75 63.8125 C295.62464844 64.32296875 295.62464844 64.32296875 294.4765625 64.84375 C287.04940858 68.3608909 280.88385892 72.3544052 274.75 77.8125 C274.05132812 78.41707031 273.35265625 79.02164063 272.6328125 79.64453125 C262.73756968 88.78896771 255.04357902 102.48559876 252.75 115.8125 C249.62115419 114.40490188 246.92710704 112.56845979 244.1340332 110.58886719 C220.34717021 93.92116584 191.43126347 84.15383266 162.32275391 84.42138672 C160.24965712 84.43750267 158.17850832 84.42139832 156.10546875 84.40234375 C118.3625306 84.34452062 83.19467016 101.59602812 56.75 127.8125 C55.88761719 128.66199219 55.02523437 129.51148438 54.13671875 130.38671875 C38.34360659 146.83472871 26.19295363 168.66431101 20.75 190.8125 C20.46640625 191.93269531 20.1828125 193.05289063 19.890625 194.20703125 C11.32135173 229.57549404 17.02550333 267.31712779 34.5625 299.02734375 C35.75 301.8125 35.75 301.8125 35.7265625 303.9453125 C34.33517657 306.6056424 32.50381827 307.92202903 30.125 309.75 C25.43316226 313.45120361 20.87435128 317.25454513 16.375 321.1875 C11.14947172 325.74010861 5.89287597 330.2510376 0.59423828 334.71826172 C-3.37100023 338.06321239 -7.31465129 341.43244922 -11.25 344.8125 C-16.26476732 349.11887696 -21.29933942 353.40064339 -26.35107422 357.66357422 C-29.77717034 360.55762265 -33.18564784 363.47119559 -36.58447266 366.3972168 C-39.46656688 368.87650947 -42.35722697 371.34568271 -45.25 373.8125 C-46.05244141 374.49916748 -46.05244141 374.49916748 -46.87109375 375.19970703 C-48.36590831 376.47412032 -49.87023159 377.73735523 -51.375 379 C-52.22320312 379.71542969 -53.07140625 380.43085938 -53.9453125 381.16796875 C-56.18982304 382.76956017 -57.61237653 383.2479889 -60.25 383.8125 C-67.24960605 373.10969555 -73.91418641 362.42477169 -79.31445312 350.81933594 C-79.94494311 349.46687569 -80.58448115 348.11860124 -81.23242188 346.77441406 C-93.28919983 321.75601224 -100.46656046 294.42033633 -103.25 266.8125 C-103.36085938 265.76449219 -103.47171875 264.71648437 -103.5859375 263.63671875 C-107.27351134 222.02693281 -100.40571515 180.26211995 -84.25 141.8125 C-85.20261719 141.79832031 -86.15523437 141.78414062 -87.13671875 141.76953125 C-97.17902094 141.38765542 -97.17902094 141.38765542 -101.625 139 C-106.11152366 130.19951129 -102.79641299 118.84255087 -100.25 109.8125 C-93.06688689 88.47365484 -78.17353506 72.81214497 -58.25 62.8125 C-58.62511719 62.35101563 -59.00023437 61.88953125 -59.38671875 61.4140625 C-67.08177953 51.60625204 -72.60434235 40.59137538 -71.25 27.8125 C-69.45229346 15.24489703 -64.48258871 5.64661179 -54.62109375 -2.46875 C-37.49361773 -14.88405387 -15.99137698 -13.46892763 0 0 Z " fill="#DFE3E7" transform="translate(108.25,14.1875)"/>
<path d="M0 0 C13.24727618 -0.09256454 26.49447579 -0.16369624 39.74200916 -0.20724869 C45.89298209 -0.2281487 52.04373424 -0.25651077 58.19458008 -0.30175781 C64.1273434 -0.34512887 70.05989399 -0.3691189 75.99280357 -0.37950897 C78.2595117 -0.38691603 80.52620782 -0.40137973 82.7928257 -0.42292023 C85.9608566 -0.45183749 89.12800155 -0.45596083 92.29614258 -0.45410156 C93.23913208 -0.46848267 94.18212158 -0.48286377 95.15368652 -0.49768066 C101.50699369 -0.4571705 101.50699369 -0.4571705 104.04525757 1.89659119 C104.36032257 2.59071609 104.67538757 3.284841 105 4 C105.32331299 4.69585205 105.64662598 5.3917041 105.97973633 6.10864258 C116.0280369 33.05858193 123.28012376 61.07975462 124 90 C124.02046387 90.80759766 124.04092773 91.61519531 124.06201172 92.44726562 C125.01666358 136.47170679 116.82314213 184.16346778 93.09375 222.04296875 C90.04481687 226.95590872 88.51011949 229.87419451 89.625 235.6875 C90.081618 237.45877642 90.53981639 239.22964659 91 241 C92.23947795 252.58270771 88.20142408 263.75853687 81.49609375 273.09375 C80.38179681 274.4397953 79.19982342 275.72959873 78 277 C78.88171875 277.26683594 79.7634375 277.53367187 80.671875 277.80859375 C97.77773251 283.9321695 110.89540157 299.3992033 118.4609375 315.359375 C122.76678281 325.54477558 127.74902968 339.37892763 123.81640625 350.28125 C121.67861611 353.48103912 120.60893622 353.88693424 117 355 C114.27755833 355.25447559 114.27755833 355.25447559 111.27601624 355.26069641 C110.13348892 355.26778122 108.99096161 355.27486603 107.81381226 355.28216553 C106.56951447 355.27968811 105.32521667 355.27721069 104.04321289 355.2746582 C102.72563492 355.27976913 101.40805695 355.28488007 100.05055237 355.29014587 C96.44309431 355.30351795 92.83574114 355.30411657 89.22826314 355.30158257 C86.21386609 355.30051168 83.19949016 355.30539923 80.18509763 355.310188 C73.07235691 355.3212769 65.95966901 355.32172401 58.84692383 355.31567383 C51.51520747 355.30963318 44.18368297 355.32194867 36.85199934 355.3432439 C30.55120754 355.36087026 24.25047674 355.36685964 17.9496612 355.36360615 C14.18912089 355.36179486 10.42871747 355.36441408 6.66819954 355.37832069 C2.47406719 355.39325102 -1.71967552 355.3839199 -5.91381836 355.37231445 C-7.15609192 355.37995819 -8.39836548 355.38760193 -9.67828369 355.39547729 C-20.33312913 355.3302251 -20.33312913 355.3302251 -25 352 C-26.1482685 349.703463 -26.11561175 348.41686833 -26.09765625 345.8671875 C-26.09443359 345.06152344 -26.09121094 344.25585938 -26.08789062 343.42578125 C-26.07951172 342.58402344 -26.07113281 341.74226563 -26.0625 340.875 C-26.05798828 340.02550781 -26.05347656 339.17601562 -26.04882812 338.30078125 C-26.03702874 336.20049091 -26.01909306 334.1002367 -26 332 C-27.15371094 332.49628906 -28.30742187 332.99257813 -29.49609375 333.50390625 C-49.93303326 342.09772661 -71.06696867 347.80603094 -93 351 C-93.79583496 351.11714355 -94.59166992 351.23428711 -95.41162109 351.35498047 C-127.90425843 355.89841386 -161.31362017 353.09348687 -193 345 C-193.82983398 344.79036621 -194.65966797 344.58073242 -195.51464844 344.36474609 C-222.42614473 337.38709466 -248.33617777 325.07657309 -271 309 C-269.63733356 304.96194134 -267.8590849 302.45631882 -264.9375 299.375 C-261.75262181 295.93695184 -258.69164338 292.46100777 -255.75 288.8125 C-251.43291335 283.4733469 -246.95251239 278.29004761 -242.42871094 273.1262207 C-239.83623149 270.15872108 -237.29835669 267.20644867 -235 264 C-234.4240059 264.16234691 -233.8480118 264.32469383 -233.25456333 264.49196035 C-231.05643967 264.98728198 -229.17445334 265.1263565 -226.92698669 265.12863445 C-226.12030831 265.1318589 -225.31362993 265.13508335 -224.48250675 265.1384055 C-223.60196849 265.1368569 -222.72143023 265.1353083 -221.81420898 265.13371277 C-220.87439651 265.13597833 -219.93458403 265.13824388 -218.96629238 265.14057809 C-215.80954709 265.14692047 -212.65284471 265.14608858 -209.49609375 265.14526367 C-207.23601221 265.14825497 -204.97593118 265.15165743 -202.71585083 265.15544128 C-196.57138425 265.16428733 -190.42693159 265.16661962 -184.28245926 265.16725707 C-179.15788723 265.1682056 -174.03331845 265.17188315 -168.90874767 265.17542917 C-157.51355437 265.18311011 -146.11836971 265.18609757 -134.72317469 265.18542381 C-134.03947821 265.18538386 -133.35578174 265.1853439 -132.65136719 265.18530273 C-131.62457196 265.18524141 -131.62457196 265.18524141 -130.5770334 265.18517885 C-119.47694947 265.18477218 -108.37689943 265.19434744 -97.27682531 265.2084411 C-85.8816308 265.22279546 -74.48645798 265.22952857 -63.09125233 265.22884732 C-56.69272661 265.2285919 -50.29423925 265.23146794 -43.89572144 265.24202538 C-37.88098647 265.25167855 -31.86632677 265.2518047 -25.8515892 265.24450874 C-23.64083624 265.24345951 -21.43007866 265.24584572 -19.21933365 265.2518692 C-16.20806315 265.2595442 -13.19705553 265.25497422 -10.18579102 265.24723816 C-8.86498362 265.2549535 -8.86498362 265.2549535 -7.51749325 265.26282471 C-6.30747568 265.25592652 -6.30747568 265.25592652 -5.07301331 265.24888897 C-4.37801507 265.24910634 -3.68301683 265.24932371 -2.96695805 265.24954766 C-0.61041698 264.95057366 0.98099019 264.23896995 3 263 C8.62603634 251.74792733 2.24457971 231.71496287 -1.0625 220.75 C-3.51980752 213.53070525 -7.0125722 206.99997496 -10.87329102 200.43261719 C-14.12219546 194.6914937 -14.12219546 194.6914937 -13.49609375 191.1484375 C-12.00850192 189.01220902 -10.58666193 187.45507324 -8.625 185.75 C2.23972686 175.24084602 9.92180421 161.71224374 16 148 C16.28069336 147.37383789 16.56138672 146.74767578 16.85058594 146.10253906 C24.97709532 127.71499546 28.36923705 108.69656966 28.25 88.625 C28.25773437 87.33078125 28.26546875 86.0365625 28.2734375 84.703125 C28.24850521 72.21204735 27.09629334 60.00682506 23.3125 48.0625 C23.05049805 47.22041992 22.78849609 46.37833984 22.51855469 45.51074219 C17.68887528 30.41728129 10.92705725 16.27070896 1.203125 3.671875 C0 2 0 2 0 0 Z " fill="#DEE3E7" transform="translate(384,154)"/>
<path d="M0 0 C9.92237857 8.94019233 18.49823783 18.23927217 25.68701172 29.52001953 C26.74855469 31.18291016 26.74855469 31.18291016 27.83154297 32.87939453 C35.36323226 45.37940658 40.85656369 59.18838478 43.68701172 73.52001953 C43.89068359 74.43654297 44.09435547 75.35306641 44.30419922 76.29736328 C50.37676958 107.94959648 42.78217054 142.82494639 25.10302734 169.63354492 C20.24548445 176.78228406 15.00165728 183.60003932 8.68701172 189.52001953 C4.84012037 187.95998986 2.6225699 185.5270605 -0.18798828 182.52001953 C-10.62816238 171.78180817 -22.8057318 164.75223444 -36.31298828 158.52001953 C-37.45380859 157.99021484 -38.59462891 157.46041016 -39.77001953 156.91455078 C-42.27712567 155.76559457 -44.7893704 154.63212233 -47.31298828 153.52001953 C-44.93034062 151.06929622 -42.60723893 148.74461664 -39.88720703 146.66845703 C-28.11874644 136.84652482 -21.59255726 120.49403551 -20.11328125 105.49511719 C-19.00110014 86.5601175 -25.01557266 70.52309533 -36.87548828 55.89501953 C-47.72111401 44.21189375 -63.59779088 37.03006901 -79.40673828 36.28173828 C-98.31388377 35.80510552 -113.32178101 41.06901347 -128.00048828 53.30126953 C-139.84481203 64.66541799 -147.21913306 80.53340769 -147.66503906 96.86279297 C-147.82055644 114.86972032 -142.25175538 131.35205057 -129.50048828 144.45751953 C-126.52085155 147.26689131 -123.49813194 149.944797 -120.31298828 152.52001953 C-121.96046191 155.81496679 -125.64291285 156.330769 -128.93798828 157.58251953 C-146.82160081 164.71450646 -161.0625656 175.63862434 -174.31298828 189.52001953 C-178.42106749 187.95549404 -180.82664097 184.99938034 -183.56298828 181.70751953 C-184.04678955 181.12711914 -184.53059082 180.54671875 -185.02905273 179.94873047 C-204.49626801 156.09712334 -212.52027256 128.10581237 -212.68798828 97.77001953 C-212.69584351 97.07131744 -212.70369873 96.37261536 -212.71179199 95.65274048 C-212.79666239 85.94376584 -211.71272407 76.96654006 -209.31298828 67.52001953 C-209.04389648 66.37694336 -208.77480469 65.23386719 -208.49755859 64.05615234 C-201.06038117 33.2088792 -179.00494107 5.76470746 -152.47314453 -11.02294922 C-140.7844142 -18.10489496 -128.57226916 -23.23246624 -115.31298828 -26.47998047 C-114.21470703 -26.82158203 -113.11642578 -27.16318359 -111.98486328 -27.51513672 C-74.27910079 -37.4229275 -28.93836757 -25.43327726 0 0 Z " fill="#DFE3E7" transform="translate(352.31298828125,143.47998046875)"/>
<path d="M0 0 C1 3 1 3 0.1706543 4.65966797 C-0.27366943 5.26439941 -0.71799316 5.86913086 -1.17578125 6.4921875 C-1.66949219 7.18675049 -2.16320312 7.88131348 -2.671875 8.59692383 C-3.21328125 9.34868896 -3.7546875 10.1004541 -4.3125 10.875 C-13.6088905 24.29625171 -21.08925941 39.08661408 -25 55 C-25.28359375 56.12019531 -25.5671875 57.24039063 -25.859375 58.39453125 C-34.42864827 93.76299404 -28.72449667 131.50462779 -11.1875 163.21484375 C-10 166 -10 166 -10.0234375 168.1328125 C-11.41482343 170.7931424 -13.24618173 172.10952903 -15.625 173.9375 C-20.31683774 177.63870361 -24.87564872 181.44204513 -29.375 185.375 C-34.60052828 189.92760861 -39.85712403 194.4385376 -45.15576172 198.90576172 C-49.12100023 202.25071239 -53.06465129 205.61994922 -57 209 C-62.01476732 213.30637696 -67.04933942 217.58814339 -72.10107422 221.85107422 C-75.52717034 224.74512265 -78.93564784 227.65869559 -82.33447266 230.5847168 C-85.21656688 233.06400947 -88.10722697 235.53318271 -91 238 C-91.53496094 238.45777832 -92.06992188 238.91555664 -92.62109375 239.38720703 C-94.11590831 240.66162032 -95.62023159 241.92485523 -97.125 243.1875 C-97.97320312 243.90292969 -98.82140625 244.61835938 -99.6953125 245.35546875 C-101.93982304 246.95706017 -103.36237653 247.4354889 -106 248 C-112.99960605 237.29719555 -119.66418641 226.61227169 -125.06445312 215.00683594 C-125.69494311 213.65437569 -126.33448115 212.30610124 -126.98242188 210.96191406 C-139.03919983 185.94351224 -146.21656046 158.60783633 -149 131 C-149.16628906 129.42798828 -149.16628906 129.42798828 -149.3359375 127.82421875 C-152.95521035 86.98512643 -147.04987552 43.47373695 -130 6 C-127.45561843 3.45561843 -126.56226637 3.7480088 -123.03419495 3.74171448 C-121.98401184 3.73488647 -120.93382874 3.72805847 -119.8518219 3.72102356 C-118.69488327 3.72357651 -117.53794464 3.72612946 -116.34594727 3.72875977 C-114.52394302 3.72091965 -114.52394302 3.72091965 -112.66513062 3.71292114 C-110.02024691 3.70265718 -107.37562298 3.69596075 -104.73074532 3.69503975 C-100.55007228 3.69310231 -96.36956573 3.67506737 -92.18894958 3.65428162 C-81.80423546 3.6050479 -71.41947603 3.57419673 -61.03466797 3.55297852 C-52.96638085 3.53646769 -44.89823597 3.51368613 -36.83004421 3.46995777 C-32.67277649 3.44814547 -28.51577871 3.44012686 -24.35845768 3.44235051 C-21.16672882 3.44029549 -17.97511801 3.41894657 -14.78344727 3.40063477 C-13.05107567 3.40750053 -13.05107567 3.40750053 -11.28370667 3.414505 C-9.70420227 3.40003326 -9.70420227 3.40003326 -8.0927887 3.38526917 C-7.17635873 3.38325784 -6.25992876 3.38124651 -5.31572819 3.37917423 C-2.58416028 2.93191096 -1.70277299 2.12672959 0 0 Z " fill="#DFE3E7" transform="translate(154,150)"/>
<path d="M0 0 C0.66 0 1.32 0 2 0 C2.52787109 1.16015625 2.52787109 1.16015625 3.06640625 2.34375 C6.28632473 9.13668507 9.69352302 14.66212375 15 20 C13.59128689 22.81742623 11.7254051 23.32345159 8.9375 24.75 C3.88615923 27.44230582 -0.55517377 30.4117784 -5 34 C-5.85658203 34.62068359 -5.85658203 34.62068359 -6.73046875 35.25390625 C-15.71269228 42.13959248 -24.20423429 55.06029432 -26.6953125 66.07421875 C-27.79443652 70.7773126 -28.56441005 73.98953267 -32.625 76.84765625 C-35.65653829 78.18825396 -38.63189387 79.30072879 -41.78808594 80.29492188 C-44.16488136 81.05255821 -46.50519889 81.88735896 -48.8515625 82.734375 C-97.13552058 99.87538664 -149.41691844 101.66474812 -199 89 C-199.82983398 88.79036621 -200.65966797 88.58073242 -201.51464844 88.36474609 C-228.42614473 81.38709466 -254.33617777 69.07657309 -277 53 C-275.63733356 48.96194134 -273.8590849 46.45631882 -270.9375 43.375 C-267.75262181 39.93695184 -264.69164338 36.46100777 -261.75 32.8125 C-257.43291335 27.4733469 -252.95251239 22.29004761 -248.42871094 17.1262207 C-245.83623149 14.15872108 -243.29835669 11.20644867 -241 8 C-240.4240059 8.16234691 -239.8480118 8.32469383 -239.25456333 8.49196035 C-237.05643967 8.98728198 -235.17445334 9.1263565 -232.92698669 9.12863445 C-232.12030831 9.1318589 -231.31362993 9.13508335 -230.48250675 9.1384055 C-229.16169936 9.1360826 -229.16169936 9.1360826 -227.81420898 9.13371277 C-226.40449027 9.1371111 -226.40449027 9.1371111 -224.96629238 9.14057809 C-221.80954709 9.14692047 -218.65284471 9.14608858 -215.49609375 9.14526367 C-213.23601221 9.14825497 -210.97593118 9.15165743 -208.71585083 9.15544128 C-202.57138425 9.16428733 -196.42693159 9.16661962 -190.28245926 9.16725707 C-185.15788723 9.1682056 -180.03331845 9.17188315 -174.90874767 9.17542917 C-163.51355437 9.18311011 -152.11836971 9.18609757 -140.72317469 9.18542381 C-140.03947821 9.18538386 -139.35578174 9.1853439 -138.65136719 9.18530273 C-137.62457196 9.18524141 -137.62457196 9.18524141 -136.5770334 9.18517885 C-125.47694947 9.18477218 -114.37689943 9.19434744 -103.27682531 9.2084411 C-91.8816308 9.22279546 -80.48645798 9.22952857 -69.09125233 9.22884732 C-62.69272661 9.2285919 -56.29423925 9.23146794 -49.89572144 9.24202538 C-43.88098647 9.25167855 -37.86632677 9.2518047 -31.8515892 9.24450874 C-29.64083624 9.24345951 -27.43007866 9.24584572 -25.21933365 9.2518692 C-22.20806315 9.2595442 -19.19705553 9.25497422 -16.18579102 9.24723816 C-14.86498362 9.2549535 -14.86498362 9.2549535 -13.51749325 9.26282471 C-12.71081487 9.25822592 -11.90413649 9.25362712 -11.07301331 9.24888897 C-10.37801507 9.24910634 -9.68301683 9.24932371 -8.96695805 9.24954766 C-6.617362 8.95145478 -5.02126583 8.2192722 -3 7 C-1.89506665 5.30049572 -1.89506665 5.30049572 -1.25 3.375 C-0.8375 2.26125 -0.425 1.1475 0 0 Z " fill="#DFE3E7" transform="translate(390,410)"/>
<path d="M0 0 C7.33037105 5.50026485 13.07463172 11.72233637 17.1875 19.9375 C17.69667969 20.93652344 18.20585937 21.93554688 18.73046875 22.96484375 C22.31616796 31.53742309 21.65414138 41.24510709 19 50 C16.19599031 56.70929206 13.00439252 62.70123145 8 68 C8.88171875 68.26683594 9.7634375 68.53367187 10.671875 68.80859375 C27.77773251 74.9321695 40.89540157 90.3992033 48.4609375 106.359375 C52.76678281 116.54477558 57.74902968 130.37892763 53.81640625 141.28125 C51.67861611 144.48103912 50.60893622 144.88693424 47 146 C44.27755833 146.25447559 44.27755833 146.25447559 41.27601624 146.26069641 C40.13348892 146.26778122 38.99096161 146.27486603 37.81381226 146.28216553 C36.56951447 146.27968811 35.32521667 146.27721069 34.04321289 146.2746582 C32.06684593 146.2823246 32.06684593 146.2823246 30.05055237 146.29014587 C26.44309431 146.30351795 22.83574114 146.30411657 19.22826314 146.30158257 C16.21386609 146.30051168 13.19949016 146.30539923 10.18509763 146.310188 C3.07235691 146.3212769 -4.04033099 146.32172401 -11.15307617 146.31567383 C-18.48479253 146.30963318 -25.81631703 146.32194867 -33.14800066 146.3432439 C-39.44879246 146.36087026 -45.74952326 146.36685964 -52.0503388 146.36360615 C-55.81087911 146.36179486 -59.57128253 146.36441408 -63.33180046 146.37832069 C-67.52593281 146.39325102 -71.71967552 146.3839199 -75.91381836 146.37231445 C-77.7772287 146.38378006 -77.7772287 146.38378006 -79.67828369 146.39547729 C-90.33312913 146.3302251 -90.33312913 146.3302251 -95 143 C-98.33180265 136.3363947 -96.1187745 125.91389574 -94 119 C-93.53980469 117.42992187 -93.53980469 117.42992187 -93.0703125 115.828125 C-86.97317835 96.90598454 -74.45684288 81.09658694 -57.0078125 71.32421875 C-54.69207969 70.1597922 -52.37195585 69.0442903 -50 68 C-50.38671875 67.50371094 -50.7734375 67.00742187 -51.171875 66.49609375 C-60.62216544 54.16861092 -64.94505949 42.69114207 -63 27 C-60.10585455 15.64208697 -53.3623215 6.7991192 -43.57421875 0.5078125 C-42.72472656 0.01023437 -41.87523437 -0.48734375 -41 -1 C-39.89591797 -1.65355469 -39.89591797 -1.65355469 -38.76953125 -2.3203125 C-27.02351456 -8.10234481 -11.05190981 -6.42345899 0 0 Z " fill="#193852" transform="translate(454,363)"/>
<path d="M0 0 C8.67310574 8.25102367 13.39308237 17.96526903 13.87890625 30.0078125 C13.38747696 42.36800368 8.96516208 52.65034517 0.75 61.8125 C3.76062783 64.19828055 6.87069577 65.99566977 10.25 67.8125 C27.21207304 77.68810404 38.79431487 93.36352703 44.78125 112.02734375 C46.785837 119.68375244 48.05323886 127.94175822 46.75 135.8125 C44.65732557 138.51250965 43.45877171 139.67452174 40.06972599 140.33427525 C39.04012477 140.34445651 38.01052355 140.35463778 36.94972229 140.36512756 C35.76505371 140.38626617 34.58038513 140.40740479 33.3598175 140.42918396 C32.0635997 140.43200882 30.7673819 140.43483368 29.43188477 140.43774414 C28.05024151 140.45466802 26.66861789 140.4732647 25.28701782 140.4934082 C21.53704851 140.54265507 17.78731425 140.56660482 14.03708005 140.58466268 C10.90575 140.6020083 7.77458536 140.63163041 4.64335102 140.66123861 C-2.74397348 140.73088188 -10.13123986 140.78003993 -17.51879883 140.81616211 C-25.13884206 140.85374655 -32.75807699 140.92412921 -40.37770504 141.01097971 C-46.92124706 141.08449953 -53.4647482 141.13846732 -60.00859219 141.17659086 C-63.91626662 141.19950285 -67.82353852 141.22963135 -71.73098564 141.27821541 C-75.40579939 141.32298647 -79.07995334 141.34327702 -82.75503159 141.34481049 C-84.74491223 141.3516099 -86.73465967 141.38322275 -88.72428894 141.41557312 C-98.44758943 141.38085706 -98.44758943 141.38085706 -101.55335999 138.44261169 C-105.63170038 132.12041566 -103.40558601 123.82294315 -102.0625 116.8125 C-97.38439223 97.03389551 -85.98349526 80.39722748 -69.25 68.8125 C-65.64884703 66.67374418 -61.99292783 64.69107975 -58.25 62.8125 C-58.62511719 62.35101563 -59.00023437 61.88953125 -59.38671875 61.4140625 C-67.08177953 51.60625204 -72.60434235 40.59137538 -71.25 27.8125 C-69.45229346 15.24489703 -64.48258871 5.64661179 -54.62109375 -2.46875 C-37.49361773 -14.88405387 -15.99137698 -13.46892763 0 0 Z " fill="#193752" transform="translate(108.25,14.1875)"/>
<path d="M0 0 C3.19526129 3.13959472 6.20614272 6.3539151 9.125 9.75 C13.27376513 14.414746 17.7869683 18.27091355 22.71484375 22.08984375 C25 24 25 24 27 27 C26.18917969 27.93199219 25.37835938 28.86398437 24.54296875 29.82421875 C15.7819664 39.90602874 7.04030135 50.00122851 -1.375 60.375 C-5.54156423 65.49733524 -9.86201281 70.47417378 -14.20043945 75.45043945 C-18.1224954 79.95939957 -21.93031865 84.54698064 -25.69140625 89.19140625 C-28.41344091 92.5029848 -31.20139731 95.75313059 -34 99 C-37.55457492 103.124643 -41.06792298 107.27207904 -44.5 111.5 C-48.38989191 116.2886395 -52.38259255 120.97943819 -56.40698242 125.65478516 C-59.42225047 129.15796532 -62.4234041 132.67204254 -65.40307617 136.20556641 C-66.33447942 137.30879444 -67.26819845 138.41007199 -68.2043457 139.50927734 C-70.13987746 141.78235683 -72.04965614 144.06340392 -73.890625 146.4140625 C-78.79768136 152.53641786 -84.61547431 155.53849144 -92 158 C-100.50849911 158.66711883 -107.64545353 158.55754714 -115 154 C-115.70898438 153.57589844 -116.41796875 153.15179688 -117.1484375 152.71484375 C-122.55599563 149.10645459 -125.36298215 144.87707467 -128 139 C-128.36738281 138.23300781 -128.73476562 137.46601563 -129.11328125 136.67578125 C-131.4888459 129.50722712 -131.07093637 119.11229604 -128.20703125 112.08984375 C-122.7132607 102.57797564 -113.18783417 95.58275897 -104.89453125 88.59619141 C-103.100994 87.08509005 -101.31489215 85.56572761 -99.53125 84.04296875 C-94.60781201 79.84723608 -89.64888623 75.70042393 -84.625 71.625 C-79.55553585 67.49869197 -74.61900187 63.23214282 -69.69018555 58.94018555 C-65.10766517 54.95172782 -60.48886155 51.01006991 -55.84423828 47.09423828 C-51.87899935 43.74928726 -47.93538675 40.38000693 -44 37 C-37.89693359 31.76012972 -31.76403583 26.55664723 -25.61767578 21.36767578 C-23.97091021 19.97540583 -22.32689933 18.57994527 -20.68359375 17.18359375 C-13.8491739 11.37976102 -6.96216111 5.6506518 0 0 Z " fill="#FCFDFD" transform="translate(153,331)"/>
<path d="M0 0 C9.80078876 7.84325856 17.69009756 18.77713131 19.31811523 31.48266602 C19.47258393 34.08009347 19.51868934 36.64810777 19.5 39.25 C19.49500488 40.1680542 19.49000977 41.0861084 19.48486328 42.03198242 C19.19274666 53.48799028 15.43513238 62.26633745 8 71 C7.13375 72.2684375 7.13375 72.2684375 6.25 73.5625 C-0.20029481 80.55031938 -8.0463776 84.2289954 -17 87 C-17.99 87.33 -18.98 87.66 -20 88 C-33.93232172 89.3638828 -46.34799849 88.17853713 -57.875 79.625 C-59.26427576 78.43310768 -60.64034116 77.22557019 -62 76 C-62.90298828 75.28650391 -62.90298828 75.28650391 -63.82421875 74.55859375 C-68.25563208 70.74459082 -70.75891349 66.14135703 -73.375 61 C-73.72119385 60.32332275 -74.0673877 59.64664551 -74.42407227 58.94946289 C-79.34534452 48.78754741 -80.06707758 34.87951643 -76.375 24.125 C-70.72582823 10.95018331 -62.87668742 1.51544962 -50 -5 C-49.18015625 -5.41507813 -48.3603125 -5.83015625 -47.515625 -6.2578125 C-31.84012102 -13.05053089 -13.90189348 -8.908282 0 0 Z " fill="#FDFEFE" transform="translate(298,203)"/>
<path d="M0 0 C5.66761261 4.61447951 10.87899811 9.43706007 15.37890625 15.22265625 C11.77355701 19.10062168 8.01759042 21.97356619 3.44140625 24.66015625 C2.78027832 25.04921143 2.11915039 25.4382666 1.43798828 25.83911133 C-28.55843762 43.13373561 -64.38504846 47.95740424 -97.8671875 39.15625 C-111.67281673 35.22390889 -124.84593447 29.45744372 -136.62109375 21.22265625 C-137.72324219 20.45501953 -137.72324219 20.45501953 -138.84765625 19.671875 C-140.45044792 18.53842671 -142.03806381 17.38354487 -143.62109375 16.22265625 C-141.6505304 13.85798023 -139.6566311 11.53077096 -137.62109375 9.22265625 C-137.07582031 8.59746094 -136.53054687 7.97226562 -135.96875 7.328125 C-124.35953199 -5.14479851 -107.04534009 -14.50327637 -90.62109375 -18.77734375 C-89.59628906 -19.05449219 -88.57148438 -19.33164062 -87.515625 -19.6171875 C-57.04501362 -26.82779019 -24.54511009 -19.26401061 0 0 Z " fill="#F9BB5D" transform="translate(332.62109375,328.77734375)"/>
<path d="M0 0 C3.41804358 1.72787129 4.54953359 4.93760313 6.125 8.26171875 C6.47312744 8.98351318 6.82125488 9.70530762 7.17993164 10.44897461 C12.73281925 22.30752948 14.23426501 32.71319389 15.125 46.07421875 C-53.515 46.07421875 -122.155 46.07421875 -192.875 46.07421875 C-191.80803742 40.73940587 -191.00158381 39.69892732 -187.375 35.94921875 C-186.45728518 34.98138981 -185.54197423 34.01127658 -184.62890625 33.0390625 C-183.93498779 32.30212158 -183.93498779 32.30212158 -183.22705078 31.55029297 C-181.15298849 29.28597722 -179.23642608 26.90390197 -177.3125 24.51171875 C-173.01937033 19.19130448 -168.49620133 14.11056346 -163.875 9.07421875 C-159.09632578 10.51002996 -154.83356169 12.57083972 -150.4375 14.88671875 C-142.80731532 18.77379396 -135.14885495 21.80749169 -126.875 24.07421875 C-125.85768799 24.3683667 -125.85768799 24.3683667 -124.81982422 24.66845703 C-102.98704948 30.77165326 -75.85310599 30.53782425 -53.875 25.07421875 C-53.20484863 24.90792969 -52.53469727 24.74164063 -51.84423828 24.5703125 C-36.23793173 20.51184607 -13.5303304 0.53557558 0 0 Z " fill="#F9BB5D" transform="translate(356.875,357.92578125)"/>
<path d="M0 0 C0.95777344 0.43570313 1.91554688 0.87140625 2.90234375 1.3203125 C17.9390459 8.86960329 27.38638051 21.34774151 33.125 36.9296875 C34 40 34 40 35 47 C-3.94 47 -42.88 47 -83 47 C-80.12311092 29.73866549 -72.69837068 16.46819876 -58.6875 5.6875 C-42.16546758 -5.80811129 -18.49992905 -8.47365171 0 0 Z " fill="#2D9ED7" transform="translate(104,92)"/>
<path d="M0 0 C1.05735352 0.00829834 2.11470703 0.01659668 3.20410156 0.02514648 C18.05993937 0.34616236 31.431731 5.47001428 42.5390625 15.65625 C51.77014198 25.63106574 59.1875 37.6726008 59.1875 51.4375 C20.5775 51.4375 -18.0325 51.4375 -57.8125 51.4375 C-56.22286024 38.72038194 -52.01329299 29.25383383 -43.8125 19.4375 C-43.21824219 18.71820313 -42.62398438 17.99890625 -42.01171875 17.2578125 C-31.04380046 5.1860566 -15.96102757 -0.16174996 0 0 Z " fill="#EC6051" transform="translate(431.8125,87.5625)"/>
<path d="M0 0 C10.3432095 8.00764607 17.69713945 16.55269976 22.421875 28.875 C22.834375 29.926875 23.246875 30.97875 23.671875 32.0625 C24.421875 34.875 24.421875 34.875 24.421875 40.875 C-13.858125 40.875 -52.138125 40.875 -91.578125 40.875 C-91.578125 29.03487839 -86.79263633 20.04243274 -79.578125 10.875 C-78.64033203 9.62203125 -78.64033203 9.62203125 -77.68359375 8.34375 C-58.7841482 -13.81663884 -23.20797211 -16.31590767 0 0 Z " fill="#4EBE9E" transform="translate(466.578125,451.125)"/>
<path d="M0 0 C5.37140436 4.53585257 9.44210026 10.50690148 10.12109375 17.59765625 C10.41225588 26.27075856 9.7728563 32.61908766 3.8125 39.375 C-2.7916673 45.65157964 -9.23664971 47.90165123 -18.3125 47.6796875 C-25.16441033 46.95353396 -30.42452642 44.63743479 -35.125 39.5625 C-41.11716886 31.84616934 -42.05099034 24.97068841 -41.1875 15.375 C-39.23401984 8.36545353 -34.45395384 2.76508818 -28.625 -1.5 C-18.18086308 -6.32037089 -9.97417182 -5.08487191 0 0 Z " fill="#FCFDFD" transform="translate(448.1875,377.625)"/>
<path d="M0 0 C5.68500348 3.64150138 10.32300975 8.96883698 12.29296875 15.46875 C13.13025181 23.25988916 13.40027877 30.81218626 8.9140625 37.53515625 C3.43463766 44.07085576 -1.60776773 47.94104844 -10.29296875 48.83984375 C-18.12147981 48.97704446 -23.86386432 49.00508396 -29.70703125 43.46875 C-36.20158438 37.16825722 -38.96847623 31.88360403 -39.14453125 22.65625 C-39.0162409 15.04702861 -37.24600773 10.20525075 -32.02734375 4.6953125 C-30.3252061 3.14447597 -28.58844373 1.793808 -26.70703125 0.46875 C-25.40765625 -0.459375 -25.40765625 -0.459375 -24.08203125 -1.40625 C-16.21674636 -4.02801163 -7.52901093 -3.4390262 0 0 Z " fill="#FDFDFD" transform="translate(445.70703125,22.53125)"/>
<path d="M0 0 C5.97933247 3.87610503 10.98286416 9.12102858 13.125 16 C13.96838318 24.12001483 14.05858123 32.18197395 9.125 39 C3.41008211 45.0504727 -1.28898302 49.18143354 -9.81542969 49.48193359 C-17.00155152 49.53970989 -22.35277174 49.48453952 -28.1484375 44.70703125 C-28.71820313 44.14371094 -29.28796875 43.58039063 -29.875 43 C-30.38289063 42.50886719 -30.89078125 42.01773438 -31.4140625 41.51171875 C-37.56576091 34.83838509 -38.56296752 28.3207582 -38.34765625 19.51171875 C-37.35908405 12.16687243 -33.57389497 7.05911598 -27.875 2.5 C-20.04467761 -3.11173105 -8.66867914 -4.41611956 0 0 Z " fill="#FDFDFD" transform="translate(91.875,22)"/>
<path d="M0 0 C5.28 0 10.56 0 16 0 C16 5.28 16 10.56 16 16 C10.72 16 5.44 16 0 16 C0 10.72 0 5.44 0 0 Z " fill="#1E3C56" transform="translate(311,453)"/>
<path d="M0 0 C5.28 0 10.56 0 16 0 C16 5.28 16 10.56 16 16 C10.72 16 5.44 16 0 16 C0 10.72 0 5.44 0 0 Z " fill="#1E3C56" transform="translate(248,453)"/>
<path d="M0 0 C5.28 0 10.56 0 16 0 C16 5.28 16 10.56 16 16 C10.72 16 5.44 16 0 16 C0 10.72 0 5.44 0 0 Z " fill="#1F3C57" transform="translate(184,453)"/>
<path d="M0 0 C5.28 0 10.56 0 16 0 C16 5.28 16 10.56 16 16 C10.72 16 5.44 16 0 16 C0 10.72 0 5.44 0 0 Z " fill="#213E58" transform="translate(455,246)"/>
<path d="M0 0 C5.28 0 10.56 0 16 0 C16 5.28 16 10.56 16 16 C10.72 16 5.44 16 0 16 C0 10.72 0 5.44 0 0 Z " fill="#203D57" transform="translate(40,246)"/>
<path d="M0 0 C5.28 0 10.56 0 16 0 C16 5.28 16 10.56 16 16 C10.72 16 5.44 16 0 16 C0 10.72 0 5.44 0 0 Z " fill="#1F3C56" transform="translate(455,182)"/>
<path d="M0 0 C5.28 0 10.56 0 16 0 C16 5.28 16 10.56 16 16 C10.72 16 5.44 16 0 16 C0 10.72 0 5.44 0 0 Z " fill="#1E3B55" transform="translate(40,182)"/>
<path d="M0 0 C5.28 0 10.56 0 16 0 C16 5.28 16 10.56 16 16 C10.72 16 5.44 16 0 16 C0 10.72 0 5.44 0 0 Z " fill="#203D57" transform="translate(311,38)"/>
<path d="M0 0 C5.28 0 10.56 0 16 0 C16 5.28 16 10.56 16 16 C10.72 16 5.44 16 0 16 C0 10.72 0 5.44 0 0 Z " fill="#203D57" transform="translate(248,38)"/>
<path d="M0 0 C5.28 0 10.56 0 16 0 C16 5.28 16 10.56 16 16 C10.72 16 5.44 16 0 16 C0 10.72 0 5.44 0 0 Z " fill="#213E58" transform="translate(184,38)"/>
<path d="M0 0 C3.10442031 1.3904499 5.3656443 3.01571598 7.8125 5.375 C8.43769531 5.96023438 9.06289062 6.54546875 9.70703125 7.1484375 C11 9 11 9 10.984375 10.9296875 C9.62487897 13.78894502 7.71783339 15.56601872 5.4375 17.75 C4.61121094 18.54921875 3.78492187 19.3484375 2.93359375 20.171875 C2.29550781 20.77515625 1.65742187 21.3784375 1 22 C-2.80635497 18.79239749 -6.54563567 15.59253891 -10 12 C-8.52278578 8.54798361 -6.56205999 6.35038064 -3.875 3.75 C-3.15054688 3.04359375 -2.42609375 2.3371875 -1.6796875 1.609375 C-1.12539062 1.07828125 -0.57109375 0.5471875 0 0 Z " fill="#213D57" transform="translate(94,406)"/>
<path d="M0 0 C3.45201639 1.47721422 5.64961936 3.43794001 8.25 6.125 C8.95640625 6.84945313 9.6628125 7.57390625 10.390625 8.3203125 C11.18726563 9.15175781 11.18726563 9.15175781 12 10 C8.79239749 13.80635497 5.59253891 17.54563567 2 21 C-1.45201639 19.52278578 -3.64961936 17.56205999 -6.25 14.875 C-6.95640625 14.15054687 -7.6628125 13.42609375 -8.390625 12.6796875 C-8.92171875 12.12539063 -9.4528125 11.57109375 -10 11 C-6.79239749 7.19364503 -3.59253891 3.45436433 0 0 Z " fill="#1B3853" transform="translate(63,437)"/>
<path d="M0 0 C3.45201639 1.47721422 5.64961936 3.43794001 8.25 6.125 C8.95640625 6.84945313 9.6628125 7.57390625 10.390625 8.3203125 C11.18726563 9.15175781 11.18726563 9.15175781 12 10 C8.79239749 13.80635497 5.59253891 17.54563567 2 21 C-1.45201639 19.52278578 -3.64961936 17.56205999 -6.25 14.875 C-6.95640625 14.15054687 -7.6628125 13.42609375 -8.390625 12.6796875 C-8.92171875 12.12539063 -9.4528125 11.57109375 -10 11 C-6.79239749 7.19364503 -3.59253891 3.45436433 0 0 Z " fill="#1B3953" transform="translate(124,375)"/>
<path d="M0 0 C5.28 0 10.56 0 16 0 C16 4.95 16 9.9 16 15 C10.72 15 5.44 15 0 15 C0 10.05 0 5.1 0 0 Z " fill="#1B3953" transform="translate(455,310)"/>
<path d="M0 0 C5.28 0 10.56 0 16 0 C16 4.95 16 9.9 16 15 C10.72 15 5.44 15 0 15 C0 10.05 0 5.1 0 0 Z " fill="#1B3853" transform="translate(40,310)"/>
<path d="M0 0 C0.33 0 0.66 0 1 0 C1.33 4.95 1.66 9.9 2 15 C1.34 15 0.68 15 0 15 C-0.33 15.99 -0.66 16.98 -1 18 C-1.09706112 11.88514973 -0.77040851 6.06696699 0 0 Z " fill="#CBD1D8" transform="translate(390,395)"/>
</svg>
