<?xml version="1.0" encoding="UTF-8"?>
<svg version="1.1" xmlns="http://www.w3.org/2000/svg" width="512" height="512">
<path d="M0 0 C1.1730368 0.00041794 2.34607361 0.00083588 3.55465698 0.00126648 C6.02401837 0.00961801 8.49337431 0.03499153 10.96240234 0.07641602 C14.73763213 0.13664607 18.50951396 0.13798323 22.28515625 0.13085938 C24.69012893 0.14626496 27.09508294 0.16503061 29.5 0.1875 C31.1876799 0.18947136 31.1876799 0.18947136 32.90945435 0.19148254 C39.08406419 0.32196858 42.96482138 0.60989079 47.6171875 4.82421875 C51.31098014 10.08328877 52.85286267 15.44132064 54.3671875 21.63671875 C54.58761719 22.49458984 54.80804688 23.35246094 55.03515625 24.23632812 C56.6171875 30.48092974 56.6171875 30.48092974 56.6171875 32.82421875 C58.05440507 33.11727396 59.49198577 33.4085481 60.9296875 33.69921875 C61.73019531 33.86164062 62.53070313 34.0240625 63.35546875 34.19140625 C64.43183594 34.40023437 65.50820313 34.6090625 66.6171875 34.82421875 C67.44661865 35.08460937 68.2760498 35.345 69.13061523 35.61328125 C74.66396091 37.18084979 74.66396091 37.18084979 79.93823242 35.51708984 C82.16271158 33.48773142 84.10881428 31.37161694 86.0546875 29.07421875 C87.40352616 27.57579325 88.75624994 26.08085372 90.11328125 24.58984375 C90.98231079 23.58099121 90.98231079 23.58099121 91.86889648 22.55175781 C95.17161874 19.28823838 98.12973969 18.49697745 102.71484375 18.37109375 C109.18553191 18.50408983 113.5887925 20.80430798 119.0546875 24.07421875 C120.45726807 24.87980225 120.45726807 24.87980225 121.88818359 25.70166016 C123.83366852 26.82499865 125.77279828 27.95941213 127.70556641 29.10449219 C130.56902271 30.79577059 133.45432907 32.44249577 136.34765625 34.08203125 C138.14703556 35.11901043 139.94526166 36.15799388 141.7421875 37.19921875 C142.9940686 37.91126465 142.9940686 37.91126465 144.27124023 38.63769531 C150.15634339 42.13176548 153.70250026 45.29319638 155.484375 52.171875 C155.64269751 56.52574408 154.87710666 60.08656912 153.7421875 64.26171875 C152.99522885 67.10788879 152.28793417 69.95914388 151.6171875 72.82421875 C151.43720215 73.50468262 151.2572168 74.18514648 151.07177734 74.88623047 C150.47743262 77.7222214 150.26884182 80.06002687 151.48779297 82.73413086 C152.85020669 84.71267627 154.30197688 86.36752773 155.9921875 88.07421875 C156.85239502 88.95037842 156.85239502 88.95037842 157.72998047 89.84423828 C160.32733004 92.14250329 162.34183026 93.70802448 165.85742188 94.02832031 C171.06676747 93.51444329 175.78740121 91.76674818 180.6171875 89.82421875 C183.43546928 88.88479149 185.42940419 88.59839248 188.3671875 88.51171875 C189.18703125 88.47433594 190.006875 88.43695313 190.8515625 88.3984375 C195.80125941 89.16046711 199.19613477 90.97064341 202.21582031 94.90942383 C203.86120358 97.52364502 205.37758645 100.18073377 206.8671875 102.88671875 C207.41858398 103.85520752 207.96998047 104.82369629 208.53808594 105.8215332 C209.67795599 107.82479766 210.81106182 109.83192555 211.9375 111.84277344 C213.55309992 114.71046329 215.20147525 117.55571067 216.8671875 120.39453125 C217.3734668 121.25812256 217.87974609 122.12171387 218.40136719 123.01147461 C218.88508789 123.83655518 219.36880859 124.66163574 219.8671875 125.51171875 C220.77159963 127.05532181 221.67292835 128.60073811 222.5703125 130.1484375 C223.12960449 131.10882935 223.12960449 131.10882935 223.70019531 132.08862305 C225.80995836 136.08178213 225.98203058 139.37313312 225.6171875 143.82421875 C223.66794689 149.7308462 220.45943588 153.05394254 215.67016602 156.84570312 C211.40296509 160.33234854 207.31976441 163.81117748 206.02832031 169.34960938 C205.72908832 175.83695908 207.19174309 181.94839207 211.6171875 186.82421875 C217.33448922 190.15994319 223.61654476 191.37735787 230.0546875 192.60546875 C234.55757525 193.48135684 237.54207165 194.20351783 240.6171875 197.82421875 C243.91374451 203.90252936 244.05642993 209.18289751 244.015625 216.015625 C244.01849518 217.07909653 244.02136536 218.14256805 244.02432251 219.23826599 C244.026357 221.47810399 244.02087037 223.71796001 244.00830078 225.95776367 C243.99222307 229.37914837 244.00817928 232.79935466 244.02734375 236.22070312 C244.02536152 238.40234635 244.02151827 240.58398884 244.015625 242.765625 C244.02169769 243.78451309 244.02777039 244.80340118 244.0340271 245.85316467 C243.96511475 252.83419124 242.99703453 257.24262645 238.12890625 262.5234375 C233.13579804 266.39051266 226.45757812 267.0397526 220.40820312 268.23242188 C215.25557158 269.26606733 215.25557158 269.26606733 211.3671875 272.47875977 C210.54955705 274.58546847 210.06223859 276.60951976 209.6171875 278.82421875 C209.17413152 280.36414652 208.72345287 281.90189922 208.265625 283.4375 C207.83739616 285.00288531 207.41293461 286.56930592 206.9921875 288.13671875 C206.56312931 289.7163169 206.133467 291.29575112 205.703125 292.875 C205.5179834 293.56247314 205.3328418 294.24994629 205.14208984 294.95825195 C204.68180406 296.59451439 204.15470194 298.21167542 203.6171875 299.82421875 C204.54402344 300.70464844 205.47085937 301.58507812 206.42578125 302.4921875 C207.6359414 303.6648233 208.84554805 304.83803051 210.0546875 306.01171875 C210.97217773 306.87893555 210.97217773 306.87893555 211.90820312 307.76367188 C217.41465837 313.1484375 217.41465837 313.1484375 217.6171875 317.82421875 C218.9475 317.91703125 218.9475 317.91703125 220.3046875 318.01171875 C235.0588247 320.17882542 249.70308763 329.00489742 260.6171875 338.82421875 C261.09542969 339.25331543 261.57367188 339.68241211 262.06640625 340.12451172 C278.50809926 355.09215835 291.52823672 377.1191594 292.77832031 399.73999023 C293.15019715 428.12586824 293.15019715 428.12586824 289.6171875 438.82421875 C289.26527344 439.89929688 288.91335938 440.974375 288.55078125 442.08203125 C284.20364052 454.21959251 278.25333783 465.22520431 269.6171875 474.82421875 C269.18809082 475.30246094 268.75899414 475.78070313 268.31689453 476.2734375 C252.92160298 493.18489084 230.89722263 505.58209444 207.72729492 507.0012207 C176.93830693 507.62915895 152.10214528 501.2566812 129.10180664 479.6940918 C117.08607751 468.08413291 107.44598201 452.18056022 103.6171875 435.82421875 C103.6171875 434.50421875 103.6171875 433.18421875 103.6171875 431.82421875 C102.75867188 431.62054688 101.90015625 431.416875 101.015625 431.20703125 C96.73532565 429.4653922 94.36321109 427.02060435 91.2421875 423.69921875 C90.69691406 423.13589844 90.15164063 422.57257813 89.58984375 421.9921875 C88.25628 420.61183204 86.93541071 419.21923166 85.6171875 417.82421875 C81.67105111 418.74955393 77.74115407 419.72509506 73.8190918 420.74780273 C72.48498628 421.08816052 71.14732003 421.41487694 69.80639648 421.72729492 C62.08371009 423.23307772 62.08371009 423.23307772 56.14013672 427.82983398 C55.34344603 430.1791863 54.93816959 432.36708942 54.6171875 434.82421875 C54.25794352 436.21910954 53.87836993 437.60895674 53.4765625 438.9921875 C53.29657715 439.65532959 53.1165918 440.31847168 52.93115234 441.00170898 C50.92999508 448.13397207 49.15492878 452.82893241 42.6171875 456.82421875 C39.74904003 457.78026791 37.88757588 457.96626011 34.90551758 458.0012207 C33.95054886 458.01405594 32.99558014 458.02689117 32.01167297 458.04011536 C30.46482063 458.05119576 30.46482063 458.05119576 28.88671875 458.0625 C27.82233078 458.07057175 26.75794281 458.07864349 25.66130066 458.08695984 C23.40597155 458.10079697 21.15062152 458.11152078 18.89526367 458.11938477 C15.46036589 458.1365653 12.02643869 458.18045216 8.59179688 458.22460938 C6.39844456 458.23473943 4.20508408 458.24325455 2.01171875 458.25 C0.99060501 458.26750809 -0.03050873 458.28501617 -1.08256531 458.30305481 C-7.35094175 458.28416329 -12.17962546 457.48756311 -17.3828125 453.82421875 C-21.85034008 448.88562534 -23.03759121 442.75685394 -24.6328125 436.44921875 C-25.035 434.91587891 -25.035 434.91587891 -25.4453125 433.3515625 C-26.10126504 430.84488672 -26.74674127 428.33599901 -27.3828125 425.82421875 C-33.6487053 423.00069915 -40.40697867 420.16576284 -47.3828125 420.82421875 C-52.66607893 423.64768215 -56.19354032 428.26647464 -59.90234375 432.85546875 C-63.82700781 437.69553851 -67.40958285 439.29953117 -73.5703125 440.38671875 C-83.52821192 438.91752047 -93.04815824 431.85205974 -101.6328125 426.82421875 C-102.65632813 426.23382813 -103.67984375 425.6434375 -104.734375 425.03515625 C-122.12241839 414.888406 -122.12241839 414.888406 -125.3828125 407.82421875 C-126.93627994 400.36757503 -124.26744246 393.10761472 -121.98657227 386.06933594 C-121.75381592 385.32071289 -121.52105957 384.57208984 -121.28125 383.80078125 C-121.06130371 383.13127441 -120.84135742 382.46176758 -120.61474609 381.77197266 C-120.3064862 379.18323851 -121.02151988 378.01376272 -122.3828125 375.82421875 C-128.02263065 368.55258846 -128.02263065 368.55258846 -135.7578125 364.2265625 C-138.1488555 364.46993652 -140.12368989 365.00523735 -142.3828125 365.82421875 C-150.50730484 368.54148594 -159.8240901 371.33173002 -168.05859375 367.6171875 C-170.74768756 365.5427437 -172.04001265 363.69326919 -173.7578125 360.76171875 C-174.428125 359.62734375 -175.0984375 358.49296875 -175.7890625 357.32421875 C-176.65416497 355.82451809 -177.51866714 354.32447111 -178.3828125 352.82421875 C-179.64292411 350.65737465 -180.9033695 348.49072464 -182.1640625 346.32421875 C-184.84728842 341.70294597 -187.52297173 337.0773928 -190.1875 332.4453125 C-190.75452637 331.45974365 -191.32155273 330.4741748 -191.90576172 329.45874023 C-194.29739759 325.19293152 -195.68840186 322.40513872 -195.7578125 317.44921875 C-195.78617188 316.53398437 -195.81453125 315.61875 -195.84375 314.67578125 C-194.83696503 308.44736575 -190.45237411 304.84897845 -185.94897461 300.87792969 C-179.92078697 295.75966689 -179.92078697 295.75966689 -176.80859375 288.8203125 C-177.352305 285.9025338 -178.22561648 283.56008154 -179.3828125 280.82421875 C-179.51727783 280.02024658 -179.65174316 279.21627441 -179.7902832 278.38793945 C-180.33922372 275.52287116 -180.91990951 273.35581781 -182.3828125 270.82421875 C-185.96502213 268.81952036 -189.6776192 268.20322796 -193.6953125 267.51171875 C-206.55186746 265.03344334 -206.55186746 265.03344334 -211.3828125 259.82421875 C-213.32535418 256.67229983 -213.6547539 254.21767901 -213.72094727 250.54003906 C-213.74339005 249.48504211 -213.76583282 248.43004517 -213.78895569 247.34307861 C-213.8005925 246.20763611 -213.81222931 245.0721936 -213.82421875 243.90234375 C-213.83799057 242.7283905 -213.85176239 241.55443726 -213.86595154 240.34490967 C-213.88922395 237.86019603 -213.90648913 235.37541996 -213.91821289 232.890625 C-213.94511738 229.10169671 -214.02002738 225.31556812 -214.09570312 221.52734375 C-214.11236268 219.11069583 -214.12612833 216.69402588 -214.13671875 214.27734375 C-214.16657364 213.14999817 -214.19642853 212.02265259 -214.22718811 210.86114502 C-214.19597261 205.23811223 -213.81380014 201.59361048 -210.15673828 197.17675781 C-207.4019535 194.48912238 -205.03052006 192.69997396 -201.24609375 191.73046875 C-200.33923828 191.48554688 -199.43238281 191.240625 -198.49804688 190.98828125 C-197.11069336 190.65957031 -197.11069336 190.65957031 -195.6953125 190.32421875 C-194.75880859 190.07414063 -193.82230469 189.8240625 -192.85742188 189.56640625 C-188.85461669 188.52641975 -185.54921058 187.82421875 -181.3828125 187.82421875 C-181.2796875 186.91671875 -181.1765625 186.00921875 -181.0703125 185.07421875 C-180.43998126 180.47374152 -179.15580378 176.05889861 -177.90625 171.59375 C-177.37015926 168.75726991 -177.24335147 167.44497913 -178.3828125 164.82421875 C-180.0499538 162.75667609 -180.0499538 162.75667609 -182.1328125 160.82421875 C-182.8546875 160.12425781 -183.5765625 159.42429688 -184.3203125 158.703125 C-186.43433475 156.71739603 -186.43433475 156.71739603 -189.1328125 154.76171875 C-192.88109786 151.53402858 -194.97425933 148.30580098 -195.77172852 143.46191406 C-196.13901474 135.08685233 -193.27792665 129.68166795 -189.0078125 122.63671875 C-188.05467163 121.00730347 -188.05467163 121.00730347 -187.08227539 119.3449707 C-185.20657283 116.15625271 -183.29827567 112.98916431 -181.3828125 109.82421875 C-180.38860285 108.14495736 -179.3950393 106.46531315 -178.40234375 104.78515625 C-177.54452316 103.35895508 -176.68407168 101.93433114 -175.8203125 100.51171875 C-175.4402002 99.87919189 -175.06008789 99.24666504 -174.66845703 98.5949707 C-171.71349493 93.87842176 -168.72347733 90.60444036 -163.3828125 88.82421875 C-155.94547264 88.09390821 -149.68808587 89.94664007 -142.69335938 92.22265625 C-141.93474609 92.4546875 -141.17613281 92.68671875 -140.39453125 92.92578125 C-139.71865967 93.14572754 -139.04278809 93.36567383 -138.34643555 93.59228516 C-134.58712065 94.03631713 -132.18111524 91.67993532 -129.2265625 89.56640625 C-125.77087062 86.72048282 -122.3873 83.89646007 -120.3828125 79.82421875 C-119.90903281 74.21052666 -122.32919536 68.93237567 -124.3828125 63.82421875 C-126.00936792 58.41520012 -126.07358524 53.02605685 -124.3828125 47.63671875 C-118.72618979 39.68209306 -108.66940981 35.3880666 -100.3203125 30.69921875 C-99.06676825 29.99009404 -97.81351108 29.28046159 -96.56054688 28.5703125 C-94.18864275 27.22605937 -91.8132095 25.88892556 -89.43505859 24.55566406 C-87.04417179 23.19938753 -84.6989961 21.79788534 -82.35546875 20.36328125 C-79.25386746 18.75745877 -77.34721135 18.28346112 -73.8828125 18.32421875 C-73.00625 18.31390625 -72.1296875 18.30359375 -71.2265625 18.29296875 C-62.84412768 19.85891811 -58.34329263 25.83848248 -53.27734375 32.13085938 C-51.72486328 33.92955648 -50.32545945 35.45423158 -48.3828125 36.82421875 C-44.80046804 37.00964159 -44.80046804 37.00964159 -41.3828125 35.82421875 C-40.40957031 35.57542969 -39.43632812 35.32664063 -38.43359375 35.0703125 C-36.60017968 34.52891919 -34.76684699 33.98725016 -32.93359375 33.4453125 C-30.3828125 32.82421875 -30.3828125 32.82421875 -26.3828125 32.82421875 C-26.26035156 31.68082031 -26.13789063 30.53742187 -26.01171875 29.359375 C-25.44567788 24.88715995 -24.50420884 20.6079163 -23.3203125 16.26171875 C-23.06991211 15.18760742 -23.06991211 15.18760742 -22.81445312 14.09179688 C-19.58324616 2.37200661 -11.198988 -0.23556114 0 0 Z " fill="#FDE985" transform="translate(216.3828125,2.17578125)"/>
<path d="M0 0 C1.66847291 1.41115972 3.31299166 2.85094389 4.9375 4.3125 C5.41574219 4.74159668 5.89398438 5.17069336 6.38671875 5.61279297 C22.82841176 20.5804396 35.84854922 42.60744065 37.09863281 65.22827148 C37.47050965 93.61414949 37.47050965 93.61414949 33.9375 104.3125 C33.58558594 105.38757813 33.23367188 106.46265625 32.87109375 107.5703125 C28.52395302 119.70787376 22.57365033 130.71348556 13.9375 140.3125 C13.50840332 140.79074219 13.07930664 141.26898438 12.63720703 141.76171875 C-2.75808452 158.67317209 -24.78246487 171.07037569 -47.95239258 172.48950195 C-78.74138057 173.1174402 -103.57754222 166.74496245 -126.57788086 145.18237305 C-144.53266283 127.83392268 -153.77424774 104.42906846 -154.40136719 79.69555664 C-154.71993207 52.07296777 -145.00237419 28.58343416 -126.0625 8.3125 C-91.65301246 -23.70674817 -38.24133868 -29.44460902 0 0 Z " fill="#83C8FD" transform="translate(472.0625,336.6875)"/>
<path d="M0 0 C1.1730368 0.00041794 2.34607361 0.00083588 3.55465698 0.00126648 C6.02401837 0.00961801 8.49337431 0.03499153 10.96240234 0.07641602 C14.73763213 0.13664607 18.50951396 0.13798323 22.28515625 0.13085938 C24.69012893 0.14626496 27.09508294 0.16503061 29.5 0.1875 C31.1876799 0.18947136 31.1876799 0.18947136 32.90945435 0.19148254 C39.08406419 0.32196858 42.96482138 0.60989079 47.6171875 4.82421875 C51.31098014 10.08328877 52.85286267 15.44132064 54.3671875 21.63671875 C54.58761719 22.49458984 54.80804688 23.35246094 55.03515625 24.23632812 C56.6171875 30.48092974 56.6171875 30.48092974 56.6171875 32.82421875 C58.05440507 33.11727396 59.49198577 33.4085481 60.9296875 33.69921875 C61.73019531 33.86164062 62.53070313 34.0240625 63.35546875 34.19140625 C64.43183594 34.40023437 65.50820313 34.6090625 66.6171875 34.82421875 C67.44661865 35.08460937 68.2760498 35.345 69.13061523 35.61328125 C74.66396091 37.18084979 74.66396091 37.18084979 79.93823242 35.51708984 C82.16271158 33.48773142 84.10881428 31.37161694 86.0546875 29.07421875 C87.40352616 27.57579325 88.75624994 26.08085372 90.11328125 24.58984375 C90.98231079 23.58099121 90.98231079 23.58099121 91.86889648 22.55175781 C95.17161874 19.28823838 98.12973969 18.49697745 102.71484375 18.37109375 C109.18553191 18.50408983 113.5887925 20.80430798 119.0546875 24.07421875 C120.45726807 24.87980225 120.45726807 24.87980225 121.88818359 25.70166016 C123.83366852 26.82499865 125.77279828 27.95941213 127.70556641 29.10449219 C130.56902271 30.79577059 133.45432907 32.44249577 136.34765625 34.08203125 C138.14703556 35.11901043 139.94526166 36.15799388 141.7421875 37.19921875 C142.9940686 37.91126465 142.9940686 37.91126465 144.27124023 38.63769531 C150.15634339 42.13176548 153.70250026 45.29319638 155.484375 52.171875 C155.64269751 56.52574408 154.87710666 60.08656912 153.7421875 64.26171875 C152.99522885 67.10788879 152.28793417 69.95914388 151.6171875 72.82421875 C151.43720215 73.50468262 151.2572168 74.18514648 151.07177734 74.88623047 C150.47743262 77.7222214 150.26884182 80.06002687 151.48779297 82.73413086 C152.85020669 84.71267627 154.30197688 86.36752773 155.9921875 88.07421875 C156.85239502 88.95037842 156.85239502 88.95037842 157.72998047 89.84423828 C160.32733004 92.14250329 162.34183026 93.70802448 165.85742188 94.02832031 C171.06676747 93.51444329 175.78740121 91.76674818 180.6171875 89.82421875 C183.43546928 88.88479149 185.42940419 88.59839248 188.3671875 88.51171875 C189.18703125 88.47433594 190.006875 88.43695313 190.8515625 88.3984375 C195.80125941 89.16046711 199.19613477 90.97064341 202.21582031 94.90942383 C203.86120358 97.52364502 205.37758645 100.18073377 206.8671875 102.88671875 C207.41858398 103.85520752 207.96998047 104.82369629 208.53808594 105.8215332 C209.67795599 107.82479766 210.81106182 109.83192555 211.9375 111.84277344 C213.55309992 114.71046329 215.20147525 117.55571067 216.8671875 120.39453125 C217.3734668 121.25812256 217.87974609 122.12171387 218.40136719 123.01147461 C218.88508789 123.83655518 219.36880859 124.66163574 219.8671875 125.51171875 C220.77159963 127.05532181 221.67292835 128.60073811 222.5703125 130.1484375 C223.12960449 131.10882935 223.12960449 131.10882935 223.70019531 132.08862305 C225.80995836 136.08178213 225.98203058 139.37313312 225.6171875 143.82421875 C223.66794689 149.7308462 220.45943588 153.05394254 215.67016602 156.84570312 C211.40296509 160.33234854 207.31976441 163.81117748 206.02832031 169.34960938 C205.72908832 175.83695908 207.19174309 181.94839207 211.6171875 186.82421875 C217.33448922 190.15994319 223.61654476 191.37735787 230.0546875 192.60546875 C234.55757525 193.48135684 237.54207165 194.20351783 240.6171875 197.82421875 C243.91374451 203.90252936 244.05642993 209.18289751 244.015625 216.015625 C244.01849518 217.07909653 244.02136536 218.14256805 244.02432251 219.23826599 C244.026357 221.47810399 244.02087037 223.71796001 244.00830078 225.95776367 C243.99222307 229.37914837 244.00817928 232.79935466 244.02734375 236.22070312 C244.02536152 238.40234635 244.02151827 240.58398884 244.015625 242.765625 C244.02169769 243.78451309 244.02777039 244.80340118 244.0340271 245.85316467 C243.96511475 252.83419124 242.99703453 257.24262645 238.12890625 262.5234375 C233.13579804 266.39051266 226.45757812 267.0397526 220.40820312 268.23242188 C215.25391348 269.26844541 215.25391348 269.26844541 211.3605957 272.48095703 C210.53743038 274.5895811 210.05131122 276.60346257 209.6171875 278.82421875 C209.20711361 280.35169062 208.79165047 281.8777248 208.37109375 283.40234375 C207.76561993 285.75323883 207.17205446 288.10567612 206.59960938 290.46484375 C205.43435184 294.92977879 204.48319183 297.96513951 200.6171875 300.82421875 C197.1796875 301.88671875 197.1796875 301.88671875 193.6171875 301.82421875 C190.6796875 299.88671875 190.6796875 299.88671875 188.6171875 296.82421875 C188.17602835 290.89377927 189.10242143 286.18454225 190.9296875 280.57421875 C191.39561363 279.08668226 191.85914376 277.59839325 192.3203125 276.109375 C192.54525391 275.38508301 192.77019531 274.66079102 193.00195312 273.91455078 C194.13189773 270.07542946 194.94464034 266.1610183 195.74609375 262.2421875 C196.83521399 259.21902414 198.19201213 257.92062777 200.6171875 255.82421875 C203.02734375 254.81933594 203.02734375 254.81933594 205.6796875 254.12109375 C206.64132812 253.86328125 207.60296875 253.60546875 208.59375 253.33984375 C209.59148437 253.0871875 210.58921875 252.83453125 211.6171875 252.57421875 C212.61492187 252.30609375 213.61265625 252.03796875 214.640625 251.76171875 C218.81031513 250.66619695 222.27728046 249.82421875 226.6171875 249.82421875 C226.6171875 235.96421875 226.6171875 222.10421875 226.6171875 207.82421875 C223.6471875 207.49421875 220.6771875 207.16421875 217.6171875 206.82421875 C214.62562033 206.21964208 211.73069538 205.37663932 208.8046875 204.51171875 C208.06798828 204.31126953 207.33128906 204.11082031 206.57226562 203.90429688 C205.85876953 203.69611328 205.14527344 203.48792969 204.41015625 203.2734375 C203.7761792 203.09127686 203.14220215 202.90911621 202.48901367 202.72143555 C198.92922971 201.01513503 197.008903 198.79178345 195.53637695 195.15454102 C195.27042725 194.15994873 195.00447754 193.16535645 194.73046875 192.140625 C194.43205078 191.04814453 194.13363281 189.95566406 193.82617188 188.83007812 C193.53033203 187.69376953 193.23449219 186.55746094 192.9296875 185.38671875 C192.62224609 184.25427734 192.31480469 183.12183594 191.99804688 181.95507812 C187.84371319 166.52859178 187.84371319 166.52859178 188.6171875 160.82421875 C190.56297627 157.77947952 193.06132097 155.36257935 195.6171875 152.82421875 C196.56655026 151.84123833 197.51437993 150.8567757 198.4609375 149.87109375 C199.44914594 148.85413093 200.43872591 147.838499 201.4296875 146.82421875 C202.14958862 146.08413574 202.14958862 146.08413574 202.8840332 145.32910156 C204.09001042 144.12120094 205.34984055 142.96756326 206.6171875 141.82421875 C207.2771875 141.82421875 207.9371875 141.82421875 208.6171875 141.82421875 C204.32188982 133.83002656 199.83397032 125.96383916 195.2421875 118.13671875 C194.60152344 117.04166016 193.96085937 115.94660156 193.30078125 114.81835938 C191.74102121 112.1527993 190.17980407 109.4881049 188.6171875 106.82421875 C182.79550854 107.54341186 177.30774765 108.86973584 171.66601562 110.45117188 C171.00150391 110.62712891 170.33699219 110.80308594 169.65234375 110.984375 C169.068479 111.14558838 168.48461426 111.30680176 167.88305664 111.47290039 C159.05095686 112.84229933 159.05095686 112.84229933 154.42993164 109.56103516 C153.399918 108.53646193 152.39139999 107.48994578 151.40234375 106.42578125 C150.86113388 105.87562347 150.31992401 105.3254657 149.76231384 104.75863647 C148.04841299 103.00678267 146.36466412 101.22886239 144.6796875 99.44921875 C143.52199654 98.25994998 142.36250711 97.0724291 141.20117188 95.88671875 C131.72533411 86.14901475 131.72533411 86.14901475 131.3671875 81.76171875 C131.6169893 77.82734038 132.42635448 74.9625591 133.75390625 71.30078125 C135.02453379 67.65563256 135.9805196 63.93680406 136.96875 60.20703125 C137.46149089 58.3963569 138.02377911 56.60444392 138.6171875 54.82421875 C137.97136719 54.5921875 137.32554687 54.36015625 136.66015625 54.12109375 C132.58519628 52.38439707 128.78939404 50.24082577 124.9296875 48.07421875 C124.12893799 47.62973389 123.32818848 47.18524902 122.50317383 46.72729492 C117.4299656 43.89639436 112.47634243 40.94215405 107.66015625 37.6875 C104.89013364 36.51699331 103.47643817 36.97229849 100.6171875 37.82421875 C98.66585077 39.35009287 98.66585077 39.35009287 96.98828125 41.3515625 C96.34568359 42.06119141 95.70308594 42.77082031 95.04101562 43.50195312 C94.38552734 44.24767578 93.73003906 44.99339844 93.0546875 45.76171875 C91.74620971 47.23391615 90.43258455 48.70155844 89.11328125 50.1640625 C88.53763428 50.81753662 87.9619873 51.47101074 87.36889648 52.14428711 C85.51987317 53.91754557 84.00509523 54.91044095 81.6171875 55.82421875 C72.50658845 55.15565489 63.41408058 52.18693781 54.6171875 49.82421875 C52.81314453 49.34275391 52.81314453 49.34275391 50.97265625 48.8515625 C50.00972656 48.55378906 49.04679687 48.25601563 48.0546875 47.94921875 C47.24902344 47.70429687 46.44335938 47.459375 45.61328125 47.20703125 C40.43034725 43.61650554 39.41212414 34.86960548 37.9296875 29.07421875 C37.70474609 28.22472656 37.47980469 27.37523438 37.24804688 26.5 C35.6171875 20.22441347 35.6171875 20.22441347 35.6171875 16.82421875 C22.0871875 16.82421875 8.5571875 16.82421875 -5.3828125 16.82421875 C-8.49186536 29.18686177 -8.49186536 29.18686177 -11.37890625 41.58984375 C-12.86273121 44.89236468 -14.2471134 45.93346222 -17.3828125 47.82421875 C-21.30681926 49.11463127 -25.29378726 50.03727954 -29.3203125 50.94921875 C-31.45489935 51.44981338 -33.58902973 51.95235922 -35.72265625 52.45703125 C-36.72022949 52.6880957 -37.71780273 52.91916016 -38.74560547 53.15722656 C-41.5304604 53.80991575 -41.5304604 53.80991575 -44.69921875 55.06640625 C-48.6028396 56.16873878 -50.4693504 56.10150096 -54.3828125 54.82421875 C-58.00124055 51.92448329 -61.14103463 48.62957736 -64.3203125 45.26171875 C-65.63225586 43.90916992 -65.63225586 43.90916992 -66.97070312 42.52929688 C-69.12225137 40.30720607 -71.25853969 38.07234661 -73.3828125 35.82421875 C-84.90711844 41.83615115 -96.16982613 48.2516529 -107.3828125 54.82421875 C-106.92498865 60.27224615 -106.14771486 65.13675399 -104.3203125 70.32421875 C-100.92601021 81.22904811 -100.92601021 81.22904811 -102.3828125 85.82421875 C-104.52632785 89.02578644 -107.08349341 91.66172375 -109.84960938 94.33349609 C-111.59278317 96.02837176 -113.29254964 97.7614903 -114.9921875 99.5 C-117.43249831 101.9829957 -119.87630899 104.4619032 -122.34375 106.91796875 C-122.85728027 107.43037109 -123.37081055 107.94277344 -123.89990234 108.47070312 C-127.66645187 111.90859423 -130.05776653 112.16058469 -134.89990234 112.05078125 C-138.99401117 111.67719885 -142.78308373 110.54370034 -146.6953125 109.32421875 C-148.25249295 108.85079495 -149.81105077 108.38187278 -151.37109375 107.91796875 C-152.04696533 107.70849609 -152.72283691 107.49902344 -153.41918945 107.28320312 C-155.69588898 106.67247975 -155.69588898 106.67247975 -159.3828125 106.82421875 C-161.2852797 110.21969322 -163.18753197 113.61528802 -165.08959961 117.01098633 C-166.04855618 118.72288018 -167.00767465 120.43468333 -167.96679688 122.14648438 C-171.45043996 128.36597281 -174.92699305 134.58922265 -178.3828125 140.82421875 C-177.81248291 141.36312744 -177.24215332 141.90203613 -176.65454102 142.45727539 C-174.06901235 144.91776165 -171.50725332 147.4016911 -168.9453125 149.88671875 C-167.59856445 151.15805664 -167.59856445 151.15805664 -166.22460938 152.45507812 C-159.81392971 158.72061033 -159.81392971 158.72061033 -158.078125 163.1640625 C-158.54502175 168.7728094 -160.07074064 173.95087662 -161.6953125 179.32421875 C-162.01693359 180.42636719 -162.33855469 181.52851563 -162.66992188 182.6640625 C-163.29122799 184.78951628 -163.92248102 186.91209457 -164.56494141 189.03125 C-165.22942792 191.30042185 -165.77718473 193.55238067 -166.30078125 195.85546875 C-167.67426574 199.62387384 -168.92979278 200.80180234 -172.3828125 202.82421875 C-175.11306527 203.76686544 -177.86683664 204.37705565 -180.6953125 204.94921875 C-182.14985604 205.26378491 -183.60428372 205.57888728 -185.05859375 205.89453125 C-186.0163269 206.09199951 -186.0163269 206.09199951 -186.9934082 206.29345703 C-190.47299551 207.06638263 -193.92483732 207.95972496 -197.3828125 208.82421875 C-197.3828125 222.35421875 -197.3828125 235.88421875 -197.3828125 249.82421875 C-193.4228125 250.48421875 -189.4628125 251.14421875 -185.3828125 251.82421875 C-182.86985846 252.39490869 -180.36590444 253.01010379 -177.8828125 253.69921875 C-176.16578125 254.15941406 -176.16578125 254.15941406 -174.4140625 254.62890625 C-171.09927956 255.93602427 -169.55199148 257.01762727 -167.3828125 259.82421875 C-166.29296875 262.42578125 -166.29296875 262.42578125 -165.4453125 265.44921875 C-164.96191406 267.15851563 -164.96191406 267.15851563 -164.46875 268.90234375 C-164.29827148 269.52560547 -164.12779297 270.14886719 -163.95214844 270.79101562 C-163.32911817 273.01597107 -162.65903956 275.22376979 -161.984375 277.43359375 C-161.51216802 279.02188212 -161.04080677 280.61042219 -160.5703125 282.19921875 C-160.33900635 282.94768066 -160.1077002 283.69614258 -159.86938477 284.46728516 C-158.49335859 289.24851035 -158.12200863 292.8835567 -159.3828125 297.82421875 C-160.625 299.90625 -160.625 299.90625 -162.2578125 301.63671875 C-163.18207031 302.63251953 -163.18207031 302.63251953 -164.125 303.6484375 C-165.8071852 305.26950525 -167.55289103 306.825148 -169.328125 308.34375 C-169.83230957 308.77647217 -170.33649414 309.20919434 -170.85595703 309.6550293 C-172.32661928 310.90158839 -173.82307671 312.11751818 -175.3203125 313.33203125 C-177.71576954 315.64668898 -177.71576954 315.64668898 -177.20263672 318.6262207 C-176.33246809 322.02060394 -175.12059835 324.48022254 -173.328125 327.484375 C-172.71324219 328.52529297 -172.09835938 329.56621094 -171.46484375 330.63867188 C-170.81902344 331.71052734 -170.17320312 332.78238281 -169.5078125 333.88671875 C-168.86972656 334.96244141 -168.23164063 336.03816406 -167.57421875 337.14648438 C-165.30584804 340.9657766 -163.03685747 344.78217942 -160.67529297 348.54467773 C-159.3828125 350.82421875 -159.3828125 350.82421875 -159.3828125 352.82421875 C-158.2278125 352.41171875 -157.0728125 351.99921875 -155.8828125 351.57421875 C-151.38017302 350.08763302 -146.84001601 348.78865104 -142.2578125 347.57421875 C-141.58943359 347.38698242 -140.92105469 347.19974609 -140.23242188 347.00683594 C-135.55742089 345.80238987 -132.06757353 345.70240043 -127.3828125 346.82421875 C-125.06755089 348.53390818 -123.2265466 350.09034989 -121.23046875 352.109375 C-120.68547226 352.64388779 -120.14047577 353.17840057 -119.57896423 353.72911072 C-118.43631379 354.85896773 -117.30127678 355.99657104 -116.17358398 357.14135742 C-114.44962078 358.88236787 -112.69160969 360.58275357 -110.92773438 362.28320312 C-109.81805036 363.38966298 -108.71055037 364.49831846 -107.60546875 365.609375 C-106.8181411 366.36300072 -106.8181411 366.36300072 -106.01490784 367.1318512 C-103.26872674 369.98583913 -102.05797649 372.06347531 -102.00390625 375.96044922 C-102.53390472 381.36493106 -102.53390472 381.36493106 -103.22265625 383.859375 C-103.39861328 384.52388672 -103.57457031 385.18839844 -103.75585938 385.87304688 C-103.94212891 386.53755859 -104.12839844 387.20207031 -104.3203125 387.88671875 C-105.67899525 392.86535482 -106.74945946 397.69739258 -107.3828125 402.82421875 C-103.59426197 405.05871255 -99.80141413 407.28581298 -96.0078125 409.51171875 C-94.94691406 410.13755859 -93.88601562 410.76339844 -92.79296875 411.40820312 C-86.43410782 415.13379342 -80.02805131 418.63558344 -73.3828125 421.82421875 C-72.8480127 421.28418213 -72.31321289 420.74414551 -71.76220703 420.18774414 C-69.34667544 417.75147499 -66.92730133 415.31905768 -64.5078125 412.88671875 C-63.66605469 412.03658203 -62.82429687 411.18644531 -61.95703125 410.31054688 C-60.74853516 409.0972168 -60.74853516 409.0972168 -59.515625 407.859375 C-58.77199707 407.11051025 -58.02836914 406.36164551 -57.26220703 405.59008789 C-54.77461879 403.25276316 -53.81342898 402.85318648 -50.36328125 402.62109375 C-45.58925478 402.86471434 -41.30380109 403.86152777 -36.6953125 405.07421875 C-35.37672241 405.41646484 -35.37672241 405.41646484 -34.03149414 405.765625 C-31.47789619 406.43776033 -28.92973206 407.12725416 -26.3828125 407.82421875 C-25.70766602 408.00533203 -25.03251953 408.18644531 -24.33691406 408.37304688 C-15.00760055 410.92422644 -15.00760055 410.92422644 -12.84472656 414.03979492 C-11.34508241 416.8960811 -10.53075259 419.4316677 -9.77734375 422.5625 C-9.42313354 424.00556519 -9.42313354 424.00556519 -9.06176758 425.4777832 C-8.7758374 426.68523193 -8.48990723 427.89268066 -8.1953125 429.13671875 C-6.803125 434.92203125 -6.803125 434.92203125 -5.3828125 440.82421875 C14.9121875 441.31921875 14.9121875 441.31921875 35.6171875 441.82421875 C35.9471875 439.51421875 36.2771875 437.20421875 36.6171875 434.82421875 C37.29511055 431.40534064 38.11079112 428.02431137 38.9296875 424.63671875 C39.13013672 423.74791016 39.33058594 422.85910156 39.53710938 421.94335938 C39.74529297 421.08548828 39.95347656 420.22761719 40.16796875 419.34375 C40.44120972 418.18516479 40.44120972 418.18516479 40.7199707 417.00317383 C41.89477012 414.15008952 43.20465426 412.75065793 45.6171875 410.82421875 C48.51806641 409.7434082 48.51806641 409.7434082 51.84375 408.9375 C53.04 408.63908203 54.23625 408.34066406 55.46875 408.03320312 C56.71398437 407.73736328 57.95921875 407.44152344 59.2421875 407.13671875 C61.71393002 406.53022637 64.18530443 405.92223117 66.65625 405.3125 C68.29907959 404.91865112 68.29907959 404.91865112 69.97509766 404.5168457 C72.57051577 403.9332983 72.57051577 403.9332983 74.6171875 402.82421875 C81.59768165 402.13761277 81.59768165 402.13761277 85.6796875 404.88671875 C87.6171875 407.82421875 87.6171875 407.82421875 87.6796875 411.38671875 C86.51349718 415.15968743 85.62045871 416.35490505 82.6171875 418.82421875 C79.91577148 419.77807617 79.91577148 419.77807617 76.86328125 420.4296875 C75.21102539 420.82317383 75.21102539 420.82317383 73.52539062 421.22460938 C71.21200463 421.7492546 68.89413417 422.25450416 66.57226562 422.74023438 C60.62788948 423.97432828 60.62788948 423.97432828 56.25146484 427.78100586 C55.45243119 430.13332249 54.99742234 432.37116371 54.6171875 434.82421875 C54.25421446 436.21814382 53.87461744 437.60787222 53.4765625 438.9921875 C53.29657715 439.65532959 53.1165918 440.31847168 52.93115234 441.00170898 C50.92999508 448.13397207 49.15492878 452.82893241 42.6171875 456.82421875 C39.74904003 457.78026791 37.88757588 457.96626011 34.90551758 458.0012207 C33.95054886 458.01405594 32.99558014 458.02689117 32.01167297 458.04011536 C30.46482063 458.05119576 30.46482063 458.05119576 28.88671875 458.0625 C27.82233078 458.07057175 26.75794281 458.07864349 25.66130066 458.08695984 C23.40597155 458.10079697 21.15062152 458.11152078 18.89526367 458.11938477 C15.46036589 458.1365653 12.02643869 458.18045216 8.59179688 458.22460938 C6.39844456 458.23473943 4.20508408 458.24325455 2.01171875 458.25 C0.99060501 458.26750809 -0.03050873 458.28501617 -1.08256531 458.30305481 C-7.35094175 458.28416329 -12.17962546 457.48756311 -17.3828125 453.82421875 C-21.85034008 448.88562534 -23.03759121 442.75685394 -24.6328125 436.44921875 C-25.035 434.91587891 -25.035 434.91587891 -25.4453125 433.3515625 C-26.10126504 430.84488672 -26.74674127 428.33599901 -27.3828125 425.82421875 C-33.6487053 423.00069915 -40.40697867 420.16576284 -47.3828125 420.82421875 C-52.66607893 423.64768215 -56.19354032 428.26647464 -59.90234375 432.85546875 C-63.82700781 437.69553851 -67.40958285 439.29953117 -73.5703125 440.38671875 C-83.52821192 438.91752047 -93.04815824 431.85205974 -101.6328125 426.82421875 C-102.65632813 426.23382813 -103.67984375 425.6434375 -104.734375 425.03515625 C-122.12241839 414.888406 -122.12241839 414.888406 -125.3828125 407.82421875 C-126.93627994 400.36757503 -124.26744246 393.10761472 -121.98657227 386.06933594 C-121.75381592 385.32071289 -121.52105957 384.57208984 -121.28125 383.80078125 C-121.06130371 383.13127441 -120.84135742 382.46176758 -120.61474609 381.77197266 C-120.3064862 379.18323851 -121.02151988 378.01376272 -122.3828125 375.82421875 C-128.02263065 368.55258846 -128.02263065 368.55258846 -135.7578125 364.2265625 C-138.1488555 364.46993652 -140.12368989 365.00523735 -142.3828125 365.82421875 C-150.50730484 368.54148594 -159.8240901 371.33173002 -168.05859375 367.6171875 C-170.74768756 365.5427437 -172.04001265 363.69326919 -173.7578125 360.76171875 C-174.428125 359.62734375 -175.0984375 358.49296875 -175.7890625 357.32421875 C-176.65416497 355.82451809 -177.51866714 354.32447111 -178.3828125 352.82421875 C-179.64292411 350.65737465 -180.9033695 348.49072464 -182.1640625 346.32421875 C-184.84728842 341.70294597 -187.52297173 337.0773928 -190.1875 332.4453125 C-190.75452637 331.45974365 -191.32155273 330.4741748 -191.90576172 329.45874023 C-194.29739759 325.19293152 -195.68840186 322.40513872 -195.7578125 317.44921875 C-195.78617188 316.53398437 -195.81453125 315.61875 -195.84375 314.67578125 C-194.83696503 308.44736575 -190.45237411 304.84897845 -185.94897461 300.87792969 C-179.92078697 295.75966689 -179.92078697 295.75966689 -176.80859375 288.8203125 C-177.352305 285.9025338 -178.22561648 283.56008154 -179.3828125 280.82421875 C-179.51727783 280.02024658 -179.65174316 279.21627441 -179.7902832 278.38793945 C-180.33922372 275.52287116 -180.91990951 273.35581781 -182.3828125 270.82421875 C-185.96502213 268.81952036 -189.6776192 268.20322796 -193.6953125 267.51171875 C-206.55186746 265.03344334 -206.55186746 265.03344334 -211.3828125 259.82421875 C-213.32535418 256.67229983 -213.6547539 254.21767901 -213.72094727 250.54003906 C-213.74339005 249.48504211 -213.76583282 248.43004517 -213.78895569 247.34307861 C-213.8005925 246.20763611 -213.81222931 245.0721936 -213.82421875 243.90234375 C-213.83799057 242.7283905 -213.85176239 241.55443726 -213.86595154 240.34490967 C-213.88922395 237.86019603 -213.90648913 235.37541996 -213.91821289 232.890625 C-213.94511738 229.10169671 -214.02002738 225.31556812 -214.09570312 221.52734375 C-214.11236268 219.11069583 -214.12612833 216.69402588 -214.13671875 214.27734375 C-214.16657364 213.14999817 -214.19642853 212.02265259 -214.22718811 210.86114502 C-214.19597261 205.23811223 -213.81380014 201.59361048 -210.15673828 197.17675781 C-207.4019535 194.48912238 -205.03052006 192.69997396 -201.24609375 191.73046875 C-200.33923828 191.48554688 -199.43238281 191.240625 -198.49804688 190.98828125 C-197.11069336 190.65957031 -197.11069336 190.65957031 -195.6953125 190.32421875 C-194.75880859 190.07414063 -193.82230469 189.8240625 -192.85742188 189.56640625 C-188.85461669 188.52641975 -185.54921058 187.82421875 -181.3828125 187.82421875 C-181.2796875 186.91671875 -181.1765625 186.00921875 -181.0703125 185.07421875 C-180.43998126 180.47374152 -179.15580378 176.05889861 -177.90625 171.59375 C-177.37015926 168.75726991 -177.24335147 167.44497913 -178.3828125 164.82421875 C-180.0499538 162.75667609 -180.0499538 162.75667609 -182.1328125 160.82421875 C-182.8546875 160.12425781 -183.5765625 159.42429688 -184.3203125 158.703125 C-186.43433475 156.71739603 -186.43433475 156.71739603 -189.1328125 154.76171875 C-192.88109786 151.53402858 -194.97425933 148.30580098 -195.77172852 143.46191406 C-196.13901474 135.08685233 -193.27792665 129.68166795 -189.0078125 122.63671875 C-188.05467163 121.00730347 -188.05467163 121.00730347 -187.08227539 119.3449707 C-185.20657283 116.15625271 -183.29827567 112.98916431 -181.3828125 109.82421875 C-180.38860285 108.14495736 -179.3950393 106.46531315 -178.40234375 104.78515625 C-177.54452316 103.35895508 -176.68407168 101.93433114 -175.8203125 100.51171875 C-175.4402002 99.87919189 -175.06008789 99.24666504 -174.66845703 98.5949707 C-171.71349493 93.87842176 -168.72347733 90.60444036 -163.3828125 88.82421875 C-155.94547264 88.09390821 -149.68808587 89.94664007 -142.69335938 92.22265625 C-141.93474609 92.4546875 -141.17613281 92.68671875 -140.39453125 92.92578125 C-139.71865967 93.14572754 -139.04278809 93.36567383 -138.34643555 93.59228516 C-134.58712065 94.03631713 -132.18111524 91.67993532 -129.2265625 89.56640625 C-125.77087062 86.72048282 -122.3873 83.89646007 -120.3828125 79.82421875 C-119.90903281 74.21052666 -122.32919536 68.93237567 -124.3828125 63.82421875 C-126.00936792 58.41520012 -126.07358524 53.02605685 -124.3828125 47.63671875 C-118.72618979 39.68209306 -108.66940981 35.3880666 -100.3203125 30.69921875 C-99.06676825 29.99009404 -97.81351108 29.28046159 -96.56054688 28.5703125 C-94.18864275 27.22605937 -91.8132095 25.88892556 -89.43505859 24.55566406 C-87.04417179 23.19938753 -84.6989961 21.79788534 -82.35546875 20.36328125 C-79.25386746 18.75745877 -77.34721135 18.28346112 -73.8828125 18.32421875 C-73.00625 18.31390625 -72.1296875 18.30359375 -71.2265625 18.29296875 C-62.84412768 19.85891811 -58.34329263 25.83848248 -53.27734375 32.13085938 C-51.72486328 33.92955648 -50.32545945 35.45423158 -48.3828125 36.82421875 C-44.80046804 37.00964159 -44.80046804 37.00964159 -41.3828125 35.82421875 C-40.40957031 35.57542969 -39.43632812 35.32664063 -38.43359375 35.0703125 C-36.60017968 34.52891919 -34.76684699 33.98725016 -32.93359375 33.4453125 C-30.3828125 32.82421875 -30.3828125 32.82421875 -26.3828125 32.82421875 C-26.26035156 31.68082031 -26.13789063 30.53742187 -26.01171875 29.359375 C-25.44567788 24.88715995 -24.50420884 20.6079163 -23.3203125 16.26171875 C-23.06991211 15.18760742 -23.06991211 15.18760742 -22.81445312 14.09179688 C-19.58324616 2.37200661 -11.198988 -0.23556114 0 0 Z " fill="#010100" transform="translate(216.3828125,2.17578125)"/>
<path d="M0 0 C20.54611116 25.26493741 25.51466347 58.03945904 22.765625 89.69921875 C22.18130003 94.22773727 21.1894404 98.58872757 20 103 C19.74476563 104.04800781 19.48953125 105.09601563 19.2265625 106.17578125 C13.69321277 126.55779883 2.46936298 143.86690477 -12 159 C-12.60972656 159.67289063 -13.21945312 160.34578125 -13.84765625 161.0390625 C-30.68996471 178.98988808 -55.0981101 189.94790412 -79 194 C-79.93046143 194.17273438 -80.86092285 194.34546875 -81.81958008 194.5234375 C-113.98916057 199.34381219 -145.4001883 191.14903945 -172 173 C-166.68985746 166.55309361 -160.82873116 160.70050563 -154.9140625 154.81640625 C-153.84624655 153.75045891 -152.77865378 152.68428795 -151.71127319 151.61790466 C-148.92207682 148.83249861 -146.129889 146.05011071 -143.33703613 143.26837158 C-140.47936425 140.42098936 -137.62457498 137.57072014 -134.76953125 134.72070312 C-129.18248158 129.14432919 -123.59226366 123.57114506 -118 118 C-115.09061173 119.14975825 -112.23116231 120.34465138 -109.375 121.625 C-102.67830138 124.08423961 -95.78504583 124.04481696 -89.1875 121.3125 C-81.93300912 117.60752787 -77.12436132 112.94727724 -74.33396912 105.13540649 C-73.89899948 102.35420026 -74.42333248 100.15596356 -74.96899414 97.39599609 C-76.34843057 86.85425247 -76.32313473 77.26201298 -69.95574951 68.38830566 C-60.84856688 56.92306949 -49.80910448 47.02149364 -39.09130859 37.10003662 C-34.64137323 32.94986806 -30.27506702 28.71355003 -25.90039062 24.484375 C-17.34536081 16.23790703 -8.70363173 8.08927638 0 0 Z " fill="#FDFDFD" transform="translate(331,159)"/>
<path d="M0 0 C-1.48243822 3.43988509 -3.42455179 5.67256877 -6.06665039 8.30957031 C-6.90414322 9.15013977 -7.74163605 9.99070923 -8.60450745 10.85675049 C-9.50974655 11.75480408 -10.41498566 12.65285767 -11.34765625 13.578125 C-12.73820473 14.96798615 -12.73820473 14.96798615 -14.15684509 16.38592529 C-16.11491259 18.34243167 -18.07628571 20.29554048 -20.0402832 22.24609375 C-22.56309384 24.7518563 -25.07921245 27.26421052 -27.59313297 29.7788887 C-29.98768452 32.17310392 -32.38646603 34.56305589 -34.78515625 36.953125 C-36.14605125 38.31235077 -36.14605125 38.31235077 -37.53443909 39.69903564 C-38.36877975 40.52699646 -39.20312042 41.35495728 -40.06274414 42.20800781 C-40.80061661 42.94206848 -41.53848907 43.67612915 -42.29872131 44.43243408 C-44 46 -44 46 -45 46 C-45.0093457 44.95134766 -45.01869141 43.90269531 -45.02832031 42.82226562 C-45.06844378 38.90062272 -45.13426226 34.97974602 -45.20751953 31.05859375 C-45.23560037 29.36728826 -45.25687854 27.67585468 -45.27099609 25.984375 C-45.29260608 23.54100575 -45.33934334 21.09915575 -45.390625 18.65625 C-45.39246796 17.53700134 -45.39246796 17.53700134 -45.39434814 16.3951416 C-45.57699184 9.72482219 -47.75874109 4.5672602 -52.1484375 -0.4609375 C-53.25058594 -1.40839844 -53.25058594 -1.40839844 -54.375 -2.375 C-55.46941406 -3.34566406 -55.46941406 -3.34566406 -56.5859375 -4.3359375 C-63.57928929 -9.15659747 -71.83685047 -8.82664805 -80 -8 C-86.40652855 -5.97307571 -91.42523162 -1.65463362 -95 4 C-97.77162328 9.34354644 -98.26152139 12.93710977 -97.28979492 18.91381836 C-97.07431364 20.50058946 -96.86269033 22.08788789 -96.65435791 23.6756134 C-96.54124519 24.5137388 -96.42813248 25.3518642 -96.3115921 26.21538734 C-92.56336713 55.92350967 -88.87826943 90.05110029 -108.17532635 115.02515507 C-116.32843167 124.98543518 -125.45054496 133.94888599 -134.9375 142.625 C-135.79373837 143.40938824 -136.64997673 144.19377647 -137.53216171 145.00193405 C-146.18838864 152.87938589 -155.03271461 160.51543184 -164.17944336 167.81884766 C-164.84391574 168.35091292 -165.50838812 168.88297819 -166.19299603 169.43116665 C-170.74939767 173 -170.74939767 173 -173 173 C-183.92869355 157.03651527 -190.64180586 139.98203126 -194 121 C-194.19207031 119.93394531 -194.38414062 118.86789063 -194.58203125 117.76953125 C-198.19371278 85.19688942 -190.75062509 51.91212442 -170.21704102 25.89086914 C-127.43032642 -25.86452154 -56.16401796 -37.44267864 0 0 Z " fill="#FDFDFD" transform="translate(303,130)"/>
<path d="M0 0 C1.13341827 -0.00101212 1.13341827 -0.00101212 2.28973389 -0.00204468 C19.49192778 0.02231975 35.48151184 1.77756015 51.76074219 7.56738281 C53.70010807 8.25446682 55.64931625 8.90523313 57.6015625 9.5546875 C76.93858724 16.18431978 94.59862614 27.31281132 109.515625 41.23046875 C111.41954605 43.00084138 113.36641151 44.66385768 115.375 46.3125 C140.48325799 67.80049753 155.93076235 102.4080449 161.6875 134.25 C161.89375 135.35988281 162.1 136.46976563 162.3125 137.61328125 C165.43164032 157.08624754 164.05951628 176.91236614 160.6875 196.25 C160.5642334 196.96526855 160.4409668 197.68053711 160.31396484 198.41748047 C157.15964361 215.58256186 149.06428662 241.09445037 135.61328125 253.1015625 C132.71726536 254.82859834 130.99198928 254.85694701 127.6875 254.25 C124.75 251.625 124.75 251.625 122.6875 248.25 C122.91013257 243.14381423 125.06927871 239.54782579 127.6875 235.3125 C135.98832391 221.19941562 142.15638027 205.45286134 144.6875 189.25 C144.85233887 188.3935791 145.01717773 187.5371582 145.18701172 186.65478516 C146.59809045 179.04945827 147.00225831 171.72616452 146.9375 164 C146.92626099 162.2212146 146.92626099 162.2212146 146.91479492 160.40649414 C146.4127952 119.34628218 128.94836494 83.55322118 100.265625 54.82421875 C76.47890768 32.35455121 42.57753582 17.37628479 9.734375 17.01171875 C8.63350304 16.99702797 8.63350304 16.99702797 7.51039124 16.98204041 C-8.10860514 16.81637985 -23.2232256 16.67833605 -38.3125 21.25 C-39.03840332 21.46430664 -39.76430664 21.67861328 -40.51220703 21.89941406 C-60.69817582 28.02610306 -79.31056562 38.54511749 -95.3125 52.25 C-96.19421875 52.98605469 -97.0759375 53.72210938 -97.984375 54.48046875 C-122.71367204 75.89156916 -141.29469747 110.68133116 -144.14257812 143.34375 C-144.5107931 149.64149578 -144.55726751 155.94343016 -144.5625 162.25 C-144.56317474 162.98266083 -144.56384949 163.71532166 -144.56454468 164.47018433 C-144.51455723 198.67888266 -133.08254272 231.38577029 -110.3125 257.25 C-109.59320313 258.09046875 -108.87390625 258.9309375 -108.1328125 259.796875 C-88.53967116 282.24880208 -63.06654341 296.89288868 -34.3125 304.25 C-33.14460937 304.59804688 -31.97671875 304.94609375 -30.7734375 305.3046875 C5.19154474 315.12807994 44.08454114 305.53162737 75.875 288.046875 C79.10752621 286.62567813 82.24592168 286.57435272 85.6875 287.25 C88.25 289.3125 88.25 289.3125 89.6875 292.25 C90 295.6875 90 295.6875 88.6875 299.25 C86.03672464 301.85999421 82.94910136 303.49737018 79.6875 305.25 C79.0992041 305.56614258 78.5109082 305.88228516 77.90478516 306.20800781 C39.39710672 326.6734899 -4.86611682 331.05034435 -46.77709961 318.71972656 C-54.92776896 316.18822455 -62.65671225 313.00717296 -70.3125 309.25 C-70.93817871 308.94868164 -71.56385742 308.64736328 -72.20849609 308.33691406 C-85.59371521 301.82518584 -97.36041505 293.31351567 -108.2421875 283.16796875 C-109.94831654 281.58738505 -111.6753299 280.12526362 -113.5 278.6875 C-132.37561416 262.32863439 -145.00284293 238.37439707 -153.3125 215.25 C-153.56902344 214.5502002 -153.82554687 213.85040039 -154.08984375 213.12939453 C-163.8179058 186.19975248 -164.81143935 153.08621839 -158.3125 125.25 C-158.13509277 124.47188965 -157.95768555 123.6937793 -157.77490234 122.89208984 C-153.17003447 103.60163825 -144.35665232 84.046369 -132.3125 68.25 C-131.51031255 67.15372201 -130.70823578 66.05736303 -129.90625 64.9609375 C-104.67099961 31.1024199 -66.96405498 8.14798959 -25.3125 1.25 C-16.89672144 0.03819475 -8.48558874 0.00680619 0 0 Z " fill="#040202" transform="translate(230.3125,68.75)"/>
<path d="M0 0 C1.83691406 0.00845947 1.83691406 0.00845947 3.7109375 0.01708984 C13.52098201 0.14759755 22.78791556 0.9661738 32.3125 3.3125 C33.47773193 3.59456299 33.47773193 3.59456299 34.66650391 3.88232422 C53.9769883 8.7263232 71.68783991 16.94297742 87.3125 29.3125 C88.7046875 30.38371094 88.7046875 30.38371094 90.125 31.4765625 C92.94517547 33.84349549 93.22793375 34.78396096 93.8125 38.4375 C93.28378985 42.5350037 92.90318976 43.18332987 90.26011372 46.06788731 C89.62143128 46.7674785 88.98274884 47.46706969 88.3247124 48.18786061 C85.14789279 51.54217653 81.92280152 54.83993811 78.65068054 58.1013031 C77.91107127 58.84247236 77.17146201 59.58364162 76.40944034 60.34727055 C73.95069685 62.80997684 71.48842562 65.26912409 69.02612305 67.72827148 C67.25475204 69.50099856 65.48359361 71.27393807 63.71263123 73.04707336 C59.41484981 77.3489313 55.11474494 81.64845367 50.81347217 85.94681977 C47.31925387 89.43877485 43.82601873 92.93171064 40.33347511 96.42534065 C39.83543596 96.92353303 39.33739682 97.42172541 38.82426557 97.93501453 C37.81242554 98.9471743 36.80058775 99.9593363 35.78875218 100.97150052 C26.31900068 110.4440982 16.84619562 119.91363746 7.37233106 129.38212127 C-0.75978663 137.50976343 -8.88926736 145.64003541 -17.0168457 153.7722168 C-26.46198345 163.2227013 -35.90873491 172.67156787 -45.35808343 182.11784226 C-46.36457569 183.12401598 -47.37106587 184.13019178 -48.37755394 185.13636971 C-49.1203442 185.87892856 -49.1203442 185.87892856 -49.87814033 186.6364886 C-53.3712609 190.12874493 -56.86321812 193.62216193 -60.35473061 197.11602592 C-65.04648758 201.81087346 -69.7408777 206.5030764 -74.43707848 211.19347954 C-76.16416715 212.91924097 -77.8903962 214.64586317 -79.61572266 216.37338638 C-81.96171953 218.72209585 -84.31074242 221.06773523 -86.66059875 223.4125824 C-87.35036893 224.10458329 -88.0401391 224.79658419 -88.7508114 225.5095548 C-89.69082601 226.4456578 -89.69082601 226.4456578 -90.64983082 227.40067196 C-91.19207414 227.94275293 -91.73431747 228.48483391 -92.29299241 229.04334158 C-94.57463648 231.11989377 -95.85558788 231.33152882 -99 231.6875 C-104.42172475 231.13613816 -106.35581412 227.85913332 -109.79296875 223.8671875 C-132.33716173 194.85158453 -140.69487245 157.92615245 -137.453125 121.69287109 C-136.85172216 117.14772953 -135.83343784 112.75300914 -134.6875 108.3125 C-134.4090625 107.08144531 -134.130625 105.85039062 -133.84375 104.58203125 C-128.00417454 80.29241782 -114.69762769 59.36845832 -97.6875 41.3125 C-97.08808594 40.64863281 -96.48867187 39.98476562 -95.87109375 39.30078125 C-80.12918196 22.53887517 -57.48735997 10.78248235 -35.625 4.5625 C-34.92971191 4.36366211 -34.23442383 4.16482422 -33.51806641 3.95996094 C-22.45678827 0.98339728 -11.42887326 -0.05574283 0 0 Z M-92.93994141 59.36230469 C-115.16579369 84.16533738 -123.21251875 116.75588259 -121.88085938 149.27539062 C-121.46519726 155.8042249 -120.31136838 161.97563688 -118.6875 168.3125 C-118.48253906 169.23933594 -118.27757812 170.16617188 -118.06640625 171.12109375 C-114.58127356 185.68938134 -107.72258878 198.79525286 -99.6875 211.3125 C-85.20307045 205.10325942 -71.9770575 190.29502022 -60.5 179.8125 C-59.67427113 179.05944077 -58.84854225 178.30638153 -57.99779129 177.53050232 C-37.16128224 158.31899997 -22.45350447 141.02200237 -20.83660698 111.90087891 C-20.21359856 95.45716839 -21.37458338 78.67557902 -23.61953735 62.37908936 C-24.66010174 54.54002209 -25.48224759 48.27695528 -21.17860413 41.19573975 C-16.53273857 35.32808871 -10.7306708 30.80622053 -3.13671875 29.87890625 C5.88758294 29.86953522 12.77234907 30.08763733 19.5625 36.40625 C25.6380669 42.91578597 27.59111296 47.7446729 27.7265625 56.67578125 C27.75561172 57.86375557 27.75561172 57.86375557 27.7852478 59.07572937 C27.84477232 61.59204519 27.89131958 64.10840744 27.9375 66.625 C27.97570481 68.3366079 28.01475799 70.04819709 28.0546875 71.75976562 C28.1504513 75.94385749 28.2345818 80.12803931 28.3125 84.3125 C33.92807272 79.63262272 39.13754225 74.64818886 44.30859375 69.484375 C45.14213882 68.65415833 45.9756839 67.82394165 46.83448792 66.96856689 C48.58294325 65.22514779 50.33006941 63.48039475 52.07592773 61.734375 C54.76070439 59.0518044 57.45340026 56.37735238 60.14648438 53.703125 C61.84684255 52.00569742 63.54672943 50.30779757 65.24609375 48.609375 C66.05533798 47.80731628 66.86458221 47.00525757 67.698349 46.17889404 C68.8056411 45.066987 68.8056411 45.066987 69.93530273 43.93261719 C70.58925522 43.28008972 71.2432077 42.62756226 71.91697693 41.95526123 C73.52830882 40.41770616 73.52830882 40.41770616 73.3125 38.3125 C19.11054586 1.20553015 -49.18587426 12.4821524 -92.93994141 59.36230469 Z " fill="#030202" transform="translate(229.6875,91.6875)"/>
<path d="M0 0 C2.24506213 2.00076474 3.67802818 3.5455405 5.375 5.9375 C5.83487305 6.5572168 6.29474609 7.17693359 6.76855469 7.81542969 C29.24022865 38.96200038 37.85698716 77.54633923 32.3515625 115.5234375 C31.54723355 119.78794184 30.34867219 123.87991226 29 128 C28.75862305 128.78938965 28.51724609 129.5787793 28.26855469 130.39208984 C23.15140422 147.0405297 15.95984877 162.36993353 5 176 C4.59555664 176.50982422 4.19111328 177.01964844 3.77441406 177.54492188 C-18.13984646 205.01607163 -48.97390371 223.94284382 -83.96728516 229.67993164 C-89.81242194 230.29681896 -95.66158373 230.29443683 -101.53222656 230.26074219 C-103.73270655 230.25008376 -105.93235817 230.2606613 -108.1328125 230.2734375 C-140.71479381 230.30831428 -172.65416421 219.11811225 -197 197 C-198.50889469 193.98221063 -198.50026276 192.37677363 -198 189 C-196.69061738 187.19556993 -196.69061738 187.19556993 -194.94998646 185.27823544 C-194.31128357 184.57411207 -193.67258067 183.86998871 -193.01452315 183.14452827 C-189.83517357 179.76000273 -186.58901474 176.45128192 -183.30021667 173.17323303 C-182.18467745 172.05535382 -182.18467745 172.05535382 -181.04660207 170.91489118 C-178.57403924 168.43836523 -176.09794819 165.9653986 -173.62182617 163.49243164 C-171.84060306 161.70985248 -170.05959254 159.92706088 -168.27877808 158.14407349 C-163.95693349 153.81815224 -159.6327649 149.49456637 -155.30742862 145.17213667 C-151.7936642 141.66063542 -148.28088286 138.14815352 -144.76879311 134.63497734 C-144.2679786 134.1340096 -143.76716409 133.63304186 -143.25117338 133.11689327 C-142.23369635 132.09909651 -141.21622156 131.0812975 -140.19874898 130.06349628 C-130.67606239 120.53796347 -121.15032214 111.01548914 -111.6235225 101.49407016 C-103.44592305 93.32094621 -95.27096048 85.14519248 -87.09790039 76.9675293 C-77.60002492 67.46430709 -68.10053576 57.96270279 -58.59844953 48.4636907 C-57.58634028 47.4519 -56.57423312 46.44010721 -55.56212807 45.4283123 C-55.06417045 44.93050896 -54.56621283 44.43270561 -54.05316558 43.91981732 C-50.54050835 40.40802433 -47.02901447 36.89507065 -43.51796532 33.38167 C-38.79994282 28.66055695 -34.07928925 23.94209053 -29.35682297 19.22542191 C-27.62005894 17.48998513 -25.88415457 15.75368757 -24.14915276 14.01648903 C-21.79001872 11.65464244 -19.42785862 9.29586575 -17.06486511 6.93788147 C-16.37120399 6.24198963 -15.67754287 5.54609779 -14.96286172 4.82911831 C-14.01762201 3.88779023 -14.01762201 3.88779023 -13.05328655 2.92744541 C-12.50800546 2.38232668 -11.96272437 1.83720794 -11.40091962 1.27557045 C-7.97141071 -1.84707854 -4.19560682 -1.27270078 0 0 Z M-12.79882812 25.22509766 C-13.50937851 25.88891953 -14.21992889 26.55274139 -14.95201111 27.23667908 C-21.55670848 33.42796289 -28.08277105 39.70038582 -34.58437347 45.9996891 C-38.94870514 50.2247454 -43.33538702 54.41848868 -47.79052734 58.54785156 C-71.06246504 78.0749243 -71.06246504 78.0749243 -81.6973877 104.96151733 C-81.57075132 109.77209614 -81.0347169 114.40981625 -80.2519989 119.1541748 C-79.80063805 124.25139581 -81.69722895 127.86330175 -84.32421875 132.171875 C-88.98956424 137.57244686 -95.12990865 141.59088086 -102.41796875 142.203125 C-108.76084574 142.31047976 -113.21339598 141.59399491 -119 139 C-120.65 138.34 -122.3 137.68 -124 137 C-150.73 163.73 -150.73 163.73 -178 191 C-152.48500046 211.41199963 -120.1781719 216.53356051 -88.30078125 213.765625 C-83.77226273 213.18130003 -79.41127243 212.1894404 -75 211 C-73.95199219 210.74476563 -72.90398437 210.48953125 -71.82421875 210.2265625 C-51.44220117 204.69321277 -34.13309523 193.46936298 -19 179 C-18.32710937 178.39027344 -17.65421875 177.78054688 -16.9609375 177.15234375 C0.98988808 160.31003529 11.94790412 135.9018899 16 112 C16.17273438 111.06953857 16.34546875 110.13907715 16.5234375 109.18041992 C21.27974478 77.43840405 13.44949605 45.11374067 -5 19 C-7.54175035 19 -10.90786343 23.45127199 -12.79882812 25.22509766 Z " fill="#040303" transform="translate(337,140)"/>
<path d="M0 0 C2.31469533 0.00314595 4.6280897 -0.02033866 6.94262695 -0.0456543 C40.40379067 -0.18802711 73.5246292 12.20273607 98.64770508 34.31567383 C99.47657227 35.02336914 100.30543945 35.73106445 101.15942383 36.46020508 C122.26131174 54.84568042 138.2187071 79.18195394 145.64770508 106.31567383 C145.91969727 107.24766602 146.19168945 108.1796582 146.47192383 109.13989258 C156.75423266 146.70793802 150.03514321 185.5733813 131.64770508 219.31567383 C130.63018098 221.02598029 129.60993855 222.73467711 128.58520508 224.44067383 C126.93017311 227.35086427 126.64544053 228.19338812 126.71020508 231.69067383 C127.592124 234.49504913 127.592124 234.49504913 129.64770508 237.31567383 C118.29119304 251.56038522 106.75425731 263.90893784 91.64770508 274.31567383 C90.65770508 273.65567383 89.66770508 272.99567383 88.64770508 272.31567383 C82.50762799 271.7557497 79.32975274 272.57274144 73.96020508 275.81567383 C60.2047861 283.67717939 45.31675002 288.99498009 29.64770508 291.31567383 C27.94227539 291.61924805 27.94227539 291.61924805 26.20239258 291.92895508 C-3.96659613 296.8024071 -34.04985946 291.73551499 -61.35229492 278.31567383 C-62.46862305 277.77168945 -63.58495117 277.22770508 -64.73510742 276.66723633 C-98.8945361 259.13480667 -124.14963569 227.69876862 -136.60913086 191.65795898 C-141.01452324 177.7731579 -142.53922466 163.9482887 -142.53759766 149.43701172 C-142.53976549 147.28242663 -142.55791654 145.12837062 -142.5769043 142.97387695 C-142.63064029 130.21386259 -141.58302676 117.74681353 -137.72729492 105.50317383 C-137.46787109 104.66625 -137.20844727 103.82932617 -136.94116211 102.96704102 C-130.64866721 83.33534424 -120.99107188 65.80576244 -107.35229492 50.31567383 C-106.16506836 48.92928711 -106.16506836 48.92928711 -104.95385742 47.51489258 C-99.26685984 41.02956253 -93.21771571 35.52579553 -86.35229492 30.31567383 C-85.82651855 29.90961914 -85.30074219 29.50356445 -84.7590332 29.08520508 C-75.84121619 22.23547857 -66.57145277 16.97875834 -56.35229492 12.31567383 C-55.33522461 11.84387695 -54.3181543 11.37208008 -53.27026367 10.88598633 C-47.58820318 8.38308143 -41.78938243 6.41939425 -35.85229492 4.62817383 C-35.1885083 4.42554932 -34.52472168 4.2229248 -33.84082031 4.01416016 C-22.61209782 0.76077592 -11.61767087 -0.03285609 0 0 Z M-27.35229492 10.31567383 C-28.58334961 10.59411133 -29.8144043 10.87254883 -31.08276367 11.15942383 C-55.3723771 16.99899929 -76.2963366 30.30554614 -94.35229492 47.31567383 C-95.01616211 47.91508789 -95.6800293 48.51450195 -96.36401367 49.13208008 C-113.12591975 64.87399187 -124.88231257 87.51581386 -131.10229492 109.37817383 C-131.30113281 110.07346191 -131.4999707 110.76875 -131.70483398 111.48510742 C-134.68139764 122.54638556 -135.72053775 133.57430057 -135.66479492 145.00317383 C-135.65915527 146.2277832 -135.65351563 147.45239258 -135.64770508 148.71411133 C-135.51723966 158.52097758 -134.70734932 167.79519575 -132.35229492 177.31567383 C-132.15893555 178.10312988 -131.96557617 178.89058594 -131.76635742 179.7019043 C-127.29465409 197.26093073 -120.15670182 213.71215637 -109.35229492 228.31567383 C-108.69745117 229.20383789 -108.04260742 230.09200195 -107.36791992 231.00708008 C-103.41394663 236.59490343 -103.41394663 236.59490343 -97.22729492 238.81567383 C-93.12979122 238.28696367 -92.48146505 237.90636359 -89.59690762 235.26328754 C-88.89731643 234.62460511 -88.19772524 233.98592267 -87.47693431 233.32788622 C-84.12261839 230.15106662 -80.82485681 226.92597534 -77.56349182 223.65385437 C-76.82232256 222.9142451 -76.08115331 222.17463584 -75.31752437 221.41261417 C-72.85481808 218.95387068 -70.39567083 216.49159945 -67.93652344 214.02929688 C-66.16379636 212.25792587 -64.39085685 210.48676744 -62.61772156 208.71580505 C-58.31586362 204.41802363 -54.01634125 200.11791877 -49.71797515 195.816646 C-46.22602007 192.3224277 -42.73308429 188.82919256 -39.23945427 185.33664894 C-38.74126189 184.83860979 -38.24306951 184.34057064 -37.72978039 183.8274394 C-36.71762062 182.81559937 -35.70545862 181.80376158 -34.6932944 180.791926 C-25.22069672 171.32217451 -15.75115746 161.84936945 -6.28267365 152.37550489 C1.84496851 144.2433872 9.97524049 136.11390646 18.10742188 127.98632812 C27.55790638 118.54119037 37.00677295 109.09443892 46.45304734 99.6450904 C47.45922105 98.63859813 48.46539686 97.63210796 49.47157478 96.62561989 C50.21413364 95.88282962 50.21413364 95.88282962 50.97169368 95.12503349 C54.46395001 91.63191293 57.95736701 88.13995571 61.451231 84.64844322 C66.14607854 79.95668625 70.83828147 75.26229613 75.52868462 70.56609535 C77.25444605 68.83900667 78.98106825 67.11277763 80.70859146 65.38745117 C83.05730093 63.0414543 85.40294031 60.6924314 87.74778748 58.34257507 C88.43978837 57.6528049 89.13178926 56.96303473 89.84475988 56.25236243 C90.46882854 55.62568602 91.0928972 54.99900961 91.73587704 54.35334301 C92.27795801 53.81109968 92.82003899 53.26885636 93.37854666 52.71018142 C95.45509885 50.42853734 95.66673389 49.14758595 96.02270508 46.00317383 C95.53561196 41.21342482 94.34701732 40.33552055 90.64770508 37.31567383 C90.03926758 36.79360352 89.43083008 36.2715332 88.80395508 35.73364258 C73.38422773 22.98935299 53.94131297 15.00371681 34.64770508 10.31567383 C33.9711084 10.1505127 33.29451172 9.98535156 32.59741211 9.81518555 C13.29350605 5.34621807 -8.17244892 5.36603615 -27.35229492 10.31567383 Z M97.88687801 57.36959362 C97.1883943 58.00773255 96.48991058 58.64587147 95.77026069 59.30334795 C92.40499578 62.49384606 89.09459458 65.73106591 85.82093811 69.01545715 C85.0756853 69.75914997 84.33043249 70.50284279 83.56259626 71.26907176 C81.08607031 73.74163459 78.61310368 76.21772564 76.14013672 78.69384766 C74.35755756 80.47507076 72.57476596 82.25608129 70.79177856 84.03689575 C66.46585732 88.35874034 62.14227144 92.68290893 57.81984175 97.00824521 C54.3083405 100.52200963 50.7958586 104.03479097 47.28268242 107.54688072 C46.78171468 108.04769523 46.28074693 108.54850974 45.76459835 109.06450045 C44.74680159 110.08197748 43.72900258 111.09945227 42.71120136 112.11692484 C33.18566854 121.63961143 23.66319422 131.16535169 14.14177524 140.69215133 C5.96865129 148.86975077 -2.20710244 157.04471335 -10.38476562 165.21777344 C-19.88798783 174.71564891 -29.38959213 184.21513807 -38.88860422 193.7172243 C-39.90039493 194.72933355 -40.91218772 195.74144071 -41.92398262 196.75354576 C-42.42178597 197.25150338 -42.91958931 197.749461 -43.4324776 198.26250825 C-46.94427059 201.77516548 -50.45722427 205.28665935 -53.97062492 208.79770851 C-58.69173797 213.515731 -63.41020439 218.23638457 -68.12687302 222.95885086 C-69.86230979 224.69561489 -71.59860735 226.43151926 -73.33580589 228.16652107 C-75.69765248 230.5256551 -78.05642917 232.88781521 -80.41441345 235.25080872 C-81.11030529 235.94446984 -81.80619714 236.63813096 -82.52317661 237.35281211 C-83.15072867 237.98297192 -83.77828072 238.61313172 -84.42484951 239.26238728 C-84.96996825 239.80766836 -85.51508698 240.35294945 -86.07672447 240.91475421 C-87.97689173 243.0016492 -88.35005629 244.29888408 -88.72729492 247.12817383 C-88.23253657 251.33361981 -86.47055812 252.76825973 -83.35229492 255.31567383 C-82.71678711 255.88930664 -82.0812793 256.46293945 -81.42651367 257.05395508 C-52.13646298 282.29702122 -14.46282625 286.96196506 22.64770508 285.31567383 C28.89736713 284.72577709 34.69821771 283.26318289 40.64770508 281.31567383 C41.43709473 281.07429687 42.22648438 280.83291992 43.03979492 280.58422852 C59.68823478 275.46707805 75.01763861 268.2755226 88.64770508 257.31567383 C89.41244141 256.70900879 89.41244141 256.70900879 90.19262695 256.09008789 C117.66377671 234.17582737 136.5905489 203.34177012 142.32763672 168.34838867 C142.94452404 162.50325188 142.9421419 156.6540901 142.90844727 150.78344727 C142.89778884 148.58296727 142.90836638 146.38331566 142.92114258 144.18286133 C142.9525875 114.99809121 134.04705828 89.29889119 117.64770508 65.31567383 C116.94387695 64.26508789 116.24004883 63.21450195 115.51489258 62.13208008 C111.57640563 56.60984003 111.57640563 56.60984003 105.64770508 53.75317383 C102.08755158 53.86544963 100.4790865 54.99200935 97.88687801 57.36959362 Z " fill="#F86880" transform="translate(227.352294921875,84.684326171875)"/>
<path d="M0 0 C1.66847291 1.41115972 3.31299166 2.85094389 4.9375 4.3125 C5.41574219 4.74159668 5.89398438 5.17069336 6.38671875 5.61279297 C22.82841176 20.5804396 35.84854922 42.60744065 37.09863281 65.22827148 C37.47050965 93.61414949 37.47050965 93.61414949 33.9375 104.3125 C33.58558594 105.38757813 33.23367188 106.46265625 32.87109375 107.5703125 C28.52395302 119.70787376 22.57365033 130.71348556 13.9375 140.3125 C13.50840332 140.79074219 13.07930664 141.26898438 12.63720703 141.76171875 C-2.75808452 158.67317209 -24.78246487 171.07037569 -47.95239258 172.48950195 C-78.74138057 173.1174402 -103.57754222 166.74496245 -126.57788086 145.18237305 C-144.53266283 127.83392268 -153.77424774 104.42906846 -154.40136719 79.69555664 C-154.71993207 52.07296777 -145.00237419 28.58343416 -126.0625 8.3125 C-91.65301246 -23.70674817 -38.24133868 -29.44460902 0 0 Z M-118.08984375 22.92578125 C-134.1567101 42.36509875 -139.66311752 63.90424071 -137.8125 88.65625 C-135.25205153 108.49972563 -123.46380938 127.65580165 -107.85546875 139.921875 C-88.72148956 153.71129652 -67.74063635 159.07508934 -44.4453125 155.8046875 C-41.56024505 155.1389027 -38.8489436 154.31080857 -36.0625 153.3125 C-35.01191406 152.96058594 -33.96132813 152.60867188 -32.87890625 152.24609375 C-11.87279008 144.7492113 4.07227807 130.95736529 13.75 110.8125 C21.87129745 91.64736208 24.60779844 70.09152801 16.9375 50.3125 C8.06263473 29.25262918 -5.84075785 12.41020977 -27.234375 3.37109375 C-59.62528576 -8.75312837 -93.74197916 -2.52198687 -118.08984375 22.92578125 Z " fill="#010101" transform="translate(472.0625,336.6875)"/>
<path d="M0 0 C6.26123284 2.74825106 11.20427823 7.97062617 13.734375 14.3359375 C14.10546875 17.2890625 14.10546875 17.2890625 14.171875 20.5859375 C14.23181641 22.20242188 14.23181641 22.20242188 14.29296875 23.8515625 C13.08944506 31.35885711 7.64065665 36.87511321 2.40283203 42.0715332 C1.78911743 42.69211105 1.17540283 43.3126889 0.54309082 43.95207214 C-1.46632221 45.97962957 -3.4864584 47.9960708 -5.5078125 50.01171875 C-6.9191576 51.42763016 -8.33013186 52.84391132 -9.74075317 54.26054382 C-12.68951699 57.21821341 -15.64385133 60.17017706 -18.60205078 63.1184082 C-22.3855552 66.89040115 -26.1529307 70.67805715 -29.91607475 74.47034931 C-32.82244995 77.39509407 -35.73810471 80.31044764 -38.65652847 83.22316551 C-40.04941467 84.61589873 -41.43921557 86.01172491 -42.82580185 87.41073036 C-44.76616447 89.36602201 -46.7189162 91.30806333 -48.67529297 93.24731445 C-49.24071808 93.82240753 -49.80614319 94.39750061 -50.38870239 94.99002075 C-55.75265048 100.25644705 -61.01707146 102.76067627 -68.703125 102.8359375 C-74.75482513 102.6830817 -78.83949773 101.50969786 -83.265625 97.3359375 C-86.69305819 93.42269586 -89.46049414 89.58689352 -92.04296875 85.046875 C-92.37680069 84.46233551 -92.71063263 83.87779602 -93.05458069 83.27554321 C-93.75560714 82.04516691 -94.45377233 80.81315627 -95.14916992 79.57958984 C-96.19087832 77.73265074 -97.24205987 75.89138016 -98.29492188 74.05078125 C-101.53514984 68.36325163 -104.70008783 62.63441987 -107.73046875 56.83203125 C-108.20734131 55.92122803 -108.68421387 55.0104248 -109.17553711 54.07202148 C-111.34864031 48.61760546 -111.37586177 42.8224705 -109.59765625 37.23828125 C-106.87422179 31.82709051 -102.04125652 27.94288207 -96.890625 24.9609375 C-90.9432651 23.54489943 -84.91018474 23.70052172 -79.2421875 26.10546875 C-72.15248203 30.51902058 -67.92343692 38.07017958 -64.265625 45.3359375 C-58.94980071 40.9112777 -54.06921435 36.21846602 -49.2421875 31.26953125 C-47.71138946 29.7163513 -46.18012509 28.16363085 -44.6484375 26.61132812 C-42.26538566 24.19120986 -39.8855479 21.76823368 -37.51367188 19.3371582 C-35.20327421 16.97196755 -32.88011051 14.61993877 -30.5546875 12.26953125 C-29.85751617 11.54857773 -29.16034485 10.82762421 -28.44204712 10.08482361 C-20.2887758 1.88907029 -11.78232117 -3.45343897 0 0 Z " fill="#020203" transform="translate(458.265625,366.6640625)"/>
<path d="M0 0 C5.66276171 3.81712086 9.00425223 8.50106765 11.63671875 14.77734375 C12.77426214 23.70132758 12.92951136 32.21740362 7.4765625 39.76171875 C1.28391397 46.5460216 -5.87061937 50.82575224 -15.17578125 51.27734375 C-23.26665723 51.04473107 -29.31109182 47.925994 -35.23828125 42.52734375 C-41.34903595 35.79540122 -43.12472872 29.02310976 -42.80859375 19.9921875 C-41.65371718 11.65478908 -36.99984666 4.83185922 -30.36328125 -0.22265625 C-20.41605057 -6.68164804 -10.06751802 -5.59306556 0 0 Z " fill="#030303" transform="translate(246.36328125,291.22265625)"/>
<path d="M0 0 C0.94818604 0.35642578 1.89637207 0.71285156 2.87329102 1.08007812 C3.71074274 3.75992365 4.13984221 5.33897702 3.87329102 8.08007812 C2.7849884 9.77919006 2.7849884 9.77919006 1.15380859 11.54516602 C0.50940826 12.24425079 -0.13499207 12.94333557 -0.79891968 13.66360474 C-5.66168938 18.71163617 -10.59147743 23.68755375 -15.55249023 28.63867188 C-16.74853352 29.83538992 -17.94442841 31.03225629 -19.1401825 32.22926331 C-21.63057254 34.72111876 -24.12274017 37.21117856 -26.61621094 39.69995117 C-29.81526165 42.8932679 -33.00975152 46.0911038 -36.20295429 49.29026699 C-38.66404581 51.75496376 -41.12750368 54.21728421 -43.59169579 56.67888069 C-44.77141949 57.85793695 -45.95039979 59.0377375 -47.12862587 60.21829033 C-48.76791814 61.86011252 -50.41036451 63.49871174 -52.05371094 65.13647461 C-52.98746048 66.06942856 -53.92121002 67.00238251 -54.883255 67.96360779 C-57.50629609 70.4381799 -58.42828279 71.00416223 -62.00170898 71.39257812 C-65.93153492 70.99959553 -66.58859142 70.02183995 -69.12670898 67.08007812 C-70.2802135 65.25795157 -71.36889889 63.39382372 -72.40405273 61.50195312 C-73.00024414 60.42300781 -73.59643555 59.3440625 -74.21069336 58.23242188 C-74.82235352 57.10964844 -75.43401367 55.986875 -76.06420898 54.83007812 C-77.27977609 52.61550305 -78.49718647 50.40193862 -79.71655273 48.18945312 C-80.29453613 47.13838379 -80.87251953 46.08731445 -81.46801758 45.00439453 C-83.26643604 41.83373566 -85.18871721 38.77760836 -87.23242188 35.76025391 C-88.80249695 32.81041589 -88.64081279 30.29322688 -88.12670898 27.08007812 C-85.12670898 25.08007812 -85.12670898 25.08007812 -82.25952148 24.94726562 C-77.54430483 26.65226915 -76.27607768 29.91462866 -74.00170898 34.20507812 C-73.5853418 34.95273437 -73.16897461 35.70039063 -72.73999023 36.47070312 C-71.13716269 39.3547878 -69.57071738 42.2580261 -68.00268555 45.16113281 C-66.20283573 48.73012955 -66.20283573 48.73012955 -63.12670898 51.08007812 C-59.75910525 51.61889472 -57.26088815 51.8590025 -54.35548401 49.86364746 C-48.67076602 44.69792971 -43.30644532 39.25590664 -37.96655273 33.73632812 C-36.02203994 31.7466482 -34.07319039 29.76122941 -32.12475586 27.77539062 C-29.07669995 24.66724538 -26.03483637 21.55373032 -23.01416016 18.41894531 C-20.55194308 15.86473413 -18.07063344 13.33054045 -15.57534981 10.80863953 C-14.17708662 9.3847836 -12.79985461 7.94037232 -11.42308044 6.49572754 C-4.36367279 -0.59533516 -4.36367279 -0.59533516 0 0 Z " fill="#F6F6F6" transform="translate(452.126708984375,381.919921875)"/>
<path d="M0 0 C3.27247743 0.70358265 5.10709574 2.05080158 7.34375 4.50390625 C13.51253688 16.84148001 11.1861939 43.35262114 8.34375 56.50390625 C4.63143782 65.94788543 -4.0031401 72.69558803 -12.65625 77.50390625 C-12.98625 77.50390625 -13.31625 77.50390625 -13.65625 77.50390625 C-13.79554367 68.49809155 -13.90201834 59.49265013 -13.96712303 50.48599148 C-13.99837749 46.30334237 -14.04074 42.12143261 -14.10888672 37.93920898 C-14.17429336 33.89966172 -14.21000029 29.86082353 -14.22551346 25.82078743 C-14.236562 24.28298854 -14.25813823 22.74522654 -14.29063034 21.20773125 C-14.56555424 7.65407078 -14.56555424 7.65407078 -10.78198242 3.05566406 C-7.31142993 -0.24407037 -4.64181585 -0.32856227 0 0 Z " fill="#9A8179" transform="translate(233.65625,136.49609375)"/>
<path d="M0 0 C17.72055972 10.72560194 28.34340138 27.7148023 34.4375 47.0625 C37.71206217 60.47126753 37.67071414 75.96326777 33 89 C32.64808594 90.05058594 32.29617188 91.10117187 31.93359375 92.18359375 C25.65353168 109.78020333 15.0545082 124.23232355 -1 134 C-1 133.01 -1 132.02 -1 131 C0.64134361 129.6356149 2.31332832 128.30793509 4 127 C22.06542846 106.84216465 27.96273777 83.71088215 27.17041016 57.09179688 C26.19063179 39.31541694 17.93897154 23.71967649 7 10 C5.98679687 8.67548828 5.98679687 8.67548828 4.953125 7.32421875 C3.03440261 4.82061388 3.03440261 4.82061388 0 3 C0 2.01 0 1.02 0 0 Z " fill="#69B9F7" transform="translate(457,347)"/>
<path d="M0 0 C1.39479348 2.78958697 0.61589783 4.16652947 -0.1796875 7.15625 C-0.44910156 8.17847656 -0.71851563 9.20070313 -0.99609375 10.25390625 C-1.28613281 11.32511719 -1.57617188 12.39632813 -1.875 13.5 C-2.15730469 14.57121094 -2.43960937 15.64242188 -2.73046875 16.74609375 C-4.84322355 24.6864471 -4.84322355 24.6864471 -6 27 C-6.48664483 32.52355772 -6.48664483 32.52355772 -4.625 37.5625 C-1.42324917 39.31583974 -0.95195935 38.80828793 2.4375 37.9375 C5.38364477 37.46699628 7.18738969 37.4646577 9.71582031 39.13037109 C11.59989173 40.7141205 13.33746446 42.36946238 15.0625 44.125 C15.63476318 44.70628662 16.20702637 45.28757324 16.79663086 45.88647461 C19.76453088 49.09866841 21.71709346 51.45634951 22 56 C19.79350736 55.7695441 17.58963801 55.52845367 15.38671875 55.265625 C13.49267804 55.0548316 11.59018886 54.92019937 9.6875 54.8125 C6.49681042 53.84787292 5.81084648 52.63127463 4.19140625 49.8125 C1.72429349 46.05925304 -1.77752698 43.10050691 -5 40 C-6.68528688 38.35216394 -8.35697047 36.68997323 -10 35 C-10.84195923 34.13870483 -10.84195923 34.13870483 -11.70092773 33.26000977 C-14.25506677 28.81654707 -11.78468902 23.60597429 -10.56518555 18.90014648 C-10.06492773 16.94697865 -9.61211008 14.98675837 -9.16210938 13.02148438 C-8.69708008 11.16813477 -8.69708008 11.16813477 -8.22265625 9.27734375 C-7.94172119 8.14546631 -7.66078613 7.01358887 -7.37133789 5.84741211 C-5.60558356 2.18104344 -3.71850301 1.439615 0 0 Z " fill="#F7C32E" transform="translate(412,264)"/>
<path d="M0 0 C3.26421243 2.66466321 4.59495738 4.12542259 5.47265625 8.1875 C5.73276002 12.13574181 5.33575289 15.20497142 3.0625 18.5 C-0.38923791 21.31774523 -2.41119984 22.02706216 -6.78125 22.23828125 C-10.35517431 21.85446191 -12.37644628 20.36759726 -15 18 C-17.36121663 14.9948152 -17.41860637 11.73511562 -17.3203125 7.96484375 C-16.80387583 4.79694567 -15.28753598 3.16045065 -13 1 C-8.63318141 -1.65487923 -4.81600264 -1.43965915 0 0 Z " fill="#977F77" transform="translate(237,304)"/>
<path d="M0 0 C2.31958008 -0.23510742 2.31958008 -0.23510742 5 0 C6.5612793 1.5534668 6.5612793 1.5534668 7.88671875 3.76171875 C8.38993652 4.58462402 8.8931543 5.4075293 9.41162109 6.25537109 C9.93578613 7.16109863 10.45995117 8.06682617 11 9 C11.55381348 9.93537598 12.10762695 10.87075195 12.67822266 11.83447266 C14.41898108 14.8113429 16.12011819 17.80789513 17.8125 20.8125 C18.68938477 22.34680664 18.68938477 22.34680664 19.58398438 23.91210938 C20.14021484 24.89630859 20.69644531 25.88050781 21.26953125 26.89453125 C21.77073486 27.77987549 22.27193848 28.66521973 22.78833008 29.57739258 C23.87427002 31.74861604 24.53544696 33.62902323 25 36 C24.53851563 36.38929688 24.07703125 36.77859375 23.6015625 37.1796875 C13.60507191 45.11577906 13.60507191 45.11577906 6 55 C5.57936158 60.99020267 6.83505126 66.17134361 8.375 71.9375 C8.59671875 72.79279297 8.8184375 73.64808594 9.046875 74.52929688 C9.4835064 76.21289618 9.92319782 77.89570539 10.36621094 79.57763672 C11.27332609 83.04466159 12.13746413 86.52164273 13 90 C11.02 89.67 9.04 89.34 7 89 C5.84612191 85.14819582 4.70335272 81.29318031 3.5625 77.4375 C3.23701172 76.35146484 2.91152344 75.26542969 2.57617188 74.14648438 C1.95343888 72.03432814 1.35246797 69.91561136 0.77539062 67.79052734 C0.16844074 65.60619573 -0.54967803 63.45269736 -1.30859375 61.31640625 C-0.76184914 55.44063187 4.15940352 52.27970619 8.375 48.5 C15.04103621 42.77500384 15.04103621 42.77500384 19.34765625 35.34765625 C18.91253873 31.15781675 17.36684528 28.35217478 15.0625 24.9375 C14.23033076 23.63112455 13.39963725 22.32380806 12.5703125 21.015625 C12.14395508 20.35498047 11.71759766 19.69433594 11.27832031 19.01367188 C9.23427526 15.79379342 7.33113996 12.49735889 5.4375 9.1875 C4.77621094 8.04667969 4.11492187 6.90585938 3.43359375 5.73046875 C2 3 2 3 2 1 C1.34 0.67 0.68 0.34 0 0 Z " fill="#F4C02E" transform="translate(400,108)"/>
<path d="M0 0 C1.65 0 3.3 0 5 0 C5 13.86 5 27.72 5 42 C2.525 42.495 2.525 42.495 0 43 C0 28.81 0 14.62 0 0 Z " fill="#FBC52D" transform="translate(438,210)"/>
<path d="M0 0 C0.86066857 10.74879409 0.86066857 10.74879409 -2.3125 14.625 C-6.48176902 18.30947029 -9.60654447 18.10176331 -15 18 C-15 14 -15 14 -13.73071289 12.26074219 C-13.1505542 11.69516602 -12.57039551 11.12958984 -11.97265625 10.546875 C-11.34552734 9.928125 -10.71839844 9.309375 -10.07226562 8.671875 C-9.40904297 8.03765625 -8.74582031 7.4034375 -8.0625 6.75 C-7.40314453 6.1003125 -6.74378906 5.450625 -6.06445312 4.78125 C-1.16768973 0 -1.16768973 0 0 0 Z " fill="#987F77" transform="translate(242,249)"/>
<path d="M0 0 C0.99 0.33 1.98 0.66 3 1 C1.34701458 8.75631621 -0.49028516 16.47085548 -3 24 C-3.52400648 27.34054133 -3.73224309 29.82271871 -1.89453125 32.77734375 C-0.02331214 34.96274286 1.9549991 36.97478943 4 39 C5.12051963 40.13209244 6.24025082 41.26496557 7.359375 42.3984375 C10.55246727 45.61995752 13.7708963 48.81459846 17 52 C15.515 52.495 15.515 52.495 14 53 C10.95869725 50.20701364 7.95216179 47.38132731 4.97290039 44.5222168 C3.95636302 43.55578701 2.93100679 42.59854227 1.89672852 41.65112305 C-6.59627521 33.85393167 -6.59627521 33.85393167 -7.51708984 29.62548828 C-7.29542493 27.24531587 -6.76835337 25.26129793 -6 23 C-5.61378149 21.45332501 -5.22837407 19.90644727 -4.84375 18.359375 C-4.40304858 16.82083159 -3.95510241 15.28434525 -3.5 13.75 C-1.49930735 6.9369888 -1.49930735 6.9369888 0 0 Z " fill="#ECBC31" transform="translate(352,56)"/>
<path d="M0 0 C0.53109375 0.27714844 1.0621875 0.55429687 1.609375 0.83984375 C2.31578125 1.20207031 3.0221875 1.56429688 3.75 1.9375 C4.79414063 2.47697266 4.79414063 2.47697266 5.859375 3.02734375 C11.93741927 5.78908284 19.31710972 6.24392607 25.6484375 4.10546875 C27.19076698 3.39919166 28.71811521 2.65855844 30.22265625 1.875 C32 1 32 1 34 1 C32.43989422 5.21228561 29.5154607 7.34546845 26 10 C19.74251171 12.08582943 12.39543597 12.1346802 6.4375 9.3125 C4.00251916 7.00238998 1.89653609 4.77186045 0 2 C0 1.34 0 0.68 0 0 Z " fill="#988179" transform="translate(214,277)"/>
<path d="M0 0 C0.99 0.33 1.98 0.66 3 1 C2.21033294 4.18799874 1.41790125 7.37530425 0.625 10.5625 C0.29242188 11.90538086 0.29242188 11.90538086 -0.046875 13.27539062 C-0.37558594 14.59506836 -0.37558594 14.59506836 -0.7109375 15.94140625 C-1.00943604 17.14325562 -1.00943604 17.14325562 -1.31396484 18.36938477 C-2.15497407 21.5942511 -3.08442989 24.7955046 -4 28 C-17.53 28 -31.06 28 -45 28 C-45 27.67 -45 27.34 -45 27 C-32.46 27 -19.92 27 -7 27 C-5.68 21.72 -4.36 16.44 -3 11 C-2.01163281 7.32892185 -1.02379241 3.66083346 0 0 Z " fill="#9E8532" transform="translate(256,416)"/>
<path d="M0 0 C0.99 0 1.98 0 3 0 C5.31 8.91 7.62 17.82 10 27 C9.01 27 8.02 27 7 27 C4.07866678 18.07288022 1.82256583 9.20948037 0 0 Z " fill="#F3C131" transform="translate(249,19)"/>
<path d="M0 0 C2 2 2 2 2.125 4.625 C2.08375 5.40875 2.0425 6.1925 2 7 C0.02 6.34 -1.96 5.68 -4 5 C-4 4.01 -4 3.02 -4 2 C-2.68 1.34 -1.36 0.68 0 0 Z " fill="#F0BD2D" transform="translate(318,427)"/>
<path d="M0 0 C1.57554035 2.88628401 2.46276373 5.53342384 3.125 8.75 C3.29257812 9.54921875 3.46015625 10.3484375 3.6328125 11.171875 C3.81457031 12.07679687 3.81457031 12.07679687 4 13 C3.01 13 2.02 13 1 13 C-0.6290678 8.20862412 -1.20577428 4.94367454 0 0 Z " fill="#E1B129" transform="translate(255,33)"/>
<path d="M0 0 C0.66 0.66 1.32 1.32 2 2 C1.96712417 4.72869407 1.43602229 7.2966618 1 10 C0.01 10 -0.98 10 -2 10 C-1.34 6.7 -0.68 3.4 0 0 Z " fill="#F9C737" transform="translate(251,433)"/>
<path d="M0 0 C0.66 0 1.32 0 2 0 C1.67 3.3 1.34 6.6 1 10 C-1 8 -1 8 -1.1875 5 C-1 2 -1 2 0 0 Z " fill="#E5B62E" transform="translate(253,427)"/>
</svg>
