<?xml version="1.0" encoding="UTF-8"?>
<svg version="1.1" xmlns="http://www.w3.org/2000/svg" width="512" height="512">
<path d="M0 0 C0.76441406 -0.01611328 1.52882813 -0.03222656 2.31640625 -0.04882812 C8.54515131 -0.05411568 14.21494661 0.94176152 19.1484375 4.9609375 C19.81746094 5.81558594 19.81746094 5.81558594 20.5 6.6875 C21.19222656 7.53441406 21.19222656 7.53441406 21.8984375 8.3984375 C25.996699 14.79381373 25.125 18.12640606 25.125 26.3125 C48.555 26.3125 71.985 26.3125 96.125 26.3125 C96.125 22.3525 96.125 18.3925 96.125 14.3125 C97.81700307 8.93790201 101.44196324 5.33146739 106.125 2.3125 C111.01021556 0.22287022 115.34589732 0.00715143 120.5625 0.0625 C121.28759766 0.05476563 122.01269531 0.04703125 122.75976562 0.0390625 C130.60900864 0.06727182 136.42990892 1.61740892 142.125 7.3125 C146.7797735 13.51886466 145.125 17.60080463 145.125 26.3125 C168.885 26.3125 192.645 26.3125 217.125 26.3125 C217.125 22.0225 217.125 17.7325 217.125 13.3125 C220.02565295 6.89590409 222.77999117 4.19659492 229.125 1.3125 C236.57130102 -0.89231182 247.4476527 -1.02815475 254.875 1.5 C260.4173176 4.59090789 264.03998543 8.27693151 266.125 14.3125 C266.20608626 16.38267488 266.22579555 18.45575192 266.19921875 20.52734375 C266.18850342 21.61007568 266.17778809 22.69280762 266.16674805 23.80834961 C266.15297119 24.63471924 266.13919434 25.46108887 266.125 26.3125 C267.73556274 26.28893433 267.73556274 26.28893433 269.37866211 26.26489258 C273.39860399 26.21020046 277.41851362 26.17600842 281.4387207 26.14770508 C283.17185006 26.13270731 284.90494204 26.11230228 286.63793945 26.08618164 C289.14283525 26.04939797 291.6472252 26.03268349 294.15234375 26.01953125 C294.91522202 26.00404739 295.67810028 25.98856354 296.46409607 25.97261047 C305.70119128 25.96978235 312.49617559 28.79120567 319.17578125 35.12109375 C323.78953341 40.30809768 326.23659986 46.37440792 326.2636652 53.3185997 C326.26913964 54.1103279 326.27461409 54.9020561 326.28025442 55.71777606 C326.28172158 57.01349406 326.28172158 57.01349406 326.28321838 58.33538818 C326.28815636 59.25760516 326.29309434 60.17982214 326.29818195 61.12998509 C326.31356692 64.22695438 326.32192031 67.32390291 326.33032227 70.42089844 C326.3399 72.63821089 326.34991002 74.85552151 326.36032104 77.0728302 C326.38738749 83.09924895 326.40838766 89.12567555 326.42832303 95.15212154 C326.45017183 101.44755932 326.47756593 107.74297287 326.50437927 114.03839111 C326.54864327 124.6071263 326.589476 135.17587046 326.62768555 145.74462891 C326.66705051 156.63038097 326.70847914 167.51612195 326.75268555 178.40185547 C326.75540982 179.07287858 326.75813409 179.74390169 326.76094092 180.43525884 C326.77462056 183.80159247 326.7883408 187.16792593 326.80208123 190.53425932 C326.91592417 218.46031687 327.02275819 246.38639774 327.125 274.3125 C328.0844603 274.58049408 329.04392059 274.84848816 330.03245544 275.12460327 C331.29203568 275.47970978 332.55161591 275.83481628 333.84936523 276.20068359 C335.72168068 276.72642471 335.72168068 276.72642471 337.63182068 277.26278687 C341.70267406 278.48609316 345.4246108 279.97963604 349.1875 281.9375 C350.18064209 282.4473645 350.18064209 282.4473645 351.19384766 282.9675293 C371.79330684 293.9241105 385.44109582 311.47678724 393.125 333.3125 C395.67858795 342.13842956 396.6449635 350.51953793 396.5625 359.6875 C396.55222778 361.45685913 396.55222778 361.45685913 396.54174805 363.26196289 C396.3773278 372.20777913 395.32296273 379.89955882 392.125 388.3125 C391.56425781 389.88451172 391.56425781 389.88451172 390.9921875 391.48828125 C386.1468555 404.11502392 378.49831054 413.80255228 369.125 423.3125 C368.46757812 423.9828125 367.81015625 424.653125 367.1328125 425.34375 C351.6980113 439.91738204 328.79791559 446.78290317 307.90234375 446.4609375 C283.76593484 445.17094659 262.6354269 436.04374766 246.125 418.3125 C244.41722675 416.3417308 242.76725167 414.33904457 241.125 412.3125 C240.67769531 412.75980469 240.23039062 413.20710938 239.76953125 413.66796875 C238.50976546 414.92773454 237.24930997 416.1868109 235.98828125 417.4453125 C234.52428006 418.91238287 233.07233325 420.39148342 231.625 421.875 C230.8 422.679375 229.975 423.48375 229.125 424.3125 C228.44630859 424.98539062 228.44630859 424.98539062 227.75390625 425.671875 C212.56173477 439.76536076 191.17261766 446.08743914 170.8125 446.625 C169.24797933 446.55767983 167.68482319 446.45109495 166.125 446.3125 C165.11050781 446.23128906 164.09601563 446.15007812 163.05078125 446.06640625 C139.48314301 443.45972334 118.99260563 432.61394551 103.75 414.48828125 C92.125 399.05433239 92.125 399.05433239 92.125 393.3125 C91.33023569 393.31710896 90.53547138 393.32171793 89.71662331 393.32646656 C70.3523103 393.43702802 50.98806053 393.51969652 31.62349892 393.57156086 C22.25881214 393.59731063 12.89433643 393.63239924 3.52978516 393.68969727 C-4.63513606 393.73963129 -12.79990437 393.77181446 -20.96497405 393.78294247 C-25.28588716 393.78944437 -29.60636293 393.80465771 -33.92713547 393.84115028 C-38.00001804 393.8752682 -42.07228609 393.88552145 -46.145298 393.87803841 C-47.63435972 393.87940595 -49.1234435 393.88924444 -50.61238098 393.90852737 C-60.38149147 394.02876339 -68.57130554 393.25153874 -76.01189232 386.32252979 C-83.71768857 378.25544463 -84.3155221 370.90035255 -84.26940918 360.12382507 C-84.27430178 358.77609573 -84.2804933 357.42837059 -84.28786707 356.08065253 C-84.30424317 352.38739611 -84.30195346 348.69435348 -84.2964921 345.00107348 C-84.293819 341.01389306 -84.308359 337.02676926 -84.32058716 333.03961182 C-84.34163191 325.23194597 -84.34618254 317.4243544 -84.34439927 309.61666354 C-84.3430911 303.26917595 -84.3468986 296.92171152 -84.35432434 290.57422829 C-84.35642356 288.74508804 -84.35852116 286.9159478 -84.36061716 285.08680755 C-84.36166069 284.17635749 -84.36270422 283.26590742 -84.36377937 282.32786796 C-84.38267807 265.11216129 -84.38163274 247.89649724 -84.37481004 230.6807845 C-84.36923552 214.93869305 -84.39005679 199.19676439 -84.42317051 183.45471098 C-84.45692151 167.28394961 -84.47207404 151.11326619 -84.46745348 134.94246894 C-84.46521013 125.86655594 -84.47043221 116.79079338 -84.49534607 107.71491051 C-84.51637747 99.98766579 -84.51993305 92.260654 -84.50104648 84.53339966 C-84.49189969 80.59281265 -84.49071266 76.65265969 -84.51140213 72.7121067 C-84.53015598 69.1001814 -84.52556051 65.48904431 -84.50285631 61.87714861 C-84.49671341 59.96117573 -84.51502749 58.0451718 -84.53439283 56.12928694 C-84.44828992 47.70767976 -82.90205394 40.90074199 -77.23077536 34.43914527 C-68.86955479 26.3034699 -58.85745505 25.82740055 -47.84375 25.9609375 C-46.1458245 25.99434576 -44.44790783 26.02820537 -42.75 26.0625 C-41.01304147 26.08259918 -39.27606043 26.1008439 -37.5390625 26.1171875 C-33.31714513 26.16090489 -29.09632516 26.2297414 -24.875 26.3125 C-24.88732666 25.63993164 -24.89965332 24.96736328 -24.91235352 24.27441406 C-24.92194092 23.38463867 -24.93152832 22.49486328 -24.94140625 21.578125 C-24.95373291 20.69930664 -24.96605957 19.82048828 -24.97875977 18.91503906 C-24.7859036 14.07775261 -23.54479045 10.20998915 -20.328125 6.5546875 C-14.18634468 0.92925155 -8.08357215 -0.03373778 0 0 Z " fill="#020202" transform="translate(99.875,32.6875)"/>
<path d="M0 0 C126.72 0 253.44 0 384 0 C384 47.52 384 95.04 384 144 C378.72 144.33 373.44 144.66 368 145 C353.03962883 147.2985987 339.05716559 153.90072535 327 163 C326.39027344 163.45761719 325.78054688 163.91523438 325.15234375 164.38671875 C320.29039313 168.28696485 316.66480669 172.98734647 313 178 C309.34594397 176.50738336 307.49401122 174.4558204 305 171.4375 C292.49921552 157.28489897 273.9086789 147.01116167 255 145 C226.98020437 143.55962496 204.59675356 148.65739838 183.1640625 167.4921875 C169.78707413 180.13619021 159.15588123 198.69934272 157.74682617 217.35131836 C157.67099419 220.80179711 157.68793086 224.23684395 157.75 227.6875 C157.75773437 229.42483398 157.75773437 229.42483398 157.765625 231.19726562 C157.80993497 236.07413142 157.95697378 240.86020178 158.5100708 245.7068634 C158.60142933 246.51231 158.69278786 247.3177566 158.78691483 248.14761066 C158.89239199 249.06454339 158.89239199 249.06454339 159 250 C139.67648117 250.09345677 120.35300822 250.16398578 101.02931023 250.20724869 C92.05689818 250.22787067 83.08462658 250.25598429 74.11230469 250.30175781 C66.2916826 250.34163675 58.47116223 250.36743546 50.65044129 250.37635398 C46.50969037 250.38156696 42.36923046 250.39381161 38.22857285 250.42292023 C34.32976075 250.45010617 30.43135905 250.45843868 26.53246117 250.45243073 C25.10300782 250.45352955 23.67354051 250.46146486 22.24416924 250.4768219 C8.75293138 250.61463895 8.75293138 250.61463895 4 246 C3.30139925 245.32899545 2.6027985 244.65799089 1.88302803 243.96665287 C-0.80842624 239.72634927 -0.54320478 236.17546435 -0.48101807 231.24943542 C-0.48444214 230.26340836 -0.48786621 229.27738129 -0.49139404 228.26147461 C-0.49802008 224.94379859 -0.47591376 221.6269285 -0.45410156 218.30932617 C-0.45287639 215.89575126 -0.4534099 213.48217492 -0.45556259 211.06860065 C-0.45646656 204.5983287 -0.43326385 198.12835195 -0.40512085 191.65814972 C-0.38236062 185.58935096 -0.38126945 179.52062443 -0.37841797 173.45178223 C-0.35741896 155.6969823 -0.30157446 137.94223744 -0.25 120.1875 C-0.1675 80.525625 -0.085 40.86375 0 0 Z " fill="#FDFDFD" transform="translate(29,163)"/>
<path d="M0 0 C41.25 0 82.5 0 125 0 C125 11.22 125 22.44 125 34 C129.65672498 82.42993977 146.83728093 133.83728093 182 169 C181.5875 169.35449219 181.175 169.70898438 180.75 170.07421875 C168.29515613 181.55602794 159.0266713 200.40972335 157.74682617 217.35131836 C157.67099419 220.80179711 157.68793086 224.23684395 157.75 227.6875 C157.75773437 229.42483398 157.75773437 229.42483398 157.765625 231.19726562 C157.80993497 236.07413142 157.95697378 240.86020178 158.5100708 245.7068634 C158.60142933 246.51231 158.69278786 247.3177566 158.78691483 248.14761066 C158.89239199 249.06454339 158.89239199 249.06454339 159 250 C139.67648117 250.09345677 120.35300822 250.16398578 101.02931023 250.20724869 C92.05689818 250.22787067 83.08462658 250.25598429 74.11230469 250.30175781 C66.2916826 250.34163675 58.47116223 250.36743546 50.65044129 250.37635398 C46.50969037 250.38156696 42.36923046 250.39381161 38.22857285 250.42292023 C34.32976075 250.45010617 30.43135905 250.45843868 26.53246117 250.45243073 C25.10300782 250.45352955 23.67354051 250.46146486 22.24416924 250.4768219 C8.75293138 250.61463895 8.75293138 250.61463895 4 246 C3.30139925 245.32899545 2.6027985 244.65799089 1.88302803 243.96665287 C-0.80843396 239.7263371 -0.54319062 236.17545551 -0.48101807 231.24943542 C-0.48443577 230.26102718 -0.48785347 229.27261894 -0.49137473 228.25425893 C-0.49796854 224.93898725 -0.47595205 221.62452339 -0.45410156 218.30932617 C-0.45297341 215.93423481 -0.45360631 213.55914206 -0.45587158 211.18405151 C-0.45690155 205.40204329 -0.43954953 199.62030011 -0.41412094 193.83835246 C-0.38551939 187.1099133 -0.37953966 180.38151175 -0.37496826 173.6530203 C-0.36621627 161.65412227 -0.33960335 149.65533308 -0.30175781 137.65649414 C-0.26503521 126.00155167 -0.23677056 114.34663893 -0.21972656 102.69165039 C-0.21811858 101.60283303 -0.21811858 101.60283303 -0.21647811 100.49201936 C-0.20722658 94.17780758 -0.19861545 87.86359497 -0.19006729 81.54938221 C-0.15243647 54.36615236 -0.07275263 27.18321106 0 0 Z " fill="#E5E5E5" transform="translate(29,163)"/>
<path d="M0 0 C1.18372948 0.00848969 1.18372948 0.00848969 2.39137268 0.01715088 C4.88785999 0.03936814 7.38286 0.08953281 9.87890625 0.140625 C11.58135934 0.16070912 13.28383514 0.17895653 14.98632812 0.1953125 C19.13858539 0.23918428 23.28974453 0.30810592 27.44140625 0.390625 C27.49401611 1.41905518 27.54662598 2.44748535 27.60083008 3.50708008 C27.6788308 4.87062659 27.75722048 6.2341509 27.8359375 7.59765625 C27.86949341 8.27380981 27.90304932 8.94996338 27.93762207 9.64660645 C28.25473398 14.9344877 29.04106606 19.24178226 32.44140625 23.390625 C40.66675048 29.93732755 50.3858829 29.200451 60.44140625 28.390625 C65.75191008 27.22457962 68.51060531 25.53085615 71.94140625 21.328125 C75.76351219 13.84316754 74.75069022 10.75136547 75.44140625 0.390625 C99.53140625 0.390625 123.62140625 0.390625 148.44140625 0.390625 C148.77140625 5.670625 149.10140625 10.950625 149.44140625 16.390625 C151.65881343 21.2689208 152.62471287 23.15157657 156.8984375 26.06640625 C161.94072398 27.95100947 166.60372158 27.82635719 171.94140625 27.765625 C172.96105469 27.77722656 173.98070312 27.78882812 175.03125 27.80078125 C180.56530332 27.77919197 184.701213 27.57114176 189.44140625 24.390625 C196.37485667 17.07198289 195.69309076 10.86704187 196.44140625 0.390625 C220.20140625 0.390625 243.96140625 0.390625 268.44140625 0.390625 C268.77140625 5.010625 269.10140625 9.630625 269.44140625 14.390625 C271.80766642 20.6443126 274.30787266 24.3238582 280.44140625 27.390625 C284.33084068 27.68748151 288.22947766 27.6687385 292.12890625 27.703125 C293.20591797 27.73212891 294.28292969 27.76113281 295.39257812 27.79101562 C302.00158028 27.84369314 306.09897792 27.3847607 311.44140625 23.390625 C315.55559218 18.62683077 315.75525528 14.26696837 316.04296875 8.125 C316.08333252 7.3810498 316.12369629 6.63709961 316.1652832 5.87060547 C316.26348924 4.04426638 316.35328493 2.21747844 316.44140625 0.390625 C321.60085498 0.29141951 326.75974314 0.21899854 331.91992188 0.17089844 C333.67360104 0.1508379 335.42721378 0.12358249 337.18066406 0.08886719 C339.70784943 0.04010198 342.23414716 0.01760108 344.76171875 0 C345.54008087 -0.02064514 346.31844299 -0.04129028 347.12039185 -0.06256104 C352.36714506 -0.06470225 355.26105958 0.95315472 359.44140625 4.390625 C377.32409132 24.68988914 364.44140625 42.6171639 364.44140625 78.390625 C237.72140625 78.390625 111.00140625 78.390625 -19.55859375 78.390625 C-19.55859375 10.390625 -19.55859375 10.390625 -15.55859375 4.390625 C-10.28315733 0.53369571 -6.42772031 -0.17662241 0 0 Z " fill="#E73737" transform="translate(48.55859375,71.609375)"/>
<path d="M0 0 C2.46940706 1.92479463 4.82044868 3.92295635 7.1484375 6.015625 C7.75945312 6.53382813 8.37046875 7.05203125 9 7.5859375 C20.5479539 18.07928374 28.95040217 34.94819008 30.36987305 50.4309082 C31.36352926 71.77650805 27.28622918 90.53382798 13.62890625 107.44140625 C12.1484375 109.015625 12.1484375 109.015625 10.1484375 110.015625 C9.75914062 109.33757812 9.36984375 108.65953125 8.96875 107.9609375 C-0.56041066 92.10827852 -12.14309192 83.73418299 -29.8515625 79.015625 C-29.8515625 78.355625 -29.8515625 77.695625 -29.8515625 77.015625 C-28.51162435 76.1074447 -27.12727938 75.26443131 -25.7265625 74.453125 C-19.53729205 70.45690314 -16.31445162 65.47336293 -13.4765625 58.765625 C-11.73400273 48.31026639 -12.30553675 39.36044953 -17.94921875 30.2421875 C-22.50014996 24.16399463 -29.48528494 20.34397013 -36.8515625 19.015625 C-45.12745608 18.31791672 -51.65929937 18.7143696 -58.8515625 23.015625 C-59.80675781 23.55896484 -59.80675781 23.55896484 -60.78125 24.11328125 C-67.42224719 28.31734599 -70.75956628 34.57330215 -72.8515625 42.015625 C-73.89432838 52.80892902 -72.4104642 61.65806618 -65.61328125 70.21875 C-62.75273469 73.13638064 -59.44666167 75.11770463 -55.8515625 77.015625 C-58.33910126 79.50316376 -60.4612598 80.00893466 -63.7890625 81.140625 C-78.14617955 86.54435228 -88.6336739 96.67346729 -95.8515625 110.015625 C-108.50029375 98.51677841 -115.27115244 82.55902574 -116.20703125 65.671875 C-116.93397144 44.57999732 -111.83266112 26.53611415 -97.5390625 10.640625 C-71.82218616 -16.62487099 -30.895568 -21.49992951 0 0 Z " fill="#FDCF81" transform="translate(452.8515625,331.984375)"/>
<path d="M0 0 C1.18372948 0.00848969 1.18372948 0.00848969 2.39137268 0.01715088 C4.88785999 0.03936814 7.38286 0.08953281 9.87890625 0.140625 C11.58135934 0.16070912 13.28383514 0.17895653 14.98632812 0.1953125 C19.13858539 0.23918428 23.28974453 0.30810592 27.44140625 0.390625 C27.49401611 1.41905518 27.54662598 2.44748535 27.60083008 3.50708008 C27.6788308 4.87062659 27.75722048 6.2341509 27.8359375 7.59765625 C27.86949341 8.27380981 27.90304932 8.94996338 27.93762207 9.64660645 C28.25473398 14.9344877 29.04106606 19.24178226 32.44140625 23.390625 C40.66675048 29.93732755 50.3858829 29.200451 60.44140625 28.390625 C65.75191008 27.22457962 68.51060531 25.53085615 71.94140625 21.328125 C75.76351219 13.84316754 74.75069022 10.75136547 75.44140625 0.390625 C99.53140625 0.390625 123.62140625 0.390625 148.44140625 0.390625 C148.44140625 4.350625 148.44140625 8.310625 148.44140625 12.390625 C148.11140625 12.390625 147.78140625 12.390625 147.44140625 12.390625 C147.44140625 8.760625 147.44140625 5.130625 147.44140625 1.390625 C142.16140625 1.390625 136.88140625 1.390625 131.44140625 1.390625 C130.78140625 3.370625 130.12140625 5.350625 129.44140625 7.390625 C128.59759244 9.12884099 127.75161063 10.86620233 126.87792969 12.58959961 C117.43280643 31.38982663 110.32928748 52.84905153 107.91015625 73.81640625 C107.44140625 77.390625 107.44140625 77.390625 106.44140625 78.390625 C104.80917169 78.48668364 103.17276235 78.51250321 101.53770447 78.51087952 C99.94536736 78.51294151 99.94536736 78.51294151 98.32086182 78.51504517 C97.14626404 78.51144989 95.97166626 78.50785461 94.76147461 78.50415039 C93.53237869 78.50429642 92.30328278 78.50444244 91.03694153 78.5045929 C87.65691953 78.50401392 84.27695796 78.49898464 80.89694667 78.49201894 C77.36819431 78.48578488 73.83944122 78.48518156 70.3106842 78.48399353 C63.62417506 78.48088037 56.93768219 78.47266718 50.25118023 78.46264404 C42.64066322 78.45148244 35.03014545 78.44597233 27.4196223 78.44094861 C11.76020751 78.43048456 -3.89919102 78.41288541 -19.55859375 78.390625 C-19.65140668 69.62822192 -19.72241561 60.86598889 -19.76584244 52.10320091 C-19.78668865 48.03395561 -19.81495128 43.96504741 -19.86035156 39.89599609 C-19.90391635 35.96671882 -19.92775317 32.03776513 -19.93810272 28.10826492 C-19.94547513 26.61156752 -19.95987195 25.11488718 -19.98151398 23.61832809 C-20.01069132 21.51648898 -20.01454407 19.41597494 -20.01269531 17.31396484 C-20.02157776 16.11927582 -20.03046021 14.92458679 -20.03961182 13.69369507 C-19.45337314 9.6680928 -18.08430485 7.54602101 -15.55859375 4.390625 C-10.28315733 0.53369571 -6.42772031 -0.17662241 0 0 Z " fill="#CA2E2E" transform="translate(48.55859375,71.609375)"/>
<path d="M0 0 C13.60338451 11.29385468 13.60338451 11.29385468 17.1875 18.625 C16.75710448 23.16021246 15.3771132 27.0781431 13.75 31.3125 C6.83419311 50.4209144 7.15498427 71.52857358 15.24267578 90.25952148 C16.86766262 94.1266729 17.69535396 96.62918701 16.1875 100.625 C14.84765625 102.64453125 14.84765625 102.64453125 13.25 104.4375 C12.72535156 105.04207031 12.20070313 105.64664063 11.66015625 106.26953125 C10.1875 107.625 10.1875 107.625 8.1875 107.625 C6.7417015 105.63027801 5.39492449 103.63075359 4.0625 101.5625 C-4.63664753 88.59168414 -16.44123674 82.20559364 -30.8125 76.625 C-30.07257813 76.05265625 -29.33265625 75.4803125 -28.5703125 74.890625 C-20.70515332 68.42916278 -15.49679674 62.19283778 -14.43359375 51.98828125 C-13.8219802 41.75641905 -15.75359364 33.84166602 -22.3828125 25.6953125 C-28.52780786 19.72843295 -36.8837098 17.44085841 -45.25 17 C-54.59832332 17.34417817 -61.98293537 21.26966917 -68.375 28 C-74.22094928 35.32870564 -75.49854178 41.62413014 -75.296875 51.01171875 C-74.22226077 59.02799428 -70.15558858 66.55052914 -63.8125 71.625 C-61.84550021 73.03133477 -59.86249468 74.33779404 -57.8125 75.625 C-60.17884958 77.99134958 -62.12819361 78.62304711 -65.25 79.8125 C-80.23646392 85.95066846 -89.66882716 94.78075618 -97.8125 108.625 C-110.48743657 97.48641938 -116.5447047 79.94303738 -117.99707031 63.54052734 C-119.26858503 43.65824511 -112.68309264 25.729852 -99.8125 10.625 C-99.090625 9.635 -98.36875 8.645 -97.625 7.625 C-73.50530351 -20.55367453 -28.44517833 -21.24761154 0 0 Z " fill="#FDCF81" transform="translate(315.8125,333.375)"/>
<path d="M0 0 C1.18480453 -0.01260864 2.36960907 -0.02521729 3.59031677 -0.03820801 C4.86641312 -0.03011108 6.14250946 -0.02201416 7.45727539 -0.01367188 C8.77151993 -0.01749878 10.08576447 -0.02132568 11.43983459 -0.02526855 C14.21984693 -0.03115977 16.99934449 -0.02261526 19.77929688 -0.00390625 C23.33492839 0.01886215 26.88935073 0.00577323 30.44493771 -0.01819611 C33.84497925 -0.03616705 37.24469953 -0.02356524 40.64477539 -0.01367188 C42.55588356 -0.02581726 42.55588356 -0.02581726 44.50559998 -0.03820801 C46.28753502 -0.01929504 46.28753502 -0.01929504 48.10546875 0 C49.14819443 0.00318237 50.1909201 0.00636475 51.26524353 0.00964355 C54.94727945 0.66536234 56.58479254 1.7786003 59.11743164 4.51757812 C59.75234985 7.28074646 59.75234985 7.28074646 59.7644043 10.49194336 C59.7801651 11.69676865 59.7959259 12.90159393 59.81216431 14.14292908 C59.80204315 15.4408992 59.791922 16.73886932 59.78149414 18.07617188 C59.78486431 19.4261163 59.7897186 20.77605776 59.79598999 22.12599182 C59.80335472 24.95318535 59.79267248 27.77958803 59.76928711 30.60668945 C59.74082441 34.22307915 59.75718618 37.83761148 59.78714943 41.45393276 C59.80525808 44.24137751 59.79944814 47.02838533 59.78651047 49.81584358 C59.78157192 51.79500158 59.79670778 53.77417684 59.81216431 55.75328064 C59.74777316 60.68850189 59.68641444 64.40724019 57.41796875 68.83398438 C52.00958684 71.59278323 46.62620117 71.2087281 40.64477539 71.14648438 C39.32957413 71.14889633 38.01437286 71.15130829 36.65931702 71.15379333 C33.88096066 71.15664612 31.10341282 71.14200151 28.32519531 71.11450195 C24.76833344 71.0803846 21.21291336 71.08645214 17.65598202 71.10516453 C14.25627013 71.11828601 10.85697721 71.10001892 7.45727539 71.08398438 C6.18117905 71.08894424 4.9050827 71.09390411 3.59031677 71.09901428 C2.40551224 71.08317795 1.2207077 71.06734161 0 71.05102539 C-1.04193008 71.04482681 -2.08386017 71.03862823 -3.15736389 71.03224182 C-6.6642631 70.36995254 -7.82601844 69.41679003 -9.88256836 66.51757812 C-10.39050293 63.7097168 -10.39050293 63.7097168 -10.40014648 60.43554688 C-10.41905945 58.59343628 -10.41905945 58.59343628 -10.43835449 56.71411133 C-10.43119463 55.37776108 -10.42299063 54.04141608 -10.41381836 52.70507812 C-10.41651413 51.33031947 -10.42039725 49.95556268 -10.42541504 48.58081055 C-10.43130629 45.70245168 -10.42276012 42.82459003 -10.40405273 39.94628906 C-10.38126225 36.26053796 -10.39438749 32.5759519 -10.41834259 28.89024353 C-10.43281135 26.0522792 -10.4281899 23.21459015 -10.41783142 20.37661743 C-10.41516705 19.01787172 -10.41842377 17.65910084 -10.42774963 16.30038452 C-10.43793077 14.40013114 -10.41965565 12.49978989 -10.40014648 10.59960938 C-10.39696411 9.5191333 -10.39378174 8.43865723 -10.39050293 7.32543945 C-9.29336389 1.26045696 -5.70840519 0.01743521 0 0 Z " fill="#050606" transform="translate(78.882568359375,311.482421875)"/>
<path d="M0 0 C1.20805298 -0.01260864 2.41610596 -0.02521729 3.6607666 -0.03820801 C4.96187378 -0.03011108 6.26298096 -0.02201416 7.60351562 -0.01367188 C8.95585407 -0.01636772 10.30819063 -0.02025091 11.66052246 -0.02526855 C14.49180597 -0.03115946 17.32258395 -0.0226148 20.15380859 -0.00390625 C23.77903226 0.0188843 27.40307143 0.00575886 31.02825165 -0.01819611 C33.8198943 -0.03266583 36.61125714 -0.02804299 39.40290833 -0.01768494 C41.38820161 -0.01372732 43.37350586 -0.02585354 45.35876465 -0.03820801 C47.17084412 -0.01929504 47.17084412 -0.01929504 49.01953125 0 C50.08224243 0.00318237 51.14495361 0.00636475 52.23986816 0.00964355 C55.77865479 0.65857446 56.93983765 1.59358769 59.00976562 4.51757812 C59.5177002 7.28747559 59.5177002 7.28747559 59.52734375 10.5078125 C59.53995239 11.71586548 59.55256104 12.92391846 59.56555176 14.1685791 C59.55745483 15.46968628 59.54935791 16.77079346 59.54101562 18.11132812 C59.54371147 19.46366657 59.54759466 20.81600313 59.5526123 22.16833496 C59.55850321 24.99961847 59.54995855 27.83039645 59.53125 30.66162109 C59.50845945 34.28684476 59.52158489 37.91088393 59.54553986 41.53606415 C59.56000958 44.3277068 59.55538674 47.11906964 59.54502869 49.91072083 C59.54107107 51.89601411 59.55319729 53.88131836 59.56555176 55.86657715 C59.55294312 57.07463013 59.54033447 58.28268311 59.52734375 59.52734375 C59.52416138 60.59005493 59.520979 61.65276611 59.5177002 62.74768066 C58.8681848 66.28965468 57.94055932 67.45001569 55.00976562 69.51757812 C52.19517517 70.01878357 52.19517517 70.01878357 48.91186523 70.01928711 C47.68056381 70.02866806 46.44926239 70.03804901 45.1806488 70.04771423 C43.84112857 70.03723701 42.50161506 70.02586814 41.16210938 70.01367188 C39.78495711 70.01382689 38.4078044 70.01531629 37.03065491 70.01808167 C34.14808812 70.01946472 31.26601948 70.00692277 28.38354492 69.98413086 C24.68887502 69.95571894 20.99503093 69.9584916 17.30029964 69.97122097 C14.45810389 69.97817511 11.61609907 69.97039252 8.77392769 69.95796394 C7.41157323 69.95344868 6.04919828 69.95311331 4.68684196 69.95702934 C2.78395078 69.95993927 0.88106342 69.94128266 -1.02172852 69.92163086 C-2.64577354 69.91352638 -2.64577354 69.91352638 -4.30262756 69.90525818 C-6.99023438 69.51757812 -6.99023438 69.51757812 -8.8380127 68.36535645 C-10.49181629 65.71320844 -10.37874334 63.66386686 -10.39428711 60.54907227 C-10.40697128 59.320923 -10.41965546 58.09277374 -10.432724 56.82740784 C-10.43067247 55.48584831 -10.42768436 54.14428993 -10.42382812 52.80273438 C-10.42838923 51.42654665 -10.43369459 50.0503612 -10.43971252 48.67417908 C-10.44864785 45.78993477 -10.4462163 42.90596727 -10.4362793 40.02172852 C-10.42479307 36.32814351 -10.44499201 32.63551503 -10.47419643 28.9420557 C-10.49255702 26.09982752 -10.49226632 23.25782857 -10.48655891 20.41555595 C-10.48640565 19.05400692 -10.49245393 17.69244239 -10.50485039 16.33094978 C-10.51975139 14.42584611 -10.50645785 12.52058517 -10.49194336 10.61547852 C-10.49177719 9.53198624 -10.49161102 8.44849396 -10.49143982 7.33216858 C-9.39880694 1.19633327 -5.75187479 0.01722445 0 0 Z " fill="#030405" transform="translate(78.990234375,215.482421875)"/>
<path d="M0 0 C1.20805298 -0.01260864 2.41610596 -0.02521729 3.6607666 -0.03820801 C4.96187378 -0.03011108 6.26298096 -0.02201416 7.60351562 -0.01367188 C8.95585407 -0.01636772 10.30819063 -0.02025091 11.66052246 -0.02526855 C14.49180597 -0.03115946 17.32258395 -0.0226148 20.15380859 -0.00390625 C23.77903226 0.0188843 27.40307143 0.00575886 31.02825165 -0.01819611 C33.8198943 -0.03266583 36.61125714 -0.02804299 39.40290833 -0.01768494 C41.38820161 -0.01372732 43.37350586 -0.02585354 45.35876465 -0.03820801 C47.17084412 -0.01929504 47.17084412 -0.01929504 49.01953125 0 C50.08224243 0.00318237 51.14495361 0.00636475 52.23986816 0.00964355 C55.77865479 0.65857446 56.93983765 1.59358769 59.00976562 4.51757812 C59.5177002 7.28747559 59.5177002 7.28747559 59.52734375 10.5078125 C59.53995239 11.71586548 59.55256104 12.92391846 59.56555176 14.1685791 C59.55745483 15.46968628 59.54935791 16.77079346 59.54101562 18.11132812 C59.54371147 19.46366657 59.54759466 20.81600313 59.5526123 22.16833496 C59.55850321 24.99961847 59.54995855 27.83039645 59.53125 30.66162109 C59.50845945 34.28684476 59.52158489 37.91088393 59.54553986 41.53606415 C59.56000958 44.3277068 59.55538674 47.11906964 59.54502869 49.91072083 C59.54107107 51.89601411 59.55319729 53.88131836 59.56555176 55.86657715 C59.55294312 57.07463013 59.54033447 58.28268311 59.52734375 59.52734375 C59.52416138 60.59005493 59.520979 61.65276611 59.5177002 62.74768066 C58.86869763 66.28685809 57.93590814 67.44948084 55.00976562 69.51757812 C52.23313904 70.01205444 52.23313904 70.01205444 49.00366211 70.00341797 C47.79238144 70.00957123 46.58110077 70.01572449 45.33311462 70.02206421 C44.02887039 70.00769318 42.72462616 69.99332214 41.38085938 69.97851562 C40.02612992 69.97613012 38.67139711 69.9752261 37.31666565 69.97573853 C34.48116262 69.97261417 31.64616654 69.95607654 28.81079102 69.92919922 C25.17677167 69.89518693 21.5433081 69.88757175 17.90914822 69.88908958 C15.11329343 69.88854575 12.31756007 69.87757699 9.52174568 69.8630867 C7.5303355 69.85363183 5.53889982 69.85016428 3.54747009 69.84677124 C2.33934158 69.83401154 1.13121307 69.82125183 -0.11352539 69.80810547 C-1.17845718 69.80048187 -2.24338898 69.79285828 -3.34059143 69.78500366 C-5.99023438 69.51757812 -5.99023438 69.51757812 -8.99023438 67.51757812 C-10.04578977 64.35091195 -10.13595846 62.05981554 -10.16723633 58.73266602 C-10.18007156 57.54455826 -10.1929068 56.3564505 -10.20613098 55.13233948 C-10.21351791 53.84794479 -10.22090485 52.56355011 -10.22851562 51.24023438 C-10.23658737 49.92220322 -10.24465912 48.60417206 -10.25297546 47.24620056 C-10.26798546 44.45620859 -10.27783267 41.66624194 -10.28540039 38.8762207 C-10.29647944 35.30378474 -10.33090335 31.73196915 -10.37057209 28.15975285 C-10.40300184 24.74910451 -10.40751284 21.33852501 -10.41601562 17.92773438 C-10.43352371 16.64536392 -10.4510318 15.36299347 -10.46907043 14.04176331 C-10.46614487 12.85050339 -10.4632193 11.65924347 -10.46020508 10.43188477 C-10.46607132 9.38392227 -10.47193756 8.33595978 -10.47798157 7.25624084 C-9.39351835 1.16706385 -5.68453723 0.0170228 0 0 Z " fill="#040506" transform="translate(194.990234375,215.482421875)"/>
<path d="M0 0 C1.78204834 -0.01902626 1.78204834 -0.01902626 3.60009766 -0.03843689 C4.87933105 -0.03550125 6.15856445 -0.03256561 7.4765625 -0.02954102 C9.45148682 -0.03740379 9.45148682 -0.03740379 11.46630859 -0.04542542 C14.25042311 -0.05435056 17.03425069 -0.05194003 19.81835938 -0.04199219 C23.38301275 -0.03049527 26.94667657 -0.05072623 30.51119995 -0.07990932 C33.91637338 -0.10268308 37.3213147 -0.09580477 40.7265625 -0.09204102 C42.0057959 -0.10327499 43.2850293 -0.11450897 44.60302734 -0.12608337 C45.79105957 -0.11670242 46.9790918 -0.10732147 48.203125 -0.09765625 C49.77054443 -0.097407 49.77054443 -0.097407 51.36962891 -0.09715271 C54.88874694 0.54847101 56.04345507 1.49550065 58.1015625 4.40405273 C58.60276794 7.21864319 58.60276794 7.21864319 58.60327148 10.50195312 C58.61265244 11.73325455 58.62203339 12.96455597 58.63169861 14.23316956 C58.62122138 15.57268979 58.60985252 16.9122033 58.59765625 18.25170898 C58.59781127 19.62886125 58.59930067 21.00601395 58.60206604 22.38316345 C58.60344909 25.26573024 58.59090715 28.14779888 58.56811523 31.03027344 C58.53970331 34.72494334 58.54247597 38.41878743 58.55520535 42.11351871 C58.56215949 44.95571447 58.5543769 47.79771929 58.54194832 50.63989067 C58.53743306 52.00224513 58.53709769 53.36462008 58.54101372 54.72697639 C58.54392365 56.62986758 58.52526703 58.53275494 58.50561523 60.43554688 C58.50021225 61.51824356 58.49480927 62.60094025 58.48924255 63.71644592 C58.1015625 66.40405273 58.1015625 66.40405273 56.95033264 68.25282288 C54.29174213 69.90832818 52.23795816 69.78537577 49.1171875 69.79223633 C47.88581055 69.80169281 46.65443359 69.81114929 45.38574219 69.82089233 C44.04101236 69.81552262 42.69628546 69.80936967 41.3515625 69.80249023 C39.9729802 69.8045112 38.59439895 69.80742283 37.21582031 69.81118774 C34.32737036 69.81561008 31.43919883 69.80918332 28.55078125 69.79516602 C24.84826496 69.77807372 21.14640104 69.78791545 17.44390869 69.80588341 C14.59744348 69.81672395 11.75113295 69.81327377 8.90466309 69.80550003 C7.53950931 69.80349875 6.17434148 69.80595481 4.8092041 69.81293869 C2.9014513 69.82055664 0.99364926 69.80688679 -0.9140625 69.79223633 C-2.54263184 69.78865616 -2.54263184 69.78865616 -4.20410156 69.78500366 C-6.8984375 69.40405273 -6.8984375 69.40405273 -8.74720764 68.259552 C-10.41224719 65.57591793 -10.28708364 63.47444353 -10.30249023 60.32788086 C-10.31517441 59.07648315 -10.32785858 57.82508545 -10.34092712 56.5357666 C-10.33887582 55.16894364 -10.33588791 53.8021218 -10.33203125 52.43530273 C-10.33659179 51.03429918 -10.34189698 49.63329786 -10.34791565 48.2322998 C-10.35685037 45.29678251 -10.35441938 42.36153723 -10.34448242 39.42602539 C-10.33298543 35.66284688 -10.35321204 31.9006057 -10.38239956 28.13755035 C-10.40073826 25.2447513 -10.400474 22.35217791 -10.39476204 19.45933533 C-10.39460857 18.07184025 -10.40067412 16.68433012 -10.41305351 15.29689026 C-10.42791652 13.3580539 -10.41468075 11.41906346 -10.40014648 9.48022461 C-10.39998032 8.37674683 -10.39981415 7.27326904 -10.39964294 6.13635254 C-9.8984375 3.40405273 -9.8984375 3.40405273 -8.23573303 1.54954529 C-5.32341206 0.1222367 -3.24252466 0.01676575 0 0 Z " fill="#010101" transform="translate(311.8984375,215.595947265625)"/>
<path d="M0 0 C0.66 0.33 1.32 0.66 2 1 C1.34 2.32 0.68 3.64 0 5 C5.71793664 11.12636068 11.7309853 16.32806935 18.47705078 21.28051758 C20.03692624 22.45396057 21.52568035 23.72071837 23 25 C23 28 23 28 21.5 31.3125 C18.7994559 38.42262818 18.69548053 46.22124195 21.171875 53.39453125 C24.99074405 61.37675495 29.58765278 66.34573547 37 71 C34.63365042 73.36634958 32.68430639 73.99804711 29.5625 75.1875 C14.57603608 81.32566846 5.14367284 90.15575618 -3 104 C-15.67493657 92.86141938 -21.7322047 75.31803738 -23.18457031 58.91552734 C-24.45157562 39.10375734 -17.92449076 21.01205697 -5 6 C-4.02026645 4.81296766 -3.04103322 3.62552203 -2.0625 2.4375 C-1.381875 1.633125 -0.70125 0.82875 0 0 Z " fill="#EFBE69" transform="translate(221,338)"/>
<path d="M0 0 C5.98717973 4.9306186 11.8986774 10.46396548 15.05859375 17.6953125 C15.05859375 19.0153125 15.05859375 20.3353125 15.05859375 21.6953125 C-3.37896026 32.93240163 -23.91367679 38.7444195 -45.6171875 33.7890625 C-54.77068822 31.25140549 -63.0619769 26.9482654 -70.94140625 21.6953125 C-70.77433524 15.17954324 -67.00913914 11.3875862 -62.94140625 6.6953125 C-62.43738281 6.07269531 -61.93335938 5.45007813 -61.4140625 4.80859375 C-46.4214823 -12.16773752 -17.68201735 -12.91273927 0 0 Z " fill="#498EC0" transform="translate(437.94140625,430.3046875)"/>
<path d="M0 0 C0.87180908 0.00499512 1.74361816 0.00999023 2.6418457 0.01513672 C14.665578 0.33719106 25.4062955 5.08575874 34.1796875 13.30859375 C38.70893947 18.13914788 41.57204483 23.47768606 44.25 29.5 C27.39231885 41.88784145 8.601197 45.43268283 -11.90625 43.1484375 C-14.23826948 42.7130288 -16.47159652 42.15691195 -18.75 41.5 C-19.53890625 41.31695312 -20.3278125 41.13390625 -21.140625 40.9453125 C-28.52078559 39.06546027 -37.38643945 35.66358902 -42.27734375 29.609375 C-42.75 27.5 -42.75 27.5 -41.66015625 24.94921875 C-31.54524401 9.83031187 -18.84018838 -0.14310397 0 0 Z " fill="#498EC0" transform="translate(270.75,421.5)"/>
<path d="M0 0 C14.52 0 29.04 0 44 0 C44 14.52 44 29.04 44 44 C29.48 44 14.96 44 0 44 C0 29.48 0 14.96 0 0 Z " fill="#6AAEDE" transform="translate(314,229)"/>
<path d="M0 0 C14.19 0 28.38 0 43 0 C43 14.52 43 29.04 43 44 C28.81 44 14.62 44 0 44 C0 29.48 0 14.96 0 0 Z " fill="#6BB0E0" transform="translate(82,325)"/>
<path d="M0 0 C14.19 0 28.38 0 43 0 C43 14.19 43 28.38 43 43 C28.81 43 14.62 43 0 43 C0 28.81 0 14.62 0 0 Z " fill="#6DB2E3" transform="translate(198,229)"/>
<path d="M0 0 C14.19 0 28.38 0 43 0 C43 14.19 43 28.38 43 43 C28.81 43 14.62 43 0 43 C0 28.81 0 14.62 0 0 Z " fill="#6DB2E3" transform="translate(82,229)"/>
<path d="M0 0 C1.19599981 19.10277468 -4.48889098 36.53201378 -16.51953125 51.42578125 C-18 53 -18 53 -20 54 C-20.58394531 52.98292969 -20.58394531 52.98292969 -21.1796875 51.9453125 C-30.70884816 36.09265352 -42.29152942 27.71855799 -60 23 C-60 22.34 -60 21.68 -60 21 C-55.16927134 17.98157575 -50.9222214 16.27152355 -45.3125 15.1875 C-31.19125669 12.14841399 -17.70163094 6.9902643 -4.5546875 1.06640625 C-2 0 -2 0 0 0 Z " fill="#EFBD68" transform="translate(483,388)"/>
<path d="M0 0 C5.08979651 2.81093298 9.02870881 6.89862643 10.875 12.4375 C11.60988402 19.32854359 11.03796991 23.85035617 6.875 29.4375 C2.42616832 34.13626604 -2.08646813 36.03618447 -8.4375 36.875 C-13.92198076 36.22429889 -18.77532958 34.01248128 -22.55078125 29.875 C-26.52731225 24.09095491 -26.9435294 18.24617634 -26.125 11.4375 C-23.9450923 5.76222305 -20.46627643 2.34036763 -15.125 -0.5625 C-9.80670208 -2.33526597 -5.08669816 -2.28462067 0 0 Z " fill="#62A9DB" transform="translate(279.125,363.5625)"/>
<path d="M0 0 C5.40836151 2.76374421 8.89421299 7.70607648 10.7734375 13.34375 C11.39027817 19.51215673 9.9457492 24.12510143 6.7734375 29.34375 C2.58110595 34.20732565 -2.34436371 36.02350569 -8.6015625 36.71875 C-14.58338432 36.09994085 -19.20508178 33.8563257 -23.1640625 29.28125 C-27.21537822 23.51119428 -27.08158232 17.17584232 -26.2265625 10.34375 C-21.30299128 -0.34601704 -10.9580193 -3.229732 0 0 Z " fill="#63A9DC" transform="translate(418.2265625,363.65625)"/>
<path d="M0 0 C0.92280762 0.31022095 0.92280762 0.31022095 1.86425781 0.62670898 C4.65897656 1.56522214 7.45447724 2.50138458 10.25 3.4375 C11.21808594 3.76298828 12.18617188 4.08847656 13.18359375 4.42382812 C14.58544922 4.89272461 14.58544922 4.89272461 16.015625 5.37109375 C16.87446289 5.65911865 17.73330078 5.94714355 18.61816406 6.24389648 C20.73346278 6.91538891 22.84071282 7.49077539 25 8 C25.33 6.68 25.66 5.36 26 4 C26.07476562 4.8971875 26.14953125 5.794375 26.2265625 6.71875 C27.0941086 14.95193263 28.76020571 22.01367476 32.05517578 29.63085938 C33.67787353 33.4999886 34.50843565 36.00264552 33 40 C31.66015625 42.01953125 31.66015625 42.01953125 30.0625 43.8125 C29.53785156 44.41707031 29.01320313 45.02164063 28.47265625 45.64453125 C27 47 27 47 25 47 C23.5542015 45.00527801 22.20742449 43.00575359 20.875 40.9375 C12.17585247 27.96668414 0.37126326 21.58059364 -14 16 C-13.26265625 15.43410156 -12.5253125 14.86820312 -11.765625 14.28515625 C-9.17145429 12.14166774 -6.97920452 9.9517364 -4.75 7.4375 C-4.06421875 6.67308594 -3.3784375 5.90867187 -2.671875 5.12109375 C-0.81608372 3.0131075 -0.81608372 3.0131075 0 0 Z " fill="#EEBD68" transform="translate(299,394)"/>
<path d="M0 0 C1.24233398 0.00483398 1.24233398 0.00483398 2.50976562 0.00976562 C3.33412109 -0.00634766 4.15847656 -0.02246094 5.0078125 -0.0390625 C5.80123047 -0.03970703 6.59464844 -0.04035156 7.41210938 -0.04101562 C8.137771 -0.04399658 8.86343262 -0.04697754 9.61108398 -0.05004883 C11.57226562 0.32226562 11.57226562 0.32226562 13.30517578 1.37060547 C15.25332319 4.37127799 15.02007006 7.44770003 15.00585938 10.91210938 C15.01110123 11.65304337 15.01634308 12.39397736 15.02174377 13.15736389 C15.02816245 14.72330473 15.0268289 16.28929379 15.01831055 17.85522461 C15.00980705 20.24810955 15.03854841 22.63860139 15.0703125 25.03125 C15.07192485 26.55403574 15.07134634 28.07682571 15.06835938 29.59960938 C15.08521034 30.67008766 15.08521034 30.67008766 15.10240173 31.76219177 C15.05519293 35.13753286 14.79356055 37.01991955 12.77783203 39.77392578 C9.51580802 42.0639143 6.34354621 41.8667388 2.50976562 41.75976562 C1.78982422 41.76685547 1.06988281 41.77394531 0.328125 41.78125 C-4.76367436 41.7197891 -4.76367436 41.7197891 -7.13330078 40.30126953 C-9.18378434 37.16637332 -8.83459388 33.84770407 -8.79101562 30.22460938 C-8.79151413 29.43453995 -8.79201263 28.64447052 -8.79252625 27.83045959 C-8.79018745 26.16193117 -8.78047031 24.49339911 -8.76391602 22.82495117 C-8.74029003 20.26579399 -8.74336029 17.70767625 -8.75 15.1484375 C-8.74442429 13.52798856 -8.73731509 11.90754402 -8.72851562 10.28710938 C-8.72942703 9.51938705 -8.73033844 8.75166473 -8.73127747 7.9606781 C-8.63323938 0.64883908 -6.65681297 0.05958091 0 0 Z " fill="#E3E3E3" transform="translate(338.427734375,46.677734375)"/>
<path d="M0 0 C1.19012695 0.0009668 1.19012695 0.0009668 2.40429688 0.00195312 C3.22865234 0.01806641 4.05300781 0.03417969 4.90234375 0.05078125 C5.73056641 0.04755859 6.55878906 0.04433594 7.41210938 0.04101562 C13.57271783 0.09615533 13.57271783 0.09615533 15.83984375 2.36328125 C16.05186793 5.05287865 16.14381989 7.63691848 16.140625 10.328125 C16.14491013 11.1172377 16.14919525 11.9063504 16.15361023 12.71937561 C16.15935738 14.38964884 16.15985096 16.05994711 16.15551758 17.73022461 C16.1523603 20.28738097 16.17580126 22.84337765 16.20117188 25.40039062 C16.20344509 27.02213395 16.20414826 28.6438804 16.203125 30.265625 C16.21233475 31.03132309 16.22154449 31.79702118 16.23103333 32.58592224 C16.1853017 37.82857012 16.1853017 37.82857012 14.5612793 40.34228516 C11.43483967 42.19659951 7.86926709 41.83318831 4.33984375 41.80078125 C3.56769531 41.82076172 2.79554688 41.84074219 2 41.86132812 C-3.61253768 41.85646457 -3.61253768 41.85646457 -5.87939453 39.81494141 C-7.63574839 36.45289309 -7.59011328 33.34474492 -7.55859375 29.640625 C-7.56146393 28.89873428 -7.56433411 28.15684357 -7.56729126 27.39247131 C-7.56932805 25.82829014 -7.56382508 24.26408328 -7.55126953 22.69995117 C-7.53518626 20.30524897 -7.55114153 17.91222854 -7.5703125 15.51757812 C-7.56833044 13.99609003 -7.56448754 12.47460297 -7.55859375 10.953125 C-7.56466644 10.23744858 -7.57073914 9.52177216 -7.57699585 8.78440857 C-7.5364196 5.91998034 -7.47649528 3.85137509 -5.89526367 1.41162109 C-3.77216572 0.12886007 -2.47379372 -0.01016214 0 0 Z " fill="#E2E2E2" transform="translate(216.16015625,46.63671875)"/>
<path d="M0 0 C1.24233398 0.00483398 1.24233398 0.00483398 2.50976562 0.00976562 C3.33412109 -0.00634766 4.15847656 -0.02246094 5.0078125 -0.0390625 C5.80123047 -0.03970703 6.59464844 -0.04035156 7.41210938 -0.04101562 C8.137771 -0.04399658 8.86343262 -0.04697754 9.61108398 -0.05004883 C11.57226562 0.32226562 11.57226562 0.32226562 13.30517578 1.37060547 C15.25332319 4.37127799 15.02007006 7.44770003 15.00585938 10.91210938 C15.01110123 11.65304337 15.01634308 12.39397736 15.02174377 13.15736389 C15.02816245 14.72330473 15.0268289 16.28929379 15.01831055 17.85522461 C15.00980705 20.24810955 15.03854841 22.63860139 15.0703125 25.03125 C15.07192485 26.55403574 15.07134634 28.07682571 15.06835938 29.59960938 C15.08521034 30.67008766 15.08521034 30.67008766 15.10240173 31.76219177 C15.05519293 35.13753286 14.79356055 37.01991955 12.77783203 39.77392578 C9.51580802 42.0639143 6.34354621 41.8667388 2.50976562 41.75976562 C1.78982422 41.76685547 1.06988281 41.77394531 0.328125 41.78125 C-4.76367436 41.7197891 -4.76367436 41.7197891 -7.13330078 40.30126953 C-9.18378434 37.16637332 -8.83459388 33.84770407 -8.79101562 30.22460938 C-8.79151413 29.43453995 -8.79201263 28.64447052 -8.79252625 27.83045959 C-8.79018745 26.16193117 -8.78047031 24.49339911 -8.76391602 22.82495117 C-8.74029003 20.26579399 -8.74336029 17.70767625 -8.75 15.1484375 C-8.74442429 13.52798856 -8.73731509 11.90754402 -8.72851562 10.28710938 C-8.72942703 9.51938705 -8.73033844 8.75166473 -8.73127747 7.9606781 C-8.63323938 0.64883908 -6.65681297 0.05958091 0 0 Z " fill="#E0E0E0" transform="translate(97.427734375,46.677734375)"/>
<path d="M0 0 C0.58974609 0.08564209 1.17949219 0.17128418 1.78710938 0.25952148 C20.20670563 2.86450831 38.4283762 3.67699972 57 4 C54.2957626 5.80282493 51.84774154 6.97959763 48.875 8.25 C35.50396989 14.30215047 25.92432215 22.99313603 19 36 C8.29565463 26.26877694 2.5372861 14.03151851 0 0 Z " fill="#EEBD68" transform="translate(338,406)"/>
<path d="M0 0 C1.0209375 0.60134766 1.0209375 0.60134766 2.0625 1.21484375 C8.16231237 4.79199435 14.28574043 8.32550886 20.4375 11.8125 C21.11103516 12.19720459 21.78457031 12.58190918 22.47851562 12.97827148 C25.91481629 14.9182709 29.27955307 16.64515516 33 18 C30.33623385 23.04713586 27.38250583 25.9641279 22.125 28.25 C15.27826022 29.89321755 10.96630197 29.06603628 5.01953125 25.5 C1.22867322 22.68435303 -0.50728813 19.47813561 -2 15 C-2.11880354 13.1903182 -2.1751965 11.37603553 -2.1875 9.5625 C-2.20167969 8.61503906 -2.21585938 7.66757812 -2.23046875 6.69140625 C-1.99614518 3.95498356 -1.39701383 2.33571877 0 0 Z " fill="#488DBE" transform="translate(255,371)"/>
</svg>
