<?xml version="1.0" encoding="UTF-8"?>
<svg version="1.1" xmlns="http://www.w3.org/2000/svg" width="512" height="512">
<path d="M0 0 C1.81656742 -0.00230702 3.6331339 -0.00548516 5.44969845 -0.00945449 C10.42032691 -0.01777796 15.39087825 -0.01368835 20.36150694 -0.00748205 C25.73035922 -0.00294854 31.09919843 -0.00994578 36.4680481 -0.01544189 C46.97728668 -0.02432793 57.48649667 -0.02241739 67.99573636 -0.01661661 C76.53800265 -0.01209703 85.08026093 -0.01148851 93.62252808 -0.01366425 C94.83902068 -0.01397071 96.05551329 -0.01427718 97.3088693 -0.01459293 C99.78026939 -0.01523239 102.25166947 -0.01588082 104.72306955 -0.01653811 C127.88901216 -0.02223909 151.05493894 -0.01568715 174.22087896 -0.00493738 C194.09167789 0.00399792 213.96245345 0.00244581 233.83325195 -0.0067749 C256.91717825 -0.01748162 280.00109068 -0.02168979 303.08501911 -0.01555037 C305.54724947 -0.01491329 308.00947984 -0.01428455 310.47171021 -0.01366425 C311.68312602 -0.01335569 312.89454184 -0.01304714 314.14266723 -0.01272924 C322.67314833 -0.01100351 331.20362061 -0.01391479 339.73410034 -0.01862335 C350.13206387 -0.02423663 360.52999722 -0.02270629 370.9279573 -0.01206186 C376.23156124 -0.00681121 381.53511486 -0.00473812 386.83871841 -0.01136017 C391.69686724 -0.01733422 396.55491927 -0.01402047 401.41305935 -0.00340506 C403.16728785 -0.00117722 404.92152458 -0.00229346 406.67574775 -0.00715664 C423.37009919 -0.04987549 436.07486925 0.91933488 448.70727539 12.67584229 C455.31568695 19.95723064 458.16737539 27.4510295 458.18134022 37.12134743 C458.18369245 37.81520005 458.18604468 38.50905267 458.18846819 39.22393113 C458.19515093 41.56026295 458.19470018 43.89653906 458.19429016 46.23287964 C458.19758924 47.92037394 458.2013149 49.60786746 458.20543164 51.29535997 C458.21545477 55.94166289 458.21916894 60.58795289 458.22182095 65.23426509 C458.22572306 70.24193671 458.23530145 75.24959809 458.24403381 80.25726318 C458.26380058 92.355117 458.27386458 104.45297165 458.2827616 116.55083758 C458.28714404 122.24679689 458.29251096 127.94275526 458.29775047 133.63871384 C458.31476276 152.57129282 458.32925729 171.50387123 458.33649921 190.43645668 C458.33840913 195.3500735 458.34032946 200.26369032 458.34228516 205.17730713 C458.3427689 206.39857407 458.34325264 207.61984102 458.34375104 208.87811606 C458.35205268 228.66517252 458.37739188 248.45216856 458.40986583 268.23919864 C458.44292822 288.55021767 458.46094722 308.86120598 458.46414346 329.17225206 C458.46630928 340.57773928 458.4750686 351.98313838 458.50060463 363.3885994 C458.52230037 373.10130251 458.53036755 382.8138961 458.52063785 392.5266207 C458.51608995 397.48177501 458.51800799 402.43670326 458.53739929 407.39182663 C458.55500852 411.93079 458.5540514 416.46936203 458.538502 421.00832944 C458.53612254 422.64768183 458.54046706 424.28706117 458.55233065 425.92637236 C458.64567211 439.67955994 456.19246966 449.79533405 446.42211914 459.94146729 C438.96459201 466.846585 430.48767513 469.40774092 420.51377869 469.39098167 C419.74792519 469.3936335 418.98207169 469.39628533 418.19301051 469.39901751 C415.61173431 469.40671259 413.03050566 469.40726977 410.44921875 469.40786743 C408.58578334 469.41188192 406.72234881 469.41632012 404.85891533 469.42114699 C399.72620779 469.43311993 394.59350965 469.43876262 389.46079087 469.44332814 C383.92955803 469.44928153 378.39833645 469.46089206 372.86711121 469.47161865 C359.50264526 469.49614906 346.13817558 469.51077093 332.77369404 469.52367872 C328.9994053 469.52739024 325.22511693 469.53136351 321.45082855 469.53543139 C298.01680375 469.56066795 274.58277797 469.5827388 251.14874268 469.59515953 C245.71984861 469.59808079 240.29095456 469.60104833 234.86206055 469.60406494 C234.18759746 469.60443585 233.51313437 469.60480676 232.81823301 469.60518891 C210.95748342 469.61734059 189.09681441 469.6482786 167.23610266 469.68998647 C144.11921424 469.73401043 121.00236376 469.75969641 97.88542843 469.76508009 C85.2860207 469.76849425 72.68674009 469.78025014 60.08737183 469.81318283 C49.35693055 469.84118433 38.62664244 469.85218216 27.89616746 469.84098737 C22.42226034 469.83580102 16.94867398 469.83868639 11.47481346 469.86345291 C6.45951861 469.88595499 1.44477476 469.88519778 -3.57052982 469.86624904 C-5.38084815 469.86345041 -7.19120393 469.86903991 -9.0014621 469.88406198 C-23.16685609 469.9943837 -34.12331152 468.01645182 -44.75366211 457.79693604 C-51.17561572 450.37119571 -54.07311291 443.07365744 -54.08710194 433.38658714 C-54.08945417 432.69273452 -54.0918064 431.9988819 -54.09422991 431.28400344 C-54.10091265 428.94767162 -54.1004619 426.61139551 -54.10005188 424.27505493 C-54.10335095 422.58756063 -54.10707661 420.90006711 -54.11119336 419.2125746 C-54.12121649 414.56627168 -54.12493066 409.91998168 -54.12758267 405.27366948 C-54.13148478 400.26599786 -54.14106316 395.25833648 -54.14979553 390.25067139 C-54.1695623 378.15281757 -54.1796263 366.05496292 -54.18852332 353.95709699 C-54.19290576 348.26113768 -54.19827268 342.56517931 -54.20351219 336.86922073 C-54.22052447 317.93664175 -54.23501901 299.00406335 -54.24226093 280.07147789 C-54.24417085 275.15786107 -54.24609118 270.24424425 -54.24804688 265.33062744 C-54.24853062 264.1093605 -54.24901436 262.88809355 -54.24951275 261.62981851 C-54.2578144 241.84276205 -54.2831536 222.05576601 -54.31562755 202.26873593 C-54.34868994 181.9577169 -54.36670894 161.64672859 -54.36990517 141.33568251 C-54.372071 129.93019529 -54.38083032 118.52479619 -54.40636635 107.11933517 C-54.42806208 97.40663206 -54.43612927 87.69403847 -54.42639957 77.98131387 C-54.42185167 73.02615956 -54.42376971 68.07123131 -54.44316101 63.11610794 C-54.46077024 58.57714457 -54.45981312 54.03857254 -54.44426372 49.49960513 C-54.44188425 47.86025274 -54.44622878 46.2208734 -54.45809237 44.58156221 C-54.54979577 31.06973037 -52.22527494 20.94717136 -42.82788086 10.69146729 C-31.02681236 -0.6576454 -15.31994322 -0.04247101 0 0 Z " fill="#C5DBF1" transform="translate(53.952880859375,20.74603271484375)"/>
<path d="M0 0 C1.81656742 -0.00230702 3.6331339 -0.00548516 5.44969845 -0.00945449 C10.42032691 -0.01777796 15.39087825 -0.01368835 20.36150694 -0.00748205 C25.73035922 -0.00294854 31.09919843 -0.00994578 36.4680481 -0.01544189 C46.97728668 -0.02432793 57.48649667 -0.02241739 67.99573636 -0.01661661 C76.53800265 -0.01209703 85.08026093 -0.01148851 93.62252808 -0.01366425 C94.83902068 -0.01397071 96.05551329 -0.01427718 97.3088693 -0.01459293 C99.78026939 -0.01523239 102.25166947 -0.01588082 104.72306955 -0.01653811 C127.88901216 -0.02223909 151.05493894 -0.01568715 174.22087896 -0.00493738 C194.09167789 0.00399792 213.96245345 0.00244581 233.83325195 -0.0067749 C256.91717825 -0.01748162 280.00109068 -0.02168979 303.08501911 -0.01555037 C305.54724947 -0.01491329 308.00947984 -0.01428455 310.47171021 -0.01366425 C311.68312602 -0.01335569 312.89454184 -0.01304714 314.14266723 -0.01272924 C322.67314833 -0.01100351 331.20362061 -0.01391479 339.73410034 -0.01862335 C350.13206387 -0.02423663 360.52999722 -0.02270629 370.9279573 -0.01206186 C376.23156124 -0.00681121 381.53511486 -0.00473812 386.83871841 -0.01136017 C391.69686724 -0.01733422 396.55491927 -0.01402047 401.41305935 -0.00340506 C403.16728785 -0.00117722 404.92152458 -0.00229346 406.67574775 -0.00715664 C423.37009919 -0.04987549 436.07486925 0.91933488 448.70727539 12.67584229 C455.31568695 19.95723064 458.16737539 27.4510295 458.18134022 37.12134743 C458.18369245 37.81520005 458.18604468 38.50905267 458.18846819 39.22393113 C458.19515093 41.56026295 458.19470018 43.89653906 458.19429016 46.23287964 C458.19758924 47.92037394 458.2013149 49.60786746 458.20543164 51.29535997 C458.21545477 55.94166289 458.21916894 60.58795289 458.22182095 65.23426509 C458.22572306 70.24193671 458.23530145 75.24959809 458.24403381 80.25726318 C458.26380058 92.355117 458.27386458 104.45297165 458.2827616 116.55083758 C458.28714404 122.24679689 458.29251096 127.94275526 458.29775047 133.63871384 C458.31476276 152.57129282 458.32925729 171.50387123 458.33649921 190.43645668 C458.33840913 195.3500735 458.34032946 200.26369032 458.34228516 205.17730713 C458.3427689 206.39857407 458.34325264 207.61984102 458.34375104 208.87811606 C458.35205268 228.66517252 458.37739188 248.45216856 458.40986583 268.23919864 C458.44292822 288.55021767 458.46094722 308.86120598 458.46414346 329.17225206 C458.46630928 340.57773928 458.4750686 351.98313838 458.50060463 363.3885994 C458.52230037 373.10130251 458.53036755 382.8138961 458.52063785 392.5266207 C458.51608995 397.48177501 458.51800799 402.43670326 458.53739929 407.39182663 C458.55500852 411.93079 458.5540514 416.46936203 458.538502 421.00832944 C458.53612254 422.64768183 458.54046706 424.28706117 458.55233065 425.92637236 C458.64567211 439.67955994 456.19246966 449.79533405 446.42211914 459.94146729 C438.96459201 466.846585 430.48767513 469.40774092 420.51377869 469.39098167 C419.74792519 469.3936335 418.98207169 469.39628533 418.19301051 469.39901751 C415.61173431 469.40671259 413.03050566 469.40726977 410.44921875 469.40786743 C408.58578334 469.41188192 406.72234881 469.41632012 404.85891533 469.42114699 C399.72620779 469.43311993 394.59350965 469.43876262 389.46079087 469.44332814 C383.92955803 469.44928153 378.39833645 469.46089206 372.86711121 469.47161865 C359.50264526 469.49614906 346.13817558 469.51077093 332.77369404 469.52367872 C328.9994053 469.52739024 325.22511693 469.53136351 321.45082855 469.53543139 C298.01680375 469.56066795 274.58277797 469.5827388 251.14874268 469.59515953 C245.71984861 469.59808079 240.29095456 469.60104833 234.86206055 469.60406494 C234.18759746 469.60443585 233.51313437 469.60480676 232.81823301 469.60518891 C210.95748342 469.61734059 189.09681441 469.6482786 167.23610266 469.68998647 C144.11921424 469.73401043 121.00236376 469.75969641 97.88542843 469.76508009 C85.2860207 469.76849425 72.68674009 469.78025014 60.08737183 469.81318283 C49.35693055 469.84118433 38.62664244 469.85218216 27.89616746 469.84098737 C22.42226034 469.83580102 16.94867398 469.83868639 11.47481346 469.86345291 C6.45951861 469.88595499 1.44477476 469.88519778 -3.57052982 469.86624904 C-5.38084815 469.86345041 -7.19120393 469.86903991 -9.0014621 469.88406198 C-23.16685609 469.9943837 -34.12331152 468.01645182 -44.75366211 457.79693604 C-51.17561572 450.37119571 -54.07311291 443.07365744 -54.08710194 433.38658714 C-54.08945417 432.69273452 -54.0918064 431.9988819 -54.09422991 431.28400344 C-54.10091265 428.94767162 -54.1004619 426.61139551 -54.10005188 424.27505493 C-54.10335095 422.58756063 -54.10707661 420.90006711 -54.11119336 419.2125746 C-54.12121649 414.56627168 -54.12493066 409.91998168 -54.12758267 405.27366948 C-54.13148478 400.26599786 -54.14106316 395.25833648 -54.14979553 390.25067139 C-54.1695623 378.15281757 -54.1796263 366.05496292 -54.18852332 353.95709699 C-54.19290576 348.26113768 -54.19827268 342.56517931 -54.20351219 336.86922073 C-54.22052447 317.93664175 -54.23501901 299.00406335 -54.24226093 280.07147789 C-54.24417085 275.15786107 -54.24609118 270.24424425 -54.24804688 265.33062744 C-54.24853062 264.1093605 -54.24901436 262.88809355 -54.24951275 261.62981851 C-54.2578144 241.84276205 -54.2831536 222.05576601 -54.31562755 202.26873593 C-54.34868994 181.9577169 -54.36670894 161.64672859 -54.36990517 141.33568251 C-54.372071 129.93019529 -54.38083032 118.52479619 -54.40636635 107.11933517 C-54.42806208 97.40663206 -54.43612927 87.69403847 -54.42639957 77.98131387 C-54.42185167 73.02615956 -54.42376971 68.07123131 -54.44316101 63.11610794 C-54.46077024 58.57714457 -54.45981312 54.03857254 -54.44426372 49.49960513 C-54.44188425 47.86025274 -54.44622878 46.2208734 -54.45809237 44.58156221 C-54.54979577 31.06973037 -52.22527494 20.94717136 -42.82788086 10.69146729 C-31.02681236 -0.6576454 -15.31994322 -0.04247101 0 0 Z M-41.95288086 127.25396729 C-42.05600586 178.19771729 -42.15913086 229.14146729 -42.26538086 281.62896729 C-42.31090088 297.72210693 -42.3564209 313.81524658 -42.40332031 330.39605713 C-42.42004117 344.80592079 -42.42004117 344.80592079 -42.43009949 359.21578979 C-42.43476288 365.64044332 -42.45310648 372.06487954 -42.48075867 378.48947144 C-42.51261066 385.90079803 -42.52705474 393.31191616 -42.52010561 400.7233117 C-42.51709649 404.51374613 -42.52183029 408.30371476 -42.54895651 412.09406352 C-42.57785791 416.15722677 -42.56783223 420.21938044 -42.55415344 424.28262329 C-42.56871676 425.45934916 -42.58328009 426.63607502 -42.59828472 427.84845924 C-42.52201073 436.27785617 -40.81018783 443.09278548 -34.96304208 449.4005636 C-28.76965532 455.28428276 -22.65184544 457.71744713 -14.15133858 457.63149071 C-13.39294337 457.63585103 -12.63454817 457.64021135 -11.85317129 457.64470381 C-9.31518988 457.65564081 -6.77775393 457.64524544 -4.23977661 457.63491821 C-2.40048567 457.6383754 -0.5611968 457.64314037 1.27808774 457.64909995 C6.33005506 457.66163141 11.38185252 457.65542973 16.43382049 457.64614129 C21.88314834 457.63935986 27.33244677 457.6498276 32.7817688 457.65808105 C43.45666617 457.67143078 54.1315003 457.66853496 64.80640016 457.65984313 C73.48226812 457.65307117 82.15811835 457.65214776 90.83398819 457.65541458 C92.06825237 457.65587428 93.30251654 457.65633398 94.57418267 457.65680761 C97.08150235 457.65776678 99.58882203 457.65873942 102.09614171 457.65972538 C124.94520742 457.66803907 147.79424453 457.65941307 170.64330413 457.64369759 C191.49586382 457.62946433 212.34836853 457.63073169 233.20092773 457.64508057 C256.63273115 457.66115038 280.06450832 457.66745557 303.49631703 457.65824378 C305.9950842 457.65728812 308.49385138 457.65634501 310.99261856 457.65541458 C312.83681134 457.65472034 312.83681134 457.65472034 314.71826055 457.65401208 C323.38288916 457.65142165 332.04749828 457.65579441 340.71212387 457.66285324 C351.27274944 457.67126747 361.83330811 457.66898981 372.39392601 457.65301101 C377.78233609 457.6451268 383.17063463 457.6420393 388.55904388 457.65195847 C393.4925411 457.66090283 398.42582348 457.6559766 403.35930122 457.64002581 C405.14322201 457.63667689 406.92716097 457.63837456 408.71107005 457.64565317 C424.3793628 457.92022942 424.3793628 457.92022942 437.85961914 450.62896729 C438.92116211 449.71244385 438.92116211 449.71244385 440.00415039 448.77740479 C446.07468222 441.2791953 446.62073797 433.77878058 446.52813721 424.40287781 C446.53156128 423.13234558 446.53498535 421.86181335 446.53851318 420.55278015 C446.54744069 417.03990062 446.53149333 413.52751326 446.51141006 410.01469617 C446.49388671 406.1632911 446.49979222 402.3119071 446.50268173 398.46047306 C446.50480455 390.99128434 446.48637273 383.52228867 446.46067642 376.0531495 C446.43183295 367.40982413 446.42869506 358.76661407 446.42553711 350.12322998 C446.40455101 327.3126119 446.34870636 304.50203668 446.29711914 281.69146729 C446.21461914 230.72709229 446.13211914 179.76271729 446.04711914 127.25396729 C285.00711914 127.25396729 123.96711914 127.25396729 -41.95288086 127.25396729 Z " fill="#055870" transform="translate(53.952880859375,20.74603271484375)"/>
<path d="M0 0 C14.20055326 11.93905912 24.69319398 25.37343952 33.375 41.625 C33.83519531 42.44097656 34.29539062 43.25695312 34.76953125 44.09765625 C50.06559297 72.40751017 51.97726343 108.99008836 42.96875 139.5546875 C36.13008338 161.18716176 24.86573259 179.15164631 9.375 195.625 C8.8490625 196.21539062 8.323125 196.80578125 7.78125 197.4140625 C-11.74560077 218.43531511 -43.95482421 232.75251571 -72.43359375 234.53515625 C-112.95040812 235.67577648 -147.38592583 224.62069484 -177.31469727 196.85644531 C-192.36500635 182.49148728 -202.51298219 165.03245644 -209.625 145.625 C-210.02332031 144.59117187 -210.42164063 143.55734375 -210.83203125 142.4921875 C-222.23797966 111.13650909 -218.42626111 75.42441705 -204.65478516 45.51806641 C-200.51977571 36.94488223 -195.56022763 29.0758304 -189.625 21.625 C-189.21378906 21.10695801 -188.80257812 20.58891602 -188.37890625 20.05517578 C-179.47781149 8.93210892 -169.6526712 -0.62952096 -157.625 -8.375 C-156.56152344 -9.08398438 -155.49804688 -9.79296875 -154.40234375 -10.5234375 C-140.59453767 -19.45914288 -124.81894307 -25.51471523 -108.625 -28.375 C-107.64402344 -28.57738281 -106.66304688 -28.77976563 -105.65234375 -28.98828125 C-67.97031397 -35.99113634 -29.47764445 -23.45843314 0 0 Z " fill="#2C3E50" transform="translate(247.625,210.375)"/>
<path d="M0 0 C1.71588637 0.00056512 3.43177321 0.00024559 5.1476593 -0.00088501 C9.77500259 -0.00145559 14.40224083 0.01025069 19.02955985 0.02426291 C23.87686353 0.03681969 28.72416999 0.03794465 33.57148743 0.04031372 C42.73679649 0.046514 51.90205748 0.06290507 61.06734544 0.0830127 C71.50754024 0.10541702 81.94773742 0.11637651 92.3879503 0.12640357 C113.85151512 0.14727266 135.31503675 0.18242025 156.77856445 0.22705078 C158.07162162 3.06336035 159.35370299 5.90450744 160.6340332 8.74658203 C160.99621948 9.54068481 161.35840576 10.3347876 161.73156738 11.1529541 C164.97091007 18.36810543 167.0440511 25.50134397 168.77856445 33.22705078 C169.07633789 34.33306641 169.37411133 35.43908203 169.6809082 36.57861328 C177.04231383 66.63485931 169.35917176 97.43359325 157.77856445 125.22705078 C171.63856445 125.22705078 185.49856445 125.22705078 199.77856445 125.22705078 C205.43086316 109.88509714 209.91225695 96.87592778 212.46459961 81.11474609 C212.72944196 79.52239689 213.03111481 77.93623786 213.34106445 76.35205078 C216.60095448 53.06712204 211.75260279 28.03271799 202.6340332 6.52783203 C201.77856445 4.22705078 201.77856445 4.22705078 201.77856445 1.22705078 C212.33856445 1.22705078 222.89856445 1.22705078 233.77856445 1.22705078 C250.04320477 40.26218755 252.13693984 76.44215322 236.77856445 116.22705078 C235.12856445 119.52705078 233.47856445 122.82705078 231.77856445 126.22705078 C302.72856445 126.22705078 373.67856445 126.22705078 446.77856445 126.22705078 C446.77856445 126.55705078 446.77856445 126.88705078 446.77856445 127.22705078 C400.4235238 127.24417269 354.06848288 127.26009285 307.71343994 127.26939392 C306.68399709 127.26960101 306.68399709 127.26960101 305.63375741 127.26981228 C290.71797181 127.27280533 275.80218618 127.27557549 260.88640051 127.27811611 C253.57148379 127.27936342 246.25656709 127.28065998 238.94165039 127.28198242 C238.21373627 127.28211318 237.48582214 127.28224394 236.73585001 127.28237866 C213.15084308 127.28663843 189.56583855 127.29414857 165.98083308 127.303348 C141.73999799 127.31278605 117.49916424 127.31893749 93.25832734 127.32096577 C89.83285513 127.32125392 86.40738292 127.32157955 82.98191071 127.32192802 C82.30774235 127.32199545 81.63357399 127.32206287 80.93897629 127.32213234 C70.09577064 127.3233131 59.25256911 127.3279486 48.40936514 127.33388282 C37.5028168 127.33977773 26.59627272 127.341936 15.68972287 127.34055216 C9.78255425 127.33991148 3.87539768 127.34089582 -2.0317688 127.34625626 C-7.44303972 127.35113079 -12.85429053 127.3513628 -18.26556239 127.34794968 C-20.22000293 127.34752797 -22.17444474 127.34878942 -24.1288828 127.35193396 C-33.87600634 127.36670055 -43.51899974 127.30944441 -53.22143555 126.22705078 C-53.31431701 113.88297736 -53.38529269 101.53898775 -53.42868423 89.19463539 C-53.44951519 83.46198769 -53.47775086 77.72957994 -53.52319336 71.99707031 C-53.56681111 66.45978833 -53.59060641 60.92273646 -53.60094452 55.38529587 C-53.60830732 53.27788041 -53.62268493 51.17047684 -53.64435577 49.06315994 C-53.67360133 46.1001029 -53.67738271 43.13798396 -53.67553711 40.17480469 C-53.68991821 39.31308655 -53.70429932 38.45136841 -53.71911621 37.5635376 C-53.64890394 27.07374706 -49.10704134 18.31546952 -42.09643555 10.66455078 C-30.47685351 -0.51002599 -15.10506862 -0.0701293 0 0 Z " fill="#077998" transform="translate(53.221435546875,20.77294921875)"/>
<path d="M0 0 C3.12412627 1.61264423 4.35357586 4.38977957 5.98828125 7.37109375 C9.19376073 13.17179109 12.54955881 17.33262416 18.86328125 19.80859375 C19.91515625 20.22109375 20.96703125 20.63359375 22.05078125 21.05859375 C22.56770809 33.82860126 21.79481651 46.38994942 14.05078125 57.05859375 C12.80852505 58.29558616 11.5583155 59.5246363 10.30078125 60.74609375 C5.45981404 65.90209137 5.98460415 72.32743682 6.05078125 79.05859375 C6.58703125 79.00058594 7.12328125 78.94257813 7.67578125 78.8828125 C21.66723167 78.07738361 36.4146238 84.49065224 46.87109375 93.484375 C53.12723798 99.49428615 58.1720528 104.66229524 58.52075195 113.61083984 C58.52683565 115.76794536 58.51094891 117.92519125 58.4765625 120.08203125 C58.47163033 121.79490829 58.47163033 121.79490829 58.46659851 123.54238892 C58.45620979 125.94449606 58.43631481 128.34657873 58.4074707 130.74853516 C58.363182 134.44187064 58.34600037 138.13455616 58.33398438 141.828125 C58.32056895 144.16276989 58.30564837 146.49740673 58.2890625 148.83203125 C58.28167557 149.94234711 58.27428864 151.05266296 58.26667786 152.19662476 C58.25384262 153.21503448 58.24100739 154.23344421 58.2277832 155.28271484 C58.21301689 156.6333754 58.21301689 156.6333754 58.19795227 158.01132202 C58.05078125 160.05859375 58.05078125 160.05859375 57.05078125 161.05859375 C55.16747578 161.15732656 53.28042287 161.18491562 51.39453125 161.18557739 C50.16613525 161.18839722 48.93773926 161.19121704 47.67211914 161.19412231 C46.2983397 161.19217772 44.9245604 161.19012953 43.55078125 161.18798828 C42.11385046 161.18934228 40.67692002 161.19112221 39.23999023 161.19329834 C35.32687536 161.19787281 31.41378674 161.19608306 27.50067139 161.19291925 C23.41450935 161.19039572 19.32834962 161.19273317 15.2421875 161.19430542 C8.37890213 161.19612714 1.5156275 161.19372076 -5.34765625 161.18896484 C-13.29393881 161.18352222 -21.24019572 161.18528487 -29.18647766 161.19079125 C-35.99665039 161.19532232 -42.80681538 161.19597296 -49.61698914 161.19335258 C-53.68981344 161.19178977 -57.76262568 161.19159614 -61.83544922 161.19488907 C-65.66357632 161.1977677 -69.4916702 161.19579224 -73.3197937 161.18999481 C-74.72874903 161.18866717 -76.13770713 161.1890614 -77.54666138 161.19125748 C-79.46209618 161.19396879 -81.37753707 161.18997433 -83.29296875 161.18557739 C-84.36740234 161.18520037 -85.44183594 161.18482334 -86.54882812 161.18443489 C-88.94921875 161.05859375 -88.94921875 161.05859375 -89.94921875 160.05859375 C-90.06864037 158.48041914 -90.11933524 156.89697606 -90.14208984 155.31445312 C-90.15815277 154.30249878 -90.1742157 153.29054443 -90.19076538 152.2479248 C-90.23520837 147.58553633 -90.27633287 142.92329336 -90.29931641 138.26074219 C-90.31582228 135.80686931 -90.34304039 133.35304343 -90.38134766 130.89941406 C-90.43636097 127.35847048 -90.45803488 123.81865832 -90.47265625 120.27734375 C-90.49532562 119.18949585 -90.517995 118.10164795 -90.54135132 116.98083496 C-90.51669397 108.00764987 -87.82011259 102.22615443 -82.01171875 95.49609375 C-71.03588035 85.14744612 -55.19704407 78.73286424 -40.328125 78.98828125 C-39.54308594 79.01148438 -38.75804687 79.0346875 -37.94921875 79.05859375 C-37.9824188 76.65913567 -38.04973537 74.26871268 -38.13671875 71.87109375 C-38.14251953 71.19755859 -38.14832031 70.52402344 -38.15429688 69.83007812 C-38.32440638 65.95536171 -38.79151315 64.24284131 -41.33984375 61.265625 C-42.2009375 60.53730469 -43.06203125 59.80898438 -43.94921875 59.05859375 C-51.66258261 50.32096206 -53.98083148 39.04198494 -54.44921875 27.68359375 C-54.5575 25.81574219 -54.5575 25.81574219 -54.66796875 23.91015625 C-53.81739542 19.35219262 -52.54426112 16.94011712 -49.35205078 13.61621094 C-44.45823403 10.44383227 -38.77233522 11.17940611 -33.13671875 11.37109375 C-21.69737223 11.65511345 -13.70625291 10.61014237 -5.07421875 2.68359375 C-4.30464844 1.89855469 -4.30464844 1.89855469 -3.51953125 1.09765625 C-1.94921875 0.05859375 -1.94921875 0.05859375 0 0 Z " fill="#F4593E" transform="translate(178.94921875,237.94140625)"/>
<path d="M0 0 C3.96 0 7.92 0 12 0 C12.00054477 1.59359282 12.00108953 3.18718563 12.00165081 4.82906914 C12.01569888 42.66877851 12.05546817 80.50838633 12.12685562 118.34803277 C12.13562224 123.00676109 12.14417207 127.66548978 12.15258789 132.32421875 C12.15426695 133.25167684 12.15594602 134.17913493 12.15767596 135.13469781 C12.18433631 150.1464555 12.19344035 165.158175 12.19604143 180.16995393 C12.19910228 195.57664465 12.22106428 210.98322508 12.26052457 226.38986599 C12.284274 235.89448137 12.29332978 245.39887649 12.28351311 254.90351744 C12.27819204 261.42369314 12.29125206 267.94367171 12.3186629 274.4637913 C12.33393167 278.22406776 12.34119491 281.98390294 12.32659721 285.74419212 C12.310961 289.82674924 12.33408285 293.90819245 12.36076355 297.99069214 C12.35009029 299.17164864 12.33941703 300.35260515 12.32842034 301.56934822 C12.4288384 309.8131804 14.0487162 316.69584886 19.75531548 322.91207302 C25.60765265 328.42383345 31.86448237 330.45778231 39.80154228 330.37752342 C40.55993749 330.38188374 41.31833269 330.38624407 42.09970957 330.39073652 C44.63769097 330.40167352 47.17512693 330.39127816 49.71310425 330.38095093 C51.55239519 330.38440811 53.39168406 330.38917309 55.23096859 330.39513266 C60.28293592 330.40766412 65.33473338 330.40146244 70.38670135 330.39217401 C75.8360292 330.38539258 81.28532763 330.39586032 86.73464966 330.40411377 C97.40954703 330.41746349 108.08438116 330.41456767 118.75928102 330.40587585 C127.43514898 330.39910388 136.11099921 330.39818048 144.78686905 330.4014473 C146.02113323 330.401907 147.2553974 330.40236669 148.52706353 330.40284032 C151.03438321 330.40379949 153.54170289 330.40477213 156.04902257 330.4057581 C178.89808828 330.41407178 201.74712539 330.40544579 224.59618499 330.38973031 C245.44874468 330.37549704 266.30124939 330.37676441 287.15380859 330.39111328 C310.58561201 330.40718309 334.01738918 330.41348829 357.44919789 330.40427649 C359.94796506 330.40332084 362.44673224 330.40237773 364.94549942 330.4014473 C366.7896922 330.40075306 366.7896922 330.40075306 368.67114141 330.40004479 C377.33577002 330.39745436 386.00037914 330.40182712 394.66500473 330.40888596 C405.2256303 330.41730018 415.78618897 330.41502252 426.34680687 330.39904372 C431.73521695 330.39115952 437.12351549 330.38807201 442.51192474 330.39799118 C447.44542196 330.40693554 452.37870434 330.40200932 457.31218208 330.38605852 C459.09610287 330.38270961 460.88004183 330.38440728 462.66395091 330.39168589 C478.00085671 330.73415291 478.00085671 330.73415291 491.3125 323.875 C491.92738281 323.35679687 492.54226563 322.83859375 493.17578125 322.3046875 C499.06884048 314.85949489 499.57943447 307.33311793 499.51898193 298.11094666 C499.52648319 296.83327205 499.53398444 295.55559744 499.541713 294.23920542 C499.5618839 290.7135257 499.55744304 287.1882504 499.54880548 283.6625396 C499.54384597 279.85280064 499.56196369 276.04316137 499.57722473 272.23345947 C499.60050468 265.63978193 499.6092867 259.04621428 499.60811615 252.45249748 C499.60644487 242.91921276 499.62680242 233.38607425 499.65247145 223.85282857 C499.69352615 208.38439609 499.71685868 192.91598997 499.72900391 177.44750977 C499.74083726 162.42469755 499.76104338 147.40193493 499.79248047 132.37915039 C499.79441657 131.45255928 499.79635267 130.52596816 499.79834744 129.57129853 C499.80811222 124.92268778 499.81804129 120.27407741 499.82805204 115.62546718 C499.91083913 77.08366779 499.96455098 38.54187009 500 0 C503.96 0 507.92 0 512 0 C512.0912745 39.83150408 512.16205116 79.66299172 512.20426132 119.49457958 C512.20926407 124.19837223 512.21444137 128.90216468 512.21972656 133.60595703 C512.22130043 135.01060193 512.22130043 135.01060193 512.22290608 136.4436235 C512.24030548 151.60090465 512.27184062 166.75812503 512.30861118 181.91537015 C512.34603352 197.47116535 512.36823859 213.02692876 512.37635398 228.58276713 C512.38183907 238.17952088 512.3991556 247.77610288 512.43166587 257.37280376 C512.45282971 263.95598843 512.45919581 270.53908446 512.45400551 277.12230067 C512.45144663 280.91900686 512.4553352 284.71541318 512.4768219 288.51206589 C512.4999775 292.63383908 512.49193174 296.75497688 512.48101807 300.87680054 C512.49849512 302.66574456 512.49849512 302.66574456 512.51632524 304.49082887 C512.43144455 316.36037211 508.58046217 325.16644313 500.375 333.6875 C492.91747287 340.59261771 484.44055599 343.15377363 474.46665955 343.13701439 C473.70080605 343.13966622 472.93495255 343.14231804 472.14589137 343.14505023 C469.56461517 343.1527453 466.98338652 343.15330248 464.40209961 343.15390015 C462.5386642 343.15791464 460.67522967 343.16235284 458.81179619 343.1671797 C453.67908865 343.17915264 448.54639051 343.18479533 443.41367173 343.18936086 C437.88243889 343.19531424 432.35121731 343.20692477 426.81999207 343.21765137 C413.45552612 343.24218178 400.09105644 343.25680365 386.7265749 343.26971143 C382.95228616 343.27342296 379.17799778 343.27739623 375.40370941 343.2814641 C351.96968461 343.30670066 328.53565883 343.32877151 305.10162354 343.34119225 C299.67272947 343.34411351 294.24383542 343.34708105 288.81494141 343.35009766 C288.14047832 343.35046857 287.46601523 343.35083947 286.77111387 343.35122162 C264.91036428 343.36337331 243.04969527 343.39431132 221.18898351 343.43601918 C198.07209509 343.48004314 174.95524462 343.50572912 151.83830929 343.51111281 C139.23890156 343.51452697 126.63962095 343.52628285 114.04025269 343.55921555 C103.30981141 343.58721705 92.5795233 343.59821487 81.84904832 343.58702008 C76.3751412 343.58183374 70.90155484 343.58471911 65.42769432 343.60948563 C60.41239947 343.6319877 55.39765561 343.63123049 50.38235104 343.61228175 C48.57203271 343.60948312 46.76167693 343.61507263 44.95141876 343.63009469 C30.78602477 343.74041641 19.82956934 341.76248453 9.19921875 331.54296875 C3.34243658 324.77073928 -0.12661392 317.54771629 -0.12304783 308.60395432 C-0.1260344 306.95132871 -0.1260344 306.95132871 -0.12908131 305.26531672 C-0.12616847 304.05521033 -0.12325563 302.84510393 -0.12025452 301.59832764 C-0.12110894 300.3126745 -0.12196337 299.02702136 -0.12284368 297.70240903 C-0.12508258 294.13134102 -0.12107559 290.56030293 -0.11606562 286.98923874 C-0.11175266 283.139239 -0.11320815 279.28924098 -0.1139679 275.4392395 C-0.11449259 268.76800892 -0.11135144 262.09678812 -0.10573006 255.42556 C-0.09760774 245.78004921 -0.09499908 236.13454315 -0.09374207 226.48902932 C-0.0915527 210.84033978 -0.08489573 195.19165546 -0.07543945 179.54296875 C-0.06626236 164.34049506 -0.05918298 149.13802278 -0.05493164 133.93554688 C-0.05466892 132.99868116 -0.05440619 132.06181544 -0.05413551 131.09655985 C-0.05283048 126.39664403 -0.05156677 121.69672819 -0.05032361 116.99681234 C-0.03995459 77.99787121 -0.02226513 38.99893603 0 0 Z " fill="#1E697E" transform="translate(0,147)"/>
<path d="M0 0 C1.37735649 -0.00678541 2.75470389 -0.01569371 4.1320343 -0.02655029 C7.85328203 -0.04924134 11.57383254 -0.04055027 15.29509163 -0.02465487 C19.20044882 -0.01194252 23.10574871 -0.02375072 27.0111084 -0.03158569 C33.56789806 -0.04066683 40.12440558 -0.02873496 46.68115234 -0.00488281 C54.24764605 0.02232578 61.81346598 0.01351051 69.37994337 -0.01401484 C75.89148688 -0.03674898 82.40282827 -0.03988507 88.91439867 -0.02682149 C92.79686041 -0.0190505 96.67900607 -0.01792004 100.56144714 -0.03450394 C104.21270773 -0.04901261 107.86310481 -0.03881239 111.51427269 -0.01003265 C113.48312081 -0.00033332 115.45204248 -0.01506742 117.42085266 -0.03067017 C124.58753304 0.05453913 129.84181797 0.69712849 135.27539062 5.64697266 C139.89797217 11.4631721 139.86349325 16.73736464 139.80664062 23.98681641 C139.81046753 25.06774063 139.81429443 26.14866486 139.8182373 27.26234436 C139.82095073 29.54087255 139.81362963 31.81943219 139.796875 34.09790039 C139.77547951 37.57004875 139.79668677 41.04012305 139.82226562 44.51220703 C139.81962184 46.73291469 139.81449582 48.95362107 139.80664062 51.17431641 C139.81473755 52.20475571 139.82283447 53.23519501 139.83117676 54.29685974 C139.73246633 61.95216111 138.36028492 67.63920072 132.77539062 73.08447266 C128.71538786 75.62197439 125.26415297 75.77428732 120.52653503 75.79414368 C119.35317093 75.80129898 118.17980682 75.80845428 116.97088623 75.81582642 C115.68716125 75.81851532 114.40343628 75.82120422 113.08081055 75.82397461 C111.71228362 75.83024258 110.34375838 75.83688968 108.97523499 75.84388733 C104.48545508 75.86488763 99.99567499 75.87528483 95.50585938 75.88525391 C93.95822952 75.88930274 92.41059985 75.8934197 90.86297035 75.89760399 C83.59236676 75.91664554 76.32177327 75.93087964 69.05114955 75.93921596 C60.66605548 75.94898973 52.28122529 75.97531706 43.8962242 76.01571685 C37.40946137 76.04589564 30.92277413 76.06068643 24.43594247 76.06399697 C20.56406546 76.06634513 16.69247071 76.07527495 12.82066917 76.10045815 C9.17703309 76.12377557 5.53386438 76.1279577 1.89017296 76.11769676 C-0.07776523 76.11696712 -2.04567987 76.13603167 -4.01351929 76.15576172 C-11.83159113 76.10982655 -16.74536712 75.56809904 -22.47984314 69.91737366 C-26.23081417 64.04396545 -26.43985667 58.80851411 -26.35351562 51.95556641 C-26.35592758 50.85148941 -26.35833954 49.74741241 -26.36082458 48.60987854 C-26.35984906 46.2860249 -26.34652637 43.96214717 -26.3215332 41.63842773 C-26.28717881 38.09164171 -26.30090393 34.54734362 -26.3203125 31.00048828 C-26.3134146 28.73550377 -26.30374273 26.47052566 -26.29101562 24.20556641 C-26.29597549 23.1512291 -26.30093536 22.09689178 -26.30604553 21.01060486 C-26.20535005 14.68574386 -25.72039661 10.65684675 -21.72460938 5.64697266 C-15.24191033 -0.25369981 -8.39285063 -0.06651302 0 0 Z " fill="#057997" transform="translate(349.724609375,46.35302734375)"/>
<path d="M0 0 C3.12412627 1.61264423 4.35357586 4.38977957 5.98828125 7.37109375 C9.19376073 13.17179109 12.54955881 17.33262416 18.86328125 19.80859375 C19.91515625 20.22109375 20.96703125 20.63359375 22.05078125 21.05859375 C22.57331654 33.96715075 21.67491474 46.21692486 14.05078125 57.05859375 C12.84829465 58.24686148 11.63839766 59.42766861 10.421875 60.6015625 C6.00347235 65.58745048 6.17583095 70.1352967 6.36328125 76.55859375 C6.51645527 85.30653226 6.00821054 91.54256112 0.0859375 98.30078125 C-6.05457911 103.38342668 -10.29705327 105.57163136 -18.390625 105.3671875 C-25.14970152 104.55197064 -29.47787168 101.0478412 -33.72265625 95.9375 C-36.37337834 91.87699896 -37.18954651 88.30948331 -37.1875 83.49609375 C-37.20361328 82.45195312 -37.21972656 81.4078125 -37.23632812 80.33203125 C-37.25325475 78.14979901 -37.25846353 75.96744442 -37.25195312 73.78515625 C-37.2831209 67.38652832 -37.2831209 67.38652832 -40.36328125 61.953125 C-41.21664062 61.32792969 -42.07 60.70273437 -42.94921875 60.05859375 C-52.1529321 49.73927878 -54.12802391 37.12488019 -54.73828125 23.69921875 C-53.59056959 18.40383626 -51.52541679 15.05566808 -46.94921875 12.05859375 C-42.32581264 11.07730849 -37.84428444 11.21097247 -33.13671875 11.37109375 C-21.69737223 11.65511345 -13.70625291 10.61014237 -5.07421875 2.68359375 C-4.30464844 1.89855469 -4.30464844 1.89855469 -3.51953125 1.09765625 C-1.94921875 0.05859375 -1.94921875 0.05859375 0 0 Z " fill="#FDA982" transform="translate(178.94921875,237.94140625)"/>
<path d="M0 0 C10.56 0 21.12 0 32 0 C48.26464032 39.03513677 50.35837538 75.21510244 35 115 C33.35 118.3 31.7 121.6 30 125 C19.44 125 8.88 125 -2 125 C-0.7625 121.535 0.475 118.07 1.75 114.5 C5.04991061 105.0860182 7.98115016 95.77548346 10 86 C10.22429687 84.9171875 10.44859375 83.834375 10.6796875 82.71875 C15.17824959 56.83661197 11.07135344 29.39353319 0.85546875 5.30078125 C0 3 0 3 0 0 Z " fill="#057897" transform="translate(255,22)"/>
<path d="M0 0 C0.87024323 -0.00467997 1.74048646 -0.00935994 2.6371007 -0.01418173 C5.56449479 -0.02618495 8.49142535 -0.01665374 11.41882324 -0.00723267 C13.51289647 -0.011296 15.60696755 -0.01663653 17.70103455 -0.02316284 C23.39721086 -0.03687055 29.09322466 -0.03152352 34.78940392 -0.02202559 C40.74176863 -0.01444687 46.69411913 -0.02146961 52.64648438 -0.02618408 C62.64370226 -0.03164686 72.64085372 -0.02443633 82.63806152 -0.01016235 C94.20733287 0.00616512 105.77644563 0.00087698 117.34571314 -0.01564157 C127.26677133 -0.02924157 137.18778169 -0.03118338 147.10884619 -0.02332556 C153.0395553 -0.01864087 158.9701898 -0.01804604 164.90089417 -0.02793503 C170.47572847 -0.03658079 176.05035768 -0.03062656 181.62516975 -0.01325226 C183.6750816 -0.00927461 185.72501061 -0.01044316 187.7749157 -0.01704025 C190.56559277 -0.02519544 193.35560587 -0.0150074 196.14624023 0 C196.96422734 -0.00669217 197.78221444 -0.01338433 198.62498903 -0.02027929 C204.05702767 0.03667947 204.05702767 0.03667947 206.57636261 1.71726036 C208.15389165 4.35031822 207.9469505 6.39030783 207.57312012 9.38095093 C206.57636261 11.04464149 206.57636261 11.04464149 204.57312012 12.38095093 C201.69250004 12.67588552 199.02797471 12.78547807 196.14624023 12.76190186 C195.275997 12.76658183 194.40575377 12.7712618 193.50913954 12.77608359 C190.58174544 12.78808681 187.65481489 12.77855559 184.72741699 12.76913452 C182.63334377 12.77319786 180.53927269 12.77853839 178.44520569 12.7850647 C172.74902937 12.79877241 167.05301557 12.79342538 161.35683632 12.78392744 C155.40447161 12.77634873 149.4521211 12.78337147 143.49975586 12.78808594 C133.50253798 12.79354871 123.50538652 12.78633818 113.50817871 12.77206421 C101.93890736 12.75573673 90.3697946 12.76102487 78.8005271 12.77754343 C68.87946891 12.79114342 58.95845854 12.79308523 49.03739405 12.78522742 C43.10668493 12.78054272 37.17605043 12.77994789 31.24534607 12.78983688 C25.67051177 12.79848265 20.09588255 12.79252841 14.52107048 12.77515411 C12.47115864 12.77117647 10.42122963 12.77234502 8.37132454 12.77894211 C5.58064746 12.7870973 2.79063437 12.77690926 0 12.76190186 C-0.8179871 12.76859402 -1.63597421 12.77528619 -2.4787488 12.78218114 C-7.91078744 12.72522238 -7.91078744 12.72522238 -10.43012238 11.04464149 C-12.00765142 8.41158363 -11.80071027 6.37159402 -11.42687988 3.38095093 C-8.88931958 -0.85449762 -4.38392885 -0.03586606 0 0 Z " fill="#2C3E50" transform="translate(274.4268798828125,418.6190490722656)"/>
<path d="M0 0 C2.29094194 0.1013193 4.5828225 0.18215542 6.875 0.25 C13.55913352 0.69744457 13.55913352 0.69744457 17.1875 3.1875 C21.16253068 9.35565106 23.12421701 14.1913744 23.1328125 21.5 C23.13410156 22.551875 23.13539063 23.60375 23.13671875 24.6875 C23.13285156 25.780625 23.12898438 26.87375 23.125 28 C23.12886719 29.093125 23.13273437 30.18625 23.13671875 31.3125 C23.13542969 32.364375 23.13414062 33.41625 23.1328125 34.5 C23.13168457 35.4590625 23.13055664 36.418125 23.12939453 37.40625 C23.01207101 39.75803316 22.66781258 41.75052606 22 44 C15.50270102 42.86012299 11.30724881 41.09916451 7 36 C4.46478818 32.10273321 2.18424757 28.10293312 0 24 C-4.11416669 24.75547751 -6.43191264 26.73532357 -9.609375 29.33203125 C-18.85633368 35.78374916 -26.78121872 35.48302124 -37.91015625 35.22460938 C-44.43877369 35.04363061 -44.43877369 35.04363061 -50.20214844 37.60302734 C-51.69046052 39.33706368 -52.9047196 40.99847072 -54 43 C-54.66 42.67 -55.32 42.34 -56 42 C-56.51590798 28.84434644 -56.61873886 19.25736485 -47.875 8.6875 C-43.44353739 4.04466828 -38.95812403 1.29312673 -33 -1 C-31.3603125 -1.6496875 -31.3603125 -1.6496875 -29.6875 -2.3125 C-19.67847009 -4.17859032 -9.62141457 -3.20713819 0 0 Z " fill="#563414" transform="translate(180,215)"/>
<path d="M0 0 C1.31239655 -0.00708481 2.62479309 -0.01416962 3.97695923 -0.02146912 C5.43475376 -0.01917522 6.89254797 -0.01666551 8.3503418 -0.01396179 C9.88284555 -0.0183081 11.41534713 -0.02349097 12.94784546 -0.02944946 C17.11305008 -0.04285843 21.27816407 -0.04341611 25.44338608 -0.04088616 C28.91775019 -0.0398179 32.39209586 -0.04469603 35.86645603 -0.04949158 C44.06064288 -0.06059299 52.25478388 -0.06102039 60.44897461 -0.05497742 C68.90995691 -0.04893379 77.37077308 -0.06125701 85.83172703 -0.08254749 C93.09038385 -0.10014279 100.34898769 -0.10616819 107.60766506 -0.10290974 C111.94549004 -0.10109368 116.28319647 -0.10376526 120.6210022 -0.11762428 C124.6987536 -0.13016469 128.77624523 -0.12829473 132.85399246 -0.11521339 C134.35241405 -0.11283989 135.85085372 -0.11560988 137.34925461 -0.12383652 C139.39085316 -0.1342392 141.4325252 -0.12443703 143.47412109 -0.11352539 C144.6178569 -0.11369313 145.76159271 -0.11386087 146.93998718 -0.1140337 C149.73706055 0.26069641 149.73706055 0.26069641 151.60505676 1.59658527 C153.37458842 4.19789931 153.11882897 6.20654904 152.73706055 9.26069641 C151.60463619 10.92396641 151.60463619 10.92396641 149.73706055 12.26069641 C146.94278049 12.64101315 146.94278049 12.64101315 143.48085022 12.64837646 C142.16989883 12.6582811 140.85894745 12.66818573 139.50827026 12.6783905 C138.05206206 12.6741522 136.59585475 12.66959431 135.13964844 12.66474915 C133.60876465 12.67045027 132.07788512 12.67741353 130.54701233 12.68554688 C126.38583603 12.70352239 122.22487009 12.70230166 118.06366658 12.69660449 C114.591874 12.69351884 111.12012219 12.69959814 107.6483354 12.70564324 C99.45888196 12.71970139 91.2695328 12.71811659 83.08007812 12.70674133 C74.62701339 12.69525949 66.17426589 12.70933386 57.72124296 12.73613781 C50.46765405 12.7582786 43.21416484 12.76493584 35.96054453 12.7590614 C31.62656876 12.75568662 27.29279636 12.75814115 22.95884895 12.77531242 C18.88348158 12.79075373 14.8085849 12.78685774 10.73323631 12.76800728 C9.23684913 12.76431348 7.74042729 12.76745289 6.24407196 12.77789307 C4.20283491 12.79104841 2.16147677 12.77718127 0.12025452 12.76190186 C-1.0225595 12.76169257 -2.16537352 12.76148329 -3.34281826 12.76126766 C-6.91390143 12.1491076 -8.13061745 11.14980164 -10.26293945 8.26069641 C-10.20043945 5.13569641 -10.20043945 5.13569641 -9.26293945 2.26069641 C-5.71131647 -0.10705224 -4.21224238 0.00756047 0 0 Z " fill="#2C3E50" transform="translate(329.262939453125,343.7393035888672)"/>
<path d="M0 0 C1.31239655 -0.00708481 2.62479309 -0.01416962 3.97695923 -0.02146912 C5.43475376 -0.01917522 6.89254797 -0.01666551 8.3503418 -0.01396179 C9.88284555 -0.0183081 11.41534713 -0.02349097 12.94784546 -0.02944946 C17.11305008 -0.04285843 21.27816407 -0.04341611 25.44338608 -0.04088616 C28.91775019 -0.0398179 32.39209586 -0.04469603 35.86645603 -0.04949158 C44.06064288 -0.06059299 52.25478388 -0.06102039 60.44897461 -0.05497742 C68.90995691 -0.04893379 77.37077308 -0.06125701 85.83172703 -0.08254749 C93.09038385 -0.10014279 100.34898769 -0.10616819 107.60766506 -0.10290974 C111.94549004 -0.10109368 116.28319647 -0.10376526 120.6210022 -0.11762428 C124.6987536 -0.13016469 128.77624523 -0.12829473 132.85399246 -0.11521339 C134.35241405 -0.11283989 135.85085372 -0.11560988 137.34925461 -0.12383652 C139.39085316 -0.1342392 141.4325252 -0.12443703 143.47412109 -0.11352539 C144.6178569 -0.11369313 145.76159271 -0.11386087 146.93998718 -0.1140337 C149.73706055 0.26069641 149.73706055 0.26069641 151.60505676 1.59658527 C153.37458842 4.19789931 153.11882897 6.20654904 152.73706055 9.26069641 C151.60463619 10.92396641 151.60463619 10.92396641 149.73706055 12.26069641 C146.94278049 12.64101315 146.94278049 12.64101315 143.48085022 12.64837646 C142.16989883 12.6582811 140.85894745 12.66818573 139.50827026 12.6783905 C138.05206206 12.6741522 136.59585475 12.66959431 135.13964844 12.66474915 C133.60876465 12.67045027 132.07788512 12.67741353 130.54701233 12.68554688 C126.38583603 12.70352239 122.22487009 12.70230166 118.06366658 12.69660449 C114.591874 12.69351884 111.12012219 12.69959814 107.6483354 12.70564324 C99.45888196 12.71970139 91.2695328 12.71811659 83.08007812 12.70674133 C74.62701339 12.69525949 66.17426589 12.70933386 57.72124296 12.73613781 C50.46765405 12.7582786 43.21416484 12.76493584 35.96054453 12.7590614 C31.62656876 12.75568662 27.29279636 12.75814115 22.95884895 12.77531242 C18.88348158 12.79075373 14.8085849 12.78685774 10.73323631 12.76800728 C9.23684913 12.76431348 7.74042729 12.76745289 6.24407196 12.77789307 C4.20283491 12.79104841 2.16147677 12.77718127 0.12025452 12.76190186 C-1.0225595 12.76169257 -2.16537352 12.76148329 -3.34281826 12.76126766 C-6.91390143 12.1491076 -8.13061745 11.14980164 -10.26293945 8.26069641 C-10.20043945 5.13569641 -10.20043945 5.13569641 -9.26293945 2.26069641 C-5.71131647 -0.10705224 -4.21224238 0.00756047 0 0 Z " fill="#2D3F51" transform="translate(329.262939453125,268.7393035888672)"/>
<path d="M0 0 C1.31239655 -0.00708481 2.62479309 -0.01416962 3.97695923 -0.02146912 C5.43475376 -0.01917522 6.89254797 -0.01666551 8.3503418 -0.01396179 C9.88284555 -0.0183081 11.41534713 -0.02349097 12.94784546 -0.02944946 C17.11305008 -0.04285843 21.27816407 -0.04341611 25.44338608 -0.04088616 C28.91775019 -0.0398179 32.39209586 -0.04469603 35.86645603 -0.04949158 C44.06064288 -0.06059299 52.25478388 -0.06102039 60.44897461 -0.05497742 C68.90995691 -0.04893379 77.37077308 -0.06125701 85.83172703 -0.08254749 C93.09038385 -0.10014279 100.34898769 -0.10616819 107.60766506 -0.10290974 C111.94549004 -0.10109368 116.28319647 -0.10376526 120.6210022 -0.11762428 C124.6987536 -0.13016469 128.77624523 -0.12829473 132.85399246 -0.11521339 C134.35241405 -0.11283989 135.85085372 -0.11560988 137.34925461 -0.12383652 C139.39085316 -0.1342392 141.4325252 -0.12443703 143.47412109 -0.11352539 C144.6178569 -0.11369313 145.76159271 -0.11386087 146.93998718 -0.1140337 C149.73706055 0.26069641 149.73706055 0.26069641 151.60505676 1.59658527 C153.37458842 4.19789931 153.11882897 6.20654904 152.73706055 9.26069641 C151.60463619 10.92396641 151.60463619 10.92396641 149.73706055 12.26069641 C146.94278049 12.64101315 146.94278049 12.64101315 143.48085022 12.64837646 C142.16989883 12.6582811 140.85894745 12.66818573 139.50827026 12.6783905 C138.05206206 12.6741522 136.59585475 12.66959431 135.13964844 12.66474915 C133.60876465 12.67045027 132.07788512 12.67741353 130.54701233 12.68554688 C126.38583603 12.70352239 122.22487009 12.70230166 118.06366658 12.69660449 C114.591874 12.69351884 111.12012219 12.69959814 107.6483354 12.70564324 C99.45888196 12.71970139 91.2695328 12.71811659 83.08007812 12.70674133 C74.62701339 12.69525949 66.17426589 12.70933386 57.72124296 12.73613781 C50.46765405 12.7582786 43.21416484 12.76493584 35.96054453 12.7590614 C31.62656876 12.75568662 27.29279636 12.75814115 22.95884895 12.77531242 C18.88348158 12.79075373 14.8085849 12.78685774 10.73323631 12.76800728 C9.23684913 12.76431348 7.74042729 12.76745289 6.24407196 12.77789307 C4.20283491 12.79104841 2.16147677 12.77718127 0.12025452 12.76190186 C-1.0225595 12.76169257 -2.16537352 12.76148329 -3.34281826 12.76126766 C-6.91390143 12.1491076 -8.13061745 11.14980164 -10.26293945 8.26069641 C-10.20043945 5.13569641 -10.20043945 5.13569641 -9.26293945 2.26069641 C-5.71131647 -0.10705224 -4.21224238 0.00756047 0 0 Z " fill="#2D3F51" transform="translate(329.262939453125,193.7393035888672)"/>
<path d="M0 0 C1.50160927 -0.01268921 1.50160927 -0.01268921 3.03355408 -0.02563477 C4.130793 -0.01956207 5.22803192 -0.01348938 6.35852051 -0.00723267 C7.51481461 -0.01248962 8.6711087 -0.01774658 9.86244202 -0.02316284 C13.6952555 -0.03639679 17.52765571 -0.02761239 21.36047363 -0.01748657 C24.01701375 -0.01950632 26.67354118 -0.02241206 29.33007812 -0.02618408 C34.90194195 -0.03164321 40.47368651 -0.02444599 46.04553223 -0.01016235 C52.48887868 0.00616458 58.93194036 0.00087618 65.3752799 -0.01564157 C70.90572724 -0.02925205 76.43608881 -0.03117828 81.96654749 -0.02332556 C85.27039211 -0.01864658 88.57407338 -0.0192067 91.87791443 -0.02793503 C95.56044956 -0.03552804 99.24243287 -0.0239747 102.92492676 -0.00723267 C104.02216568 -0.01330536 105.1194046 -0.01937805 106.24989319 -0.02563477 C107.25096603 -0.01717529 108.25203888 -0.00871582 109.28344727 0 C110.15433235 0.00113108 111.02521744 0.00226215 111.92249298 0.00342751 C114.6265036 0.46341905 115.51066696 1.21029754 117.14172363 3.38095093 C117.69416092 6.4588158 117.47213459 7.85300214 115.81005859 10.50875854 C111.52258211 13.51699437 107.1236091 12.9370968 102.01086426 12.89852905 C100.87553757 12.90553833 99.74021088 12.91254761 98.57048035 12.91976929 C94.81273027 12.93739323 91.05573155 12.92571011 87.29797363 12.91220093 C84.69010269 12.91489455 82.08223273 12.91877589 79.47436523 12.92379761 C74.00679362 12.93107252 68.5394382 12.92149064 63.07189941 12.9024353 C56.75287312 12.88066654 50.43436307 12.88771805 44.11534929 12.90974092 C38.03375437 12.93008708 31.95238812 12.92792476 25.87077332 12.91621399 C23.28395007 12.9135421 20.69711369 12.9168326 18.11030579 12.9261322 C14.49737445 12.9362697 10.88543994 12.9208341 7.27258301 12.89852905 C5.66252632 12.91067444 5.66252632 12.91067444 4.01994324 12.92306519 C-3.20362185 12.84027827 -3.20362185 12.84027827 -6.52661133 10.50875854 C-8.18868732 7.85300214 -8.41071365 6.4588158 -7.85827637 3.38095093 C-5.52720377 0.27869781 -3.79093382 0.00492354 0 0 Z " fill="#AACFEC" transform="translate(351.8582763671875,78.61904907226563)"/>
<path d="M0 0 C0.73605469 0.34933594 1.47210938 0.69867188 2.23046875 1.05859375 C3.69419922 1.74115234 3.69419922 1.74115234 5.1875 2.4375 C6.15042969 2.88996094 7.11335937 3.34242188 8.10546875 3.80859375 C15.4046745 6.81299018 23.81738976 7.35348485 31.34375 4.91796875 C34.27059316 3.68542679 37.13453977 2.36770794 40 1 C40.99 0.67 41.98 0.34 43 0 C43.1173794 3.49971199 43.18763961 6.99890955 43.25 10.5 C43.30027344 11.97339844 43.30027344 11.97339844 43.3515625 13.4765625 C43.4539581 21.15623218 42.13965626 26.41717159 37.03515625 32.2421875 C30.89463964 37.32483293 26.65216548 39.51303761 18.55859375 39.30859375 C11.79951723 38.49337689 7.47134707 34.98924745 3.2265625 29.87890625 C0.58122706 25.82665673 -0.24902323 22.28757875 -0.1953125 17.48046875 C-0.18564453 15.9480957 -0.18564453 15.9480957 -0.17578125 14.38476562 C-0.15902344 13.32966797 -0.14226562 12.27457031 -0.125 11.1875 C-0.11597656 10.11306641 -0.10695312 9.03863281 -0.09765625 7.93164062 C-0.07415306 5.28753146 -0.04129575 2.64388128 0 0 Z " fill="#FC9B78" transform="translate(142,304)"/>
<path d="M0 0 C2.01056207 0.00315859 4.01964907 -0.02031234 6.0300293 -0.0456543 C7.30426758 -0.04629883 8.57850586 -0.04694336 9.89135742 -0.04760742 C11.63630493 -0.05207886 11.63630493 -0.05207886 13.41650391 -0.05664062 C17.89750694 0.47027198 20.50049031 2.08909736 23.45776367 5.44067383 C25.08045417 9.58754954 24.86741483 13.06940175 23.58276367 17.31567383 C21.38452552 20.02119771 19.687197 21.76345716 16.58276367 23.31567383 C12.51537605 23.57335087 8.44623914 23.5867076 4.37133789 23.61083984 C2.35387283 23.62799434 0.33807274 23.67187253 -1.67895508 23.71606445 C-3.59901367 23.72863281 -3.59901367 23.72863281 -5.55786133 23.74145508 C-6.72865234 23.7560376 -7.89944336 23.77062012 -9.10571289 23.78564453 C-13.64291655 23.14172555 -16.94674731 21.18720531 -19.79223633 17.56567383 C-20.75111367 14.11371539 -20.99106413 10.83561754 -20.41723633 7.31567383 C-15.42391656 -0.88763721 -8.78287266 -0.0289298 0 0 Z " fill="#F03E4A" transform="translate(58.417236328125,72.684326171875)"/>
<path d="M0 0 C1.22396484 -0.020625 2.44792969 -0.04125 3.70898438 -0.0625 C5.48692383 -0.07023437 5.48692383 -0.07023437 7.30078125 -0.078125 C8.38141846 -0.0874707 9.46205566 -0.09681641 10.57543945 -0.10644531 C14.94175283 0.39365805 18.24949409 2.00372821 21.5625 4.875 C23.34532274 8.63873689 23.46294474 12.17539036 22.6875 16.25 C20.96845248 19.31881816 18.88035833 21.65357084 15.6875 23.25 C11.4785431 23.5313093 7.26590783 23.56367563 3.04882812 23.60009766 C1.64826799 23.61661675 0.24779075 23.6438542 -1.15234375 23.68212891 C-14.2827297 24.03893287 -14.2827297 24.03893287 -18.203125 20.8515625 C-21.36366765 16.95355989 -21.70758689 14.49077389 -21.66796875 9.578125 C-21.06397582 5.62230319 -19.20792195 3.94341577 -16.3125 1.25 C-11.06544645 -0.49901785 -5.49186732 0.02291859 0 0 Z " fill="#87D56C" transform="translate(165.3125,72.75)"/>
<path d="M0 0 C1.55288697 -0.01654596 3.10569821 -0.04381876 4.65820312 -0.08203125 C6.90184861 -0.13694648 9.14371145 -0.15869372 11.38793945 -0.17333984 C12.07769363 -0.19600922 12.76744781 -0.21867859 13.47810364 -0.24203491 C17.35276568 -0.22514587 18.91211787 0.25928661 21.96704102 2.72436523 C24.24569346 5.63216151 24.6358969 6.78650301 24.4621582 10.41259766 C24.44024414 11.24919922 24.41833008 12.08580078 24.39575195 12.94775391 C23.98392971 15.61376106 23.60186534 17.1511509 22.0246582 19.35009766 C15.35047798 23.32843014 9.09453337 22.86504312 1.5246582 22.85009766 C0.21883789 22.87845703 -1.08698242 22.90681641 -2.43237305 22.93603516 C-13.10479212 22.95783785 -13.10479212 22.95783785 -16.8190918 19.94384766 C-20.07986252 16.02147127 -20.30835846 13.5857676 -20.26831055 8.61181641 C-19.83878379 5.29586986 -18.36609826 3.60022138 -15.9753418 1.35009766 C-11.48865832 -0.89324408 -4.98127773 0.03890391 0 0 Z " fill="#CFDB02" transform="translate(110.975341796875,73.64990234375)"/>
<path d="M0 0 C1.98 0.495 1.98 0.495 4 1 C4 12.22 4 23.44 4 35 C2.35 35 0.7 35 -1 35 C-1.0246519 30.17619198 -1.04283693 25.35242033 -1.05493164 20.52856445 C-1.05997174 18.88630536 -1.06680378 17.24405077 -1.07543945 15.60180664 C-1.08751926 13.24624521 -1.09323139 10.89074291 -1.09765625 8.53515625 C-1.10281754 7.79660904 -1.10797882 7.05806183 -1.11329651 6.2971344 C-1.1134925 4.53101912 -1.06194719 2.76502854 -1 1 C-0.67 0.67 -0.34 0.34 0 0 Z " fill="#CB4A34" transform="translate(209,364)"/>
<path d="M0 0 C0.99 0.33 1.98 0.66 3 1 C3 12.22 3 23.44 3 35 C1.68 35 0.36 35 -1 35 C-1.0246519 30.17619198 -1.04283693 25.35242033 -1.05493164 20.52856445 C-1.05997174 18.88630536 -1.06680378 17.24405077 -1.07543945 15.60180664 C-1.08751926 13.24624521 -1.09323139 10.89074291 -1.09765625 8.53515625 C-1.10281754 7.79660904 -1.10797882 7.05806183 -1.11329651 6.2971344 C-1.1134925 4.53101912 -1.06194719 2.76502854 -1 1 C-0.67 0.67 -0.34 0.34 0 0 Z " fill="#C74933" transform="translate(115,364)"/>
<path d="M0 0 C0.73605469 0.34933594 1.47210938 0.69867188 2.23046875 1.05859375 C3.69419922 1.74115234 3.69419922 1.74115234 5.1875 2.4375 C6.15042969 2.88996094 7.11335937 3.34242188 8.10546875 3.80859375 C15.4046745 6.81299018 23.81738976 7.35348485 31.34375 4.91796875 C34.27059316 3.68542679 37.13453977 2.36770794 40 1 C40.99 0.67 41.98 0.34 43 0 C43 4.29 43 8.58 43 13 C42.67 13 42.34 13 42 13 C42 9.7 42 6.4 42 3 C41.34773438 3.34933594 40.69546875 3.69867188 40.0234375 4.05859375 C31.15090543 8.67806841 31.15090543 8.67806841 26 9 C25.26265625 9.05027344 24.5253125 9.10054688 23.765625 9.15234375 C15.00097069 9.49258654 6.87806424 7.6110524 0 2 C0 1.34 0 0.68 0 0 Z " fill="#FB9071" transform="translate(142,304)"/>
<path d="M0 0 C0 4.29 0 8.58 0 13 C-0.33 13 -0.66 13 -1 13 C-1 9.7 -1 6.4 -1 3 C-2.98 3.66 -4.96 4.32 -7 5 C-7 4.34 -7 3.68 -7 3 C-2.61538462 0 -2.61538462 0 0 0 Z " fill="#E68C70" transform="translate(185,304)"/>
</svg>
