<?xml version="1.0" encoding="UTF-8"?>
<svg version="1.1" xmlns="http://www.w3.org/2000/svg" width="512" height="512">
<path d="M0 0 C0.96045731 -0.00570007 1.92091461 -0.01140015 2.91047668 -0.01727295 C4.93680737 -0.02668403 6.9631531 -0.03324137 8.98950195 -0.03710938 C12.0551289 -0.04679005 15.12007758 -0.0778408 18.18554688 -0.109375 C44.92714115 -0.25621852 44.92714115 -0.25621852 54.89453125 9.203125 C62.49936059 17.0191996 63.48194798 25.7658269 63.41592407 36.23921204 C63.42357517 37.53292117 63.43122626 38.8266303 63.43910921 40.15954274 C63.45959644 43.73046365 63.45532464 47.30098134 63.44674802 50.87193477 C63.44180012 54.73098145 63.45985846 58.58993271 63.474823 62.44894409 C63.50028474 70.00168593 63.5039084 77.55428544 63.49922247 85.10706297 C63.49565199 91.24854276 63.49916425 97.38997945 63.50767136 103.53145409 C63.50886173 104.40655952 63.51005211 105.28166494 63.51127856 106.18328872 C63.51370215 107.96125514 63.51613042 109.73922156 63.51856332 111.51718798 C63.54030224 128.18073529 63.53599523 144.8442016 63.52379362 161.50775345 C63.51345793 176.73754628 63.53596111 191.96708316 63.57399006 207.19682536 C63.61277573 222.85012422 63.62925372 238.50330208 63.62174356 254.15664929 C63.61792362 262.93863326 63.62285427 271.72039945 63.65117264 280.50234413 C63.67503935 287.97919537 63.67776696 295.45569481 63.6535923 302.93255106 C63.64184122 306.74385545 63.63953984 310.55451699 63.66359711 314.36577797 C63.68942844 318.50638656 63.66832391 322.64547552 63.64297485 326.78608704 C63.65772342 327.97842447 63.67247199 329.17076191 63.68766749 330.39923078 C63.57171084 339.43063922 61.1689592 347.12106367 55.27123415 354.13313657 C53.56348042 355.72036662 51.87109661 356.97000114 49.89453125 358.203125 C49.3236776 358.56654857 48.75282396 358.92997214 48.16467172 359.30440855 C40.48805634 363.36225471 32.29021039 362.759658 23.85636902 362.71105957 C22.11490604 362.71567182 20.37344696 362.72202692 18.63199598 362.72996855 C13.85988349 362.74663962 9.08809169 362.73842567 4.31597817 362.72602367 C-0.83533945 362.71696677 -5.98660224 362.73094587 -11.13790894 362.74194336 C-21.2226541 362.7597244 -31.30728015 362.75589097 -41.39202998 362.7442928 C-49.58544151 362.73525964 -57.77881965 362.73403396 -65.97223473 362.73838806 C-67.13828751 362.73900099 -68.30434029 362.73961393 -69.505728 362.74024543 C-71.87446828 362.74152432 -74.24320855 362.74282117 -76.61194881 362.7441358 C-98.81865814 362.75553973 -121.0253014 362.74242948 -143.2319999 362.72093433 C-162.29719638 362.70305178 -181.36229549 362.70617737 -200.42749023 362.72460938 C-222.56243436 362.74599912 -244.69732065 362.75445349 -266.83227366 362.74216032 C-269.1907763 362.7408861 -271.54927895 362.73962862 -273.9077816 362.73838806 C-275.64849063 362.73746241 -275.64849063 362.73746241 -277.42436549 362.73651806 C-285.61297521 362.73306034 -293.80154831 362.73890232 -301.99015236 362.74830627 C-311.96166978 362.75950605 -321.9330612 362.75652836 -331.90456412 362.7351833 C-336.99468756 362.72464745 -342.08460064 362.72059429 -347.17472267 362.73377991 C-351.82976788 362.74565654 -356.48440678 362.73921989 -361.13941487 362.7178697 C-362.82762706 362.71338363 -364.51587323 362.71571454 -366.20406375 362.72537285 C-368.49103867 362.73745824 -370.77660412 362.72514403 -373.06350422 362.70648956 C-374.33600476 362.70584015 -375.60850529 362.70519074 -376.91956645 362.70452166 C-380.68387504 362.11209554 -381.84249715 361.21227192 -384.10546875 358.203125 C-385.24239106 354.64076844 -385.4028081 352.92995452 -383.98046875 349.453125 C-380.78524381 345.61885507 -376.87002068 345.01990533 -372.10546875 344.203125 C-372.42854004 343.29336914 -372.75161133 342.38361328 -373.08447266 341.44628906 C-374.590241 336.13882509 -374.43020498 330.79159189 -374.44140625 325.3125 C-374.44806305 324.17210266 -374.45471985 323.03170532 -374.46157837 321.85675049 C-374.47167723 319.4496013 -374.47639625 317.04242426 -374.47607422 314.63525391 C-374.48043785 310.97901513 -374.51676295 307.32399355 -374.5546875 303.66796875 C-374.56055833 301.32031659 -374.56452594 298.97265875 -374.56640625 296.625 C-374.58077728 295.54442322 -374.59514832 294.46384644 -374.60995483 293.3505249 C-374.55347429 283.82574267 -372.55317148 274.77395927 -365.80078125 267.69921875 C-357.05962653 259.98525042 -348.02415219 258.89779419 -336.73242188 258.97607422 C-335.61934662 258.97578217 -334.50627136 258.97549011 -333.35946655 258.97518921 C-329.70180304 258.97657604 -326.04434643 258.99210693 -322.38671875 259.0078125 C-319.8422456 259.01154492 -317.297771 259.01439081 -314.7532959 259.01638794 C-308.75405639 259.02322877 -302.75490491 259.03897146 -296.75570059 259.05908692 C-289.9213145 259.08150155 -283.08692476 259.09245329 -276.25251102 259.10247779 C-262.20345633 259.12333945 -248.15446658 259.15848054 -234.10546875 259.203125 C-234.11213058 258.47364655 -234.11879242 257.74416809 -234.12565613 256.99258423 C-234.18605488 250.07916213 -234.23158828 243.16578006 -234.26090527 236.25216103 C-234.27648477 232.69875349 -234.29757946 229.14556606 -234.33178711 225.59228516 C-234.37096651 221.49639918 -234.38524159 217.40074026 -234.3984375 213.3046875 C-234.41392136 212.0438736 -234.42940521 210.78305969 -234.44535828 209.48403931 C-234.44740871 198.62083268 -233.00837026 189.1744499 -225.10546875 181.203125 C-217.76151165 175.28057895 -211.18537886 172.88691364 -201.71337891 172.97607422 C-200.89320282 172.97578217 -200.07302673 172.97549011 -199.22799683 172.97518921 C-196.53339841 172.97657581 -193.83908101 172.99210529 -191.14453125 173.0078125 C-189.26980744 173.01154501 -187.39508168 173.01439086 -185.52035522 173.01638794 C-180.59827236 173.02400561 -175.67630848 173.04363805 -170.75427246 173.0657959 C-165.72682301 173.08629456 -160.69935424 173.09539825 -155.671875 173.10546875 C-145.81635412 173.12688573 -135.96092135 173.16099911 -126.10546875 173.203125 C-126.1143512 172.43384171 -126.12323364 171.66455841 -126.13238525 170.8719635 C-126.21283252 163.59031107 -126.273585 156.30887685 -126.31271744 149.02689457 C-126.33351288 145.2839301 -126.36168083 141.54133559 -126.40722656 137.79858398 C-126.45097499 134.18051501 -126.47466621 130.56279986 -126.48497772 126.94448662 C-126.49231756 125.57028071 -126.50664959 124.1960922 -126.52838898 122.82203865 C-126.65211144 114.67125618 -126.24499724 108.32233343 -122.10546875 101.203125 C-121.27015625 99.6253125 -121.27015625 99.6253125 -120.41796875 98.015625 C-115.83676926 92.44389589 -109.98885501 89.17408871 -103.10546875 87.203125 C-99.95425415 86.96261597 -99.95425415 86.96261597 -96.54931641 86.97607422 C-94.628004 86.97630081 -94.628004 86.97630081 -92.6678772 86.97653198 C-91.2850936 86.98674291 -89.90231163 86.99717486 -88.51953125 87.0078125 C-87.09321288 87.01154665 -85.66689193 87.01439172 -84.24057007 87.01638794 C-80.50214448 87.02399281 -76.76387642 87.04361391 -73.0255127 87.0657959 C-69.20453013 87.08632243 -65.38352191 87.09540416 -61.5625 87.10546875 C-54.07675142 87.12686308 -46.59113223 87.1609606 -39.10546875 87.203125 C-39.1143512 86.43606232 -39.12323364 85.66899963 -39.13238525 84.87869263 C-39.21288884 77.61206793 -39.27361321 70.34566271 -39.31271744 63.07870674 C-39.33349799 59.3436171 -39.36163798 55.6088992 -39.40722656 51.87402344 C-39.45102906 48.26243365 -39.47467734 44.651199 -39.48497772 41.03936386 C-39.49230803 39.66877536 -39.50662073 38.29820394 -39.52838898 36.92776871 C-39.68929663 26.36746903 -38.54164944 16.82734447 -31.0703125 8.8046875 C-21.68807692 1.15713961 -11.62837542 0.0542742 0 0 Z " fill="#FDBA00" transform="translate(449.10546875,149.796875)"/>
<path d="M0 0 C0.96045731 -0.00570007 1.92091461 -0.01140015 2.91047668 -0.01727295 C4.93680737 -0.02668403 6.9631531 -0.03324137 8.98950195 -0.03710938 C12.0551289 -0.04679005 15.12007758 -0.0778408 18.18554688 -0.109375 C44.92714115 -0.25621852 44.92714115 -0.25621852 54.89453125 9.203125 C62.49936059 17.0191996 63.48194798 25.7658269 63.41592407 36.23921204 C63.42357517 37.53292117 63.43122626 38.8266303 63.43910921 40.15954274 C63.45959644 43.73046365 63.45532464 47.30098134 63.44674802 50.87193477 C63.44180012 54.73098145 63.45985846 58.58993271 63.474823 62.44894409 C63.50028474 70.00168593 63.5039084 77.55428544 63.49922247 85.10706297 C63.49565199 91.24854276 63.49916425 97.38997945 63.50767136 103.53145409 C63.50886173 104.40655952 63.51005211 105.28166494 63.51127856 106.18328872 C63.51370215 107.96125514 63.51613042 109.73922156 63.51856332 111.51718798 C63.54030224 128.18073529 63.53599523 144.8442016 63.52379362 161.50775345 C63.51345793 176.73754628 63.53596111 191.96708316 63.57399006 207.19682536 C63.61277573 222.85012422 63.62925372 238.50330208 63.62174356 254.15664929 C63.61792362 262.93863326 63.62285427 271.72039945 63.65117264 280.50234413 C63.67503935 287.97919537 63.67776696 295.45569481 63.6535923 302.93255106 C63.64184122 306.74385545 63.63953984 310.55451699 63.66359711 314.36577797 C63.68942844 318.50638656 63.66832391 322.64547552 63.64297485 326.78608704 C63.65772342 327.97842447 63.67247199 329.17076191 63.68766749 330.39923078 C63.57171084 339.43063922 61.1689592 347.12106367 55.27123415 354.13313657 C53.56348042 355.72036662 51.87109661 356.97000114 49.89453125 358.203125 C49.3236776 358.56654857 48.75282396 358.92997214 48.16467172 359.30440855 C40.48805634 363.36225471 32.29021039 362.759658 23.85636902 362.71105957 C22.11490604 362.71567182 20.37344696 362.72202692 18.63199598 362.72996855 C13.85988349 362.74663962 9.08809169 362.73842567 4.31597817 362.72602367 C-0.83533945 362.71696677 -5.98660224 362.73094587 -11.13790894 362.74194336 C-21.2226541 362.7597244 -31.30728015 362.75589097 -41.39202998 362.7442928 C-49.58544151 362.73525964 -57.77881965 362.73403396 -65.97223473 362.73838806 C-67.13828751 362.73900099 -68.30434029 362.73961393 -69.505728 362.74024543 C-71.87446828 362.74152432 -74.24320855 362.74282117 -76.61194881 362.7441358 C-98.81865814 362.75553973 -121.0253014 362.74242948 -143.2319999 362.72093433 C-162.29719638 362.70305178 -181.36229549 362.70617737 -200.42749023 362.72460938 C-222.56243436 362.74599912 -244.69732065 362.75445349 -266.83227366 362.74216032 C-269.1907763 362.7408861 -271.54927895 362.73962862 -273.9077816 362.73838806 C-275.64849063 362.73746241 -275.64849063 362.73746241 -277.42436549 362.73651806 C-285.61297521 362.73306034 -293.80154831 362.73890232 -301.99015236 362.74830627 C-311.96166978 362.75950605 -321.9330612 362.75652836 -331.90456412 362.7351833 C-336.99468756 362.72464745 -342.08460064 362.72059429 -347.17472267 362.73377991 C-351.82976788 362.74565654 -356.48440678 362.73921989 -361.13941487 362.7178697 C-362.82762706 362.71338363 -364.51587323 362.71571454 -366.20406375 362.72537285 C-368.49103867 362.73745824 -370.77660412 362.72514403 -373.06350422 362.70648956 C-374.33600476 362.70584015 -375.60850529 362.70519074 -376.91956645 362.70452166 C-380.68387504 362.11209554 -381.84249715 361.21227192 -384.10546875 358.203125 C-385.24239106 354.64076844 -385.4028081 352.92995452 -383.98046875 349.453125 C-380.78524381 345.61885507 -376.87002068 345.01990533 -372.10546875 344.203125 C-372.42854004 343.29336914 -372.75161133 342.38361328 -373.08447266 341.44628906 C-374.590241 336.13882509 -374.43020498 330.79159189 -374.44140625 325.3125 C-374.44806305 324.17210266 -374.45471985 323.03170532 -374.46157837 321.85675049 C-374.47167723 319.4496013 -374.47639625 317.04242426 -374.47607422 314.63525391 C-374.48043785 310.97901513 -374.51676295 307.32399355 -374.5546875 303.66796875 C-374.56055833 301.32031659 -374.56452594 298.97265875 -374.56640625 296.625 C-374.58077728 295.54442322 -374.59514832 294.46384644 -374.60995483 293.3505249 C-374.55347429 283.82574267 -372.55317148 274.77395927 -365.80078125 267.69921875 C-357.05962653 259.98525042 -348.02415219 258.89779419 -336.73242188 258.97607422 C-335.61934662 258.97578217 -334.50627136 258.97549011 -333.35946655 258.97518921 C-329.70180304 258.97657604 -326.04434643 258.99210693 -322.38671875 259.0078125 C-319.8422456 259.01154492 -317.297771 259.01439081 -314.7532959 259.01638794 C-308.75405639 259.02322877 -302.75490491 259.03897146 -296.75570059 259.05908692 C-289.9213145 259.08150155 -283.08692476 259.09245329 -276.25251102 259.10247779 C-262.20345633 259.12333945 -248.15446658 259.15848054 -234.10546875 259.203125 C-234.11213058 258.47364655 -234.11879242 257.74416809 -234.12565613 256.99258423 C-234.18605488 250.07916213 -234.23158828 243.16578006 -234.26090527 236.25216103 C-234.27648477 232.69875349 -234.29757946 229.14556606 -234.33178711 225.59228516 C-234.37096651 221.49639918 -234.38524159 217.40074026 -234.3984375 213.3046875 C-234.41392136 212.0438736 -234.42940521 210.78305969 -234.44535828 209.48403931 C-234.44740871 198.62083268 -233.00837026 189.1744499 -225.10546875 181.203125 C-217.76151165 175.28057895 -211.18537886 172.88691364 -201.71337891 172.97607422 C-200.89320282 172.97578217 -200.07302673 172.97549011 -199.22799683 172.97518921 C-196.53339841 172.97657581 -193.83908101 172.99210529 -191.14453125 173.0078125 C-189.26980744 173.01154501 -187.39508168 173.01439086 -185.52035522 173.01638794 C-180.59827236 173.02400561 -175.67630848 173.04363805 -170.75427246 173.0657959 C-165.72682301 173.08629456 -160.69935424 173.09539825 -155.671875 173.10546875 C-145.81635412 173.12688573 -135.96092135 173.16099911 -126.10546875 173.203125 C-126.1143512 172.43384171 -126.12323364 171.66455841 -126.13238525 170.8719635 C-126.21283252 163.59031107 -126.273585 156.30887685 -126.31271744 149.02689457 C-126.33351288 145.2839301 -126.36168083 141.54133559 -126.40722656 137.79858398 C-126.45097499 134.18051501 -126.47466621 130.56279986 -126.48497772 126.94448662 C-126.49231756 125.57028071 -126.50664959 124.1960922 -126.52838898 122.82203865 C-126.65211144 114.67125618 -126.24499724 108.32233343 -122.10546875 101.203125 C-121.27015625 99.6253125 -121.27015625 99.6253125 -120.41796875 98.015625 C-115.83676926 92.44389589 -109.98885501 89.17408871 -103.10546875 87.203125 C-99.95425415 86.96261597 -99.95425415 86.96261597 -96.54931641 86.97607422 C-94.628004 86.97630081 -94.628004 86.97630081 -92.6678772 86.97653198 C-91.2850936 86.98674291 -89.90231163 86.99717486 -88.51953125 87.0078125 C-87.09321288 87.01154665 -85.66689193 87.01439172 -84.24057007 87.01638794 C-80.50214448 87.02399281 -76.76387642 87.04361391 -73.0255127 87.0657959 C-69.20453013 87.08632243 -65.38352191 87.09540416 -61.5625 87.10546875 C-54.07675142 87.12686308 -46.59113223 87.1609606 -39.10546875 87.203125 C-39.1143512 86.43606232 -39.12323364 85.66899963 -39.13238525 84.87869263 C-39.21288884 77.61206793 -39.27361321 70.34566271 -39.31271744 63.07870674 C-39.33349799 59.3436171 -39.36163798 55.6088992 -39.40722656 51.87402344 C-39.45102906 48.26243365 -39.47467734 44.651199 -39.48497772 41.03936386 C-39.49230803 39.66877536 -39.50662073 38.29820394 -39.52838898 36.92776871 C-39.68929663 26.36746903 -38.54164944 16.82734447 -31.0703125 8.8046875 C-21.68807692 1.15713961 -11.62837542 0.0542742 0 0 Z M-20.91796875 23.265625 C-23.12652651 26.86906134 -23.22779561 29.83182838 -23.21899414 33.9597168 C-23.21888084 35.73121346 -23.21888084 35.73121346 -23.21876526 37.53849792 C-23.21360397 38.81356705 -23.20844269 40.08863617 -23.203125 41.40234375 C-23.20171005 42.70766556 -23.2002951 44.01298737 -23.19883728 45.35786438 C-23.19502255 48.82502156 -23.18520119 52.29213674 -23.1741333 55.75927734 C-23.16389673 59.29849682 -23.15933485 62.8377231 -23.15429688 66.37695312 C-23.14357798 73.31902765 -23.12651409 80.26107431 -23.10546875 87.203125 C-21.90216919 87.24070923 -21.90216919 87.24070923 -20.67456055 87.27905273 C-17.04719801 87.39494543 -13.42009958 87.51770251 -9.79296875 87.640625 C-8.53033203 87.67994141 -7.26769531 87.71925781 -5.96679688 87.75976562 C-4.75830078 87.80166016 -3.54980469 87.84355469 -2.3046875 87.88671875 C-1.18924561 87.92337646 -0.07380371 87.96003418 1.07543945 87.99780273 C3.89453125 88.203125 3.89453125 88.203125 6.89453125 89.203125 C8.11675347 96.53645833 8.11675347 96.53645833 7.08203125 99.640625 C5.89453125 101.203125 5.89453125 101.203125 3.89453125 102.203125 C2.52922759 102.29797663 1.15944035 102.33212839 -0.20915222 102.33442688 C-1.0684433 102.33843506 -1.92773438 102.34244324 -2.81306458 102.34657288 C-3.75800278 102.34604416 -4.70294098 102.34551544 -5.67651367 102.3449707 C-6.67017944 102.34844513 -7.66384521 102.35191956 -8.68762207 102.35549927 C-10.85112635 102.36286461 -13.01463823 102.36820583 -15.17815208 102.37178993 C-18.60380079 102.37894355 -22.02930527 102.39460273 -25.45491028 102.41313171 C-35.19688923 102.46564735 -44.93879081 102.51356806 -54.6809082 102.52905273 C-60.63559244 102.53913919 -66.58991649 102.56848407 -72.54445839 102.61037254 C-74.81338081 102.62268099 -77.08235412 102.62780409 -79.35130882 102.62557411 C-82.53041305 102.62321896 -85.70848634 102.64540615 -88.88745117 102.6730957 C-89.82226822 102.66649429 -90.75708527 102.65989288 -91.7202301 102.65309143 C-98.6266255 102.75168027 -102.94739018 104.12795853 -108.02168274 109.06903076 C-109.48186309 111.94428698 -109.46568186 114.12817436 -109.44604492 117.34863281 C-109.44570503 119.21010956 -109.44570503 119.21010956 -109.44535828 121.10919189 C-109.43003964 122.45821495 -109.41439168 123.80723431 -109.3984375 125.15625 C-109.3928395 126.5405837 -109.38857036 127.92492336 -109.38557434 129.30926514 C-109.37414147 132.94588747 -109.34468821 136.58214811 -109.3114624 140.21862793 C-109.28072762 143.93216052 -109.26706176 147.64575177 -109.25195312 151.359375 C-109.21981657 158.64078956 -109.16863962 165.92190653 -109.10546875 173.203125 C-108.26201637 173.20670753 -108.26201637 173.20670753 -107.40152454 173.21036243 C-93.71351768 173.26952277 -80.02568888 173.34526795 -66.33787251 173.43883991 C-59.71850613 173.48358968 -53.09920197 173.52283584 -46.47973633 173.54956055 C-40.09298733 173.57554726 -33.70647714 173.61591727 -27.31987572 173.66631126 C-24.88183751 173.68301126 -22.44375798 173.69450597 -20.00567055 173.70073891 C-16.59377563 173.71034566 -13.18249602 173.73836507 -9.77075195 173.77075195 C-8.76014709 173.76931686 -7.74954224 173.76788177 -6.70831299 173.7664032 C2.02360908 173.88381908 2.02360908 173.88381908 5.89453125 177.203125 C6.55859375 179.359375 6.55859375 179.359375 6.51953125 181.703125 C6.53242188 182.4765625 6.5453125 183.25 6.55859375 184.046875 C5.89453125 186.203125 5.89453125 186.203125 3.88593864 187.81549358 C0.01342686 189.61184504 -3.45047734 189.60833948 -7.63204956 189.56147766 C-8.48892872 189.56389109 -9.34580788 189.56630453 -10.22865307 189.56879109 C-13.0990755 189.57339261 -15.96898224 189.55672102 -18.83935547 189.5402832 C-20.89767448 189.53947687 -22.95599444 189.54007093 -25.01431274 189.54196167 C-29.44669657 189.54352319 -33.87894442 189.53613189 -38.311306 189.52211952 C-45.320309 189.50100005 -52.32914548 189.50574296 -59.33816528 189.5151825 C-79.26894238 189.5380668 -99.19962047 189.52612168 -119.13037109 189.48803711 C-130.13807766 189.46723181 -141.14557762 189.46789643 -152.15328038 189.49157208 C-159.12040014 189.50525721 -166.08678978 189.49205324 -173.05383658 189.45897448 C-177.38963433 189.44463207 -181.72510448 189.45527083 -186.06087875 189.47295761 C-188.07042517 189.47613504 -190.08001824 189.4690452 -192.08948517 189.45089149 C-194.83549081 189.42755326 -197.57896432 189.44117234 -200.32492065 189.46382141 C-201.11821931 189.44818895 -201.91151796 189.43255649 -202.72885597 189.41645032 C-208.12928857 189.51523659 -210.86622562 191.02565775 -214.78525364 194.72130364 C-217.48685424 197.75360455 -217.22700425 200.16458966 -217.21899414 204.12158203 C-217.21891861 205.36271759 -217.21884308 206.60385315 -217.21876526 207.88259888 C-217.21365825 209.24204549 -217.20844225 210.60149169 -217.203125 211.9609375 C-217.20126017 213.34813384 -217.19983657 214.73533084 -217.19883728 216.12252808 C-217.19501723 219.77547012 -217.1851913 223.42837248 -217.1741333 227.08129883 C-217.16390819 230.80810001 -217.1593373 234.53490759 -217.15429688 238.26171875 C-217.14356858 245.57553894 -217.12649829 252.88932641 -217.10546875 260.203125 C-215.97441302 260.20551335 -214.8433573 260.20790171 -213.67802715 260.21036243 C-186.18782008 260.26909351 -158.69770111 260.34493652 -131.20759106 260.43883991 C-117.91370264 260.48385214 -104.61986609 260.52325418 -91.32592773 260.54956055 C-79.74222891 260.57249676 -68.15861551 260.60584554 -56.57498437 260.65182656 C-50.43856389 260.67581793 -44.30222831 260.69450788 -38.16576195 260.70073891 C-32.39477851 260.70676307 -26.6240125 260.72666575 -20.85310936 260.75740051 C-18.73064683 260.76622371 -16.60815595 260.76989454 -14.48567581 260.76813316 C-11.59629033 260.76649186 -8.70757676 260.78308148 -5.81828308 260.80439758 C-4.97101298 260.79955001 -4.12374288 260.79470243 -3.25079793 260.78970796 C2.47647303 260.85983454 2.47647303 260.85983454 4.60304469 262.6060788 C6.19648546 264.57652015 6.35644431 265.68938725 6.39453125 268.203125 C6.4409375 269.2240625 6.4409375 269.2240625 6.48828125 270.265625 C5.89453125 272.203125 5.89453125 272.203125 3.73628223 273.80121869 C0.48773219 275.40380908 -1.5606132 275.57574315 -5.16723442 275.57112598 C-7.00447462 275.57976051 -7.00447462 275.57976051 -8.87883079 275.58856946 C-10.23488586 275.57979446 -11.59093924 275.57075435 -12.94699097 275.56147766 C-14.38999913 275.56262015 -15.83300675 275.56509608 -17.27601063 275.56879109 C-21.24184084 275.57519026 -25.20743132 275.5630053 -29.17322993 275.54791057 C-33.45007184 275.53495382 -37.72689791 275.53938671 -42.00375366 275.54196167 C-49.41544185 275.54429799 -56.8270613 275.53636013 -64.2387352 275.52211952 C-74.96242293 275.50205423 -85.68602301 275.50412611 -96.40972199 275.51279058 C-113.81790972 275.52681065 -131.22608467 275.53187582 -148.63427734 275.52709961 C-149.67632883 275.52681986 -150.71838032 275.5265401 -151.79200913 275.52625187 C-166.58135765 275.5218627 -181.37068486 275.50854939 -196.1600237 275.49164113 C-197.20146881 275.4904518 -198.24291392 275.48926248 -199.31591797 275.48803711 C-200.87618349 275.48624672 -200.87618349 275.48624672 -202.46796952 275.48442016 C-219.80823545 275.46512166 -237.14840517 275.46888073 -254.48866665 275.49157208 C-265.18598486 275.50464202 -275.88294354 275.49820762 -286.58022524 275.46678212 C-293.9095354 275.44676408 -301.23863866 275.44829073 -308.56795202 275.46682612 C-312.79782621 275.47681387 -317.02710879 275.47693525 -321.25692749 275.45089149 C-325.12976805 275.42722906 -329.00156534 275.43118303 -332.87438287 275.45702567 C-334.2747584 275.46148184 -335.67521089 275.45579746 -337.07549165 275.43890742 C-345.87312772 275.19901752 -345.87312772 275.19901752 -353.42393684 279.12433147 C-356.60461171 282.40526868 -357.23217294 284.56412514 -357.26660156 289.10839844 C-357.27620911 290.12996033 -357.28581665 291.15152222 -357.29571533 292.20404053 C-357.29996521 293.31233215 -357.30421509 294.42062378 -357.30859375 295.5625 C-357.31429382 296.6996344 -357.3199939 297.8367688 -357.3258667 299.00836182 C-357.3353272 301.41930203 -357.34185483 303.83025523 -357.34570312 306.24121094 C-357.35539228 309.92405922 -357.38639979 313.60634569 -357.41796875 317.2890625 C-357.42450031 319.63020502 -357.42975018 321.97135153 -357.43359375 324.3125 C-357.44594055 325.4126947 -357.45828735 326.5128894 -357.4710083 327.64642334 C-357.48333468 335.38318211 -357.48333468 335.38318211 -354.10546875 342.203125 C-349.74662545 345.6403896 -346.8988817 346.70340566 -341.37125397 346.70648956 C-340.38852993 346.71521021 -340.38852993 346.71521021 -339.38595289 346.72410703 C-337.19300102 346.73869259 -335.00117103 346.72482991 -332.80822754 346.71105957 C-331.21927141 346.71566909 -329.63031954 346.72202235 -328.04137659 346.72996855 C-323.67679441 346.74667808 -319.31256175 346.73840818 -314.94797826 346.72602367 C-310.24033433 346.71698214 -305.53275096 346.73093845 -300.82511902 346.74194336 C-291.60356754 346.75974275 -282.38214618 346.75588227 -273.16058958 346.7442928 C-265.66697011 346.73526434 -258.17338714 346.73403193 -250.67976379 346.73838806 C-249.08081059 346.73930746 -249.08081059 346.73930746 -247.44955531 346.74024543 C-245.28415389 346.74152432 -243.11875248 346.74282117 -240.95335108 346.7441358 C-220.64176483 346.75554576 -200.33025075 346.74242136 -180.01867634 346.72093433 C-162.58516865 346.70306298 -145.15176749 346.70616697 -127.71826172 346.72460938 C-107.48004511 346.74600873 -87.24189179 346.75444708 -67.00366545 346.74216032 C-64.84616821 346.7408861 -62.68867096 346.73962862 -60.53117371 346.73838806 C-59.46960545 346.73777096 -58.4080372 346.73715386 -57.31430021 346.73651806 C-49.82848064 346.73306235 -42.34270117 346.73889825 -34.85688782 346.74830627 C-25.73588344 346.75951724 -16.61501678 346.75650519 -7.49402821 346.7351833 C-2.83910359 346.72466075 1.8155913 346.72057156 6.4705143 346.73377991 C10.73042349 346.74568472 14.98988964 346.73917301 19.24975854 346.7178697 C20.79206698 346.7133955 22.33441272 346.71568825 23.87669724 346.72537285 C25.97177062 346.73752111 28.06532269 346.72508043 30.16031647 346.70648956 C31.32432433 346.70584015 32.48833219 346.70519074 33.68761301 346.70452166 C38.68507892 345.92317567 41.76572296 343.35233344 45.24511719 339.81005859 C47.83290205 334.15109863 47.38415443 328.63707678 47.28515625 322.4921875 C47.27768708 321.15555674 47.27199734 319.81891496 47.26800537 318.48226929 C47.25280178 314.98033918 47.21356747 311.47908268 47.16918945 307.97741699 C47.12812152 304.39779775 47.10996993 300.81806865 47.08984375 297.23828125 C47.04706657 290.22628745 46.97888063 283.21473865 46.89453125 276.203125 C45.71375 276.17734375 44.53296875 276.1515625 43.31640625 276.125 C41.75907802 276.06871103 40.20178778 276.01136386 38.64453125 275.953125 C37.86722656 275.93894531 37.08992188 275.92476563 36.2890625 275.91015625 C32.53651952 275.74979117 30.47810181 275.62564818 27.375 273.37890625 C25.21851046 270.20960631 25.41873983 267.94148616 25.89453125 264.203125 C28.89453125 261.203125 28.89453125 261.203125 46.89453125 260.203125 C46.89453125 236.773125 46.89453125 213.343125 46.89453125 189.203125 C40.95453125 188.873125 35.01453125 188.543125 28.89453125 188.203125 C25.89453125 185.203125 25.89453125 185.203125 25.64453125 181.703125 C25.89453125 178.203125 25.89453125 178.203125 26.89453125 175.203125 C33.39440556 173.57815642 40.20766173 173.62105434 46.89453125 173.203125 C46.89453125 150.103125 46.89453125 127.003125 46.89453125 103.203125 C40.95453125 102.873125 35.01453125 102.543125 28.89453125 102.203125 C25.89453125 98.203125 25.89453125 98.203125 25.45703125 95.203125 C25.89453125 92.203125 25.89453125 92.203125 27.375 90.0625 C31.00824734 87.3812198 34.23278238 87.53360466 38.64453125 87.453125 C39.43730469 87.42347656 40.23007812 87.39382812 41.046875 87.36328125 C42.99555219 87.29284713 44.9450462 87.24569018 46.89453125 87.203125 C46.98739381 79.4838454 47.05837839 71.76462405 47.10177994 64.04491234 C47.12261548 60.45991599 47.15085776 56.87530306 47.19628906 53.29052734 C47.23989317 49.8280831 47.26369868 46.36600659 47.27404022 42.90330887 C47.28497946 40.94570018 47.31618253 38.98823852 47.34771729 37.03085327 C47.4639719 28.33243682 47.4639719 28.33243682 42.89453125 21.203125 C37.58993957 16.3181746 32.4228564 16.61881465 25.58203125 16.671875 C23.95140747 16.66613464 23.95140747 16.66613464 22.2878418 16.66027832 C19.99494498 16.65756259 17.702017 16.66489989 15.40917969 16.68164062 C11.90619619 16.70305369 8.4052637 16.68182594 4.90234375 16.65625 C2.6705684 16.65889333 0.43879433 16.66401843 -1.79296875 16.671875 C-2.83686768 16.66377808 -3.8807666 16.65568115 -4.95629883 16.64733887 C-12.16033807 16.73991068 -16.0433875 17.71868772 -20.91796875 23.265625 Z " fill="#020100" transform="translate(449.10546875,149.796875)"/>
<path d="M0 0 C0.33 0.99 0.66 1.98 1 3 C6.61 3 12.22 3 18 3 C18.66 4.65 19.32 6.3 20 8 C22.96348429 9.9756562 23.68020373 10.26376859 27.01171875 10.4140625 C28.14770508 10.47207031 28.14770508 10.47207031 29.30664062 10.53125 C30.09232422 10.5621875 30.87800781 10.593125 31.6875 10.625 C32.48478516 10.66367187 33.28207031 10.70234375 34.10351562 10.7421875 C36.06863475 10.83632494 38.0342854 10.91924632 40 11 C40.09286256 18.7192796 40.16384714 26.43850095 40.20724869 34.15821266 C40.22808423 37.74320901 40.25632651 41.32782194 40.30175781 44.91259766 C40.34536192 48.3750419 40.36916743 51.83711841 40.37950897 55.29981613 C40.39044821 57.25742482 40.42165128 59.21488648 40.45318604 61.17227173 C40.45602694 72.46344245 40.45602694 72.46344245 36 77 C31.61382882 80.4075339 28.80872859 81.50048432 23.26857853 81.50615788 C22.28630389 81.51532791 22.28630389 81.51532791 21.28418532 81.52468321 C19.09225155 81.54027036 16.90142633 81.52742357 14.70948792 81.5146637 C13.12124373 81.51998946 11.53300458 81.52705532 9.94477504 81.53571075 C5.58213131 81.55436122 1.21982649 81.54802488 -3.14283144 81.53755772 C-7.84845552 81.53057252 -12.5540095 81.54655848 -17.25961304 81.55955505 C-26.47748327 81.58121173 -35.69523014 81.58106387 -44.91311746 81.57292951 C-52.40434592 81.56663293 -59.89553836 81.5677634 -67.38676643 81.57420158 C-68.98528655 81.57555407 -68.98528655 81.57555407 -70.6161 81.57693387 C-72.78093569 81.57878505 -74.94577137 81.58064761 -77.11060704 81.58252143 C-97.41745119 81.59910574 -117.7242259 81.59037535 -138.03106589 81.57353585 C-156.61404661 81.55883862 -175.19686566 81.57346654 -193.77982556 81.60230602 C-212.85580631 81.63169042 -231.93171241 81.64267507 -251.00771481 81.63312382 C-253.16494913 81.63210125 -255.32218346 81.63110664 -257.4794178 81.6301403 C-258.54084534 81.62966391 -259.60227288 81.62918752 -260.6958649 81.6286967 C-268.1782223 81.62653129 -275.66050913 81.63634341 -283.14285088 81.65091133 C-292.26128508 81.66841683 -301.37951313 81.66834293 -310.49793916 81.64555968 C-315.15101162 81.63440123 -319.80372062 81.63129118 -324.45677757 81.64986038 C-328.71620301 81.66664008 -332.97494729 81.66034854 -337.2343284 81.63564359 C-338.77531019 81.6307516 -340.31634667 81.63429975 -341.85728281 81.64713103 C-354.80089393 81.74713523 -354.80089393 81.74713523 -359.37494659 78.61602783 C-363.43931994 74.5656288 -364.23954224 71.37512753 -364.30639648 65.75415039 C-364.32238388 64.73281509 -364.33837128 63.7114798 -364.35484314 62.65919495 C-364.36020584 61.56638718 -364.36556854 60.47357941 -364.37109375 59.34765625 C-364.38012222 58.21476669 -364.3891507 57.08187714 -364.39845276 55.91465759 C-364.41294302 53.5216638 -364.42183894 51.12863051 -364.42553711 48.7355957 C-364.43744655 45.07891128 -364.48665858 41.4239073 -364.53710938 37.76757812 C-364.54657245 35.44011239 -364.55380804 33.11263631 -364.55859375 30.78515625 C-364.57812607 29.69437271 -364.59765839 28.60358917 -364.61778259 27.47975159 C-364.56755551 19.01326325 -364.56755551 19.01326325 -361.65258789 15.38842773 C-357.59107854 11.73138715 -355.56651638 10.7499834 -350.17874336 10.74666691 C-348.34562621 10.73824381 -348.34562621 10.73824381 -346.47547638 10.72965056 C-345.11215995 10.73350048 -343.74884401 10.73752821 -342.38552856 10.74171448 C-340.94282078 10.7388614 -339.50011451 10.73512425 -338.05741107 10.73057598 C-334.08326428 10.72056624 -330.10920546 10.72297603 -326.13505197 10.72730291 C-321.8527498 10.7297735 -317.57047108 10.72071811 -313.28817749 10.71292114 C-305.86446866 10.70086202 -298.44078131 10.69576747 -291.01706314 10.69503975 C-280.27808839 10.69371584 -269.53916594 10.67861947 -258.80020963 10.65954458 C-241.37088189 10.6286836 -223.94155283 10.60452696 -206.51220703 10.58666992 C-205.46849992 10.58559724 -204.4247928 10.58452456 -203.3494582 10.58341938 C-191.70469367 10.571599 -180.05992862 10.56139408 -168.41516113 10.55297852 C-164.19295246 10.54990466 -159.9707438 10.54681587 -155.74853516 10.54370117 C-154.70670189 10.54293583 -153.66486862 10.54217049 -152.59146465 10.54138196 C-135.2309431 10.52830857 -117.87045935 10.50368 -100.50996578 10.46995777 C-89.7959959 10.44964545 -79.08210683 10.43938145 -68.36811756 10.44194698 C-61.02856309 10.44298066 -53.68907253 10.43336749 -46.34954037 10.41530795 C-42.11199797 10.40524529 -37.87459696 10.40015369 -33.63704681 10.40807533 C-29.75954843 10.41523785 -25.88232583 10.40870865 -22.00486265 10.39118993 C-20.60043594 10.38729778 -19.19598419 10.38849975 -17.79156829 10.39524681 C-15.88536963 10.40367983 -13.97911345 10.39194603 -12.07293892 10.37917423 C-11.01324681 10.37835978 -9.95355471 10.37754532 -8.86175072 10.37670618 C-5.52065839 9.93690193 -3.64363167 9.07812513 -1 7 C-0.10407917 3.40080577 -0.10407917 3.40080577 0 0 Z " fill="#FE5F28" transform="translate(456,415)"/>
<path d="M0 0 C0.98152039 -0.01283524 1.96304077 -0.02567047 2.9743042 -0.03889465 C4.03884827 -0.04628159 5.10339233 -0.05366852 6.20019531 -0.0612793 C7.83930878 -0.07338692 7.83930878 -0.07338692 9.51153564 -0.08573914 C11.82831227 -0.09958824 14.14510937 -0.11030668 16.46191406 -0.11816406 C20.00006991 -0.13536074 23.53728767 -0.17923882 27.07519531 -0.22338867 C29.32518844 -0.23351683 31.57518951 -0.24203254 33.82519531 -0.2487793 C34.88164246 -0.26628738 35.9380896 -0.28379547 37.02655029 -0.30183411 C42.93384266 -0.28444986 46.74914558 -0.02012056 51.27832031 4.17700195 C55.96242094 8.945755 55.73310098 13.66687254 55.73150635 20.00473022 C55.71086121 21.28618927 55.69021606 22.56764832 55.66894531 23.88793945 C55.66147614 25.22457021 55.6557864 26.561212 55.65179443 27.89785767 C55.63659084 31.39978777 55.59735654 34.90104427 55.55297852 38.40270996 C55.51191058 41.98232921 55.49375899 45.5620583 55.47363281 49.1418457 C55.43085564 56.1538395 55.36266969 63.1653883 55.27832031 70.17700195 C53.50714844 70.21567383 53.50714844 70.21567383 51.70019531 70.25512695 C50.14286708 70.31141593 48.58557684 70.36876309 47.02832031 70.42700195 C46.25101563 70.44118164 45.47371094 70.45536133 44.67285156 70.4699707 C40.89602674 70.63137347 38.86425159 70.74459375 35.75878906 73.03637695 C33.73932926 75.95633466 33.77072296 77.69633441 34.27832031 81.17700195 C35.26832031 82.49700195 36.25832031 83.81700195 37.27832031 85.17700195 C43.21832031 85.50700195 49.15832031 85.83700195 55.27832031 86.17700195 C55.27832031 109.27700195 55.27832031 132.37700195 55.27832031 156.17700195 C49.99832031 156.50700195 44.71832031 156.83700195 39.27832031 157.17700195 C37.95832031 157.50700195 36.63832031 157.83700195 35.27832031 158.17700195 C34.61832031 160.48700195 33.95832031 162.79700195 33.27832031 165.17700195 C27.66832031 165.17700195 22.05832031 165.17700195 16.27832031 165.17700195 C15.94832031 165.83700195 15.61832031 166.49700195 15.27832031 167.17700195 C15.21644531 166.08387695 15.15457031 164.99075195 15.09082031 163.86450195 C14.65405451 160.18561886 14.65405451 160.18561886 12.39411926 158.47355652 C7.81210104 156.56687488 3.5308108 156.73764552 -1.38696289 156.74462891 C-2.46058578 156.73443726 -3.53420868 156.72424561 -4.6403656 156.71374512 C-8.18445024 156.68358236 -11.72826473 156.67434389 -15.27246094 156.6652832 C-17.73155111 156.64843901 -20.19063267 156.63028912 -22.64970398 156.61088562 C-29.11871649 156.56335166 -35.58769403 156.53356405 -42.05682373 156.50744629 C-48.659372 156.47765807 -55.26179977 156.43112172 -61.86425781 156.38598633 C-74.81666628 156.29991445 -87.76910399 156.2320175 -100.72167969 156.17700195 C-100.81446029 148.17961932 -100.88548483 140.18246247 -100.92892838 132.18467426 C-100.9497818 128.47074147 -100.97805724 124.75717754 -101.0234375 121.04345703 C-101.06697715 117.45782547 -101.09083368 113.87254815 -101.10118866 110.28667259 C-101.10856563 108.92032483 -101.12297149 107.55399594 -101.14459991 106.18779945 C-101.17373541 104.2707379 -101.17531445 102.35331804 -101.17578125 100.43603516 C-101.1846637 99.34571487 -101.19354614 98.25539459 -101.20269775 97.1320343 C-100.58985223 93.36714798 -99.43682844 91.8339417 -96.72167969 89.17700195 C-91.52428927 85.63042158 -86.70039062 85.74672367 -80.63305664 85.77636719 C-79.63238159 85.76938812 -78.63170654 85.76240906 -77.60070801 85.75521851 C-74.30370612 85.73527419 -71.00701772 85.73574209 -67.70996094 85.7355957 C-65.41642919 85.72382381 -63.12290511 85.71046005 -60.82939148 85.6955719 C-54.79882388 85.65940244 -48.76832426 85.63918636 -42.7376709 85.62402344 C-33.07415949 85.59917905 -23.41079819 85.55965902 -13.74742699 85.50212288 C-10.36879874 85.48575959 -6.9903116 85.48201345 -3.61164856 85.47911072 C-1.54846957 85.46933817 0.51470717 85.45907551 2.57788086 85.44824219 C3.99225182 85.45207161 3.99225182 85.45207161 5.43519592 85.45597839 C6.29730682 85.44915039 7.15941772 85.44232239 8.0476532 85.43528748 C9.17115189 85.43283602 9.17115189 85.43283602 10.31734753 85.43033504 C12.60009504 85.28280834 12.60009504 85.28280834 15.27832031 83.17700195 C15.89443879 81.31888281 15.89443879 81.31888281 16.02832031 79.23950195 C16.10566406 78.54985352 16.18300781 77.86020508 16.26269531 77.1496582 C16.38646618 74.96188633 16.38646618 74.96188633 15.27832031 72.17700195 C12.03966397 71.09744984 9.48676194 70.97258454 6.07910156 70.8605957 C4.87060547 70.81870117 3.66210938 70.77680664 2.41699219 70.73364258 C1.15435547 70.69432617 -0.10828125 70.65500977 -1.40917969 70.61450195 C-2.68341797 70.57131836 -3.95765625 70.52813477 -5.27050781 70.48364258 C-8.4207882 70.37745335 -11.57114808 70.27540663 -14.72167969 70.17700195 C-14.79133254 62.58805286 -14.84456834 54.99913712 -14.8771162 47.40994072 C-14.89274131 43.88556464 -14.91392112 40.36140801 -14.94799805 36.8371582 C-14.9869692 32.78114774 -15.00141491 28.72536615 -15.01464844 24.66918945 C-15.03013229 23.40960419 -15.04561615 22.15001892 -15.06156921 20.8522644 C-15.06179581 19.67149323 -15.0620224 18.49072205 -15.06225586 17.27416992 C-15.07224861 15.72196243 -15.07224861 15.72196243 -15.08244324 14.13839722 C-14.49511783 9.31722645 -12.74336511 6.09901075 -9.15917969 2.86450195 C-5.78133187 0.52599192 -4.06039294 0.04617196 0 0 Z " fill="#72A3BA" transform="translate(440.7216796875,166.822998046875)"/>
<path d="M0 0 C11.09473976 9.23858558 17.88254519 21.97188633 19.39526367 36.31787109 C20.53715443 51.27897036 15.88316035 64.85875761 6.45703125 76.53515625 C-3.57711265 86.70161853 -16.14546614 92.42196734 -30.3203125 93.3359375 C-45.17238474 93.31868771 -57.66672214 89.00565193 -68.73828125 78.9453125 C-78.87743964 68.63090939 -84.16746919 55.79351141 -84.6328125 41.4609375 C-84.33104218 27.57950274 -79.13084383 14.4269797 -69.50390625 4.36328125 C-49.83584089 -13.89740912 -21.84700392 -15.66805332 0 0 Z " fill="#010000" transform="translate(148.3203125,171.6640625)"/>
<path d="M0 0 C9.62234624 7.10653065 16.34301851 20.00499186 18.29003906 31.58129883 C20.41885803 46.94939661 17.04340772 60.86228703 7.94042969 73.47827148 C-0.42736138 83.94129181 -13.18985816 90.61515616 -26.32421875 92.5390625 C-40.2827194 94.08523488 -53.9990827 90.26070676 -65.36328125 82.00390625 C-76.09833995 73.02780143 -83.0605925 60.76355813 -84.86328125 46.8203125 C-85.95776828 31.79216362 -81.82390286 17.56792923 -72.05078125 5.9453125 C-68.10007527 1.7839022 -63.81451636 -1.3127201 -58.86328125 -4.1796875 C-58.25097656 -4.55867188 -57.63867188 -4.93765625 -57.0078125 -5.328125 C-38.013851 -16.10081958 -17.35783189 -10.98965457 0 0 Z " fill="#010100" transform="translate(263.86328125,118.1796875)"/>
<path d="M0 0 C12.10286039 8.2250761 20.07859041 19.35393848 23.25 33.75 C23.65352456 37.24260868 23.72797026 40.67403418 23.6875 44.1875 C23.68065186 45.10692383 23.67380371 46.02634766 23.66674805 46.97363281 C23.50354148 53.87598691 22.49142929 59.58389346 19.25 65.75 C18.86457031 66.5440625 18.47914063 67.338125 18.08203125 68.15625 C11.29168893 81.34138073 -0.20299555 90.01368115 -14.28515625 94.5703125 C-28.40022112 97.82940065 -42.59893503 95.83828472 -55.08203125 88.54296875 C-67.05941834 80.49374375 -75.32096888 69.50075733 -79 55.5 C-81.88088202 40.57651208 -78.51784 26.62346253 -70.75 13.75 C-54.50447254 -8.90221435 -23.4339802 -13.95183835 0 0 Z " fill="#000100" transform="translate(488.75,7.25)"/>
<path d="M0 0 C10.39252008 9.8537774 16.84162597 22.63987719 17.60546875 37.0703125 C17.51258241 50.83606763 13.06822873 65.35211209 3.2734375 75.51953125 C-8.500419 85.6036213 -21.67381338 91.73797653 -37.4140625 91.24609375 C-51.24742011 89.94921647 -63.94702778 84.21472941 -73.4140625 73.96484375 C-83.33472075 61.78054324 -87.6738571 48.68228114 -86.4140625 32.96484375 C-84.23987484 18.89657063 -77.77025532 6.65387024 -66.6015625 -2.22265625 C-45.95767599 -16.90542049 -19.57201966 -16.50003599 0 0 Z " fill="#000000" transform="translate(380.4140625,66.03515625)"/>
<path d="M0 0 C0.98152039 -0.01283524 1.96304077 -0.02567047 2.9743042 -0.03889465 C4.03884827 -0.04628159 5.10339233 -0.05366852 6.20019531 -0.0612793 C7.83930878 -0.07338692 7.83930878 -0.07338692 9.51153564 -0.08573914 C11.82831227 -0.09958824 14.14510937 -0.11030668 16.46191406 -0.11816406 C20.00006991 -0.13536074 23.53728767 -0.17923882 27.07519531 -0.22338867 C29.32518844 -0.23351683 31.57518951 -0.24203254 33.82519531 -0.2487793 C34.88164246 -0.26628738 35.9380896 -0.28379547 37.02655029 -0.30183411 C42.93384266 -0.28444986 46.74914558 -0.02012056 51.27832031 4.17700195 C55.96242094 8.945755 55.73310098 13.66687254 55.73150635 20.00473022 C55.71086121 21.28618927 55.69021606 22.56764832 55.66894531 23.88793945 C55.66147614 25.22457021 55.6557864 26.561212 55.65179443 27.89785767 C55.63659084 31.39978777 55.59735654 34.90104427 55.55297852 38.40270996 C55.51191058 41.98232921 55.49375899 45.5620583 55.47363281 49.1418457 C55.43085564 56.1538395 55.36266969 63.1653883 55.27832031 70.17700195 C53.50714844 70.21567383 53.50714844 70.21567383 51.70019531 70.25512695 C50.14286708 70.31141593 48.58557684 70.36876309 47.02832031 70.42700195 C46.25101562 70.44118164 45.47371094 70.45536133 44.67285156 70.4699707 C40.90646771 70.63092728 38.87561654 70.72996893 35.79394531 73.03637695 C34.1120024 75.19243574 34.1120024 75.19243574 33.27832031 78.17700195 C27.99832031 78.17700195 22.71832031 78.17700195 17.27832031 78.17700195 C16.28832031 75.20700195 16.28832031 75.20700195 15.27832031 72.17700195 C12.03966397 71.09744984 9.48676194 70.97258454 6.07910156 70.8605957 C4.87060547 70.81870117 3.66210938 70.77680664 2.41699219 70.73364258 C1.15435547 70.69432617 -0.10828125 70.65500977 -1.40917969 70.61450195 C-2.68341797 70.57131836 -3.95765625 70.52813477 -5.27050781 70.48364258 C-8.4207882 70.37745335 -11.57114808 70.27540663 -14.72167969 70.17700195 C-14.79133254 62.58805286 -14.84456834 54.99913712 -14.8771162 47.40994072 C-14.89274131 43.88556464 -14.91392112 40.36140801 -14.94799805 36.8371582 C-14.9869692 32.78114774 -15.00141491 28.72536615 -15.01464844 24.66918945 C-15.03013229 23.40960419 -15.04561615 22.15001892 -15.06156921 20.8522644 C-15.06179581 19.67149323 -15.0620224 18.49072205 -15.06225586 17.27416992 C-15.06891769 16.23936493 -15.07557953 15.20455994 -15.08244324 14.13839722 C-14.49511783 9.31722645 -12.74336511 6.09901075 -9.15917969 2.86450195 C-5.78133187 0.52599192 -4.06039294 0.04617196 0 0 Z " fill="#90B502" transform="translate(440.7216796875,166.822998046875)"/>
<path d="M0 0 C9.56393358 5.54961684 15.70663182 13.85416195 18.65234375 24.5390625 C19.51168576 33.06253611 19.08862399 40.14988322 14.65234375 47.5390625 C14.23984375 48.29832031 13.82734375 49.05757812 13.40234375 49.83984375 C8.87265349 57.4965645 1.49891159 63.36193692 -7.03515625 66.09765625 C-18.33069484 68.25373034 -28.11757845 66.35097239 -37.66015625 60 C-44.5086952 54.52635712 -49.04924628 46.95960084 -51.34765625 38.5390625 C-52.17844355 29.75783394 -51.99096681 22.16505519 -47.34765625 14.5390625 C-46.77015625 13.5078125 -46.19265625 12.4765625 -45.59765625 11.4140625 C-34.28953067 -3.03520907 -16.78603215 -8.06630807 0 0 Z " fill="#FC5F28" transform="translate(132.34765625,181.4609375)"/>
<path d="M0 0 C0.75925781 0.4125 1.51851563 0.825 2.30078125 1.25 C10.08224987 5.85349068 15.79413211 13.23947535 18.5625 21.890625 C20.61134167 31.76896877 18.50821334 41.91970278 13.4921875 50.61328125 C9.54319055 56.07759098 4.89029601 59.78148449 -1 63 C-1.60199219 63.3403125 -2.20398438 63.680625 -2.82421875 64.03125 C-9.93383982 67.36243905 -19.30892414 67.29569376 -26.7578125 65.23828125 C-28.95810454 64.29476619 -30.95680899 63.2440571 -33 62 C-34.546875 61.13375 -34.546875 61.13375 -36.125 60.25 C-43.25888715 54.66695789 -48.56392227 47.8173079 -51 39 C-52.0013888 30.12804655 -51.98749167 21.72906318 -47 14 C-46.34644531 12.95779297 -46.34644531 12.95779297 -45.6796875 11.89453125 C-35.50066914 -2.92901189 -16.09165518 -9.66103125 0 0 Z " fill="#71A2BA" transform="translate(362,74)"/>
<path d="M0 0 C6.26755107 5.92959488 11.38244001 14.29960546 12.5234375 22.91015625 C12.68664216 33.46949766 10.14123707 43.32537564 3.171875 51.44140625 C-3.68816302 58.12589212 -11.68172418 62.46198597 -21.3125 62.6875 C-31.95452678 62.33618137 -41.75775153 59.03809642 -49.1875 51.125 C-56.98940148 41.66814972 -58.82944335 31.42076558 -57.8125 19.375 C-55.19685983 9.55513947 -48.30861458 1.65413915 -39.8125 -3.625 C-26.82786956 -10.62303241 -11.60397717 -8.93013008 0 0 Z " fill="#FCBA00" transform="translate(253.8125,131.625)"/>
<path d="M0 0 C1.16499023 -0.00483398 1.16499023 -0.00483398 2.35351562 -0.00976562 C11.6735967 0.07704292 18.5704313 3.56929826 25.5625 9.5625 C32.4645726 17.55437354 36.56093373 25.03863935 36.24609375 35.76171875 C34.96886463 46.3190683 31.09070958 55.35726043 22.73046875 62.08984375 C13.08729771 68.80885049 4.48280128 70.29653955 -7.0625 69.3125 C-16.13521502 67.48577885 -23.15883818 61.34977789 -28.73046875 54.16015625 C-34.48234791 45.37209454 -34.87468526 36.49527276 -34.0625 26.3125 C-33.21578595 22.91121119 -31.9569329 20.24828266 -30.0625 17.3125 C-29.40894531 16.27029297 -29.40894531 16.27029297 -28.7421875 15.20703125 C-21.72931467 4.99429568 -12.29882302 -0.25643918 0 0 Z " fill="#90B502" transform="translate(460.0625,16.6875)"/>
<path d="M0 0 C1.10784348 -0.0049926 1.10784348 -0.0049926 2.23806763 -0.01008606 C3.79981871 -0.01514537 5.36158058 -0.01749469 6.92333984 -0.01733398 C9.30454476 -0.0195168 11.6852835 -0.03767244 14.06640625 -0.05664062 C15.58593592 -0.05957555 17.10546779 -0.06155968 18.625 -0.0625 C19.68773636 -0.07327827 19.68773636 -0.07327827 20.77194214 -0.08427429 C25.7384902 -0.06148991 29.604061 0.39020868 33.2578125 3.91796875 C34.85642462 6.94691804 34.92902386 8.78198926 34.4453125 12.16796875 C32.99414062 14.82006836 32.99414062 14.82006836 30.4453125 17.16796875 C27.37501049 17.90748246 24.37214663 17.84516505 21.2265625 17.796875 C20.33167114 17.79928696 19.43677979 17.80169891 18.51477051 17.80418396 C16.625199 17.80320569 14.73559878 17.78981668 12.84619141 17.76489258 C9.95506362 17.73058446 7.06699265 17.74423309 4.17578125 17.76367188 C2.33852866 17.75677327 0.50128396 17.74710075 -1.3359375 17.734375 C-2.19956909 17.73933487 -3.06320068 17.74429474 -3.95300293 17.74940491 C-9.93691234 17.63207116 -9.93691234 17.63207116 -13.09765625 15.25756836 C-15.12290026 12.3530671 -15.12227435 10.51219605 -14.94921875 7.0703125 C-14.34080643 4.1366808 -12.94322236 2.87406508 -10.5546875 1.16796875 C-6.98227471 -0.02283551 -3.71873032 0.00580781 0 0 Z " fill="#000000" transform="translate(14.5546875,494.83203125)"/>
<path d="M0 0 C3.06546736 2.30327312 3.91203818 3.48557499 4.56640625 7.3125 C4.56511719 8.529375 4.56382812 9.74625 4.5625 11 C4.58441406 12.216875 4.60632813 13.43375 4.62890625 14.6875 C4 18 4 18 1.6875 20.40625 C-1.83545032 22.49544147 -3.96856359 22.58639075 -8 22 C-10.90717073 19.78136971 -11.83981643 18.48055071 -13 15 C-13.41873961 10.69986636 -13.4550224 7.06930264 -11.75 3.0625 C-8.14836671 -1.18228209 -5.33305776 -1.55547518 0 0 Z " fill="#000000" transform="translate(465,116)"/>
<path d="M0 0 C2.27947698 3.41921547 2.32513105 4.90310177 2.375 8.9375 C2.40335937 9.97777344 2.43171875 11.01804688 2.4609375 12.08984375 C1.8918913 15.68255072 0.83537247 16.79527999 -2 19 C-5.59380604 20.14695938 -7.26746252 20.316323 -10.75 18.8125 C-13.19306271 16.84447726 -14.11159826 15.98826041 -15 13 C-15.33953264 8.72188871 -15.44508272 6.0775687 -13.8125 2.125 C-9.5741672 -2.84407984 -5.80503356 -2.30010764 0 0 Z " fill="#000000" transform="translate(352,206)"/>
<path d="M0 0 C3.05321844 0.69151589 4.17901998 1.97249108 6.03515625 4.4609375 C6.56640625 7.5546875 6.56640625 7.5546875 6.53515625 10.9609375 C6.54546875 12.085 6.55578125 13.2090625 6.56640625 14.3671875 C5.93027681 18.07170598 5.04117454 19.25934664 2.03515625 21.4609375 C-0.70573603 22.18898701 -3.19505581 22.03536991 -5.96484375 21.4609375 C-8.93342532 19.25353069 -9.79350166 17.97496377 -10.96484375 14.4609375 C-11.21527204 9.95322829 -11.14260618 6.47260514 -8.96484375 2.4609375 C-5.75047846 0.31802731 -3.79057766 0.16067959 0 0 Z " fill="#000000" transform="translate(232.96484375,293.5390625)"/>
<path d="M0 0 C2.85287951 2.11584386 3.86656927 3.33100594 4.56640625 6.83984375 C4.55595972 15.12394226 4.55595972 15.12394226 1.9375 19.25 C-1.7524947 21.44829471 -3.77218073 21.69182497 -8 21 C-10.90717073 18.78136971 -11.83981643 17.48055071 -13 14 C-13.39527019 8.76266997 -12.77531183 5.48319603 -10 1 C-6.87057535 -0.56471233 -3.38917777 -0.69701958 0 0 Z " fill="#000000" transform="translate(350,168)"/>
<path d="M0 0 C2.27947698 3.41921547 2.32513105 4.90310177 2.375 8.9375 C2.40335938 9.97777344 2.43171875 11.01804687 2.4609375 12.08984375 C1.8918913 15.68255072 0.83537247 16.79527999 -2 19 C-5.59380604 20.14695938 -7.26746252 20.316323 -10.75 18.8125 C-13.16345721 16.86832614 -14.10071529 15.94311359 -15 13 C-15.48067419 7.80871871 -14.93620797 4.35368768 -12 0 C-7.73550411 -2.84299726 -4.58978756 -1.81859507 0 0 Z " fill="#000000" transform="translate(122,345)"/>
<path d="M0 0 C3.05228559 0.69130461 4.17695593 1.97518707 6.03515625 4.4609375 C6.6015625 7.5546875 6.6015625 7.5546875 6.59765625 10.9609375 C6.61957031 12.085 6.64148438 13.2090625 6.6640625 14.3671875 C6.03515625 17.4609375 6.03515625 17.4609375 3.72265625 19.8359375 C0.20109889 21.96525125 -1.91589193 22.04987595 -5.96484375 21.4609375 C-8.87201448 19.24230721 -9.80466018 17.94148821 -10.96484375 14.4609375 C-11.21527204 9.95322829 -11.14260618 6.47260514 -8.96484375 2.4609375 C-5.75047846 0.31802731 -3.79057766 0.16067959 0 0 Z " fill="#000000" transform="translate(117.96484375,306.5390625)"/>
<path d="M0 0 C2.28500065 2.27442194 2.94996322 3.66822457 3.43359375 6.875 C3.43552734 8.421875 3.43552734 8.421875 3.4375 10 C3.46650391 11.546875 3.46650391 11.546875 3.49609375 13.125 C2.88550602 16.66352418 1.77534219 17.79710408 -1 20 C-4.37880511 21.33373886 -5.72957783 21.09544312 -9.1875 19.875 C-12.4362253 17.70918313 -13.14476142 16.76304977 -14 13 C-14.44476935 8.01858332 -14.16418268 4.95522836 -11 1 C-7.45260296 -1.78724053 -4.20278462 -1.06979972 0 0 Z " fill="#000000" transform="translate(236,258)"/>
<path d="M0 0 C2.875 1.75 2.875 1.75 5 5 C5.64028919 9.08114763 5.80960003 12.94083297 5 17 C3.15332267 19.42048079 1.96526136 20.74360245 -1 21.53125 C-4.63355955 21.47447563 -6.44145641 21.41532729 -9.4375 19.1875 C-12.27531443 15.2145598 -12.32894576 11.76971351 -12 7 C-9.36803648 1.36007816 -6.29661038 -0.88152545 0 0 Z " fill="#000000" transform="translate(119,380)"/>
<path d="M0 0 C0.680625 0.06445312 1.36125 0.12890625 2.0625 0.1953125 C4.81202042 1.159862 5.60319912 2.33769197 7 4.875 C7.43359375 7.75 7.43359375 7.75 7.4375 10.875 C7.46650391 12.421875 7.46650391 12.421875 7.49609375 14 C6.88550602 17.53852418 5.77534219 18.67210408 3 20.875 C-0.37880511 22.20873886 -1.72957783 21.97044312 -5.1875 20.75 C-8.4362253 18.58418313 -9.14476142 17.63804977 -10 13.875 C-10.44735042 8.86467534 -10.09956644 5.8929565 -7 1.875 C-3.88134716 -0.2041019 -3.46260478 -0.40659374 0 0 Z " fill="#000000" transform="translate(117,270.125)"/>
<path d="M0 0 C1.65625 1.2109375 1.65625 1.2109375 3 3 C3.3984375 5.77734375 3.3984375 5.77734375 3.375 8.9375 C3.38273437 9.97777344 3.39046875 11.01804688 3.3984375 12.08984375 C2.95228446 15.34851058 2.33612839 16.71165606 0 19 C-2.64943973 20.0642101 -5.16276278 20.24334978 -8 20 C-11.48131633 17.92602432 -12.71486282 16.85541154 -14 13 C-14.39262808 7.79767793 -13.94624831 4.36857508 -11 0 C-6.90564194 -2.65579982 -4.31593333 -1.97031739 0 0 Z " fill="#000000" transform="translate(236,222)"/>
</svg>
