<?xml version="1.0" encoding="UTF-8"?>
<svg version="1.1" xmlns="http://www.w3.org/2000/svg" width="512" height="512">
<path d="M0 0 C1.55359155 -0.00966366 3.10718048 -0.01975774 4.6607666 -0.03025818 C7.90167568 -0.04812143 11.14234602 -0.05378902 14.38330078 -0.05200195 C18.51243913 -0.05169673 22.64003396 -0.09273305 26.76880646 -0.14431858 C29.97242109 -0.17785163 33.17566823 -0.18375454 36.37944031 -0.18217278 C37.90074508 -0.18568409 39.42206236 -0.19879019 40.94319153 -0.22216988 C50.23035064 -0.3516272 57.48790209 0.30499513 64.84375 6.50390625 C69.4182739 11.22195126 70.86771983 16.07958829 71.84375 22.50390625 C72.854375 22.58640625 73.865 22.66890625 74.90625 22.75390625 C81.54152946 23.74384714 86.43781847 27.24299595 90.46482849 32.47158813 C96.0547792 40.7103153 95.30116015 50.57216201 95.27734375 60.10546875 C95.28191259 61.71251647 95.28722024 63.31956224 95.29322815 64.92660522 C95.30212271 68.28025294 95.29977622 71.63366202 95.28979492 74.98730469 C95.27828033 79.27226002 95.29857279 83.55639427 95.32771206 87.84124184 C95.34610178 91.15452242 95.34577663 94.46760692 95.34007454 97.78092575 C95.33992182 99.36048921 95.34592511 100.94006637 95.35836601 102.51958084 C95.37333667 104.73053174 95.36255875 106.93997348 95.34545898 109.15087891 C95.34520973 111.03209946 95.34520973 111.03209946 95.34495544 112.95132446 C94.58163894 118.36176913 92.35299963 122.03335533 88.40625 125.87890625 C85.79496609 127.53484239 83.89400346 128.15530585 80.84375 128.50390625 C80.781875 129.55578125 80.72 130.60765625 80.65625 131.69140625 C78.73615714 146.5523989 69.94497748 158.91291643 58.84375 168.50390625 C57.93882812 168.96925781 57.03390625 169.43460938 56.1015625 169.9140625 C53.5838491 171.31060262 53.5838491 171.31060262 53.25 174.09765625 C53.29640625 175.53625 53.29640625 175.53625 53.34375 177.00390625 C53.35921875 178.4425 53.35921875 178.4425 53.375 179.91015625 C53.91945146 182.92278769 54.52804026 183.59523416 56.84375 185.50390625 C59.68171843 186.33360157 62.46560822 187.04016886 65.34375 187.69140625 C91.932007 194.22691049 119.41980566 208.58815618 134.71875 232.06640625 C135.78568257 233.86414944 136.82873554 235.6763474 137.84375 237.50390625 C138.53404297 238.73753906 138.53404297 238.73753906 139.23828125 239.99609375 C146.43245715 253.60199741 149.14818736 267.77596736 149.13427734 283.06469727 C149.14099457 284.15093384 149.14771179 285.23717041 149.15463257 286.35632324 C149.17345695 289.90686758 149.17752811 293.45722153 149.1796875 297.0078125 C149.18612356 299.49779841 149.19285251 301.98778358 149.19985962 304.47776794 C149.2117915 309.67977655 149.21554439 314.88171893 149.21435547 320.08374023 C149.2141519 326.73003429 149.24151222 333.3759026 149.27589989 340.02209568 C149.29819108 345.1584008 149.3021924 350.29460354 149.30113602 355.43095207 C149.30348637 357.88082287 149.31227775 360.33069674 149.32780075 362.78051949 C149.34751594 366.21148334 149.34160143 369.64152941 149.32958984 373.07250977 C149.34082886 374.07074265 149.35206787 375.06897552 149.36364746 376.09745789 C149.27589814 386.01966181 146.65211114 394.53920489 139.703125 401.78515625 C131.93577729 408.96505749 125.09555203 410.79894671 114.61572266 410.82275391 C113.60047516 410.83279953 112.58522766 410.84284515 111.53921509 410.85319519 C108.19541979 410.88399779 104.85170447 410.9010544 101.5078125 410.91796875 C99.18467523 410.93668272 96.86154473 410.95625631 94.53842163 410.97665405 C88.43275959 411.02795687 82.32707553 411.06759265 76.22131348 411.10479736 C69.98733071 411.14484849 63.75343945 411.19593581 57.51953125 411.24609375 C45.29433513 411.34283121 33.06908733 411.4272431 20.84375 411.50390625 C21.1533667 412.71735718 21.1533667 412.71735718 21.46923828 413.95532227 C21.73978027 415.02451904 22.01032227 416.09371582 22.2890625 417.1953125 C22.55734863 418.25177979 22.82563477 419.30824707 23.10205078 420.39672852 C25.57941794 430.77508659 25.57941794 430.77508659 23.59375 435.44140625 C21.84375 437.50390625 21.84375 437.50390625 18.84375 439.50390625 C18.33753487 441.52667306 18.33753487 441.52667306 18.33203125 443.85546875 C18.29658203 444.70625 18.26113281 445.55703125 18.22460938 446.43359375 C18.20205078 447.32304687 18.17949219 448.2125 18.15625 449.12890625 C18.12208984 450.02609375 18.08792969 450.92328125 18.05273438 451.84765625 C17.97012598 454.06628163 17.90102281 456.28450565 17.84375 458.50390625 C18.441875 458.58640625 19.04 458.66890625 19.65625 458.75390625 C22.569164 459.75261962 23.36052636 460.82213809 24.84375 463.50390625 C25.47740317 467.85409796 25.30699867 472.23758825 25.28125 476.62890625 C25.30123047 477.81484375 25.32121094 479.00078125 25.34179688 480.22265625 C25.33676004 489.34940561 23.69413285 496.18761222 18.65625 503.81640625 C11.66055303 510.50118336 4.61394249 512.65314008 -4.88442993 512.65107727 C-5.78719174 512.65475396 -6.68995354 512.65843065 -7.62007177 512.66221875 C-10.65769026 512.67326835 -13.69527456 512.67710161 -16.73291016 512.6809082 C-18.90591542 512.68717194 -21.0789196 512.69381866 -23.25192261 512.70082092 C-29.16538008 512.71824006 -35.07882946 512.72878541 -40.99230623 512.73702645 C-44.68648577 512.7421752 -48.38066279 512.74825102 -52.07484055 512.75453758 C-63.63189094 512.77359313 -75.18893494 512.7878229 -86.74599802 512.79614955 C-100.08851778 512.80592107 -113.43085387 512.83223698 -126.77331698 512.87265044 C-137.08426226 512.90281016 -147.39515997 512.91761834 -157.70614851 512.92093056 C-163.86513397 512.9232814 -170.02394224 512.93224628 -176.1828804 512.95739174 C-181.97935352 512.98067443 -187.7755328 512.9849047 -193.57204056 512.97463036 C-195.69684832 512.97413492 -197.82167055 512.98045752 -199.94643402 512.9941864 C-202.85336277 513.01191456 -205.75923806 513.00479428 -208.66616821 512.99165344 C-209.9194611 513.00810731 -209.9194611 513.00810731 -211.19807303 513.02489358 C-218.64688585 512.94392218 -224.27667038 510.44208484 -230.40625 506.31640625 C-236.49365364 500.09065252 -239.25900245 493.42086523 -239.31738281 484.79589844 C-239.32699036 483.64659851 -239.3365979 482.49729858 -239.34649658 481.31317139 C-239.35074646 480.07158264 -239.35499634 478.8299939 -239.359375 477.55078125 C-239.36507507 476.26262512 -239.37077515 474.97446899 -239.37664795 473.64727783 C-239.38714927 470.91361093 -239.39299501 468.17997329 -239.39648438 465.44628906 C-239.40084128 462.67271567 -239.41462355 459.89945822 -239.4375 457.12597656 C-239.69659312 425.12493561 -239.69659312 425.12493561 -235.15625 411.50390625 C-237.08065163 411.49843781 -237.08065163 411.49843781 -239.04393005 411.49285889 C-251.15266515 411.45586805 -263.2611469 411.39805028 -275.36968899 411.32000351 C-281.59437022 411.2805467 -287.81891036 411.24834918 -294.04370117 411.23291016 C-300.05446311 411.21773209 -306.0648371 411.18326519 -312.0754261 411.13559723 C-314.36501755 411.12079546 -316.65466438 411.11286593 -318.94430351 411.1120224 C-322.15916862 411.10964747 -325.37296624 411.0825238 -328.58764648 411.04980469 C-329.52776581 411.05483505 -330.46788513 411.05986542 -331.43649292 411.06504822 C-340.68251164 410.92009472 -347.63265805 407.69467804 -354.3671875 401.4296875 C-361.81298988 393.41488275 -363.4568026 385.26546416 -363.4309082 374.61181641 C-363.43601913 373.52473389 -363.44113007 372.43765137 -363.44639587 371.31762695 C-363.46028581 367.72601803 -363.45933432 364.13460134 -363.45703125 360.54296875 C-363.46092089 358.03396535 -363.46525611 355.5249626 -363.47001648 353.01596069 C-363.47747917 347.75199766 -363.47732786 342.48808398 -363.47192383 337.22412109 C-363.46657441 331.84514152 -363.47352559 326.46635096 -363.49243164 321.08740234 C-363.51503687 314.57058146 -363.52266197 308.05391769 -363.51875877 301.53705978 C-363.51926856 299.06621122 -363.52444108 296.59535865 -363.53457069 294.12453079 C-363.64008798 264.7650784 -359.20214449 241.36553309 -338.15625 219.50390625 C-337.65609375 218.91996094 -337.1559375 218.33601562 -336.640625 217.734375 C-334.70729152 216.1317433 -333.63243393 216.18978321 -331.15625 216.31640625 C-330.475625 216.34347656 -329.795 216.37054688 -329.09375 216.3984375 C-328.454375 216.43324219 -327.815 216.46804687 -327.15625 216.50390625 C-321.24241543 216.50390625 -314.45149179 211.52183906 -310.15625 207.50390625 C-309.12548874 205.03246708 -308.93748618 203.15303517 -308.73046875 200.5078125 C-308.15625 198.50390625 -308.15625 198.50390625 -306.23828125 196.96875 C-302.67041163 195.15992308 -299.06315985 193.79886613 -295.26171875 192.5625 C-289.26752835 190.60270314 -286.30527798 189.01072621 -282.5625 183.9296875 C-281.15625 182.50390625 -281.15625 182.50390625 -277.40625 181.94140625 C-274.15625 182.50390625 -274.15625 182.50390625 -272.15625 184.50390625 C-271.16625 184.50390625 -270.17625 184.50390625 -269.15625 184.50390625 C-267.73990167 181.67120959 -267.8099495 179.02924187 -267.59375 175.87890625 C-267.46806641 174.09613281 -267.46806641 174.09613281 -267.33984375 172.27734375 C-267.27925781 171.36210937 -267.21867187 170.446875 -267.15625 169.50390625 C-267.72730469 169.25382813 -268.29835938 169.00375 -268.88671875 168.74609375 C-279.89991459 162.7182172 -286.20282779 150.46258107 -289.59375 138.87890625 C-291.15625 132.9557891 -291.15625 132.9557891 -291.15625 130.50390625 C-291.72472656 130.38015625 -292.29320312 130.25640625 -292.87890625 130.12890625 C-299.56207209 128.34375344 -303.34605747 125.26669053 -307.15625 119.50390625 C-309.82475456 113.80609041 -309.52409243 108.3791243 -309.53125 102.19140625 C-309.55574219 101.08861328 -309.58023438 99.98582031 -309.60546875 98.84960938 C-309.63351477 91.0200963 -308.58412413 85.47625256 -303.41015625 79.48046875 C-300.1290882 76.85864532 -297.24580458 74.74316521 -293.15625 73.50390625 C-292.72542914 70.43430763 -292.47349931 68.4712458 -293.15625 65.50390625 C-294.93529257 63.53456808 -296.88965791 62.04471713 -298.984375 60.41796875 C-305.27247417 54.87629862 -308.81538975 46.6831795 -309.359375 38.41748047 C-309.46119701 34.75646994 -309.47819395 31.10376931 -309.46875 27.44140625 C-309.48486328 26.18779297 -309.50097656 24.93417969 -309.51757812 23.64257812 C-309.51822266 22.43021484 -309.51886719 21.21785156 -309.51953125 19.96875 C-309.52251221 18.87167725 -309.52549316 17.77460449 -309.52856445 16.64428711 C-309.02515064 12.3981154 -307.54835924 9.03015102 -304.65625 5.859375 C-300.68560954 2.76765235 -297.93803381 1.38535669 -292.93904114 1.35673523 C-292.07982056 1.34957993 -291.22059998 1.34242462 -290.33534241 1.33505249 C-289.39557053 1.33236359 -288.45579865 1.32967468 -287.48754883 1.3269043 C-286.49534332 1.3203331 -285.50313782 1.3137619 -284.48086548 1.30699158 C-281.19166998 1.28725409 -277.90252018 1.27559423 -274.61328125 1.265625 C-273.48966375 1.26154947 -272.36604626 1.25747395 -271.20837975 1.25327492 C-265.25993407 1.23241113 -259.31151147 1.21811136 -253.36303711 1.20874023 C-247.22401486 1.19768204 -241.08535568 1.16328943 -234.94646168 1.12356853 C-230.22203404 1.09739977 -225.49769282 1.08904808 -220.77319908 1.08545876 C-218.51063272 1.08059262 -216.24807022 1.06897794 -213.98557472 1.05042076 C-210.81406686 1.02602713 -207.64349713 1.02699525 -204.47192383 1.03393555 C-203.5422731 1.02112549 -202.61262238 1.00831543 -201.65480042 0.99511719 C-194.79304001 1.04967545 -189.26638727 2.54305557 -184.203125 7.36328125 C-183.77515625 7.9871875 -183.3471875 8.61109375 -182.90625 9.25390625 C-182.4215625 9.94226562 -181.936875 10.630625 -181.4375 11.33984375 C-180.17409946 13.47375807 -179.3109486 15.57527555 -178.40625 17.87890625 C-177.55577837 19.91786656 -177.55577837 19.91786656 -176.15625 21.50390625 C-173.68487082 22.37330214 -171.35367171 22.69815302 -168.7578125 23.03125 C-163.07873759 24.06303388 -159.20054919 27.16506113 -155.71875 31.62890625 C-153.22027976 36.22609149 -153.00296279 39.98468132 -152.99511719 45.09301758 C-152.99015228 45.86410355 -152.98518738 46.63518951 -152.98007202 47.42964172 C-152.96546193 49.98174939 -152.95865007 52.53379488 -152.953125 55.0859375 C-152.94737227 56.86089581 -152.94161455 58.6358541 -152.93585205 60.41081238 C-152.92534512 64.13398528 -152.91950055 67.85713662 -152.91601562 71.58032227 C-152.91053379 76.34515353 -152.88651116 81.10969862 -152.85804367 85.87444019 C-152.83939551 89.54193447 -152.83421052 93.20936014 -152.83267975 96.87689781 C-152.82965724 98.6331304 -152.82164226 100.38936189 -152.80849457 102.14554787 C-152.79138955 104.60612205 -152.79332507 107.06600138 -152.79980469 109.52661133 C-152.7905899 110.24838562 -152.78137512 110.97015991 -152.7718811 111.71380615 C-152.81584073 117.05800061 -154.05386462 121.08558864 -157.5859375 125.1484375 C-160.72081612 127.68175833 -163.11575213 129.14739173 -167.15625 129.50390625 C-167.23875 130.59703125 -167.32125 131.69015625 -167.40625 132.81640625 C-169.44844835 148.67841265 -178.8643455 161.67088491 -191.203125 171.21875 C-193.15625 172.50390625 -193.15625 172.50390625 -195.15625 172.50390625 C-195.06891424 174.10907722 -194.96072776 175.71312287 -194.84375 177.31640625 C-194.78574219 178.20972656 -194.72773438 179.10304687 -194.66796875 180.0234375 C-194.05306621 183.00407194 -193.67082342 183.80048555 -191.15625 185.50390625 C-188.57826648 186.34632928 -186.09571172 187.06103355 -183.46875 187.69140625 C-182.76685547 187.86865234 -182.06496094 188.04589844 -181.34179688 188.22851562 C-179.6156084 188.66299844 -177.8862153 189.08471417 -176.15625 189.50390625 C-175.74439453 188.14072266 -175.74439453 188.14072266 -175.32421875 186.75 C-171.38765361 175.80924539 -161.24507838 167.57917313 -151.15625 162.50390625 C-144.1579433 159.61232294 -137.33537025 158.39511432 -129.75878906 158.3269043 C-128.51019104 158.31406906 -127.26159302 158.30123383 -125.97515869 158.28800964 C-124.62406822 158.27983998 -123.2729732 158.27239668 -121.921875 158.265625 C-121.23377495 158.26154947 -120.5456749 158.25747395 -119.83672333 158.25327492 C-116.19421193 158.23248738 -112.55173738 158.21815441 -108.90917969 158.20874023 C-105.17264423 158.19769199 -101.43670686 158.16329012 -97.70038223 158.12356853 C-94.80392446 158.09726542 -91.90760639 158.08903638 -89.01103973 158.08545876 C-87.63488476 158.08062793 -86.25873452 158.06911558 -84.88269806 158.05042076 C-75.85535998 157.93539686 -67.18428171 158.15114181 -60.05377197 164.32402039 C-55.94855567 168.50419247 -53.99876253 172.78650231 -52.46875 178.40234375 C-51.24244286 180.82455488 -51.24244286 180.82455488 -48.0390625 181.76171875 C-43.30748189 182.66614563 -38.74328191 182.91772954 -33.94140625 183.0703125 C-29.943472 183.24612988 -26.77123727 183.75971006 -23.15625 185.50390625 C-20.66408155 183.63645927 -20.16953944 182.56656796 -19.51171875 179.46484375 C-19.05611911 172.23783774 -19.05611911 172.23783774 -22.1484375 165.96875 C-23.89553799 164.50575247 -25.67618763 163.08210027 -27.484375 161.6953125 C-36.06331454 154.659077 -40.28285495 142.72736901 -42.99609375 132.265625 C-43.90322918 129.3772607 -43.90322918 129.3772607 -46.328125 128.10546875 C-47.17890625 127.78320312 -48.0296875 127.4609375 -48.90625 127.12890625 C-54.3255148 124.71337288 -57.24744062 121.63457371 -60.15625 116.50390625 C-61.80094981 111.56980682 -61.42458769 106.48339659 -61.46875 101.31640625 C-61.49775391 100.20458984 -61.52675781 99.09277344 -61.55664062 97.94726562 C-61.56501953 96.85865234 -61.57339844 95.77003906 -61.58203125 94.6484375 C-61.60390503 93.16887573 -61.60390503 93.16887573 -61.6262207 91.65942383 C-61.1810555 88.67045746 -60.58658373 87.26118906 -59.15893555 84.68920898 C-56.76821743 80.20296382 -56.61624022 76.40566616 -56.6875 71.39453125 C-56.68045044 70.54646912 -56.67340088 69.69840698 -56.6661377 68.824646 C-56.63695263 65.23611983 -56.65317086 61.6481544 -56.66552734 58.05957031 C-56.68133687 40.75129846 -54.0816197 27.01897575 -41.96875 13.75390625 C-29.72970805 2.33811824 -16.06426782 0.02367602 0 0 Z " fill="#020101" transform="translate(363.15625,-0.50390625)"/>
<path d="M0 0 C2.203125 1.7578125 2.203125 1.7578125 4.25 4.125 C11.91828782 12.30793801 21.63549159 17.78791917 32.98046875 18.46875 C34.71584092 18.50290957 36.45183799 18.51268196 38.1875 18.5 C39.10370117 18.49427979 40.01990234 18.48855957 40.96386719 18.48266602 C53.04968962 18.16768802 63.14335695 14.44986612 72 6 C72.98024316 4.83423767 73.95949756 3.6676428 74.9375 2.5 C78.39983409 -0.32639518 79.01398587 -0.31928668 83.25 0.0625 C85.77924027 0.46487913 87.71039805 0.85519902 90 2 C90.09951569 6.83799361 90.17177037 11.67538025 90.21972656 16.51416016 C90.23973571 18.1571695 90.26695213 19.80010859 90.30175781 21.44287109 C90.35075305 23.81625788 90.37307504 26.18869649 90.390625 28.5625 C90.41127014 29.28679199 90.43191528 30.01108398 90.45318604 30.75732422 C90.45531739 35.69638399 89.28471605 38.86629302 86.91229248 43.17138672 C85.67210928 45.65722927 85.48305435 47.77051037 85.46875 50.53125 C85.46359375 51.50707031 85.4584375 52.48289063 85.453125 53.48828125 C85.47632813 54.97908203 85.47632813 54.97908203 85.5 56.5 C85.48453125 57.49386719 85.4690625 58.48773438 85.453125 59.51171875 C85.48334691 65.23121533 86.12802751 69.40101956 89.04492188 74.36132812 C90 76 90 76 91 79 C93.03568768 80.25720492 94.96604202 80.98970078 97.25390625 81.68359375 C99.83295772 82.52582206 101.80595508 83.39244016 104 85 C105.14139452 87.52671609 105.60100937 89.94254687 106.14453125 92.66015625 C109.02816799 103.91819012 115.60673896 115.82662218 125.4375 122.25 C129.00287529 126.07625641 128.56134008 128.99622404 128.40625 134.0625 C127.99891459 137.00784835 127.1469359 139.27401608 126 142 C125.37053467 142.00257813 124.74106934 142.00515625 124.0925293 142.0078125 C115.45637956 142.38184046 108.54566193 145.35845415 100.8125 149 C99.51906523 149.5972433 98.22544384 150.1940826 96.93164062 150.79052734 C78.61744411 159.2939494 61.43792688 168.49792596 49 185 C48.77004837 185.64459671 48.54009674 186.28919342 48.30317688 186.95332336 C47.18324816 189.62432591 46.21656941 191.10709333 44 193 C38.60881617 194.17636047 33.24308056 193.93028809 27.76171875 193.78125 C26.15463581 193.76632078 24.54751634 193.75493696 22.94038391 193.74694824 C18.71929617 193.71646588 14.50042635 193.6379424 10.2802124 193.54931641 C5.97031663 193.46733717 1.66006081 193.43091135 -2.65039062 193.390625 C-11.10127599 193.30493919 -19.55036178 193.16848559 -28 193 C-28.00586624 191.90419113 -28.01173248 190.80838226 -28.01777649 189.67936707 C-28.0749316 179.36413884 -28.14765521 169.0491229 -28.23571491 158.73411083 C-28.28048705 153.43074747 -28.319728 148.12746215 -28.34643555 142.82397461 C-28.37240034 137.70803787 -28.41275406 132.59240036 -28.46318626 127.47664833 C-28.47990127 125.52261381 -28.4913866 123.56852747 -28.49761391 121.61443138 C-28.50720475 118.88220042 -28.53520315 116.15074305 -28.56762695 113.41870117 C-28.56619186 112.60662201 -28.56475677 111.79454285 -28.5632782 110.95785522 C-28.60975 106.7532155 -28.60975 106.7532155 -30.30827332 103.00117493 C-33.24250196 101.26467921 -35.70210628 101.58776328 -39 102 C-41.78156752 104.46602598 -42.00577761 106.05482879 -42.39872742 109.78387451 C-42.42511173 111.33587583 -42.43516054 112.88820661 -42.43237305 114.44042969 C-42.4425647 115.28957443 -42.45275635 116.13871918 -42.46325684 117.01359558 C-42.49341755 119.81642224 -42.50265746 122.6189073 -42.51171875 125.421875 C-42.52856316 127.36673115 -42.54671307 129.31157639 -42.56611633 131.25640869 C-42.6136483 136.37242221 -42.64343703 141.48839154 -42.66955566 146.60455322 C-42.69934501 151.82630138 -42.74588093 157.04789718 -42.79101562 162.26953125 C-42.87708515 172.51294119 -42.94441426 182.75638246 -43 193 C-46.70806596 193.11674705 -50.4156554 193.18743274 -54.125 193.25 C-55.17171875 193.28351563 -56.2184375 193.31703125 -57.296875 193.3515625 C-63.55768145 193.43081321 -67.26026035 193.23025624 -72 189 C-75.80640474 184.7706614 -78.24259293 181.25977581 -78.26742554 175.49531555 C-78.27595551 174.59724182 -78.28448547 173.69916809 -78.29327393 172.77388 C-78.29236755 171.79573837 -78.29146118 170.81759674 -78.29052734 169.80981445 C-78.29724457 168.77339813 -78.30396179 167.73698181 -78.31088257 166.66915894 C-78.32991484 163.2338178 -78.33379093 159.79867189 -78.3359375 156.36328125 C-78.34236716 153.96591614 -78.34909565 151.56855182 -78.35610962 149.17118835 C-78.36809925 144.13485907 -78.37178924 139.09859841 -78.37060547 134.06225586 C-78.37040342 127.64948253 -78.39758013 121.23715806 -78.43214989 114.82449055 C-78.45454901 109.86463967 -78.45843887 104.90489403 -78.45738602 99.94499779 C-78.45972727 97.58381813 -78.46846626 95.2226349 -78.48405075 92.86150551 C-78.63778102 67.13897606 -74.62652901 47.08392549 -56.73828125 27.52734375 C-54.68756044 24.54573395 -54.78661221 23.59981846 -55.375 20.125 C-55.50390625 17.50390625 -55.50390625 17.50390625 -55 15 C-52.05632312 11.9659223 -48.6838594 10.02746714 -45 8 C-44.11183594 7.42636719 -43.22367188 6.85273438 -42.30859375 6.26171875 C-41.54675781 5.84535156 -40.78492188 5.42898437 -40 5 C-37.85623326 5.71458891 -36.58775583 6.41224417 -35 8 C-29.52751148 8.42840188 -25.43490008 7.31263612 -20.5 5.125 C-6.54971938 -0.88656423 -6.54971938 -0.88656423 0 0 Z " fill="#92D67A" transform="translate(93,202)"/>
<path d="M0 0 C2.0703125 2.16015625 2.0703125 2.16015625 4.125 5.0625 C12.05688932 15.30017109 22.38295101 20.1841468 35 22 C47.72385693 23.09017134 58.37101318 20.18055028 68.88671875 12.89453125 C72.37091999 9.7709867 74.95476297 5.96166648 77.56640625 2.09765625 C80 0 80 0 83.703125 -0.01171875 C88.34570819 0.91399107 92.76805652 2.45116683 97.1875 4.125 C98.01902588 4.43775879 98.85055176 4.75051758 99.70727539 5.07275391 C122.7327922 13.94839994 142.10016698 28.88292208 152.3125 51.8125 C157.55652845 66.80243876 157.47455014 82.00477036 157.46875 97.6875 C157.47586578 100.0444354 157.48356681 102.4013691 157.49182129 104.75830078 C157.50518319 109.66655316 157.50686955 114.57464481 157.50097656 119.48291016 C157.49505007 125.76182486 157.52583301 132.03997445 157.56609344 138.31874084 C157.59195718 143.1727105 157.59484974 148.02649462 157.59120178 152.88052368 C157.59289034 155.19611555 157.60250727 157.51171622 157.62034607 159.82723999 C157.64253773 163.05982993 157.63283585 166.29085191 157.61523438 169.5234375 C157.62849762 170.4700676 157.64176086 171.41669769 157.65542603 172.39201355 C157.57445307 178.80833841 156.08719628 183.01673068 152 188 C148.15864918 191.56696862 145.22989367 193.13706687 139.98828125 193.09765625 C139.23095703 193.09443359 138.47363281 193.09121094 137.69335938 193.08789062 C136.90767578 193.07951172 136.12199219 193.07113281 135.3125 193.0625 C134.51521484 193.05798828 133.71792969 193.05347656 132.89648438 193.04882812 C130.93095743 193.0370585 128.96546915 193.01912348 127 193 C126.99413376 191.90419113 126.98826752 190.80838226 126.98222351 189.67936707 C126.9250684 179.36413884 126.85234479 169.0491229 126.76428509 158.73411083 C126.71951295 153.43074747 126.680272 148.12746215 126.65356445 142.82397461 C126.62759966 137.70803787 126.58724594 132.59240036 126.53681374 127.47664833 C126.52009873 125.52261381 126.5086134 123.56852747 126.50238609 121.61443138 C126.49279525 118.88220042 126.46479685 116.15074305 126.43237305 113.41870117 C126.43380814 112.60662201 126.43524323 111.79454285 126.4367218 110.95785522 C126.39482211 106.74210251 126.39482211 106.74210251 124.65657043 103.00117493 C121.98365961 101.38575837 120.04415779 101.56512032 117 102 C114.67749676 103.44280163 114.67749676 103.44280163 113 106 C112.59722928 108.93658365 112.43561287 111.50328147 112.45410156 114.44042969 C112.43859505 115.7141468 112.43859505 115.7141468 112.42277527 117.01359558 C112.39330913 119.81654808 112.3918473 122.61877968 112.390625 125.421875 C112.37564592 127.36673361 112.35891934 129.31157948 112.34051514 131.25640869 C112.2967989 136.37246276 112.27683303 141.48834522 112.26177979 146.60455322 C112.24222414 151.82631597 112.20025239 157.04789297 112.16015625 162.26953125 C112.08480781 172.5129636 112.03454437 182.75635447 112 193 C102.08184711 193.23205096 92.16434314 193.40955483 82.24402523 193.51812172 C77.63704774 193.57023982 73.03193151 193.64087804 68.42602539 193.75439453 C63.97788393 193.86333233 59.53152797 193.92289666 55.08215523 193.94877243 C53.38788297 193.96720195 51.69370489 194.00319585 50.00019646 194.05730057 C36.71057523 194.46486028 36.71057523 194.46486028 32.43952942 190.80732727 C30.65332906 188.27219064 29.30700302 185.80495833 28 183 C14.73213998 166.06082319 -4.16428307 156.91462025 -23.4375 148.5 C-24.63439453 147.97108154 -25.83128906 147.44216309 -27.06445312 146.8972168 C-34.38086632 143.770136 -34.38086632 143.770136 -42.16015625 142.40625 C-46 142 -46 142 -48.02734375 140.28125 C-49.88354619 135.92774709 -49.85070836 131.61509288 -49 127 C-46.5625 124.8125 -46.5625 124.8125 -43 123 C-33.35516972 115.76637729 -24.41093198 104.34742434 -22.5625 92.1015625 C-22.43875 91.11929688 -22.315 90.13703125 -22.1875 89.125 C-21.4598973 84.38896786 -21.4598973 84.38896786 -19.4296875 82.671875 C-17.5625 81.875 -17.5625 81.875 -14 81 C-10.94982014 80.34261079 -10.94982014 80.34261079 -9.9375 78.25 C-9.4734375 77.13625 -9.4734375 77.13625 -9 76 C-8.65534698 75.27283279 -8.31069397 74.54566559 -7.95559692 73.79646301 C-6.79309202 70.39450358 -6.75999376 67.60173068 -6.77294922 64.0065918 C-6.77265717 63.32311172 -6.77236511 62.63963165 -6.77206421 61.93544006 C-6.77345083 59.68990109 -6.78898013 57.44469933 -6.8046875 55.19921875 C-6.80842001 53.63694948 -6.81126586 52.07467785 -6.81326294 50.5124054 C-6.82088065 46.41064941 -6.84051304 42.3090362 -6.8626709 38.20733643 C-6.88316953 34.01780122 -6.89227323 29.82824283 -6.90234375 25.63867188 C-6.92376078 17.4257159 -6.95787412 9.21287574 -7 1 C-4.37437997 -0.31281002 -2.91374171 -0.41933671 0 0 Z " fill="#79AADB" transform="translate(340,202)"/>
<path d="M0 0 C16.76314423 4.98634634 32.79799019 18.78120105 41.23046875 33.87109375 C45.19363294 41.32813514 48.28406224 48.69538519 50 57 C50.35227843 58.68789519 50.70633864 60.37541987 51.0625 62.0625 C51.19785156 62.77535156 51.33320313 63.48820312 51.47265625 64.22265625 C51.91560231 66.23344434 51.91560231 66.23344434 54 68 C55.65 68.66 57.3 69.32 59 70 C59 76.27 59 82.54 59 89 C56.525 89.99 56.525 89.99 54 91 C51.37829097 93.62170903 51.74835775 94.80212641 51.7265625 98.453125 C51.7059375 99.54753906 51.6853125 100.64195312 51.6640625 101.76953125 C51.63819702 104.0741457 51.61986299 106.37885802 51.609375 108.68359375 C51.47447262 115.07646764 51.3172346 119.14208707 47 124 C46.484375 124.598125 45.96875 125.19625 45.4375 125.8125 C42.62214676 128.13822659 39.81124594 128.11981685 36.33203125 128.09765625 C35.43935547 128.09443359 34.54667969 128.09121094 33.62695312 128.08789062 C32.23379883 128.07532227 32.23379883 128.07532227 30.8125 128.0625 C29.87212891 128.05798828 28.93175781 128.05347656 27.96289062 128.04882812 C25.64186288 128.03704626 23.32096356 128.02059558 21 128 C20.9906543 127.04633545 20.98130859 126.0926709 20.97167969 125.11010742 C20.93179567 121.57057038 20.86604341 118.03190407 20.79248047 114.49291992 C20.76426122 112.96145822 20.74305131 111.42985061 20.72900391 109.89819336 C20.70758574 107.69569151 20.66094862 105.49494541 20.609375 103.29296875 C20.60753204 102.26625313 20.60753204 102.26625313 20.60565186 101.21879578 C20.50781566 98.04119319 20.37086698 96.3943526 18.15332031 94.03637695 C15.07052229 92.55264933 13.22940482 93.03804963 10 94 C1.93085438 102.06914562 6.36792137 116.59443749 6 128 C-39.87 128 -85.74 128 -133 128 C-133.33 117.77 -133.66 107.54 -134 97 C-134.66 96.01 -135.32 95.02 -136 94 C-141.06421015 93.31481901 -141.06421015 93.31481901 -145.59130859 95.08276367 C-147.72532336 97.98716887 -147.43893573 100.50785068 -147.51171875 104.07421875 C-147.52966995 104.7580513 -147.54762115 105.44188385 -147.56611633 106.1464386 C-147.62022075 108.32673 -147.6541134 110.50680256 -147.6875 112.6875 C-147.7206732 114.16734817 -147.75516287 115.64716745 -147.79101562 117.12695312 C-147.87594524 120.75109169 -147.94275635 124.37530652 -148 128 C-152.18696635 128.17518688 -156.37298335 128.28115483 -160.5625 128.375 C-161.74392578 128.42527344 -162.92535156 128.47554687 -164.14257812 128.52734375 C-174.00569422 128.69311041 -174.00569422 128.69311041 -178.27734375 125.1015625 C-181.75948883 121.52876766 -182.13143975 119.17588718 -182.17700195 114.21191406 C-182.18983719 112.99594543 -182.20267242 111.77997681 -182.21589661 110.52716064 C-182.22407256 109.18998627 -182.23151464 107.85280725 -182.23828125 106.515625 C-182.24235678 105.83988182 -182.2464323 105.16413864 -182.25063133 104.4679184 C-182.27151972 100.87916876 -182.28579956 97.29045747 -182.29516602 93.70166016 C-182.30613157 90.03041165 -182.3404058 86.35978602 -182.38033772 82.68875504 C-182.40678196 79.83845065 -182.41488294 76.98828698 -182.41844749 74.13787079 C-182.42556608 72.13855778 -182.45190204 70.13934201 -182.47883606 68.14019775 C-182.43513109 49.40979739 -175.39436412 33.07544019 -162.48339844 19.46289062 C-154.88254717 11.96712025 -143.01005966 1 -132 1 C-130.69897461 2.33691406 -130.69897461 2.33691406 -129.46484375 4.265625 C-125.58084185 9.80200447 -120.88006331 14.45613602 -116.10522461 19.21044922 C-114.56012355 20.75237156 -113.02889624 22.30722365 -111.49804688 23.86328125 C-110.5008111 24.86278908 -109.50279047 25.86151458 -108.50390625 26.859375 C-107.61517822 27.75108398 -106.7264502 28.64279297 -105.81079102 29.56152344 C-101.10379973 33.64503155 -96.54458889 36.79937617 -90.015625 36.36328125 C-80.78031426 34.69877757 -73.77376631 26.9890007 -67 21 C-62.10382335 23.05639419 -58.21977382 26.7028191 -54.1328125 30.01171875 C-49.18427503 33.97267256 -45.77518635 36.50431806 -39.13237 36.31448364 C-32.37180808 35.31743053 -27.25519431 30.85144669 -22.63671875 26.1328125 C-21.7987249 25.2970015 -21.7987249 25.2970015 -20.94380188 24.44430542 C-19.77531331 23.27416958 -18.61170907 22.09913721 -17.45288086 20.91943359 C-15.68670132 19.12418817 -13.90247728 17.34846977 -12.11523438 15.57421875 C-10.97544499 14.42819368 -9.83673489 13.28109397 -8.69921875 12.1328125 C-8.17108078 11.60761017 -7.64294281 11.08240784 -7.09880066 10.54129028 C-3.92760591 7.28875139 -1.81801938 4.15913163 0 0 Z " fill="#FBDC2D" transform="translate(322,369)"/>
<path d="M0 0 C1.18529297 0.03287109 1.18529297 0.03287109 2.39453125 0.06640625 C5.1875 0.4375 5.1875 0.4375 8.828125 1.44921875 C13.91509147 2.77342027 18.89593959 2.73044916 24.125 2.6875 C25.06279297 2.69523438 26.00058594 2.70296875 26.96679688 2.7109375 C32.27603871 2.69617936 37.06114634 2.18411887 42.21118164 0.90478516 C46.51578346 -0.11300457 50.82593911 -0.26173436 55.1875 0.4375 C58.08433868 2.6390974 59.58047231 4.22344462 61.1875 7.4375 C61.3059838 9.41045696 61.36656007 11.38702687 61.3984375 13.36328125 C61.42679687 14.55244141 61.45515625 15.74160156 61.484375 16.96679688 C61.53621334 19.47706868 61.58055638 21.98750711 61.6171875 24.49804688 C61.648125 25.69107422 61.6790625 26.88410156 61.7109375 28.11328125 C61.7406665 29.7516394 61.7406665 29.7516394 61.77099609 31.4230957 C62.37963052 35.82802494 63.99539947 38.4771968 67.4375 41.25 C71.76413661 43.11832035 75.4690971 43.07690573 79.875 41.4375 C81.0196875 40.9425 81.0196875 40.9425 82.1875 40.4375 C83.5075 40.4375 84.8275 40.4375 86.1875 40.4375 C86.24133848 42.89612401 86.28109038 45.3535755 86.3125 47.8125 C86.33763672 48.86050781 86.33763672 48.86050781 86.36328125 49.9296875 C86.38094267 51.76647486 86.29053261 53.60351963 86.1875 55.4375 C83.62078837 58.00421163 81.66924017 57.79276365 78.16015625 57.99609375 C75.54335457 58.58163551 74.72306419 59.23070116 73.1875 61.4375 C72.53244305 64.51836829 72.53244305 64.51836829 72.25 68 C70.68807293 80.3430334 66.00673757 90.70616177 56.3125 98.75 C52.15184103 101.8970849 47.98094675 104.39704632 43.1875 106.4375 C41.9190625 107.0253125 41.9190625 107.0253125 40.625 107.625 C27.72969627 111.92343458 14.46694282 110.05616367 2.60546875 104.15234375 C-9.03577975 97.73266908 -16.23487395 88.73672652 -20.5859375 76.2109375 C-21.55164642 72.69799635 -21.91445898 69.23843644 -22.1875 65.625 C-22.54477886 62.27536437 -22.54477886 62.27536437 -24.3125 59.4375 C-27.42975528 58.19059789 -30.25172517 58.07339837 -33.59375 58.0390625 C-37.01962009 57.11021744 -38.02634224 55.44258975 -39.8125 52.4375 C-40.203125 48.88671875 -40.203125 48.88671875 -40.0625 45.125 C-40.02640625 43.87074219 -39.9903125 42.61648438 -39.953125 41.32421875 C-39.90671875 40.37160156 -39.8603125 39.41898438 -39.8125 38.4375 C-39.19503906 38.64246094 -38.57757813 38.84742188 -37.94140625 39.05859375 C-27.78072069 42.43971985 -27.78072069 42.43971985 -17.4375 41.3125 C-14.57414881 39.26724915 -13.34204719 37.57709686 -11.8125 34.4375 C-11.4825 33.7775 -11.1525 33.1175 -10.8125 32.4375 C-10.71783138 30.46395273 -10.68064657 28.48751581 -10.671875 26.51171875 C-10.65253906 25.32255859 -10.63320312 24.13339844 -10.61328125 22.90820312 C-10.57958653 20.3979464 -10.5612102 17.88743461 -10.55859375 15.37695312 C-10.34881414 5.15847774 -10.34881414 5.15847774 -7.56640625 2.109375 C-4.68255216 0.35860968 -3.32797852 -0.16666774 0 0 Z " fill="#FEEBE2" transform="translate(232.8125,214.5625)"/>
<path d="M0 0 C9.11934585 0.03813774 18.23823582 0.09761613 27.35725403 0.18390274 C31.5921884 0.22331362 35.82691683 0.25553319 40.06201172 0.27099609 C44.15363413 0.28620513 48.24469013 0.32072493 52.33605957 0.36830902 C53.89240581 0.38307928 55.44883293 0.39103851 57.00524902 0.39188385 C72.24680048 0.4084789 72.24680048 0.4084789 79 5 C81.28515625 7.5859375 81.28515625 7.5859375 83.0625 10.375 C88.88918991 18.88831542 95.49407818 24.36138326 105.7734375 26.60546875 C106.50820312 26.73566406 107.24296875 26.86585937 108 27 C108.02685095 29.47923801 108.04676547 31.9581884 108.0625 34.4375 C108.07087891 35.14455078 108.07925781 35.85160156 108.08789062 36.58007812 C108.09653588 38.38693559 108.05220011 40.19387603 108 42 C106.1496801 43.8503199 103.57527918 43.29140132 101.10546875 43.42578125 C98.05960206 44.25647217 96.88738612 45.48211153 95 48 C94.34039571 51.24897606 94.34039571 51.24897606 94.1875 54.875 C93.0547967 66.43452776 88.03142574 76.23376733 79.37109375 84.10546875 C67.46739382 93.61666227 54.22041315 97.5858003 39 96 C27.0324459 93.55439342 15.51520552 86.70234411 8 77 C2.85164019 68.40028985 -0.07692483 60.24065832 -0.55859375 50.234375 C-1.09735147 47.50721205 -1.738175 46.59598438 -4 45 C-6.24265541 44.63882329 -8.37924099 44.62495628 -10.6484375 44.6015625 C-14.3176385 43.66292969 -15.74313915 42.00131147 -18 39 C-18.70649272 36.13990256 -18.7009969 33.43348023 -18.625 30.5 C-18.64433594 29.75363281 -18.66367188 29.00726563 -18.68359375 28.23828125 C-18.6470687 24.11095091 -18.30239514 22.40266852 -15.75 19.00390625 C-12.92543584 16.94566561 -11.7854859 16.43164006 -8.375 16.4375 C-6.10437709 16.51063098 -6.10437709 16.51063098 -4 16 C-0.88801248 12.79180986 -0.55041085 10.12755955 -0.3125 5.75 C-0.24675781 4.67234375 -0.18101563 3.5946875 -0.11328125 2.484375 C-0.07589844 1.66453125 -0.03851563 0.8446875 0 0 Z " fill="#FECABD" transform="translate(87,71)"/>
<path d="M0 0 C2.875 0.8125 2.875 0.8125 4.875 2.8125 C5.34784307 5.00949036 5.75477685 7.22090756 6.125 9.4375 C7.88625586 18.04123488 11.44514648 23.92994596 18.796875 28.84765625 C22.91876219 30.76138959 27.39717071 31.26997819 31.875 31.8125 C31.90184312 34.62506281 31.92176188 37.43737241 31.9375 40.25 C31.94587891 41.05244141 31.95425781 41.85488281 31.96289062 42.68164062 C31.9715143 44.72545221 31.9272815 46.76933902 31.875 48.8125 C29.83973721 50.84776279 25.98225794 50.68041601 23.22265625 51.1171875 C20.52517477 51.64361044 20.52517477 51.64361044 18.875 54.8125 C18.59084741 57.07711005 18.37092809 59.35001527 18.1875 61.625 C16.93630315 72.9008794 12.09409415 82.98971616 3.68359375 90.7734375 C-10.00568514 100.71196821 -23.48493019 103.18990741 -40.125 101.8125 C-44.64844246 100.79993024 -48.19501109 99.24366431 -52.125 96.8125 C-53.08664062 96.21953125 -54.04828125 95.6265625 -55.0390625 95.015625 C-64.36656569 88.73024549 -72.13755512 80.18393794 -74.52978516 68.90380859 C-75.06618138 66.04457198 -75.57783266 63.18703675 -75.99902344 60.30834961 C-76.4286933 57.57465773 -76.82530281 55.27848079 -78.3359375 52.9296875 C-81.69405909 50.83269454 -85.57839513 50.4365359 -89.41015625 49.65625 C-92.125 48.8125 -92.125 48.8125 -94.125 45.8125 C-94.26721065 43.21004502 -94.31302932 40.72132316 -94.25 38.125 C-94.24097656 37.42310547 -94.23195313 36.72121094 -94.22265625 35.99804688 C-94.19913704 34.26938475 -94.16326713 32.54089855 -94.125 30.8125 C-93.21322998 30.82297363 -92.30145996 30.83344727 -91.36206055 30.84423828 C-87.92713816 30.87865067 -84.49240323 30.90355769 -81.05737305 30.92236328 C-79.58045532 30.93232183 -78.10355678 30.94589361 -76.62670898 30.96337891 C-64.24954602 31.10607933 -53.28317559 30.23677397 -41.8125 25.25 C-40.9978125 24.89993896 -40.183125 24.54987793 -39.34375 24.18920898 C-28.22544438 19.25949714 -18.6883712 12.60940141 -9.4296875 4.7578125 C-3.54119798 -0.21247188 -3.54119798 -0.21247188 0 0 Z " fill="#FACEA1" transform="translate(411.125,63.1875)"/>
<path d="M0 0 C1.86223206 -0.02398109 1.86223206 -0.02398109 3.76208496 -0.04844666 C5.10375555 -0.05482265 6.44543112 -0.06021561 7.78710938 -0.06469727 C9.17663667 -0.07367462 10.56616303 -0.08279666 11.95568848 -0.09205627 C14.86061952 -0.10849633 17.76543595 -0.11623777 20.67041016 -0.11914062 C24.38287149 -0.12453295 28.09424916 -0.16226709 31.80640411 -0.20788479 C34.6735626 -0.23769591 37.54046065 -0.24486496 40.40776062 -0.24586678 C41.77606697 -0.25005772 43.1443749 -0.26244695 44.51252747 -0.28338432 C56.52071977 -0.45260064 56.52071977 -0.45260064 60.45605469 2.6965332 C62.60284488 5.27277783 63.44830087 6.59624987 63.88085938 9.86889648 C64.4951294 14.08834657 65.22311575 17.16260479 68.63085938 19.93139648 C72.14859518 21.54369206 75.4039956 22.02643443 79.22851562 22.48608398 C82.68657907 23.66688614 83.69244441 25.21912283 85.63085938 28.30639648 C85.97376737 31.2998358 86.10002593 33.90762259 86.02148438 36.88842773 C86.01582458 37.70260666 86.01016479 38.51678558 86.0043335 39.3556366 C85.98202712 41.94400001 85.93184382 44.53095489 85.88085938 47.11889648 C85.86078685 48.87864205 85.84253739 50.63840942 85.82617188 52.39819336 C85.78218145 56.70146653 85.71319564 61.00369309 85.63085938 65.30639648 C79.91601562 64.57641602 79.91601562 64.57641602 77.34960938 62.14624023 C75.44195303 58.99427169 74.7781756 56.48449829 74.13085938 52.86889648 C72.61899325 45.77352478 70.78397777 41.54650693 64.63085938 37.49389648 C59.6218616 34.47088806 54.46960443 33.41609139 48.63085938 34.30639648 C43.47922541 36.26109448 39.45571498 39.3412524 35.44335938 43.05639648 C19.42356568 57.82246719 -0.36305061 65.97381023 -22.11914062 65.49389648 C-23.89804687 65.47359375 -23.89804687 65.47359375 -25.71289062 65.45288086 C-28.59880755 65.41797057 -31.48371327 65.36894188 -34.36914062 65.30639648 C-34.49411053 60.25684316 -34.58411425 55.2082184 -34.64379883 50.1574707 C-34.66871645 48.4447458 -34.70266392 46.73212467 -34.74633789 45.01977539 C-35.05970198 32.40410588 -34.20766498 22.30407748 -26.18164062 11.93139648 C-19.19213296 4.60614828 -10.14278559 0.09920984 0 0 Z " fill="#776D78" transform="translate(356.369140625,14.693603515625)"/>
<path d="M0 0 C6.15511451 0.54743322 11.4195517 1.94043011 17.1875 4.125 C18.01902588 4.43775879 18.85055176 4.75051758 19.70727539 5.07275391 C42.7327922 13.94839994 62.10016698 28.88292208 72.3125 51.8125 C77.55652845 66.80243876 77.47455014 82.00477036 77.46875 97.6875 C77.47586578 100.0444354 77.48356681 102.4013691 77.49182129 104.75830078 C77.50518319 109.66655316 77.50686955 114.57464481 77.50097656 119.48291016 C77.49505007 125.76182486 77.52583301 132.03997445 77.56609344 138.31874084 C77.59195718 143.1727105 77.59484974 148.02649462 77.59120178 152.88052368 C77.59289034 155.19611555 77.60250727 157.51171622 77.62034607 159.82723999 C77.64253773 163.05982993 77.63283585 166.29085191 77.61523438 169.5234375 C77.62849762 170.4700676 77.64176086 171.41669769 77.65542603 172.39201355 C77.57445307 178.80833841 76.08719628 183.01673068 72 188 C66.93794373 192.70048082 63.00167142 193.14369442 56.3125 193.0625 C55.61060547 193.05798828 54.90871094 193.05347656 54.18554688 193.04882812 C52.45699462 193.03706927 50.72848635 193.01913454 49 193 C48.99761165 192.38691514 48.99522329 191.77383028 48.99276257 191.14216709 C48.93334112 176.14810452 48.85762098 161.15421745 48.76428509 146.16033268 C48.71952986 138.90906806 48.68006999 131.65785034 48.65356445 124.40649414 C48.63041853 118.07808069 48.5968398 111.74981822 48.55129844 105.42152494 C48.52758666 102.07805948 48.51027326 98.73487557 48.50238609 95.39131355 C48.42687384 66.29948244 45.37658492 43.60898012 24.63671875 21.53515625 C20.42894657 17.48946122 15.87232135 14.19507844 11 11 C9.62521484 10.06220703 9.62521484 10.06220703 8.22265625 9.10546875 C4.74960585 6.7819511 4.74960585 6.7819511 1 5 C-1.18480147 5.70428949 -1.18480147 5.70428949 -3 7 C-3.99 7.495 -3.99 7.495 -5 8 C-3.62845496 5.04590299 -2.01136276 2.55991624 0 0 Z " fill="#5D96D2" transform="translate(420,202)"/>
<path d="M0 0 C0.92031006 -0.0065712 1.84062012 -0.0131424 2.78881836 -0.01991272 C5.84838939 -0.03969775 8.90791124 -0.05131981 11.9675293 -0.0612793 C13.00971304 -0.06535482 14.05189678 -0.06943035 15.12566185 -0.07362938 C20.64155252 -0.09451228 26.15741815 -0.1088044 31.67333984 -0.11816406 C37.38011862 -0.12923355 43.08650799 -0.16363352 48.79314899 -0.20333576 C53.17256918 -0.22944292 57.55189578 -0.23785065 61.93138695 -0.24144554 C64.03537819 -0.24632674 66.13936484 -0.25798402 68.24328041 -0.27648354 C71.18594081 -0.30074957 74.12758335 -0.29993286 77.0703125 -0.29296875 C77.94268051 -0.30577881 78.81504852 -0.31858887 79.71385193 -0.33178711 C85.62206508 -0.28072208 85.62206508 -0.28072208 88.72209167 2.05622864 C90.34222777 4.33597973 91.49005074 6.55026772 92.60424805 9.11450195 C95.12992643 14.41608073 97.90099759 17.51287672 103.22924805 20.17700195 C105.46524601 20.37124888 107.69846103 20.49407081 109.94018555 20.6027832 C113.21385143 21.4239929 114.21869514 22.43825632 116.22924805 25.17700195 C116.790131 28.37184486 116.69423973 31.52021242 116.61987305 34.75512695 C116.61421326 35.68170105 116.60855347 36.60827515 116.60272217 37.56292725 C116.58035726 40.51814757 116.53016066 43.47214901 116.47924805 46.42700195 C116.45918319 48.43219276 116.4409324 50.4374026 116.42456055 52.44262695 C116.38049205 57.3545539 116.3114636 62.26557137 116.22924805 67.17700195 C108.71690495 64.84307012 105.07781718 61.60610565 100.79174805 55.17700195 C95.78131922 47.79840546 89.95015496 44.06088628 81.22924805 42.17700195 C76.61796943 41.81778067 72.02558594 41.77675112 67.40385437 41.79687691 C65.09004415 41.80608917 62.7770269 41.79565059 60.46325684 41.78025818 C53.89161202 41.74043198 47.32003661 41.73895322 40.74829102 41.74121094 C36.71121687 41.74126228 32.67457453 41.72197967 28.63761902 41.69187737 C26.37249769 41.68114279 24.10823231 41.69312471 21.84313965 41.70570374 C12.31001219 41.68134577 5.92274598 40.24582752 -2.02075195 35.05200195 C-9.8841197 26.8312084 -10.23432077 19.17562647 -10.11401367 8.22583008 C-9.89070103 -0.4380758 -8.49348045 0.02599851 0 0 Z " fill="#756C76" transform="translate(78.770751953125,15.822998046875)"/>
<path d="M0 0 C16.76314423 4.98634634 32.79799019 18.78120105 41.23046875 33.87109375 C45.19363294 41.32813514 48.28406224 48.69538519 50 57 C50.35227843 58.68789519 50.70633864 60.37541987 51.0625 62.0625 C51.26552734 63.13177734 51.26552734 63.13177734 51.47265625 64.22265625 C51.91560231 66.23344434 51.91560231 66.23344434 54 68 C55.65 68.66 57.3 69.32 59 70 C59 76.27 59 82.54 59 89 C56.525 89.99 56.525 89.99 54 91 C51.37829097 93.62170903 51.74835775 94.80212641 51.7265625 98.453125 C51.7059375 99.54753906 51.6853125 100.64195312 51.6640625 101.76953125 C51.63819702 104.0741457 51.61986299 106.37885802 51.609375 108.68359375 C51.47447262 115.07646764 51.3172346 119.14208707 47 124 C46.484375 124.598125 45.96875 125.19625 45.4375 125.8125 C42.74948121 128.03303726 40.09727181 128.12125725 36.76953125 128.09765625 C35.96708984 128.09443359 35.16464844 128.09121094 34.33789062 128.08789062 C33.50451172 128.07951172 32.67113281 128.07113281 31.8125 128.0625 C30.96751953 128.05798828 30.12253906 128.05347656 29.25195312 128.04882812 C27.16793845 128.03705403 25.08396023 128.0191189 23 128 C22.99120064 126.81301514 22.99120064 126.81301514 22.98222351 125.60205078 C22.92384318 118.07216822 22.85151656 110.54259964 22.76428509 103.01300049 C22.71993107 99.14378011 22.68060287 95.27465663 22.65356445 91.40527344 C22.62717623 87.65732512 22.58653742 83.90975703 22.53681374 80.16204834 C22.52038091 78.74628502 22.50872237 77.33045632 22.50238609 75.91461182 C22.37429588 49.87549568 14.68933718 29.83703043 -3.765625 11.21875 C-4.17296875 10.8165625 -4.5803125 10.414375 -5 10 C-3.33333333 6.66666667 -1.66666667 3.33333333 0 0 Z " fill="#F8D107" transform="translate(322,369)"/>
<path d="M0 0 C1.45489904 -0.00524437 2.90979468 -0.01152381 4.36468506 -0.01878357 C7.39725888 -0.02913594 10.42936183 -0.02469692 13.46191406 -0.01000977 C17.34149903 0.00724599 21.21961223 -0.01642515 25.09903336 -0.05149937 C28.0965957 -0.07347851 31.09380528 -0.07203214 34.09142303 -0.06373405 C35.5219256 -0.06291624 36.95245449 -0.06974727 38.38288116 -0.08450508 C40.38051417 -0.10197263 42.37836118 -0.08407609 44.37597656 -0.06469727 C45.51021057 -0.0637355 46.64444458 -0.06277374 47.81304932 -0.06178284 C51.80421031 0.76124268 53.30588362 2.46588614 55.859375 5.56640625 C56.64453125 7.84765625 56.64453125 7.84765625 56.921875 10.06640625 C57.65750431 14.19830543 58.77635329 16.57406165 61.859375 19.56640625 C65.35551665 21.59475847 68.69405758 22.17335858 72.640625 22.80859375 C75.71820086 23.85973762 76.88535796 24.9529549 78.859375 27.56640625 C79.20827586 30.59546602 79.32692256 33.24943912 79.25 36.26953125 C79.24434021 37.10732117 79.23868042 37.94511108 79.23284912 38.80828857 C79.21049829 41.47824791 79.16030598 44.14685412 79.109375 46.81640625 C79.08930825 48.62888684 79.07105778 50.44138851 79.0546875 52.25390625 C79.01063794 56.69192584 78.94162066 61.12893681 78.859375 65.56640625 C74.404375 66.55640625 74.404375 66.55640625 69.859375 67.56640625 C69.83359375 66.15488281 69.8078125 64.74335938 69.78125 63.2890625 C69.72492916 61.40231452 69.66758276 59.51559696 69.609375 57.62890625 C69.59519531 56.70271484 69.58101563 55.77652344 69.56640625 54.82226562 C69.24393959 45.63196595 66.49361121 38.04986436 59.859375 31.56640625 C53.56179401 26.42258056 45.67099293 26.92682827 37.93554688 27.33789062 C35.71288404 27.5825299 33.62866796 28.0441342 31.45703125 28.57421875 C26.67836539 29.71387696 22.13079334 29.86379094 17.234375 29.81640625 C16.42742187 29.82414062 15.62046875 29.831875 14.7890625 29.83984375 C9.77391709 29.82356081 5.69021196 29.02181484 0.859375 27.56640625 C-7.67919483 26.60639407 -14.91586234 26.67722103 -22.11328125 31.70703125 C-25.24982244 34.58370487 -27.29594777 37.75693327 -29.140625 41.56640625 C-29.470625 42.22640625 -29.800625 42.88640625 -30.140625 43.56640625 C-30.29406709 45.45113484 -30.39022071 47.34068499 -30.45703125 49.23046875 C-30.49892578 50.35195312 -30.54082031 51.4734375 -30.58398438 52.62890625 C-30.64295898 54.39234375 -30.64295898 54.39234375 -30.703125 56.19140625 C-30.74630859 57.37476563 -30.78949219 58.558125 -30.83398438 59.77734375 C-30.94029926 62.70690953 -31.04233142 65.63656213 -31.140625 68.56640625 C-32.62097264 68.09090064 -34.09987521 67.61089409 -35.578125 67.12890625 C-36.40183594 66.86207031 -37.22554687 66.59523438 -38.07421875 66.3203125 C-40.140625 65.56640625 -40.140625 65.56640625 -41.140625 64.56640625 C-41.36153921 60.02819727 -41.32641099 55.48421964 -41.32592773 50.94116211 C-41.32808637 48.66956045 -41.34615435 46.39846691 -41.36523438 44.12695312 C-41.41977698 30.64275676 -40.64044392 20.5032447 -31.0625 10.3671875 C-21.49584823 1.31900811 -12.94522444 -0.05706228 0 0 Z " fill="#766C77" transform="translate(239.140625,173.43359375)"/>
<path d="M0 0 C0.33 0 0.66 0 1 0 C1.22042969 1.37671875 1.22042969 1.37671875 1.4453125 2.78125 C3.20704944 12.42017857 5.62933676 18.58559318 13.1875 24.875 C17.6393334 27.85291558 22.78035533 28.36760182 28 29 C28.02684312 31.81256281 28.04676188 34.62487241 28.0625 37.4375 C28.07087891 38.23994141 28.07925781 39.04238281 28.08789062 39.86914062 C28.0965143 41.91295221 28.0522815 43.95683902 28 46 C25.96473721 48.03526279 22.10725794 47.86791601 19.34765625 48.3046875 C16.65017477 48.83111044 16.65017477 48.83111044 15 52 C14.71584741 54.26461005 14.49592809 56.53751527 14.3125 58.8125 C13.06175924 70.08426912 8.22369497 80.19265438 -0.19921875 87.9609375 C-7.00921822 92.91884506 -15.59176277 97.8267576 -24 99 C-23.360625 98.360625 -22.72125 97.72125 -22.0625 97.0625 C-21.37994141 96.36640625 -21.37994141 96.36640625 -20.68359375 95.65625 C-19.46060704 94.45312619 -18.19663077 93.29123313 -16.91015625 92.15625 C-7.7920354 83.80186919 -1.62897059 72.3326493 -0.78791809 59.85313416 C-0.67329598 56.0477685 -0.61827085 52.24420419 -0.5859375 48.4375 C-0.56719795 47.03644709 -0.54762252 45.63540514 -0.5272522 44.234375 C-0.47621892 40.57174173 -0.43644043 36.90907198 -0.39910889 33.24627686 C-0.35888714 29.49873038 -0.30787831 25.75133185 -0.2578125 22.00390625 C-0.16139497 14.66937282 -0.07688254 7.33476699 0 0 Z " fill="#FBB781" transform="translate(415,66)"/>
<path d="M0 0 C1.86978516 0.48919922 1.86978516 0.48919922 3.77734375 0.98828125 C9.39486656 2.23356658 14.83064341 2.25872647 20.5625 2.1875 C21.55185547 2.18685547 22.54121094 2.18621094 23.56054688 2.18554688 C29.12724567 2.15230183 34.4935738 1.81843433 40 1 C40.2475 2.155 40.495 3.31 40.75 4.5 C41.70503465 8.43167548 43.25720892 11.65897215 45.29296875 15.140625 C46.19930413 17.52413682 45.91082068 18.6462476 45 21 C39.3470875 27.68071477 31.65435332 32.38986903 22.88671875 33.3359375 C15.61477451 33.42472803 10.29181174 32.70631015 4 29 C2.906875 28.360625 1.81375 27.72125 0.6875 27.0625 C-2.12043943 24.90756974 -4.12196581 23.0048547 -6 20 C-5.55424376 16.96760191 -4.32506486 14.4301894 -3 11.6875 C-1.18513676 7.71584277 -0.36911162 4.33706151 0 0 Z " fill="#F7CCA0" transform="translate(360,177)"/>
<path d="M0 0 C2.55273807 2.5167748 4.81326583 5.03907913 7 7.875 C12.31374639 14.02836432 20.01465581 17.72760999 28 19 C28.02685095 21.47923801 28.04676547 23.9581884 28.0625 26.4375 C28.07087891 27.14455078 28.07925781 27.85160156 28.08789062 28.58007812 C28.09653588 30.38693559 28.05220011 32.19387603 28 34 C26.1496801 35.8503199 23.57527918 35.29140132 21.10546875 35.42578125 C18.05960206 36.25647217 16.88738612 37.48211153 15 40 C14.34039571 43.24897606 14.34039571 43.24897606 14.1875 46.875 C13.05469287 58.43558741 8.02947525 68.2169785 -0.6171875 76.1015625 C-7.5279133 81.60748502 -14.42376257 84.91980624 -23 87 C-23 86.34 -23 85.68 -23 85 C-21.68433783 83.94985695 -20.32014752 82.96023601 -18.9375 82 C-8.61721311 74.1786505 -3.10130889 62.5561041 -1 50 C-0.69138516 46.06168447 -0.62949778 42.13278696 -0.5859375 38.18359375 C-0.56657135 37.08652603 -0.5472052 35.98945831 -0.5272522 34.85914612 C-0.46789209 31.38534099 -0.42124616 27.91150194 -0.375 24.4375 C-0.3367801 22.06964771 -0.29772608 19.70180872 -0.2578125 17.33398438 C-0.16222677 11.55610848 -0.07705417 5.77815117 0 0 Z " fill="#FAAB9B" transform="translate(167,79)"/>
<path d="M0 0 C2.87785498 3.55194687 3.37593943 5.5107879 3.40625 10.12109375 C3.42816406 11.30380859 3.45007813 12.48652344 3.47265625 13.70507812 C3.48167969 14.93677734 3.49070312 16.16847656 3.5 17.4375 C3.51790481 19.87383254 3.5486638 22.31011262 3.59375 24.74609375 C3.60083984 25.82560303 3.60792969 26.9051123 3.61523438 28.01733398 C4.18271309 32.41637422 5.82026025 35.04965409 9.25 37.8125 C13.57663661 39.68082035 17.2815971 39.63940573 21.6875 38 C22.450625 37.67 23.21375 37.34 24 37 C25.32 37 26.64 37 28 37 C28.05383848 39.45862401 28.09359038 41.9160755 28.125 44.375 C28.14175781 45.07367188 28.15851563 45.77234375 28.17578125 46.4921875 C28.19344267 48.32897486 28.10303261 50.16601963 28 52 C25.43328837 54.56671163 23.48174017 54.35526365 19.97265625 54.55859375 C17.35585457 55.14413551 16.53556419 55.79320116 15 58 C14.34494305 61.08086829 14.34494305 61.08086829 14.0625 64.5625 C12.50057293 76.9055334 7.81923757 87.26866177 -1.875 95.3125 C-8.20630959 100.08708579 -14.33092287 103.08273072 -22 105 C-20.61148295 101.73663252 -19.10704742 100.08419557 -16.3125 97.9375 C-7.25305373 90.20984165 -1.81627103 78.98726121 -0.61004639 67.1842804 C-0.39846571 62.88975954 -0.39299281 58.59566371 -0.390625 54.296875 C-0.37560954 52.72217132 -0.35887546 51.14748318 -0.34051514 49.57281494 C-0.29720626 45.46957595 -0.27692454 41.36654922 -0.26177979 37.26312256 C-0.24207565 33.05940383 -0.20012161 28.85591003 -0.16015625 24.65234375 C-0.08525026 16.43495532 -0.0347206 8.21765613 0 0 Z " fill="#F9D6C7" transform="translate(291,218)"/>
<path d="M0 0 C2.19121252 2.19121252 2.98527341 4.00059122 4.25 6.8125 C6.84572382 12.14259165 9.6214178 15.3107089 15 18 C17.23599797 18.19424693 19.46921298 18.31706886 21.7109375 18.42578125 C24.98460338 19.24699095 25.98944709 20.26125436 28 23 C28.56088295 26.1948429 28.46499169 29.34321046 28.390625 32.578125 C28.38496521 33.5046991 28.37930542 34.43127319 28.37347412 35.38592529 C28.35110921 38.34114562 28.30091262 41.29514705 28.25 44.25 C28.22993515 46.2551908 28.21168435 48.26040064 28.1953125 50.265625 C28.151244 55.17755194 28.08221555 60.08856942 28 65 C20.48765691 62.66606817 16.84856913 59.42910369 12.5625 53 C9.49652999 48.4316367 6.66745901 45.87228247 2 43 C1.01 42.34 0.02 41.68 -1 41 C-1.19501281 37.87175721 -1.20564503 34.95470322 -1.07421875 31.8359375 C-1.04777786 30.92872955 -1.02133698 30.02152161 -0.99409485 29.08682251 C-0.90615109 26.18222562 -0.79706582 23.27885399 -0.6875 20.375 C-0.62425998 18.40889842 -0.56239331 16.44275214 -0.50195312 14.4765625 C-0.35058122 9.65037829 -0.18024223 4.82518878 0 0 Z " fill="#665C63" transform="translate(167,18)"/>
<path d="M0 0 C0.57363281 0.2165625 1.14726562 0.433125 1.73828125 0.65625 C13.90281765 4.64341216 27.45071198 3.64580826 40 2 C40.72638729 4.07710746 41.43053408 6.16200312 42.125 8.25 C42.71667969 9.99023438 42.71667969 9.99023438 43.3203125 11.765625 C44.08128738 15.3868158 43.91385003 16.00209142 42 19 C40.38354492 20.4921875 40.38354492 20.4921875 38.48046875 21.875 C37.78759766 22.38546875 37.09472656 22.8959375 36.38085938 23.421875 C35.65705078 23.94265625 34.93324219 24.4634375 34.1875 25 C32.76384217 26.04100953 31.34065443 27.08266229 29.91796875 28.125 C28.90935791 28.85976563 28.90935791 28.85976563 27.88037109 29.609375 C25.53526591 31.34369325 23.25823381 33.1543708 21 35 C16.58472926 33.54707727 13.68628928 31.27647565 10.1875 28.25 C5.58548212 24.31335126 0.90715538 20.55047125 -4 17 C-3.86722656 16.47921875 -3.73445312 15.9584375 -3.59765625 15.421875 C-2.8449883 12.37184799 -2.14166329 9.31157953 -1.4375 6.25 C-1.16808594 5.07953125 -0.89867187 3.9090625 -0.62109375 2.703125 C-0.41613281 1.81109375 -0.21117187 0.9190625 0 0 Z " fill="#FBE6DD" transform="translate(236,335)"/>
<path d="M0 0 C1.07701172 0.32484375 1.07701172 0.32484375 2.17578125 0.65625 C14.64324404 4.00988881 27.27613731 3.79904102 40 2 C40.8394882 4.10171867 41.67139656 6.20646625 42.5 8.3125 C42.9640625 9.48425781 43.428125 10.65601563 43.90625 11.86328125 C45 15 45 15 45 18 C40.51720927 23.40529429 33.98308657 27.34250941 27.03125 28.25976562 C16.58210215 29.18339566 7.73593679 28.39004273 -1 22 C-3.04145368 20.07557233 -4.43433739 18.34849392 -6 16 C-5.65066406 15.34773437 -5.30132812 14.69546875 -4.94140625 14.0234375 C-4.48636719 13.14945313 -4.03132813 12.27546875 -3.5625 11.375 C-3.11003906 10.51648438 -2.65757813 9.65796875 -2.19140625 8.7734375 C-0.92795818 5.83229608 -0.40376741 3.16516521 0 0 Z " fill="#FCC8BB" transform="translate(112,178)"/>
<path d="M0 0 C4.4784689 3.35885167 4.4784689 3.35885167 5.125 7.4375 C5.82567462 11.66299693 6.58152765 14.84749122 10 17.625 C13.5177358 19.23729558 16.77313623 19.72003794 20.59765625 20.1796875 C24.0557197 21.36048965 25.06158503 22.91272635 27 26 C27.342908 28.99343932 27.46916655 31.6012261 27.390625 34.58203125 C27.38496521 35.39621017 27.37930542 36.2103891 27.37347412 37.04924011 C27.35116774 39.63760353 27.30098445 42.2245584 27.25 44.8125 C27.22992747 46.57224556 27.21167802 48.33201293 27.1953125 50.09179688 C27.15132207 54.39507005 27.08233627 58.6972966 27 63 C21.28515625 62.27001953 21.28515625 62.27001953 18.71875 59.83984375 C16.81109366 56.6878752 16.14731622 54.1781018 15.5 50.5625 C14.25137333 44.7025431 13.14331042 40.30725466 8.10546875 36.609375 C4.84574818 34.50476877 1.48112207 32.70947959 -2 31 C-1.34 31 -0.68 31 0 31 C0 20.77 0 10.54 0 0 Z " fill="#675C64" transform="translate(415,17)"/>
<path d="M0 0 C4.44668008 4.44668008 4.44668008 4.44668008 5 8.4375 C5.77605372 12.57645318 6.90886279 14.99977859 10 18 C13.49614165 20.02835222 16.83468258 20.60695233 20.78125 21.2421875 C23.85882586 22.29333137 25.02598296 23.38654865 27 26 C27.34890086 29.02905977 27.46754756 31.68303287 27.390625 34.703125 C27.38496521 35.54091492 27.37930542 36.37870483 27.37347412 37.24188232 C27.35112329 39.91184166 27.30093098 42.58044787 27.25 45.25 C27.22993325 47.06248059 27.21168278 48.87498226 27.1953125 50.6875 C27.15126294 55.12551959 27.08224566 59.56253056 27 64 C22.545 64.99 22.545 64.99 18 66 C17.97421875 64.58847656 17.9484375 63.17695313 17.921875 61.72265625 C17.86555416 59.83590827 17.80820776 57.94919071 17.75 56.0625 C17.73582031 55.13630859 17.72164063 54.21011719 17.70703125 53.25585938 C17.38456459 44.0655597 14.63423621 36.48345811 8 30 C5.36 28.68 2.72 27.36 0 26 C0 17.42 0 8.84 0 0 Z " fill="#675D64" transform="translate(291,175)"/>
<path d="M0 0 C2.3359375 0.875 2.3359375 0.875 4.375 2 C5.06335938 2.37125 5.75171875 2.7425 6.4609375 3.125 C6.96882813 3.41375 7.47671875 3.7025 8 4 C6.42140174 7.84612073 3.97344745 10.24153346 1.02734375 13.1328125 C0.54423233 13.61072235 0.06112091 14.0886322 -0.43663025 14.58102417 C-1.97389041 16.10053614 -3.51769326 17.6131639 -5.0625 19.125 C-6.60997477 20.64484559 -8.15595926 22.16613419 -9.69908142 23.69039917 C-11.09570801 25.06918742 -12.49708323 26.44316065 -13.89868164 27.81689453 C-16.03259545 29.81680452 -16.03259545 29.81680452 -17 32 C-21.14062238 31.43805839 -23.59228139 29.1730478 -26.75 26.5625 C-28.22726562 25.35787109 -28.22726562 25.35787109 -29.734375 24.12890625 C-30.48203125 23.42636719 -31.2296875 22.72382813 -32 22 C-32 21.34 -32 20.68 -32 20 C-30.34501189 18.62084324 -28.62169626 17.32349612 -26.875 16.0625 C-23.26900487 13.45003791 -19.72403434 10.80609239 -16.296875 7.9609375 C-15.37865967 7.20671509 -15.37865967 7.20671509 -14.44189453 6.43725586 C-13.2512669 5.45445211 -12.06951374 4.46077437 -10.89794922 3.45532227 C-7.16370924 0.40454747 -4.80908393 -0.72924633 0 0 Z " fill="#F4BF00" transform="translate(300,359)"/>
<path d="M0 0 C2.85676314 1.72956353 5.30350533 3.86802574 7.8125 6.0625 C9.22472138 7.25584653 10.63747868 8.44855914 12.05078125 9.640625 C12.72705566 10.21876953 13.40333008 10.79691406 14.10009766 11.39257812 C16.51448528 13.43528284 18.99377466 15.38402136 21.5 17.3125 C22.1909375 17.84488281 22.881875 18.37726563 23.59375 18.92578125 C24.0578125 19.28027344 24.521875 19.63476562 25 20 C23.49650623 23.66786393 21.36271208 25.68910393 18.375 28.25 C17.14910156 29.30960937 17.14910156 29.30960937 15.8984375 30.390625 C14.95871094 31.18726563 14.95871094 31.18726563 14 32 C9.99482604 30.39626852 7.3228902 27.57886014 4.359375 24.5546875 C3.83232971 24.02481232 3.30528442 23.49493713 2.76226807 22.94900513 C1.08674325 21.26232175 -0.58167722 19.56880436 -2.25 17.875 C-3.38755851 16.72740612 -4.52557436 15.58026539 -5.6640625 14.43359375 C-8.44803465 11.62761863 -11.2256576 8.81549536 -14 6 C-13 3 -13 3 -9.8125 1.3125 C-6.43049741 -0.17619188 -3.6730527 -0.52093776 0 0 Z " fill="#F5C001" transform="translate(218,359)"/>
<path d="M0 0 C1.6254308 0.14095064 3.25034051 0.28792087 4.875 0.4375 C5.77992188 0.51871094 6.68484375 0.59992188 7.6171875 0.68359375 C10 1 10 1 12 2 C12 4.97 12 7.94 12 11 C5.07 7.04 5.07 7.04 -2 3 C-1.34 2.01 -0.68 1.02 0 0 Z " fill="#7CCB5F" transform="translate(171,202)"/>
<path d="M0 0 C2.24940295 -0.08119503 4.49964871 -0.13927819 6.75 -0.1875 C8.00296875 -0.22230469 9.2559375 -0.25710937 10.546875 -0.29296875 C14.14109357 0.01197061 15.44725126 0.54394629 18 3 C7.50105738 6.6185676 7.50105738 6.6185676 3.8671875 5.12109375 C2.25 3.75 2.25 3.75 0 1 C0 0.67 0 0.34 0 0 Z " fill="#77A6D6" transform="translate(321,183)"/>
<path d="M0 0 C0.99 1.32 1.98 2.64 3 4 C-2.28 5.32 -7.56 6.64 -13 8 C-7.62790698 -0.95348837 -7.62790698 -0.95348837 0 0 Z " fill="#90D276" transform="translate(89,182)"/>
</svg>
